%TF.GenerationSoftware,KiCad,Pcbnew,7.0.2*%
%TF.CreationDate,2024-06-24T19:43:42-07:00*%
%TF.ProjectId,Score-Board-LinInd,53636f72-652d-4426-9f61-72642d4c696e,1*%
%TF.SameCoordinates,Original*%
%TF.FileFunction,Legend,Top*%
%TF.FilePolarity,Positive*%
%FSLAX46Y46*%
G04 Gerber Fmt 4.6, Leading zero omitted, Abs format (unit mm)*
G04 Created by KiCad (PCBNEW 7.0.2) date 2024-06-24 19:43:42*
%MOMM*%
%LPD*%
G01*
G04 APERTURE LIST*
%ADD10C,0.152400*%
%ADD11C,0.150000*%
%ADD12C,0.120000*%
G04 APERTURE END LIST*
D10*
X68476023Y-92469360D02*
X68621166Y-92517740D01*
X68621166Y-92517740D02*
X68863071Y-92517740D01*
X68863071Y-92517740D02*
X68959833Y-92469360D01*
X68959833Y-92469360D02*
X69008214Y-92420979D01*
X69008214Y-92420979D02*
X69056595Y-92324217D01*
X69056595Y-92324217D02*
X69056595Y-92227455D01*
X69056595Y-92227455D02*
X69008214Y-92130693D01*
X69008214Y-92130693D02*
X68959833Y-92082312D01*
X68959833Y-92082312D02*
X68863071Y-92033931D01*
X68863071Y-92033931D02*
X68669547Y-91985550D01*
X68669547Y-91985550D02*
X68572785Y-91937169D01*
X68572785Y-91937169D02*
X68524404Y-91888788D01*
X68524404Y-91888788D02*
X68476023Y-91792026D01*
X68476023Y-91792026D02*
X68476023Y-91695264D01*
X68476023Y-91695264D02*
X68524404Y-91598502D01*
X68524404Y-91598502D02*
X68572785Y-91550121D01*
X68572785Y-91550121D02*
X68669547Y-91501740D01*
X68669547Y-91501740D02*
X68911452Y-91501740D01*
X68911452Y-91501740D02*
X69056595Y-91550121D01*
X69927452Y-92469360D02*
X69830690Y-92517740D01*
X69830690Y-92517740D02*
X69637166Y-92517740D01*
X69637166Y-92517740D02*
X69540404Y-92469360D01*
X69540404Y-92469360D02*
X69492023Y-92420979D01*
X69492023Y-92420979D02*
X69443642Y-92324217D01*
X69443642Y-92324217D02*
X69443642Y-92033931D01*
X69443642Y-92033931D02*
X69492023Y-91937169D01*
X69492023Y-91937169D02*
X69540404Y-91888788D01*
X69540404Y-91888788D02*
X69637166Y-91840407D01*
X69637166Y-91840407D02*
X69830690Y-91840407D01*
X69830690Y-91840407D02*
X69927452Y-91888788D01*
X70508023Y-92517740D02*
X70411261Y-92469360D01*
X70411261Y-92469360D02*
X70362880Y-92420979D01*
X70362880Y-92420979D02*
X70314499Y-92324217D01*
X70314499Y-92324217D02*
X70314499Y-92033931D01*
X70314499Y-92033931D02*
X70362880Y-91937169D01*
X70362880Y-91937169D02*
X70411261Y-91888788D01*
X70411261Y-91888788D02*
X70508023Y-91840407D01*
X70508023Y-91840407D02*
X70653166Y-91840407D01*
X70653166Y-91840407D02*
X70749928Y-91888788D01*
X70749928Y-91888788D02*
X70798309Y-91937169D01*
X70798309Y-91937169D02*
X70846690Y-92033931D01*
X70846690Y-92033931D02*
X70846690Y-92324217D01*
X70846690Y-92324217D02*
X70798309Y-92420979D01*
X70798309Y-92420979D02*
X70749928Y-92469360D01*
X70749928Y-92469360D02*
X70653166Y-92517740D01*
X70653166Y-92517740D02*
X70508023Y-92517740D01*
X71282118Y-92517740D02*
X71282118Y-91840407D01*
X71282118Y-92033931D02*
X71330499Y-91937169D01*
X71330499Y-91937169D02*
X71378880Y-91888788D01*
X71378880Y-91888788D02*
X71475642Y-91840407D01*
X71475642Y-91840407D02*
X71572404Y-91840407D01*
X72298118Y-92469360D02*
X72201356Y-92517740D01*
X72201356Y-92517740D02*
X72007832Y-92517740D01*
X72007832Y-92517740D02*
X71911070Y-92469360D01*
X71911070Y-92469360D02*
X71862689Y-92372598D01*
X71862689Y-92372598D02*
X71862689Y-91985550D01*
X71862689Y-91985550D02*
X71911070Y-91888788D01*
X71911070Y-91888788D02*
X72007832Y-91840407D01*
X72007832Y-91840407D02*
X72201356Y-91840407D01*
X72201356Y-91840407D02*
X72298118Y-91888788D01*
X72298118Y-91888788D02*
X72346499Y-91985550D01*
X72346499Y-91985550D02*
X72346499Y-92082312D01*
X72346499Y-92082312D02*
X71862689Y-92179074D01*
X72781927Y-92517740D02*
X72781927Y-91501740D01*
X72781927Y-91888788D02*
X72878689Y-91840407D01*
X72878689Y-91840407D02*
X73072213Y-91840407D01*
X73072213Y-91840407D02*
X73168975Y-91888788D01*
X73168975Y-91888788D02*
X73217356Y-91937169D01*
X73217356Y-91937169D02*
X73265737Y-92033931D01*
X73265737Y-92033931D02*
X73265737Y-92324217D01*
X73265737Y-92324217D02*
X73217356Y-92420979D01*
X73217356Y-92420979D02*
X73168975Y-92469360D01*
X73168975Y-92469360D02*
X73072213Y-92517740D01*
X73072213Y-92517740D02*
X72878689Y-92517740D01*
X72878689Y-92517740D02*
X72781927Y-92469360D01*
X73846308Y-92517740D02*
X73749546Y-92469360D01*
X73749546Y-92469360D02*
X73701165Y-92420979D01*
X73701165Y-92420979D02*
X73652784Y-92324217D01*
X73652784Y-92324217D02*
X73652784Y-92033931D01*
X73652784Y-92033931D02*
X73701165Y-91937169D01*
X73701165Y-91937169D02*
X73749546Y-91888788D01*
X73749546Y-91888788D02*
X73846308Y-91840407D01*
X73846308Y-91840407D02*
X73991451Y-91840407D01*
X73991451Y-91840407D02*
X74088213Y-91888788D01*
X74088213Y-91888788D02*
X74136594Y-91937169D01*
X74136594Y-91937169D02*
X74184975Y-92033931D01*
X74184975Y-92033931D02*
X74184975Y-92324217D01*
X74184975Y-92324217D02*
X74136594Y-92420979D01*
X74136594Y-92420979D02*
X74088213Y-92469360D01*
X74088213Y-92469360D02*
X73991451Y-92517740D01*
X73991451Y-92517740D02*
X73846308Y-92517740D01*
X75055832Y-92517740D02*
X75055832Y-91985550D01*
X75055832Y-91985550D02*
X75007451Y-91888788D01*
X75007451Y-91888788D02*
X74910689Y-91840407D01*
X74910689Y-91840407D02*
X74717165Y-91840407D01*
X74717165Y-91840407D02*
X74620403Y-91888788D01*
X75055832Y-92469360D02*
X74959070Y-92517740D01*
X74959070Y-92517740D02*
X74717165Y-92517740D01*
X74717165Y-92517740D02*
X74620403Y-92469360D01*
X74620403Y-92469360D02*
X74572022Y-92372598D01*
X74572022Y-92372598D02*
X74572022Y-92275836D01*
X74572022Y-92275836D02*
X74620403Y-92179074D01*
X74620403Y-92179074D02*
X74717165Y-92130693D01*
X74717165Y-92130693D02*
X74959070Y-92130693D01*
X74959070Y-92130693D02*
X75055832Y-92082312D01*
X75539641Y-92517740D02*
X75539641Y-91840407D01*
X75539641Y-92033931D02*
X75588022Y-91937169D01*
X75588022Y-91937169D02*
X75636403Y-91888788D01*
X75636403Y-91888788D02*
X75733165Y-91840407D01*
X75733165Y-91840407D02*
X75829927Y-91840407D01*
X76604022Y-92517740D02*
X76604022Y-91501740D01*
X76604022Y-92469360D02*
X76507260Y-92517740D01*
X76507260Y-92517740D02*
X76313736Y-92517740D01*
X76313736Y-92517740D02*
X76216974Y-92469360D01*
X76216974Y-92469360D02*
X76168593Y-92420979D01*
X76168593Y-92420979D02*
X76120212Y-92324217D01*
X76120212Y-92324217D02*
X76120212Y-92033931D01*
X76120212Y-92033931D02*
X76168593Y-91937169D01*
X76168593Y-91937169D02*
X76216974Y-91888788D01*
X76216974Y-91888788D02*
X76313736Y-91840407D01*
X76313736Y-91840407D02*
X76507260Y-91840407D01*
X76507260Y-91840407D02*
X76604022Y-91888788D01*
X77861926Y-92130693D02*
X78636022Y-92130693D01*
X80377736Y-92517740D02*
X79893926Y-92517740D01*
X79893926Y-92517740D02*
X79893926Y-91501740D01*
X80716402Y-92517740D02*
X80716402Y-91840407D01*
X80716402Y-91501740D02*
X80668021Y-91550121D01*
X80668021Y-91550121D02*
X80716402Y-91598502D01*
X80716402Y-91598502D02*
X80764783Y-91550121D01*
X80764783Y-91550121D02*
X80716402Y-91501740D01*
X80716402Y-91501740D02*
X80716402Y-91598502D01*
X81200212Y-91840407D02*
X81200212Y-92517740D01*
X81200212Y-91937169D02*
X81248593Y-91888788D01*
X81248593Y-91888788D02*
X81345355Y-91840407D01*
X81345355Y-91840407D02*
X81490498Y-91840407D01*
X81490498Y-91840407D02*
X81587260Y-91888788D01*
X81587260Y-91888788D02*
X81635641Y-91985550D01*
X81635641Y-91985550D02*
X81635641Y-92517740D01*
X82506498Y-92469360D02*
X82409736Y-92517740D01*
X82409736Y-92517740D02*
X82216212Y-92517740D01*
X82216212Y-92517740D02*
X82119450Y-92469360D01*
X82119450Y-92469360D02*
X82071069Y-92372598D01*
X82071069Y-92372598D02*
X82071069Y-91985550D01*
X82071069Y-91985550D02*
X82119450Y-91888788D01*
X82119450Y-91888788D02*
X82216212Y-91840407D01*
X82216212Y-91840407D02*
X82409736Y-91840407D01*
X82409736Y-91840407D02*
X82506498Y-91888788D01*
X82506498Y-91888788D02*
X82554879Y-91985550D01*
X82554879Y-91985550D02*
X82554879Y-92082312D01*
X82554879Y-92082312D02*
X82071069Y-92179074D01*
X83425736Y-92517740D02*
X83425736Y-91985550D01*
X83425736Y-91985550D02*
X83377355Y-91888788D01*
X83377355Y-91888788D02*
X83280593Y-91840407D01*
X83280593Y-91840407D02*
X83087069Y-91840407D01*
X83087069Y-91840407D02*
X82990307Y-91888788D01*
X83425736Y-92469360D02*
X83328974Y-92517740D01*
X83328974Y-92517740D02*
X83087069Y-92517740D01*
X83087069Y-92517740D02*
X82990307Y-92469360D01*
X82990307Y-92469360D02*
X82941926Y-92372598D01*
X82941926Y-92372598D02*
X82941926Y-92275836D01*
X82941926Y-92275836D02*
X82990307Y-92179074D01*
X82990307Y-92179074D02*
X83087069Y-92130693D01*
X83087069Y-92130693D02*
X83328974Y-92130693D01*
X83328974Y-92130693D02*
X83425736Y-92082312D01*
X83909545Y-92517740D02*
X83909545Y-91840407D01*
X83909545Y-92033931D02*
X83957926Y-91937169D01*
X83957926Y-91937169D02*
X84006307Y-91888788D01*
X84006307Y-91888788D02*
X84103069Y-91840407D01*
X84103069Y-91840407D02*
X84199831Y-91840407D01*
X85312592Y-92517740D02*
X85312592Y-91501740D01*
X85796402Y-91840407D02*
X85796402Y-92517740D01*
X85796402Y-91937169D02*
X85844783Y-91888788D01*
X85844783Y-91888788D02*
X85941545Y-91840407D01*
X85941545Y-91840407D02*
X86086688Y-91840407D01*
X86086688Y-91840407D02*
X86183450Y-91888788D01*
X86183450Y-91888788D02*
X86231831Y-91985550D01*
X86231831Y-91985550D02*
X86231831Y-92517740D01*
X87151069Y-92517740D02*
X87151069Y-91501740D01*
X87151069Y-92469360D02*
X87054307Y-92517740D01*
X87054307Y-92517740D02*
X86860783Y-92517740D01*
X86860783Y-92517740D02*
X86764021Y-92469360D01*
X86764021Y-92469360D02*
X86715640Y-92420979D01*
X86715640Y-92420979D02*
X86667259Y-92324217D01*
X86667259Y-92324217D02*
X86667259Y-92033931D01*
X86667259Y-92033931D02*
X86715640Y-91937169D01*
X86715640Y-91937169D02*
X86764021Y-91888788D01*
X86764021Y-91888788D02*
X86860783Y-91840407D01*
X86860783Y-91840407D02*
X87054307Y-91840407D01*
X87054307Y-91840407D02*
X87151069Y-91888788D01*
X87634878Y-92517740D02*
X87634878Y-91840407D01*
X87634878Y-91501740D02*
X87586497Y-91550121D01*
X87586497Y-91550121D02*
X87634878Y-91598502D01*
X87634878Y-91598502D02*
X87683259Y-91550121D01*
X87683259Y-91550121D02*
X87634878Y-91501740D01*
X87634878Y-91501740D02*
X87634878Y-91598502D01*
X88554117Y-92469360D02*
X88457355Y-92517740D01*
X88457355Y-92517740D02*
X88263831Y-92517740D01*
X88263831Y-92517740D02*
X88167069Y-92469360D01*
X88167069Y-92469360D02*
X88118688Y-92420979D01*
X88118688Y-92420979D02*
X88070307Y-92324217D01*
X88070307Y-92324217D02*
X88070307Y-92033931D01*
X88070307Y-92033931D02*
X88118688Y-91937169D01*
X88118688Y-91937169D02*
X88167069Y-91888788D01*
X88167069Y-91888788D02*
X88263831Y-91840407D01*
X88263831Y-91840407D02*
X88457355Y-91840407D01*
X88457355Y-91840407D02*
X88554117Y-91888788D01*
X89424974Y-92517740D02*
X89424974Y-91985550D01*
X89424974Y-91985550D02*
X89376593Y-91888788D01*
X89376593Y-91888788D02*
X89279831Y-91840407D01*
X89279831Y-91840407D02*
X89086307Y-91840407D01*
X89086307Y-91840407D02*
X88989545Y-91888788D01*
X89424974Y-92469360D02*
X89328212Y-92517740D01*
X89328212Y-92517740D02*
X89086307Y-92517740D01*
X89086307Y-92517740D02*
X88989545Y-92469360D01*
X88989545Y-92469360D02*
X88941164Y-92372598D01*
X88941164Y-92372598D02*
X88941164Y-92275836D01*
X88941164Y-92275836D02*
X88989545Y-92179074D01*
X88989545Y-92179074D02*
X89086307Y-92130693D01*
X89086307Y-92130693D02*
X89328212Y-92130693D01*
X89328212Y-92130693D02*
X89424974Y-92082312D01*
X89763640Y-91840407D02*
X90150688Y-91840407D01*
X89908783Y-91501740D02*
X89908783Y-92372598D01*
X89908783Y-92372598D02*
X89957164Y-92469360D01*
X89957164Y-92469360D02*
X90053926Y-92517740D01*
X90053926Y-92517740D02*
X90150688Y-92517740D01*
X90634497Y-92517740D02*
X90537735Y-92469360D01*
X90537735Y-92469360D02*
X90489354Y-92420979D01*
X90489354Y-92420979D02*
X90440973Y-92324217D01*
X90440973Y-92324217D02*
X90440973Y-92033931D01*
X90440973Y-92033931D02*
X90489354Y-91937169D01*
X90489354Y-91937169D02*
X90537735Y-91888788D01*
X90537735Y-91888788D02*
X90634497Y-91840407D01*
X90634497Y-91840407D02*
X90779640Y-91840407D01*
X90779640Y-91840407D02*
X90876402Y-91888788D01*
X90876402Y-91888788D02*
X90924783Y-91937169D01*
X90924783Y-91937169D02*
X90973164Y-92033931D01*
X90973164Y-92033931D02*
X90973164Y-92324217D01*
X90973164Y-92324217D02*
X90924783Y-92420979D01*
X90924783Y-92420979D02*
X90876402Y-92469360D01*
X90876402Y-92469360D02*
X90779640Y-92517740D01*
X90779640Y-92517740D02*
X90634497Y-92517740D01*
X91408592Y-92517740D02*
X91408592Y-91840407D01*
X91408592Y-92033931D02*
X91456973Y-91937169D01*
X91456973Y-91937169D02*
X91505354Y-91888788D01*
X91505354Y-91888788D02*
X91602116Y-91840407D01*
X91602116Y-91840407D02*
X91698878Y-91840407D01*
X91989163Y-92469360D02*
X92085925Y-92517740D01*
X92085925Y-92517740D02*
X92279449Y-92517740D01*
X92279449Y-92517740D02*
X92376211Y-92469360D01*
X92376211Y-92469360D02*
X92424592Y-92372598D01*
X92424592Y-92372598D02*
X92424592Y-92324217D01*
X92424592Y-92324217D02*
X92376211Y-92227455D01*
X92376211Y-92227455D02*
X92279449Y-92179074D01*
X92279449Y-92179074D02*
X92134306Y-92179074D01*
X92134306Y-92179074D02*
X92037544Y-92130693D01*
X92037544Y-92130693D02*
X91989163Y-92033931D01*
X91989163Y-92033931D02*
X91989163Y-91985550D01*
X91989163Y-91985550D02*
X92037544Y-91888788D01*
X92037544Y-91888788D02*
X92134306Y-91840407D01*
X92134306Y-91840407D02*
X92279449Y-91840407D01*
X92279449Y-91840407D02*
X92376211Y-91888788D01*
X93488972Y-91501740D02*
X93827639Y-92517740D01*
X93827639Y-92517740D02*
X94166306Y-91501740D01*
X95037163Y-92517740D02*
X94456591Y-92517740D01*
X94746877Y-92517740D02*
X94746877Y-91501740D01*
X94746877Y-91501740D02*
X94650115Y-91646883D01*
X94650115Y-91646883D02*
X94553353Y-91743645D01*
X94553353Y-91743645D02*
X94456591Y-91792026D01*
X95472591Y-92420979D02*
X95520972Y-92469360D01*
X95520972Y-92469360D02*
X95472591Y-92517740D01*
X95472591Y-92517740D02*
X95424210Y-92469360D01*
X95424210Y-92469360D02*
X95472591Y-92420979D01*
X95472591Y-92420979D02*
X95472591Y-92517740D01*
X96149925Y-91501740D02*
X96246687Y-91501740D01*
X96246687Y-91501740D02*
X96343449Y-91550121D01*
X96343449Y-91550121D02*
X96391830Y-91598502D01*
X96391830Y-91598502D02*
X96440211Y-91695264D01*
X96440211Y-91695264D02*
X96488592Y-91888788D01*
X96488592Y-91888788D02*
X96488592Y-92130693D01*
X96488592Y-92130693D02*
X96440211Y-92324217D01*
X96440211Y-92324217D02*
X96391830Y-92420979D01*
X96391830Y-92420979D02*
X96343449Y-92469360D01*
X96343449Y-92469360D02*
X96246687Y-92517740D01*
X96246687Y-92517740D02*
X96149925Y-92517740D01*
X96149925Y-92517740D02*
X96053163Y-92469360D01*
X96053163Y-92469360D02*
X96004782Y-92420979D01*
X96004782Y-92420979D02*
X95956401Y-92324217D01*
X95956401Y-92324217D02*
X95908020Y-92130693D01*
X95908020Y-92130693D02*
X95908020Y-91888788D01*
X95908020Y-91888788D02*
X95956401Y-91695264D01*
X95956401Y-91695264D02*
X96004782Y-91598502D01*
X96004782Y-91598502D02*
X96053163Y-91550121D01*
X96053163Y-91550121D02*
X96149925Y-91501740D01*
X69104976Y-94066899D02*
X69056595Y-94115280D01*
X69056595Y-94115280D02*
X68911452Y-94163660D01*
X68911452Y-94163660D02*
X68814690Y-94163660D01*
X68814690Y-94163660D02*
X68669547Y-94115280D01*
X68669547Y-94115280D02*
X68572785Y-94018518D01*
X68572785Y-94018518D02*
X68524404Y-93921756D01*
X68524404Y-93921756D02*
X68476023Y-93728232D01*
X68476023Y-93728232D02*
X68476023Y-93583089D01*
X68476023Y-93583089D02*
X68524404Y-93389565D01*
X68524404Y-93389565D02*
X68572785Y-93292803D01*
X68572785Y-93292803D02*
X68669547Y-93196041D01*
X68669547Y-93196041D02*
X68814690Y-93147660D01*
X68814690Y-93147660D02*
X68911452Y-93147660D01*
X68911452Y-93147660D02*
X69056595Y-93196041D01*
X69056595Y-93196041D02*
X69104976Y-93244422D01*
X69685547Y-94163660D02*
X69588785Y-94115280D01*
X69588785Y-94115280D02*
X69540404Y-94066899D01*
X69540404Y-94066899D02*
X69492023Y-93970137D01*
X69492023Y-93970137D02*
X69492023Y-93679851D01*
X69492023Y-93679851D02*
X69540404Y-93583089D01*
X69540404Y-93583089D02*
X69588785Y-93534708D01*
X69588785Y-93534708D02*
X69685547Y-93486327D01*
X69685547Y-93486327D02*
X69830690Y-93486327D01*
X69830690Y-93486327D02*
X69927452Y-93534708D01*
X69927452Y-93534708D02*
X69975833Y-93583089D01*
X69975833Y-93583089D02*
X70024214Y-93679851D01*
X70024214Y-93679851D02*
X70024214Y-93970137D01*
X70024214Y-93970137D02*
X69975833Y-94066899D01*
X69975833Y-94066899D02*
X69927452Y-94115280D01*
X69927452Y-94115280D02*
X69830690Y-94163660D01*
X69830690Y-94163660D02*
X69685547Y-94163660D01*
X70459642Y-93486327D02*
X70459642Y-94502327D01*
X70459642Y-93534708D02*
X70556404Y-93486327D01*
X70556404Y-93486327D02*
X70749928Y-93486327D01*
X70749928Y-93486327D02*
X70846690Y-93534708D01*
X70846690Y-93534708D02*
X70895071Y-93583089D01*
X70895071Y-93583089D02*
X70943452Y-93679851D01*
X70943452Y-93679851D02*
X70943452Y-93970137D01*
X70943452Y-93970137D02*
X70895071Y-94066899D01*
X70895071Y-94066899D02*
X70846690Y-94115280D01*
X70846690Y-94115280D02*
X70749928Y-94163660D01*
X70749928Y-94163660D02*
X70556404Y-94163660D01*
X70556404Y-94163660D02*
X70459642Y-94115280D01*
X71282118Y-93486327D02*
X71524023Y-94163660D01*
X71765928Y-93486327D02*
X71524023Y-94163660D01*
X71524023Y-94163660D02*
X71427261Y-94405565D01*
X71427261Y-94405565D02*
X71378880Y-94453946D01*
X71378880Y-94453946D02*
X71282118Y-94502327D01*
X72152975Y-94163660D02*
X72152975Y-93486327D01*
X72152975Y-93679851D02*
X72201356Y-93583089D01*
X72201356Y-93583089D02*
X72249737Y-93534708D01*
X72249737Y-93534708D02*
X72346499Y-93486327D01*
X72346499Y-93486327D02*
X72443261Y-93486327D01*
X72781927Y-94163660D02*
X72781927Y-93486327D01*
X72781927Y-93147660D02*
X72733546Y-93196041D01*
X72733546Y-93196041D02*
X72781927Y-93244422D01*
X72781927Y-93244422D02*
X72830308Y-93196041D01*
X72830308Y-93196041D02*
X72781927Y-93147660D01*
X72781927Y-93147660D02*
X72781927Y-93244422D01*
X73701166Y-93486327D02*
X73701166Y-94308803D01*
X73701166Y-94308803D02*
X73652785Y-94405565D01*
X73652785Y-94405565D02*
X73604404Y-94453946D01*
X73604404Y-94453946D02*
X73507642Y-94502327D01*
X73507642Y-94502327D02*
X73362499Y-94502327D01*
X73362499Y-94502327D02*
X73265737Y-94453946D01*
X73701166Y-94115280D02*
X73604404Y-94163660D01*
X73604404Y-94163660D02*
X73410880Y-94163660D01*
X73410880Y-94163660D02*
X73314118Y-94115280D01*
X73314118Y-94115280D02*
X73265737Y-94066899D01*
X73265737Y-94066899D02*
X73217356Y-93970137D01*
X73217356Y-93970137D02*
X73217356Y-93679851D01*
X73217356Y-93679851D02*
X73265737Y-93583089D01*
X73265737Y-93583089D02*
X73314118Y-93534708D01*
X73314118Y-93534708D02*
X73410880Y-93486327D01*
X73410880Y-93486327D02*
X73604404Y-93486327D01*
X73604404Y-93486327D02*
X73701166Y-93534708D01*
X74184975Y-94163660D02*
X74184975Y-93147660D01*
X74620404Y-94163660D02*
X74620404Y-93631470D01*
X74620404Y-93631470D02*
X74572023Y-93534708D01*
X74572023Y-93534708D02*
X74475261Y-93486327D01*
X74475261Y-93486327D02*
X74330118Y-93486327D01*
X74330118Y-93486327D02*
X74233356Y-93534708D01*
X74233356Y-93534708D02*
X74184975Y-93583089D01*
X74959070Y-93486327D02*
X75346118Y-93486327D01*
X75104213Y-93147660D02*
X75104213Y-94018518D01*
X75104213Y-94018518D02*
X75152594Y-94115280D01*
X75152594Y-94115280D02*
X75249356Y-94163660D01*
X75249356Y-94163660D02*
X75346118Y-94163660D01*
X76410498Y-93873375D02*
X76894308Y-93873375D01*
X76313736Y-94163660D02*
X76652403Y-93147660D01*
X76652403Y-93147660D02*
X76991070Y-94163660D01*
X77329736Y-93631470D02*
X77668403Y-93631470D01*
X77813546Y-94163660D02*
X77329736Y-94163660D01*
X77329736Y-94163660D02*
X77329736Y-93147660D01*
X77329736Y-93147660D02*
X77813546Y-93147660D01*
X78200593Y-94115280D02*
X78345736Y-94163660D01*
X78345736Y-94163660D02*
X78587641Y-94163660D01*
X78587641Y-94163660D02*
X78684403Y-94115280D01*
X78684403Y-94115280D02*
X78732784Y-94066899D01*
X78732784Y-94066899D02*
X78781165Y-93970137D01*
X78781165Y-93970137D02*
X78781165Y-93873375D01*
X78781165Y-93873375D02*
X78732784Y-93776613D01*
X78732784Y-93776613D02*
X78684403Y-93728232D01*
X78684403Y-93728232D02*
X78587641Y-93679851D01*
X78587641Y-93679851D02*
X78394117Y-93631470D01*
X78394117Y-93631470D02*
X78297355Y-93583089D01*
X78297355Y-93583089D02*
X78248974Y-93534708D01*
X78248974Y-93534708D02*
X78200593Y-93437946D01*
X78200593Y-93437946D02*
X78200593Y-93341184D01*
X78200593Y-93341184D02*
X78248974Y-93244422D01*
X78248974Y-93244422D02*
X78297355Y-93196041D01*
X78297355Y-93196041D02*
X78394117Y-93147660D01*
X78394117Y-93147660D02*
X78636022Y-93147660D01*
X78636022Y-93147660D02*
X78781165Y-93196041D01*
X79216593Y-94163660D02*
X79216593Y-93486327D01*
X79216593Y-93147660D02*
X79168212Y-93196041D01*
X79168212Y-93196041D02*
X79216593Y-93244422D01*
X79216593Y-93244422D02*
X79264974Y-93196041D01*
X79264974Y-93196041D02*
X79216593Y-93147660D01*
X79216593Y-93147660D02*
X79216593Y-93244422D01*
X79845546Y-94163660D02*
X79748784Y-94115280D01*
X79748784Y-94115280D02*
X79700403Y-94018518D01*
X79700403Y-94018518D02*
X79700403Y-93147660D01*
X80232593Y-94163660D02*
X80232593Y-93147660D01*
X80329355Y-93776613D02*
X80619641Y-94163660D01*
X80619641Y-93486327D02*
X80232593Y-93873375D01*
X80958307Y-93486327D02*
X81200212Y-94163660D01*
X81442117Y-93486327D02*
X81200212Y-94163660D01*
X81200212Y-94163660D02*
X81103450Y-94405565D01*
X81103450Y-94405565D02*
X81055069Y-94453946D01*
X81055069Y-94453946D02*
X80958307Y-94502327D01*
X82554878Y-93244422D02*
X82603259Y-93196041D01*
X82603259Y-93196041D02*
X82700021Y-93147660D01*
X82700021Y-93147660D02*
X82941926Y-93147660D01*
X82941926Y-93147660D02*
X83038688Y-93196041D01*
X83038688Y-93196041D02*
X83087069Y-93244422D01*
X83087069Y-93244422D02*
X83135450Y-93341184D01*
X83135450Y-93341184D02*
X83135450Y-93437946D01*
X83135450Y-93437946D02*
X83087069Y-93583089D01*
X83087069Y-93583089D02*
X82506497Y-94163660D01*
X82506497Y-94163660D02*
X83135450Y-94163660D01*
X83764402Y-93147660D02*
X83861164Y-93147660D01*
X83861164Y-93147660D02*
X83957926Y-93196041D01*
X83957926Y-93196041D02*
X84006307Y-93244422D01*
X84006307Y-93244422D02*
X84054688Y-93341184D01*
X84054688Y-93341184D02*
X84103069Y-93534708D01*
X84103069Y-93534708D02*
X84103069Y-93776613D01*
X84103069Y-93776613D02*
X84054688Y-93970137D01*
X84054688Y-93970137D02*
X84006307Y-94066899D01*
X84006307Y-94066899D02*
X83957926Y-94115280D01*
X83957926Y-94115280D02*
X83861164Y-94163660D01*
X83861164Y-94163660D02*
X83764402Y-94163660D01*
X83764402Y-94163660D02*
X83667640Y-94115280D01*
X83667640Y-94115280D02*
X83619259Y-94066899D01*
X83619259Y-94066899D02*
X83570878Y-93970137D01*
X83570878Y-93970137D02*
X83522497Y-93776613D01*
X83522497Y-93776613D02*
X83522497Y-93534708D01*
X83522497Y-93534708D02*
X83570878Y-93341184D01*
X83570878Y-93341184D02*
X83619259Y-93244422D01*
X83619259Y-93244422D02*
X83667640Y-93196041D01*
X83667640Y-93196041D02*
X83764402Y-93147660D01*
X84490116Y-93244422D02*
X84538497Y-93196041D01*
X84538497Y-93196041D02*
X84635259Y-93147660D01*
X84635259Y-93147660D02*
X84877164Y-93147660D01*
X84877164Y-93147660D02*
X84973926Y-93196041D01*
X84973926Y-93196041D02*
X85022307Y-93244422D01*
X85022307Y-93244422D02*
X85070688Y-93341184D01*
X85070688Y-93341184D02*
X85070688Y-93437946D01*
X85070688Y-93437946D02*
X85022307Y-93583089D01*
X85022307Y-93583089D02*
X84441735Y-94163660D01*
X84441735Y-94163660D02*
X85070688Y-94163660D01*
X85941545Y-93486327D02*
X85941545Y-94163660D01*
X85699640Y-93099280D02*
X85457735Y-93824994D01*
X85457735Y-93824994D02*
X86086688Y-93824994D01*
D11*
X102694880Y-121053476D02*
X103694880Y-121053476D01*
X103694880Y-121053476D02*
X102694880Y-121624904D01*
X102694880Y-121624904D02*
X103694880Y-121624904D01*
X102790119Y-122672523D02*
X102742500Y-122624904D01*
X102742500Y-122624904D02*
X102694880Y-122482047D01*
X102694880Y-122482047D02*
X102694880Y-122386809D01*
X102694880Y-122386809D02*
X102742500Y-122243952D01*
X102742500Y-122243952D02*
X102837738Y-122148714D01*
X102837738Y-122148714D02*
X102932976Y-122101095D01*
X102932976Y-122101095D02*
X103123452Y-122053476D01*
X103123452Y-122053476D02*
X103266309Y-122053476D01*
X103266309Y-122053476D02*
X103456785Y-122101095D01*
X103456785Y-122101095D02*
X103552023Y-122148714D01*
X103552023Y-122148714D02*
X103647261Y-122243952D01*
X103647261Y-122243952D02*
X103694880Y-122386809D01*
X103694880Y-122386809D02*
X103694880Y-122482047D01*
X103694880Y-122482047D02*
X103647261Y-122624904D01*
X103647261Y-122624904D02*
X103599642Y-122672523D01*
X100154880Y-120577286D02*
X101154880Y-120577286D01*
X100154880Y-121053476D02*
X101154880Y-121053476D01*
X101154880Y-121053476D02*
X100154880Y-121624904D01*
X100154880Y-121624904D02*
X101154880Y-121624904D01*
X100154880Y-122101095D02*
X101154880Y-122101095D01*
X101154880Y-122101095D02*
X101154880Y-122339190D01*
X101154880Y-122339190D02*
X101107261Y-122482047D01*
X101107261Y-122482047D02*
X101012023Y-122577285D01*
X101012023Y-122577285D02*
X100916785Y-122624904D01*
X100916785Y-122624904D02*
X100726309Y-122672523D01*
X100726309Y-122672523D02*
X100583452Y-122672523D01*
X100583452Y-122672523D02*
X100392976Y-122624904D01*
X100392976Y-122624904D02*
X100297738Y-122577285D01*
X100297738Y-122577285D02*
X100202500Y-122482047D01*
X100202500Y-122482047D02*
X100154880Y-122339190D01*
X100154880Y-122339190D02*
X100154880Y-122101095D01*
X97710119Y-120767761D02*
X97662500Y-120720142D01*
X97662500Y-120720142D02*
X97614880Y-120577285D01*
X97614880Y-120577285D02*
X97614880Y-120482047D01*
X97614880Y-120482047D02*
X97662500Y-120339190D01*
X97662500Y-120339190D02*
X97757738Y-120243952D01*
X97757738Y-120243952D02*
X97852976Y-120196333D01*
X97852976Y-120196333D02*
X98043452Y-120148714D01*
X98043452Y-120148714D02*
X98186309Y-120148714D01*
X98186309Y-120148714D02*
X98376785Y-120196333D01*
X98376785Y-120196333D02*
X98472023Y-120243952D01*
X98472023Y-120243952D02*
X98567261Y-120339190D01*
X98567261Y-120339190D02*
X98614880Y-120482047D01*
X98614880Y-120482047D02*
X98614880Y-120577285D01*
X98614880Y-120577285D02*
X98567261Y-120720142D01*
X98567261Y-120720142D02*
X98519642Y-120767761D01*
X98614880Y-121386809D02*
X98614880Y-121482047D01*
X98614880Y-121482047D02*
X98567261Y-121577285D01*
X98567261Y-121577285D02*
X98519642Y-121624904D01*
X98519642Y-121624904D02*
X98424404Y-121672523D01*
X98424404Y-121672523D02*
X98233928Y-121720142D01*
X98233928Y-121720142D02*
X97995833Y-121720142D01*
X97995833Y-121720142D02*
X97805357Y-121672523D01*
X97805357Y-121672523D02*
X97710119Y-121624904D01*
X97710119Y-121624904D02*
X97662500Y-121577285D01*
X97662500Y-121577285D02*
X97614880Y-121482047D01*
X97614880Y-121482047D02*
X97614880Y-121386809D01*
X97614880Y-121386809D02*
X97662500Y-121291571D01*
X97662500Y-121291571D02*
X97710119Y-121243952D01*
X97710119Y-121243952D02*
X97805357Y-121196333D01*
X97805357Y-121196333D02*
X97995833Y-121148714D01*
X97995833Y-121148714D02*
X98233928Y-121148714D01*
X98233928Y-121148714D02*
X98424404Y-121196333D01*
X98424404Y-121196333D02*
X98519642Y-121243952D01*
X98519642Y-121243952D02*
X98567261Y-121291571D01*
X98567261Y-121291571D02*
X98614880Y-121386809D01*
X97614880Y-122672523D02*
X97614880Y-122101095D01*
X97614880Y-122386809D02*
X98614880Y-122386809D01*
X98614880Y-122386809D02*
X98472023Y-122291571D01*
X98472023Y-122291571D02*
X98376785Y-122196333D01*
X98376785Y-122196333D02*
X98329166Y-122101095D01*
X95170119Y-120767761D02*
X95122500Y-120720142D01*
X95122500Y-120720142D02*
X95074880Y-120577285D01*
X95074880Y-120577285D02*
X95074880Y-120482047D01*
X95074880Y-120482047D02*
X95122500Y-120339190D01*
X95122500Y-120339190D02*
X95217738Y-120243952D01*
X95217738Y-120243952D02*
X95312976Y-120196333D01*
X95312976Y-120196333D02*
X95503452Y-120148714D01*
X95503452Y-120148714D02*
X95646309Y-120148714D01*
X95646309Y-120148714D02*
X95836785Y-120196333D01*
X95836785Y-120196333D02*
X95932023Y-120243952D01*
X95932023Y-120243952D02*
X96027261Y-120339190D01*
X96027261Y-120339190D02*
X96074880Y-120482047D01*
X96074880Y-120482047D02*
X96074880Y-120577285D01*
X96074880Y-120577285D02*
X96027261Y-120720142D01*
X96027261Y-120720142D02*
X95979642Y-120767761D01*
X95074880Y-121720142D02*
X95074880Y-121148714D01*
X95074880Y-121434428D02*
X96074880Y-121434428D01*
X96074880Y-121434428D02*
X95932023Y-121339190D01*
X95932023Y-121339190D02*
X95836785Y-121243952D01*
X95836785Y-121243952D02*
X95789166Y-121148714D01*
X96074880Y-122339190D02*
X96074880Y-122434428D01*
X96074880Y-122434428D02*
X96027261Y-122529666D01*
X96027261Y-122529666D02*
X95979642Y-122577285D01*
X95979642Y-122577285D02*
X95884404Y-122624904D01*
X95884404Y-122624904D02*
X95693928Y-122672523D01*
X95693928Y-122672523D02*
X95455833Y-122672523D01*
X95455833Y-122672523D02*
X95265357Y-122624904D01*
X95265357Y-122624904D02*
X95170119Y-122577285D01*
X95170119Y-122577285D02*
X95122500Y-122529666D01*
X95122500Y-122529666D02*
X95074880Y-122434428D01*
X95074880Y-122434428D02*
X95074880Y-122339190D01*
X95074880Y-122339190D02*
X95122500Y-122243952D01*
X95122500Y-122243952D02*
X95170119Y-122196333D01*
X95170119Y-122196333D02*
X95265357Y-122148714D01*
X95265357Y-122148714D02*
X95455833Y-122101095D01*
X95455833Y-122101095D02*
X95693928Y-122101095D01*
X95693928Y-122101095D02*
X95884404Y-122148714D01*
X95884404Y-122148714D02*
X95979642Y-122196333D01*
X95979642Y-122196333D02*
X96027261Y-122243952D01*
X96027261Y-122243952D02*
X96074880Y-122339190D01*
X93058690Y-120529666D02*
X93011071Y-120672523D01*
X93011071Y-120672523D02*
X92963452Y-120720142D01*
X92963452Y-120720142D02*
X92868214Y-120767761D01*
X92868214Y-120767761D02*
X92725357Y-120767761D01*
X92725357Y-120767761D02*
X92630119Y-120720142D01*
X92630119Y-120720142D02*
X92582500Y-120672523D01*
X92582500Y-120672523D02*
X92534880Y-120577285D01*
X92534880Y-120577285D02*
X92534880Y-120196333D01*
X92534880Y-120196333D02*
X93534880Y-120196333D01*
X93534880Y-120196333D02*
X93534880Y-120529666D01*
X93534880Y-120529666D02*
X93487261Y-120624904D01*
X93487261Y-120624904D02*
X93439642Y-120672523D01*
X93439642Y-120672523D02*
X93344404Y-120720142D01*
X93344404Y-120720142D02*
X93249166Y-120720142D01*
X93249166Y-120720142D02*
X93153928Y-120672523D01*
X93153928Y-120672523D02*
X93106309Y-120624904D01*
X93106309Y-120624904D02*
X93058690Y-120529666D01*
X93058690Y-120529666D02*
X93058690Y-120196333D01*
X93534880Y-121386809D02*
X93534880Y-121482047D01*
X93534880Y-121482047D02*
X93487261Y-121577285D01*
X93487261Y-121577285D02*
X93439642Y-121624904D01*
X93439642Y-121624904D02*
X93344404Y-121672523D01*
X93344404Y-121672523D02*
X93153928Y-121720142D01*
X93153928Y-121720142D02*
X92915833Y-121720142D01*
X92915833Y-121720142D02*
X92725357Y-121672523D01*
X92725357Y-121672523D02*
X92630119Y-121624904D01*
X92630119Y-121624904D02*
X92582500Y-121577285D01*
X92582500Y-121577285D02*
X92534880Y-121482047D01*
X92534880Y-121482047D02*
X92534880Y-121386809D01*
X92534880Y-121386809D02*
X92582500Y-121291571D01*
X92582500Y-121291571D02*
X92630119Y-121243952D01*
X92630119Y-121243952D02*
X92725357Y-121196333D01*
X92725357Y-121196333D02*
X92915833Y-121148714D01*
X92915833Y-121148714D02*
X93153928Y-121148714D01*
X93153928Y-121148714D02*
X93344404Y-121196333D01*
X93344404Y-121196333D02*
X93439642Y-121243952D01*
X93439642Y-121243952D02*
X93487261Y-121291571D01*
X93487261Y-121291571D02*
X93534880Y-121386809D01*
X92534880Y-122672523D02*
X92534880Y-122101095D01*
X92534880Y-122386809D02*
X93534880Y-122386809D01*
X93534880Y-122386809D02*
X93392023Y-122291571D01*
X93392023Y-122291571D02*
X93296785Y-122196333D01*
X93296785Y-122196333D02*
X93249166Y-122101095D01*
X90518690Y-120529666D02*
X90471071Y-120672523D01*
X90471071Y-120672523D02*
X90423452Y-120720142D01*
X90423452Y-120720142D02*
X90328214Y-120767761D01*
X90328214Y-120767761D02*
X90185357Y-120767761D01*
X90185357Y-120767761D02*
X90090119Y-120720142D01*
X90090119Y-120720142D02*
X90042500Y-120672523D01*
X90042500Y-120672523D02*
X89994880Y-120577285D01*
X89994880Y-120577285D02*
X89994880Y-120196333D01*
X89994880Y-120196333D02*
X90994880Y-120196333D01*
X90994880Y-120196333D02*
X90994880Y-120529666D01*
X90994880Y-120529666D02*
X90947261Y-120624904D01*
X90947261Y-120624904D02*
X90899642Y-120672523D01*
X90899642Y-120672523D02*
X90804404Y-120720142D01*
X90804404Y-120720142D02*
X90709166Y-120720142D01*
X90709166Y-120720142D02*
X90613928Y-120672523D01*
X90613928Y-120672523D02*
X90566309Y-120624904D01*
X90566309Y-120624904D02*
X90518690Y-120529666D01*
X90518690Y-120529666D02*
X90518690Y-120196333D01*
X89994880Y-121720142D02*
X89994880Y-121148714D01*
X89994880Y-121434428D02*
X90994880Y-121434428D01*
X90994880Y-121434428D02*
X90852023Y-121339190D01*
X90852023Y-121339190D02*
X90756785Y-121243952D01*
X90756785Y-121243952D02*
X90709166Y-121148714D01*
X90994880Y-122339190D02*
X90994880Y-122434428D01*
X90994880Y-122434428D02*
X90947261Y-122529666D01*
X90947261Y-122529666D02*
X90899642Y-122577285D01*
X90899642Y-122577285D02*
X90804404Y-122624904D01*
X90804404Y-122624904D02*
X90613928Y-122672523D01*
X90613928Y-122672523D02*
X90375833Y-122672523D01*
X90375833Y-122672523D02*
X90185357Y-122624904D01*
X90185357Y-122624904D02*
X90090119Y-122577285D01*
X90090119Y-122577285D02*
X90042500Y-122529666D01*
X90042500Y-122529666D02*
X89994880Y-122434428D01*
X89994880Y-122434428D02*
X89994880Y-122339190D01*
X89994880Y-122339190D02*
X90042500Y-122243952D01*
X90042500Y-122243952D02*
X90090119Y-122196333D01*
X90090119Y-122196333D02*
X90185357Y-122148714D01*
X90185357Y-122148714D02*
X90375833Y-122101095D01*
X90375833Y-122101095D02*
X90613928Y-122101095D01*
X90613928Y-122101095D02*
X90804404Y-122148714D01*
X90804404Y-122148714D02*
X90899642Y-122196333D01*
X90899642Y-122196333D02*
X90947261Y-122243952D01*
X90947261Y-122243952D02*
X90994880Y-122339190D01*
X87740595Y-120291571D02*
X87740595Y-120767761D01*
X87454880Y-120196333D02*
X88454880Y-120529666D01*
X88454880Y-120529666D02*
X87454880Y-120862999D01*
X88454880Y-121386809D02*
X88454880Y-121482047D01*
X88454880Y-121482047D02*
X88407261Y-121577285D01*
X88407261Y-121577285D02*
X88359642Y-121624904D01*
X88359642Y-121624904D02*
X88264404Y-121672523D01*
X88264404Y-121672523D02*
X88073928Y-121720142D01*
X88073928Y-121720142D02*
X87835833Y-121720142D01*
X87835833Y-121720142D02*
X87645357Y-121672523D01*
X87645357Y-121672523D02*
X87550119Y-121624904D01*
X87550119Y-121624904D02*
X87502500Y-121577285D01*
X87502500Y-121577285D02*
X87454880Y-121482047D01*
X87454880Y-121482047D02*
X87454880Y-121386809D01*
X87454880Y-121386809D02*
X87502500Y-121291571D01*
X87502500Y-121291571D02*
X87550119Y-121243952D01*
X87550119Y-121243952D02*
X87645357Y-121196333D01*
X87645357Y-121196333D02*
X87835833Y-121148714D01*
X87835833Y-121148714D02*
X88073928Y-121148714D01*
X88073928Y-121148714D02*
X88264404Y-121196333D01*
X88264404Y-121196333D02*
X88359642Y-121243952D01*
X88359642Y-121243952D02*
X88407261Y-121291571D01*
X88407261Y-121291571D02*
X88454880Y-121386809D01*
X87454880Y-122672523D02*
X87454880Y-122101095D01*
X87454880Y-122386809D02*
X88454880Y-122386809D01*
X88454880Y-122386809D02*
X88312023Y-122291571D01*
X88312023Y-122291571D02*
X88216785Y-122196333D01*
X88216785Y-122196333D02*
X88169166Y-122101095D01*
X85200595Y-120291571D02*
X85200595Y-120767761D01*
X84914880Y-120196333D02*
X85914880Y-120529666D01*
X85914880Y-120529666D02*
X84914880Y-120862999D01*
X84914880Y-121720142D02*
X84914880Y-121148714D01*
X84914880Y-121434428D02*
X85914880Y-121434428D01*
X85914880Y-121434428D02*
X85772023Y-121339190D01*
X85772023Y-121339190D02*
X85676785Y-121243952D01*
X85676785Y-121243952D02*
X85629166Y-121148714D01*
X85914880Y-122339190D02*
X85914880Y-122434428D01*
X85914880Y-122434428D02*
X85867261Y-122529666D01*
X85867261Y-122529666D02*
X85819642Y-122577285D01*
X85819642Y-122577285D02*
X85724404Y-122624904D01*
X85724404Y-122624904D02*
X85533928Y-122672523D01*
X85533928Y-122672523D02*
X85295833Y-122672523D01*
X85295833Y-122672523D02*
X85105357Y-122624904D01*
X85105357Y-122624904D02*
X85010119Y-122577285D01*
X85010119Y-122577285D02*
X84962500Y-122529666D01*
X84962500Y-122529666D02*
X84914880Y-122434428D01*
X84914880Y-122434428D02*
X84914880Y-122339190D01*
X84914880Y-122339190D02*
X84962500Y-122243952D01*
X84962500Y-122243952D02*
X85010119Y-122196333D01*
X85010119Y-122196333D02*
X85105357Y-122148714D01*
X85105357Y-122148714D02*
X85295833Y-122101095D01*
X85295833Y-122101095D02*
X85533928Y-122101095D01*
X85533928Y-122101095D02*
X85724404Y-122148714D01*
X85724404Y-122148714D02*
X85819642Y-122196333D01*
X85819642Y-122196333D02*
X85867261Y-122243952D01*
X85867261Y-122243952D02*
X85914880Y-122339190D01*
%TO.C,H6*%
X53260119Y-130609904D02*
X52260119Y-130609904D01*
X52736309Y-130609904D02*
X52736309Y-130038476D01*
X53260119Y-130038476D02*
X52260119Y-130038476D01*
X52260119Y-129133714D02*
X52260119Y-129324190D01*
X52260119Y-129324190D02*
X52307738Y-129419428D01*
X52307738Y-129419428D02*
X52355357Y-129467047D01*
X52355357Y-129467047D02*
X52498214Y-129562285D01*
X52498214Y-129562285D02*
X52688690Y-129609904D01*
X52688690Y-129609904D02*
X53069642Y-129609904D01*
X53069642Y-129609904D02*
X53164880Y-129562285D01*
X53164880Y-129562285D02*
X53212500Y-129514666D01*
X53212500Y-129514666D02*
X53260119Y-129419428D01*
X53260119Y-129419428D02*
X53260119Y-129228952D01*
X53260119Y-129228952D02*
X53212500Y-129133714D01*
X53212500Y-129133714D02*
X53164880Y-129086095D01*
X53164880Y-129086095D02*
X53069642Y-129038476D01*
X53069642Y-129038476D02*
X52831547Y-129038476D01*
X52831547Y-129038476D02*
X52736309Y-129086095D01*
X52736309Y-129086095D02*
X52688690Y-129133714D01*
X52688690Y-129133714D02*
X52641071Y-129228952D01*
X52641071Y-129228952D02*
X52641071Y-129419428D01*
X52641071Y-129419428D02*
X52688690Y-129514666D01*
X52688690Y-129514666D02*
X52736309Y-129562285D01*
X52736309Y-129562285D02*
X52831547Y-129609904D01*
%TO.C,H5*%
X53260119Y-92509904D02*
X52260119Y-92509904D01*
X52736309Y-92509904D02*
X52736309Y-91938476D01*
X53260119Y-91938476D02*
X52260119Y-91938476D01*
X52260119Y-90986095D02*
X52260119Y-91462285D01*
X52260119Y-91462285D02*
X52736309Y-91509904D01*
X52736309Y-91509904D02*
X52688690Y-91462285D01*
X52688690Y-91462285D02*
X52641071Y-91367047D01*
X52641071Y-91367047D02*
X52641071Y-91128952D01*
X52641071Y-91128952D02*
X52688690Y-91033714D01*
X52688690Y-91033714D02*
X52736309Y-90986095D01*
X52736309Y-90986095D02*
X52831547Y-90938476D01*
X52831547Y-90938476D02*
X53069642Y-90938476D01*
X53069642Y-90938476D02*
X53164880Y-90986095D01*
X53164880Y-90986095D02*
X53212500Y-91033714D01*
X53212500Y-91033714D02*
X53260119Y-91128952D01*
X53260119Y-91128952D02*
X53260119Y-91367047D01*
X53260119Y-91367047D02*
X53212500Y-91462285D01*
X53212500Y-91462285D02*
X53164880Y-91509904D01*
%TO.C,R8*%
X222420833Y-125695619D02*
X222087500Y-125219428D01*
X221849405Y-125695619D02*
X221849405Y-124695619D01*
X221849405Y-124695619D02*
X222230357Y-124695619D01*
X222230357Y-124695619D02*
X222325595Y-124743238D01*
X222325595Y-124743238D02*
X222373214Y-124790857D01*
X222373214Y-124790857D02*
X222420833Y-124886095D01*
X222420833Y-124886095D02*
X222420833Y-125028952D01*
X222420833Y-125028952D02*
X222373214Y-125124190D01*
X222373214Y-125124190D02*
X222325595Y-125171809D01*
X222325595Y-125171809D02*
X222230357Y-125219428D01*
X222230357Y-125219428D02*
X221849405Y-125219428D01*
X222992262Y-125124190D02*
X222897024Y-125076571D01*
X222897024Y-125076571D02*
X222849405Y-125028952D01*
X222849405Y-125028952D02*
X222801786Y-124933714D01*
X222801786Y-124933714D02*
X222801786Y-124886095D01*
X222801786Y-124886095D02*
X222849405Y-124790857D01*
X222849405Y-124790857D02*
X222897024Y-124743238D01*
X222897024Y-124743238D02*
X222992262Y-124695619D01*
X222992262Y-124695619D02*
X223182738Y-124695619D01*
X223182738Y-124695619D02*
X223277976Y-124743238D01*
X223277976Y-124743238D02*
X223325595Y-124790857D01*
X223325595Y-124790857D02*
X223373214Y-124886095D01*
X223373214Y-124886095D02*
X223373214Y-124933714D01*
X223373214Y-124933714D02*
X223325595Y-125028952D01*
X223325595Y-125028952D02*
X223277976Y-125076571D01*
X223277976Y-125076571D02*
X223182738Y-125124190D01*
X223182738Y-125124190D02*
X222992262Y-125124190D01*
X222992262Y-125124190D02*
X222897024Y-125171809D01*
X222897024Y-125171809D02*
X222849405Y-125219428D01*
X222849405Y-125219428D02*
X222801786Y-125314666D01*
X222801786Y-125314666D02*
X222801786Y-125505142D01*
X222801786Y-125505142D02*
X222849405Y-125600380D01*
X222849405Y-125600380D02*
X222897024Y-125648000D01*
X222897024Y-125648000D02*
X222992262Y-125695619D01*
X222992262Y-125695619D02*
X223182738Y-125695619D01*
X223182738Y-125695619D02*
X223277976Y-125648000D01*
X223277976Y-125648000D02*
X223325595Y-125600380D01*
X223325595Y-125600380D02*
X223373214Y-125505142D01*
X223373214Y-125505142D02*
X223373214Y-125314666D01*
X223373214Y-125314666D02*
X223325595Y-125219428D01*
X223325595Y-125219428D02*
X223277976Y-125171809D01*
X223277976Y-125171809D02*
X223182738Y-125124190D01*
%TO.C,R7*%
X204640833Y-125695619D02*
X204307500Y-125219428D01*
X204069405Y-125695619D02*
X204069405Y-124695619D01*
X204069405Y-124695619D02*
X204450357Y-124695619D01*
X204450357Y-124695619D02*
X204545595Y-124743238D01*
X204545595Y-124743238D02*
X204593214Y-124790857D01*
X204593214Y-124790857D02*
X204640833Y-124886095D01*
X204640833Y-124886095D02*
X204640833Y-125028952D01*
X204640833Y-125028952D02*
X204593214Y-125124190D01*
X204593214Y-125124190D02*
X204545595Y-125171809D01*
X204545595Y-125171809D02*
X204450357Y-125219428D01*
X204450357Y-125219428D02*
X204069405Y-125219428D01*
X204974167Y-124695619D02*
X205640833Y-124695619D01*
X205640833Y-124695619D02*
X205212262Y-125695619D01*
%TO.C,R6*%
X179240833Y-125695619D02*
X178907500Y-125219428D01*
X178669405Y-125695619D02*
X178669405Y-124695619D01*
X178669405Y-124695619D02*
X179050357Y-124695619D01*
X179050357Y-124695619D02*
X179145595Y-124743238D01*
X179145595Y-124743238D02*
X179193214Y-124790857D01*
X179193214Y-124790857D02*
X179240833Y-124886095D01*
X179240833Y-124886095D02*
X179240833Y-125028952D01*
X179240833Y-125028952D02*
X179193214Y-125124190D01*
X179193214Y-125124190D02*
X179145595Y-125171809D01*
X179145595Y-125171809D02*
X179050357Y-125219428D01*
X179050357Y-125219428D02*
X178669405Y-125219428D01*
X180097976Y-124695619D02*
X179907500Y-124695619D01*
X179907500Y-124695619D02*
X179812262Y-124743238D01*
X179812262Y-124743238D02*
X179764643Y-124790857D01*
X179764643Y-124790857D02*
X179669405Y-124933714D01*
X179669405Y-124933714D02*
X179621786Y-125124190D01*
X179621786Y-125124190D02*
X179621786Y-125505142D01*
X179621786Y-125505142D02*
X179669405Y-125600380D01*
X179669405Y-125600380D02*
X179717024Y-125648000D01*
X179717024Y-125648000D02*
X179812262Y-125695619D01*
X179812262Y-125695619D02*
X180002738Y-125695619D01*
X180002738Y-125695619D02*
X180097976Y-125648000D01*
X180097976Y-125648000D02*
X180145595Y-125600380D01*
X180145595Y-125600380D02*
X180193214Y-125505142D01*
X180193214Y-125505142D02*
X180193214Y-125267047D01*
X180193214Y-125267047D02*
X180145595Y-125171809D01*
X180145595Y-125171809D02*
X180097976Y-125124190D01*
X180097976Y-125124190D02*
X180002738Y-125076571D01*
X180002738Y-125076571D02*
X179812262Y-125076571D01*
X179812262Y-125076571D02*
X179717024Y-125124190D01*
X179717024Y-125124190D02*
X179669405Y-125171809D01*
X179669405Y-125171809D02*
X179621786Y-125267047D01*
%TO.C,R5*%
X153840833Y-125695619D02*
X153507500Y-125219428D01*
X153269405Y-125695619D02*
X153269405Y-124695619D01*
X153269405Y-124695619D02*
X153650357Y-124695619D01*
X153650357Y-124695619D02*
X153745595Y-124743238D01*
X153745595Y-124743238D02*
X153793214Y-124790857D01*
X153793214Y-124790857D02*
X153840833Y-124886095D01*
X153840833Y-124886095D02*
X153840833Y-125028952D01*
X153840833Y-125028952D02*
X153793214Y-125124190D01*
X153793214Y-125124190D02*
X153745595Y-125171809D01*
X153745595Y-125171809D02*
X153650357Y-125219428D01*
X153650357Y-125219428D02*
X153269405Y-125219428D01*
X154745595Y-124695619D02*
X154269405Y-124695619D01*
X154269405Y-124695619D02*
X154221786Y-125171809D01*
X154221786Y-125171809D02*
X154269405Y-125124190D01*
X154269405Y-125124190D02*
X154364643Y-125076571D01*
X154364643Y-125076571D02*
X154602738Y-125076571D01*
X154602738Y-125076571D02*
X154697976Y-125124190D01*
X154697976Y-125124190D02*
X154745595Y-125171809D01*
X154745595Y-125171809D02*
X154793214Y-125267047D01*
X154793214Y-125267047D02*
X154793214Y-125505142D01*
X154793214Y-125505142D02*
X154745595Y-125600380D01*
X154745595Y-125600380D02*
X154697976Y-125648000D01*
X154697976Y-125648000D02*
X154602738Y-125695619D01*
X154602738Y-125695619D02*
X154364643Y-125695619D01*
X154364643Y-125695619D02*
X154269405Y-125648000D01*
X154269405Y-125648000D02*
X154221786Y-125600380D01*
%TO.C,R4*%
X118280833Y-96825619D02*
X117947500Y-96349428D01*
X117709405Y-96825619D02*
X117709405Y-95825619D01*
X117709405Y-95825619D02*
X118090357Y-95825619D01*
X118090357Y-95825619D02*
X118185595Y-95873238D01*
X118185595Y-95873238D02*
X118233214Y-95920857D01*
X118233214Y-95920857D02*
X118280833Y-96016095D01*
X118280833Y-96016095D02*
X118280833Y-96158952D01*
X118280833Y-96158952D02*
X118233214Y-96254190D01*
X118233214Y-96254190D02*
X118185595Y-96301809D01*
X118185595Y-96301809D02*
X118090357Y-96349428D01*
X118090357Y-96349428D02*
X117709405Y-96349428D01*
X119137976Y-96158952D02*
X119137976Y-96825619D01*
X118899881Y-95778000D02*
X118661786Y-96492285D01*
X118661786Y-96492285D02*
X119280833Y-96492285D01*
%TO.C,R3*%
X92880833Y-96825619D02*
X92547500Y-96349428D01*
X92309405Y-96825619D02*
X92309405Y-95825619D01*
X92309405Y-95825619D02*
X92690357Y-95825619D01*
X92690357Y-95825619D02*
X92785595Y-95873238D01*
X92785595Y-95873238D02*
X92833214Y-95920857D01*
X92833214Y-95920857D02*
X92880833Y-96016095D01*
X92880833Y-96016095D02*
X92880833Y-96158952D01*
X92880833Y-96158952D02*
X92833214Y-96254190D01*
X92833214Y-96254190D02*
X92785595Y-96301809D01*
X92785595Y-96301809D02*
X92690357Y-96349428D01*
X92690357Y-96349428D02*
X92309405Y-96349428D01*
X93214167Y-95825619D02*
X93833214Y-95825619D01*
X93833214Y-95825619D02*
X93499881Y-96206571D01*
X93499881Y-96206571D02*
X93642738Y-96206571D01*
X93642738Y-96206571D02*
X93737976Y-96254190D01*
X93737976Y-96254190D02*
X93785595Y-96301809D01*
X93785595Y-96301809D02*
X93833214Y-96397047D01*
X93833214Y-96397047D02*
X93833214Y-96635142D01*
X93833214Y-96635142D02*
X93785595Y-96730380D01*
X93785595Y-96730380D02*
X93737976Y-96778000D01*
X93737976Y-96778000D02*
X93642738Y-96825619D01*
X93642738Y-96825619D02*
X93357024Y-96825619D01*
X93357024Y-96825619D02*
X93261786Y-96778000D01*
X93261786Y-96778000D02*
X93214167Y-96730380D01*
%TO.C,R2*%
X67480833Y-96825619D02*
X67147500Y-96349428D01*
X66909405Y-96825619D02*
X66909405Y-95825619D01*
X66909405Y-95825619D02*
X67290357Y-95825619D01*
X67290357Y-95825619D02*
X67385595Y-95873238D01*
X67385595Y-95873238D02*
X67433214Y-95920857D01*
X67433214Y-95920857D02*
X67480833Y-96016095D01*
X67480833Y-96016095D02*
X67480833Y-96158952D01*
X67480833Y-96158952D02*
X67433214Y-96254190D01*
X67433214Y-96254190D02*
X67385595Y-96301809D01*
X67385595Y-96301809D02*
X67290357Y-96349428D01*
X67290357Y-96349428D02*
X66909405Y-96349428D01*
X67861786Y-95920857D02*
X67909405Y-95873238D01*
X67909405Y-95873238D02*
X68004643Y-95825619D01*
X68004643Y-95825619D02*
X68242738Y-95825619D01*
X68242738Y-95825619D02*
X68337976Y-95873238D01*
X68337976Y-95873238D02*
X68385595Y-95920857D01*
X68385595Y-95920857D02*
X68433214Y-96016095D01*
X68433214Y-96016095D02*
X68433214Y-96111333D01*
X68433214Y-96111333D02*
X68385595Y-96254190D01*
X68385595Y-96254190D02*
X67814167Y-96825619D01*
X67814167Y-96825619D02*
X68433214Y-96825619D01*
%TO.C,R1*%
X52240833Y-96825619D02*
X51907500Y-96349428D01*
X51669405Y-96825619D02*
X51669405Y-95825619D01*
X51669405Y-95825619D02*
X52050357Y-95825619D01*
X52050357Y-95825619D02*
X52145595Y-95873238D01*
X52145595Y-95873238D02*
X52193214Y-95920857D01*
X52193214Y-95920857D02*
X52240833Y-96016095D01*
X52240833Y-96016095D02*
X52240833Y-96158952D01*
X52240833Y-96158952D02*
X52193214Y-96254190D01*
X52193214Y-96254190D02*
X52145595Y-96301809D01*
X52145595Y-96301809D02*
X52050357Y-96349428D01*
X52050357Y-96349428D02*
X51669405Y-96349428D01*
X53193214Y-96825619D02*
X52621786Y-96825619D01*
X52907500Y-96825619D02*
X52907500Y-95825619D01*
X52907500Y-95825619D02*
X52812262Y-95968476D01*
X52812262Y-95968476D02*
X52717024Y-96063714D01*
X52717024Y-96063714D02*
X52621786Y-96111333D01*
%TO.C,LED8*%
X225278452Y-104700619D02*
X224802262Y-104700619D01*
X224802262Y-104700619D02*
X224802262Y-103700619D01*
X225611786Y-104176809D02*
X225945119Y-104176809D01*
X226087976Y-104700619D02*
X225611786Y-104700619D01*
X225611786Y-104700619D02*
X225611786Y-103700619D01*
X225611786Y-103700619D02*
X226087976Y-103700619D01*
X226516548Y-104700619D02*
X226516548Y-103700619D01*
X226516548Y-103700619D02*
X226754643Y-103700619D01*
X226754643Y-103700619D02*
X226897500Y-103748238D01*
X226897500Y-103748238D02*
X226992738Y-103843476D01*
X226992738Y-103843476D02*
X227040357Y-103938714D01*
X227040357Y-103938714D02*
X227087976Y-104129190D01*
X227087976Y-104129190D02*
X227087976Y-104272047D01*
X227087976Y-104272047D02*
X227040357Y-104462523D01*
X227040357Y-104462523D02*
X226992738Y-104557761D01*
X226992738Y-104557761D02*
X226897500Y-104653000D01*
X226897500Y-104653000D02*
X226754643Y-104700619D01*
X226754643Y-104700619D02*
X226516548Y-104700619D01*
X227659405Y-104129190D02*
X227564167Y-104081571D01*
X227564167Y-104081571D02*
X227516548Y-104033952D01*
X227516548Y-104033952D02*
X227468929Y-103938714D01*
X227468929Y-103938714D02*
X227468929Y-103891095D01*
X227468929Y-103891095D02*
X227516548Y-103795857D01*
X227516548Y-103795857D02*
X227564167Y-103748238D01*
X227564167Y-103748238D02*
X227659405Y-103700619D01*
X227659405Y-103700619D02*
X227849881Y-103700619D01*
X227849881Y-103700619D02*
X227945119Y-103748238D01*
X227945119Y-103748238D02*
X227992738Y-103795857D01*
X227992738Y-103795857D02*
X228040357Y-103891095D01*
X228040357Y-103891095D02*
X228040357Y-103938714D01*
X228040357Y-103938714D02*
X227992738Y-104033952D01*
X227992738Y-104033952D02*
X227945119Y-104081571D01*
X227945119Y-104081571D02*
X227849881Y-104129190D01*
X227849881Y-104129190D02*
X227659405Y-104129190D01*
X227659405Y-104129190D02*
X227564167Y-104176809D01*
X227564167Y-104176809D02*
X227516548Y-104224428D01*
X227516548Y-104224428D02*
X227468929Y-104319666D01*
X227468929Y-104319666D02*
X227468929Y-104510142D01*
X227468929Y-104510142D02*
X227516548Y-104605380D01*
X227516548Y-104605380D02*
X227564167Y-104653000D01*
X227564167Y-104653000D02*
X227659405Y-104700619D01*
X227659405Y-104700619D02*
X227849881Y-104700619D01*
X227849881Y-104700619D02*
X227945119Y-104653000D01*
X227945119Y-104653000D02*
X227992738Y-104605380D01*
X227992738Y-104605380D02*
X228040357Y-104510142D01*
X228040357Y-104510142D02*
X228040357Y-104319666D01*
X228040357Y-104319666D02*
X227992738Y-104224428D01*
X227992738Y-104224428D02*
X227945119Y-104176809D01*
X227945119Y-104176809D02*
X227849881Y-104129190D01*
X224326072Y-117820619D02*
X224326072Y-116820619D01*
X224802262Y-117820619D02*
X224802262Y-116820619D01*
X224802262Y-116820619D02*
X225373690Y-117820619D01*
X225373690Y-117820619D02*
X225373690Y-116820619D01*
X225849881Y-117820619D02*
X225849881Y-116820619D01*
X225849881Y-116820619D02*
X226087976Y-116820619D01*
X226087976Y-116820619D02*
X226230833Y-116868238D01*
X226230833Y-116868238D02*
X226326071Y-116963476D01*
X226326071Y-116963476D02*
X226373690Y-117058714D01*
X226373690Y-117058714D02*
X226421309Y-117249190D01*
X226421309Y-117249190D02*
X226421309Y-117392047D01*
X226421309Y-117392047D02*
X226373690Y-117582523D01*
X226373690Y-117582523D02*
X226326071Y-117677761D01*
X226326071Y-117677761D02*
X226230833Y-117773000D01*
X226230833Y-117773000D02*
X226087976Y-117820619D01*
X226087976Y-117820619D02*
X225849881Y-117820619D01*
X226849881Y-117439666D02*
X227611786Y-117439666D01*
X228040357Y-117534904D02*
X228516547Y-117534904D01*
X227945119Y-117820619D02*
X228278452Y-116820619D01*
X228278452Y-116820619D02*
X228611785Y-117820619D01*
%TO.C,LED7*%
X199878452Y-104910619D02*
X199402262Y-104910619D01*
X199402262Y-104910619D02*
X199402262Y-103910619D01*
X200211786Y-104386809D02*
X200545119Y-104386809D01*
X200687976Y-104910619D02*
X200211786Y-104910619D01*
X200211786Y-104910619D02*
X200211786Y-103910619D01*
X200211786Y-103910619D02*
X200687976Y-103910619D01*
X201116548Y-104910619D02*
X201116548Y-103910619D01*
X201116548Y-103910619D02*
X201354643Y-103910619D01*
X201354643Y-103910619D02*
X201497500Y-103958238D01*
X201497500Y-103958238D02*
X201592738Y-104053476D01*
X201592738Y-104053476D02*
X201640357Y-104148714D01*
X201640357Y-104148714D02*
X201687976Y-104339190D01*
X201687976Y-104339190D02*
X201687976Y-104482047D01*
X201687976Y-104482047D02*
X201640357Y-104672523D01*
X201640357Y-104672523D02*
X201592738Y-104767761D01*
X201592738Y-104767761D02*
X201497500Y-104863000D01*
X201497500Y-104863000D02*
X201354643Y-104910619D01*
X201354643Y-104910619D02*
X201116548Y-104910619D01*
X202021310Y-103910619D02*
X202687976Y-103910619D01*
X202687976Y-103910619D02*
X202259405Y-104910619D01*
X198854643Y-117820619D02*
X198854643Y-116820619D01*
X199330833Y-117820619D02*
X199330833Y-116820619D01*
X199330833Y-116820619D02*
X199902261Y-117820619D01*
X199902261Y-117820619D02*
X199902261Y-116820619D01*
X200378452Y-117820619D02*
X200378452Y-116820619D01*
X200378452Y-116820619D02*
X200616547Y-116820619D01*
X200616547Y-116820619D02*
X200759404Y-116868238D01*
X200759404Y-116868238D02*
X200854642Y-116963476D01*
X200854642Y-116963476D02*
X200902261Y-117058714D01*
X200902261Y-117058714D02*
X200949880Y-117249190D01*
X200949880Y-117249190D02*
X200949880Y-117392047D01*
X200949880Y-117392047D02*
X200902261Y-117582523D01*
X200902261Y-117582523D02*
X200854642Y-117677761D01*
X200854642Y-117677761D02*
X200759404Y-117773000D01*
X200759404Y-117773000D02*
X200616547Y-117820619D01*
X200616547Y-117820619D02*
X200378452Y-117820619D01*
X201378452Y-117439666D02*
X202140357Y-117439666D01*
X202949880Y-117296809D02*
X203092737Y-117344428D01*
X203092737Y-117344428D02*
X203140356Y-117392047D01*
X203140356Y-117392047D02*
X203187975Y-117487285D01*
X203187975Y-117487285D02*
X203187975Y-117630142D01*
X203187975Y-117630142D02*
X203140356Y-117725380D01*
X203140356Y-117725380D02*
X203092737Y-117773000D01*
X203092737Y-117773000D02*
X202997499Y-117820619D01*
X202997499Y-117820619D02*
X202616547Y-117820619D01*
X202616547Y-117820619D02*
X202616547Y-116820619D01*
X202616547Y-116820619D02*
X202949880Y-116820619D01*
X202949880Y-116820619D02*
X203045118Y-116868238D01*
X203045118Y-116868238D02*
X203092737Y-116915857D01*
X203092737Y-116915857D02*
X203140356Y-117011095D01*
X203140356Y-117011095D02*
X203140356Y-117106333D01*
X203140356Y-117106333D02*
X203092737Y-117201571D01*
X203092737Y-117201571D02*
X203045118Y-117249190D01*
X203045118Y-117249190D02*
X202949880Y-117296809D01*
X202949880Y-117296809D02*
X202616547Y-117296809D01*
%TO.C,LED6*%
X174478452Y-104910619D02*
X174002262Y-104910619D01*
X174002262Y-104910619D02*
X174002262Y-103910619D01*
X174811786Y-104386809D02*
X175145119Y-104386809D01*
X175287976Y-104910619D02*
X174811786Y-104910619D01*
X174811786Y-104910619D02*
X174811786Y-103910619D01*
X174811786Y-103910619D02*
X175287976Y-103910619D01*
X175716548Y-104910619D02*
X175716548Y-103910619D01*
X175716548Y-103910619D02*
X175954643Y-103910619D01*
X175954643Y-103910619D02*
X176097500Y-103958238D01*
X176097500Y-103958238D02*
X176192738Y-104053476D01*
X176192738Y-104053476D02*
X176240357Y-104148714D01*
X176240357Y-104148714D02*
X176287976Y-104339190D01*
X176287976Y-104339190D02*
X176287976Y-104482047D01*
X176287976Y-104482047D02*
X176240357Y-104672523D01*
X176240357Y-104672523D02*
X176192738Y-104767761D01*
X176192738Y-104767761D02*
X176097500Y-104863000D01*
X176097500Y-104863000D02*
X175954643Y-104910619D01*
X175954643Y-104910619D02*
X175716548Y-104910619D01*
X177145119Y-103910619D02*
X176954643Y-103910619D01*
X176954643Y-103910619D02*
X176859405Y-103958238D01*
X176859405Y-103958238D02*
X176811786Y-104005857D01*
X176811786Y-104005857D02*
X176716548Y-104148714D01*
X176716548Y-104148714D02*
X176668929Y-104339190D01*
X176668929Y-104339190D02*
X176668929Y-104720142D01*
X176668929Y-104720142D02*
X176716548Y-104815380D01*
X176716548Y-104815380D02*
X176764167Y-104863000D01*
X176764167Y-104863000D02*
X176859405Y-104910619D01*
X176859405Y-104910619D02*
X177049881Y-104910619D01*
X177049881Y-104910619D02*
X177145119Y-104863000D01*
X177145119Y-104863000D02*
X177192738Y-104815380D01*
X177192738Y-104815380D02*
X177240357Y-104720142D01*
X177240357Y-104720142D02*
X177240357Y-104482047D01*
X177240357Y-104482047D02*
X177192738Y-104386809D01*
X177192738Y-104386809D02*
X177145119Y-104339190D01*
X177145119Y-104339190D02*
X177049881Y-104291571D01*
X177049881Y-104291571D02*
X176859405Y-104291571D01*
X176859405Y-104291571D02*
X176764167Y-104339190D01*
X176764167Y-104339190D02*
X176716548Y-104386809D01*
X176716548Y-104386809D02*
X176668929Y-104482047D01*
%TO.C,LED5*%
X149078452Y-104910619D02*
X148602262Y-104910619D01*
X148602262Y-104910619D02*
X148602262Y-103910619D01*
X149411786Y-104386809D02*
X149745119Y-104386809D01*
X149887976Y-104910619D02*
X149411786Y-104910619D01*
X149411786Y-104910619D02*
X149411786Y-103910619D01*
X149411786Y-103910619D02*
X149887976Y-103910619D01*
X150316548Y-104910619D02*
X150316548Y-103910619D01*
X150316548Y-103910619D02*
X150554643Y-103910619D01*
X150554643Y-103910619D02*
X150697500Y-103958238D01*
X150697500Y-103958238D02*
X150792738Y-104053476D01*
X150792738Y-104053476D02*
X150840357Y-104148714D01*
X150840357Y-104148714D02*
X150887976Y-104339190D01*
X150887976Y-104339190D02*
X150887976Y-104482047D01*
X150887976Y-104482047D02*
X150840357Y-104672523D01*
X150840357Y-104672523D02*
X150792738Y-104767761D01*
X150792738Y-104767761D02*
X150697500Y-104863000D01*
X150697500Y-104863000D02*
X150554643Y-104910619D01*
X150554643Y-104910619D02*
X150316548Y-104910619D01*
X151792738Y-103910619D02*
X151316548Y-103910619D01*
X151316548Y-103910619D02*
X151268929Y-104386809D01*
X151268929Y-104386809D02*
X151316548Y-104339190D01*
X151316548Y-104339190D02*
X151411786Y-104291571D01*
X151411786Y-104291571D02*
X151649881Y-104291571D01*
X151649881Y-104291571D02*
X151745119Y-104339190D01*
X151745119Y-104339190D02*
X151792738Y-104386809D01*
X151792738Y-104386809D02*
X151840357Y-104482047D01*
X151840357Y-104482047D02*
X151840357Y-104720142D01*
X151840357Y-104720142D02*
X151792738Y-104815380D01*
X151792738Y-104815380D02*
X151745119Y-104863000D01*
X151745119Y-104863000D02*
X151649881Y-104910619D01*
X151649881Y-104910619D02*
X151411786Y-104910619D01*
X151411786Y-104910619D02*
X151316548Y-104863000D01*
X151316548Y-104863000D02*
X151268929Y-104815380D01*
X148054643Y-117820619D02*
X148054643Y-116820619D01*
X148530833Y-117820619D02*
X148530833Y-116820619D01*
X148530833Y-116820619D02*
X149102261Y-117820619D01*
X149102261Y-117820619D02*
X149102261Y-116820619D01*
X149578452Y-117820619D02*
X149578452Y-116820619D01*
X149578452Y-116820619D02*
X149816547Y-116820619D01*
X149816547Y-116820619D02*
X149959404Y-116868238D01*
X149959404Y-116868238D02*
X150054642Y-116963476D01*
X150054642Y-116963476D02*
X150102261Y-117058714D01*
X150102261Y-117058714D02*
X150149880Y-117249190D01*
X150149880Y-117249190D02*
X150149880Y-117392047D01*
X150149880Y-117392047D02*
X150102261Y-117582523D01*
X150102261Y-117582523D02*
X150054642Y-117677761D01*
X150054642Y-117677761D02*
X149959404Y-117773000D01*
X149959404Y-117773000D02*
X149816547Y-117820619D01*
X149816547Y-117820619D02*
X149578452Y-117820619D01*
X150578452Y-117439666D02*
X151340357Y-117439666D01*
X151816547Y-117820619D02*
X151816547Y-116820619D01*
X151816547Y-116820619D02*
X152054642Y-116820619D01*
X152054642Y-116820619D02*
X152197499Y-116868238D01*
X152197499Y-116868238D02*
X152292737Y-116963476D01*
X152292737Y-116963476D02*
X152340356Y-117058714D01*
X152340356Y-117058714D02*
X152387975Y-117249190D01*
X152387975Y-117249190D02*
X152387975Y-117392047D01*
X152387975Y-117392047D02*
X152340356Y-117582523D01*
X152340356Y-117582523D02*
X152292737Y-117677761D01*
X152292737Y-117677761D02*
X152197499Y-117773000D01*
X152197499Y-117773000D02*
X152054642Y-117820619D01*
X152054642Y-117820619D02*
X151816547Y-117820619D01*
%TO.C,LED4*%
X123678452Y-104910619D02*
X123202262Y-104910619D01*
X123202262Y-104910619D02*
X123202262Y-103910619D01*
X124011786Y-104386809D02*
X124345119Y-104386809D01*
X124487976Y-104910619D02*
X124011786Y-104910619D01*
X124011786Y-104910619D02*
X124011786Y-103910619D01*
X124011786Y-103910619D02*
X124487976Y-103910619D01*
X124916548Y-104910619D02*
X124916548Y-103910619D01*
X124916548Y-103910619D02*
X125154643Y-103910619D01*
X125154643Y-103910619D02*
X125297500Y-103958238D01*
X125297500Y-103958238D02*
X125392738Y-104053476D01*
X125392738Y-104053476D02*
X125440357Y-104148714D01*
X125440357Y-104148714D02*
X125487976Y-104339190D01*
X125487976Y-104339190D02*
X125487976Y-104482047D01*
X125487976Y-104482047D02*
X125440357Y-104672523D01*
X125440357Y-104672523D02*
X125392738Y-104767761D01*
X125392738Y-104767761D02*
X125297500Y-104863000D01*
X125297500Y-104863000D02*
X125154643Y-104910619D01*
X125154643Y-104910619D02*
X124916548Y-104910619D01*
X126345119Y-104243952D02*
X126345119Y-104910619D01*
X126107024Y-103863000D02*
X125868929Y-104577285D01*
X125868929Y-104577285D02*
X126487976Y-104577285D01*
X122702262Y-117820619D02*
X122702262Y-116820619D01*
X123178452Y-117820619D02*
X123178452Y-116820619D01*
X123178452Y-116820619D02*
X123749880Y-117820619D01*
X123749880Y-117820619D02*
X123749880Y-116820619D01*
X124226071Y-117820619D02*
X124226071Y-116820619D01*
X124226071Y-116820619D02*
X124464166Y-116820619D01*
X124464166Y-116820619D02*
X124607023Y-116868238D01*
X124607023Y-116868238D02*
X124702261Y-116963476D01*
X124702261Y-116963476D02*
X124749880Y-117058714D01*
X124749880Y-117058714D02*
X124797499Y-117249190D01*
X124797499Y-117249190D02*
X124797499Y-117392047D01*
X124797499Y-117392047D02*
X124749880Y-117582523D01*
X124749880Y-117582523D02*
X124702261Y-117677761D01*
X124702261Y-117677761D02*
X124607023Y-117773000D01*
X124607023Y-117773000D02*
X124464166Y-117820619D01*
X124464166Y-117820619D02*
X124226071Y-117820619D01*
X125226071Y-117439666D02*
X125987976Y-117439666D01*
X126464166Y-117296809D02*
X126797499Y-117296809D01*
X126940356Y-117820619D02*
X126464166Y-117820619D01*
X126464166Y-117820619D02*
X126464166Y-116820619D01*
X126464166Y-116820619D02*
X126940356Y-116820619D01*
%TO.C,LED3*%
X98278452Y-104910619D02*
X97802262Y-104910619D01*
X97802262Y-104910619D02*
X97802262Y-103910619D01*
X98611786Y-104386809D02*
X98945119Y-104386809D01*
X99087976Y-104910619D02*
X98611786Y-104910619D01*
X98611786Y-104910619D02*
X98611786Y-103910619D01*
X98611786Y-103910619D02*
X99087976Y-103910619D01*
X99516548Y-104910619D02*
X99516548Y-103910619D01*
X99516548Y-103910619D02*
X99754643Y-103910619D01*
X99754643Y-103910619D02*
X99897500Y-103958238D01*
X99897500Y-103958238D02*
X99992738Y-104053476D01*
X99992738Y-104053476D02*
X100040357Y-104148714D01*
X100040357Y-104148714D02*
X100087976Y-104339190D01*
X100087976Y-104339190D02*
X100087976Y-104482047D01*
X100087976Y-104482047D02*
X100040357Y-104672523D01*
X100040357Y-104672523D02*
X99992738Y-104767761D01*
X99992738Y-104767761D02*
X99897500Y-104863000D01*
X99897500Y-104863000D02*
X99754643Y-104910619D01*
X99754643Y-104910619D02*
X99516548Y-104910619D01*
X100421310Y-103910619D02*
X101040357Y-103910619D01*
X101040357Y-103910619D02*
X100707024Y-104291571D01*
X100707024Y-104291571D02*
X100849881Y-104291571D01*
X100849881Y-104291571D02*
X100945119Y-104339190D01*
X100945119Y-104339190D02*
X100992738Y-104386809D01*
X100992738Y-104386809D02*
X101040357Y-104482047D01*
X101040357Y-104482047D02*
X101040357Y-104720142D01*
X101040357Y-104720142D02*
X100992738Y-104815380D01*
X100992738Y-104815380D02*
X100945119Y-104863000D01*
X100945119Y-104863000D02*
X100849881Y-104910619D01*
X100849881Y-104910619D02*
X100564167Y-104910619D01*
X100564167Y-104910619D02*
X100468929Y-104863000D01*
X100468929Y-104863000D02*
X100421310Y-104815380D01*
X97326072Y-117820619D02*
X97326072Y-116820619D01*
X97802262Y-117820619D02*
X97802262Y-116820619D01*
X97802262Y-116820619D02*
X98373690Y-117820619D01*
X98373690Y-117820619D02*
X98373690Y-116820619D01*
X98849881Y-117820619D02*
X98849881Y-116820619D01*
X98849881Y-116820619D02*
X99087976Y-116820619D01*
X99087976Y-116820619D02*
X99230833Y-116868238D01*
X99230833Y-116868238D02*
X99326071Y-116963476D01*
X99326071Y-116963476D02*
X99373690Y-117058714D01*
X99373690Y-117058714D02*
X99421309Y-117249190D01*
X99421309Y-117249190D02*
X99421309Y-117392047D01*
X99421309Y-117392047D02*
X99373690Y-117582523D01*
X99373690Y-117582523D02*
X99326071Y-117677761D01*
X99326071Y-117677761D02*
X99230833Y-117773000D01*
X99230833Y-117773000D02*
X99087976Y-117820619D01*
X99087976Y-117820619D02*
X98849881Y-117820619D01*
X99849881Y-117439666D02*
X100611786Y-117439666D01*
X101421309Y-117296809D02*
X101087976Y-117296809D01*
X101087976Y-117820619D02*
X101087976Y-116820619D01*
X101087976Y-116820619D02*
X101564166Y-116820619D01*
%TO.C,LED2*%
X72878452Y-104910619D02*
X72402262Y-104910619D01*
X72402262Y-104910619D02*
X72402262Y-103910619D01*
X73211786Y-104386809D02*
X73545119Y-104386809D01*
X73687976Y-104910619D02*
X73211786Y-104910619D01*
X73211786Y-104910619D02*
X73211786Y-103910619D01*
X73211786Y-103910619D02*
X73687976Y-103910619D01*
X74116548Y-104910619D02*
X74116548Y-103910619D01*
X74116548Y-103910619D02*
X74354643Y-103910619D01*
X74354643Y-103910619D02*
X74497500Y-103958238D01*
X74497500Y-103958238D02*
X74592738Y-104053476D01*
X74592738Y-104053476D02*
X74640357Y-104148714D01*
X74640357Y-104148714D02*
X74687976Y-104339190D01*
X74687976Y-104339190D02*
X74687976Y-104482047D01*
X74687976Y-104482047D02*
X74640357Y-104672523D01*
X74640357Y-104672523D02*
X74592738Y-104767761D01*
X74592738Y-104767761D02*
X74497500Y-104863000D01*
X74497500Y-104863000D02*
X74354643Y-104910619D01*
X74354643Y-104910619D02*
X74116548Y-104910619D01*
X75068929Y-104005857D02*
X75116548Y-103958238D01*
X75116548Y-103958238D02*
X75211786Y-103910619D01*
X75211786Y-103910619D02*
X75449881Y-103910619D01*
X75449881Y-103910619D02*
X75545119Y-103958238D01*
X75545119Y-103958238D02*
X75592738Y-104005857D01*
X75592738Y-104005857D02*
X75640357Y-104101095D01*
X75640357Y-104101095D02*
X75640357Y-104196333D01*
X75640357Y-104196333D02*
X75592738Y-104339190D01*
X75592738Y-104339190D02*
X75021310Y-104910619D01*
X75021310Y-104910619D02*
X75640357Y-104910619D01*
X71854643Y-117820619D02*
X71854643Y-116820619D01*
X72330833Y-117820619D02*
X72330833Y-116820619D01*
X72330833Y-116820619D02*
X72902261Y-117820619D01*
X72902261Y-117820619D02*
X72902261Y-116820619D01*
X73378452Y-117820619D02*
X73378452Y-116820619D01*
X73378452Y-116820619D02*
X73616547Y-116820619D01*
X73616547Y-116820619D02*
X73759404Y-116868238D01*
X73759404Y-116868238D02*
X73854642Y-116963476D01*
X73854642Y-116963476D02*
X73902261Y-117058714D01*
X73902261Y-117058714D02*
X73949880Y-117249190D01*
X73949880Y-117249190D02*
X73949880Y-117392047D01*
X73949880Y-117392047D02*
X73902261Y-117582523D01*
X73902261Y-117582523D02*
X73854642Y-117677761D01*
X73854642Y-117677761D02*
X73759404Y-117773000D01*
X73759404Y-117773000D02*
X73616547Y-117820619D01*
X73616547Y-117820619D02*
X73378452Y-117820619D01*
X74378452Y-117439666D02*
X75140357Y-117439666D01*
X76140356Y-116868238D02*
X76045118Y-116820619D01*
X76045118Y-116820619D02*
X75902261Y-116820619D01*
X75902261Y-116820619D02*
X75759404Y-116868238D01*
X75759404Y-116868238D02*
X75664166Y-116963476D01*
X75664166Y-116963476D02*
X75616547Y-117058714D01*
X75616547Y-117058714D02*
X75568928Y-117249190D01*
X75568928Y-117249190D02*
X75568928Y-117392047D01*
X75568928Y-117392047D02*
X75616547Y-117582523D01*
X75616547Y-117582523D02*
X75664166Y-117677761D01*
X75664166Y-117677761D02*
X75759404Y-117773000D01*
X75759404Y-117773000D02*
X75902261Y-117820619D01*
X75902261Y-117820619D02*
X75997499Y-117820619D01*
X75997499Y-117820619D02*
X76140356Y-117773000D01*
X76140356Y-117773000D02*
X76187975Y-117725380D01*
X76187975Y-117725380D02*
X76187975Y-117392047D01*
X76187975Y-117392047D02*
X75997499Y-117392047D01*
%TO.C,LED1*%
X47478452Y-104700619D02*
X47002262Y-104700619D01*
X47002262Y-104700619D02*
X47002262Y-103700619D01*
X47811786Y-104176809D02*
X48145119Y-104176809D01*
X48287976Y-104700619D02*
X47811786Y-104700619D01*
X47811786Y-104700619D02*
X47811786Y-103700619D01*
X47811786Y-103700619D02*
X48287976Y-103700619D01*
X48716548Y-104700619D02*
X48716548Y-103700619D01*
X48716548Y-103700619D02*
X48954643Y-103700619D01*
X48954643Y-103700619D02*
X49097500Y-103748238D01*
X49097500Y-103748238D02*
X49192738Y-103843476D01*
X49192738Y-103843476D02*
X49240357Y-103938714D01*
X49240357Y-103938714D02*
X49287976Y-104129190D01*
X49287976Y-104129190D02*
X49287976Y-104272047D01*
X49287976Y-104272047D02*
X49240357Y-104462523D01*
X49240357Y-104462523D02*
X49192738Y-104557761D01*
X49192738Y-104557761D02*
X49097500Y-104653000D01*
X49097500Y-104653000D02*
X48954643Y-104700619D01*
X48954643Y-104700619D02*
X48716548Y-104700619D01*
X50240357Y-104700619D02*
X49668929Y-104700619D01*
X49954643Y-104700619D02*
X49954643Y-103700619D01*
X49954643Y-103700619D02*
X49859405Y-103843476D01*
X49859405Y-103843476D02*
X49764167Y-103938714D01*
X49764167Y-103938714D02*
X49668929Y-103986333D01*
X46454643Y-117820619D02*
X46454643Y-116820619D01*
X46930833Y-117820619D02*
X46930833Y-116820619D01*
X46930833Y-116820619D02*
X47502261Y-117820619D01*
X47502261Y-117820619D02*
X47502261Y-116820619D01*
X47978452Y-117820619D02*
X47978452Y-116820619D01*
X47978452Y-116820619D02*
X48216547Y-116820619D01*
X48216547Y-116820619D02*
X48359404Y-116868238D01*
X48359404Y-116868238D02*
X48454642Y-116963476D01*
X48454642Y-116963476D02*
X48502261Y-117058714D01*
X48502261Y-117058714D02*
X48549880Y-117249190D01*
X48549880Y-117249190D02*
X48549880Y-117392047D01*
X48549880Y-117392047D02*
X48502261Y-117582523D01*
X48502261Y-117582523D02*
X48454642Y-117677761D01*
X48454642Y-117677761D02*
X48359404Y-117773000D01*
X48359404Y-117773000D02*
X48216547Y-117820619D01*
X48216547Y-117820619D02*
X47978452Y-117820619D01*
X48978452Y-117439666D02*
X49740357Y-117439666D01*
X50216547Y-117820619D02*
X50216547Y-116820619D01*
X50216547Y-116820619D02*
X50597499Y-116820619D01*
X50597499Y-116820619D02*
X50692737Y-116868238D01*
X50692737Y-116868238D02*
X50740356Y-116915857D01*
X50740356Y-116915857D02*
X50787975Y-117011095D01*
X50787975Y-117011095D02*
X50787975Y-117153952D01*
X50787975Y-117153952D02*
X50740356Y-117249190D01*
X50740356Y-117249190D02*
X50692737Y-117296809D01*
X50692737Y-117296809D02*
X50597499Y-117344428D01*
X50597499Y-117344428D02*
X50216547Y-117344428D01*
%TO.C,J1*%
X81919166Y-126770619D02*
X81919166Y-127484904D01*
X81919166Y-127484904D02*
X81871547Y-127627761D01*
X81871547Y-127627761D02*
X81776309Y-127723000D01*
X81776309Y-127723000D02*
X81633452Y-127770619D01*
X81633452Y-127770619D02*
X81538214Y-127770619D01*
X82919166Y-127770619D02*
X82347738Y-127770619D01*
X82633452Y-127770619D02*
X82633452Y-126770619D01*
X82633452Y-126770619D02*
X82538214Y-126913476D01*
X82538214Y-126913476D02*
X82442976Y-127008714D01*
X82442976Y-127008714D02*
X82347738Y-127056333D01*
X74513927Y-124706809D02*
X74656784Y-124754428D01*
X74656784Y-124754428D02*
X74704403Y-124802047D01*
X74704403Y-124802047D02*
X74752022Y-124897285D01*
X74752022Y-124897285D02*
X74752022Y-125040142D01*
X74752022Y-125040142D02*
X74704403Y-125135380D01*
X74704403Y-125135380D02*
X74656784Y-125183000D01*
X74656784Y-125183000D02*
X74561546Y-125230619D01*
X74561546Y-125230619D02*
X74180594Y-125230619D01*
X74180594Y-125230619D02*
X74180594Y-124230619D01*
X74180594Y-124230619D02*
X74513927Y-124230619D01*
X74513927Y-124230619D02*
X74609165Y-124278238D01*
X74609165Y-124278238D02*
X74656784Y-124325857D01*
X74656784Y-124325857D02*
X74704403Y-124421095D01*
X74704403Y-124421095D02*
X74704403Y-124516333D01*
X74704403Y-124516333D02*
X74656784Y-124611571D01*
X74656784Y-124611571D02*
X74609165Y-124659190D01*
X74609165Y-124659190D02*
X74513927Y-124706809D01*
X74513927Y-124706809D02*
X74180594Y-124706809D01*
X75609165Y-125230619D02*
X75609165Y-124706809D01*
X75609165Y-124706809D02*
X75561546Y-124611571D01*
X75561546Y-124611571D02*
X75466308Y-124563952D01*
X75466308Y-124563952D02*
X75275832Y-124563952D01*
X75275832Y-124563952D02*
X75180594Y-124611571D01*
X75609165Y-125183000D02*
X75513927Y-125230619D01*
X75513927Y-125230619D02*
X75275832Y-125230619D01*
X75275832Y-125230619D02*
X75180594Y-125183000D01*
X75180594Y-125183000D02*
X75132975Y-125087761D01*
X75132975Y-125087761D02*
X75132975Y-124992523D01*
X75132975Y-124992523D02*
X75180594Y-124897285D01*
X75180594Y-124897285D02*
X75275832Y-124849666D01*
X75275832Y-124849666D02*
X75513927Y-124849666D01*
X75513927Y-124849666D02*
X75609165Y-124802047D01*
X76085356Y-124563952D02*
X76085356Y-125230619D01*
X76085356Y-124659190D02*
X76132975Y-124611571D01*
X76132975Y-124611571D02*
X76228213Y-124563952D01*
X76228213Y-124563952D02*
X76371070Y-124563952D01*
X76371070Y-124563952D02*
X76466308Y-124611571D01*
X76466308Y-124611571D02*
X76513927Y-124706809D01*
X76513927Y-124706809D02*
X76513927Y-125230619D01*
X76990118Y-125230619D02*
X76990118Y-124230619D01*
X77085356Y-124849666D02*
X77371070Y-125230619D01*
X77371070Y-124563952D02*
X76990118Y-124944904D01*
X77561547Y-125325857D02*
X78323451Y-125325857D01*
X78513928Y-125183000D02*
X78656785Y-125230619D01*
X78656785Y-125230619D02*
X78894880Y-125230619D01*
X78894880Y-125230619D02*
X78990118Y-125183000D01*
X78990118Y-125183000D02*
X79037737Y-125135380D01*
X79037737Y-125135380D02*
X79085356Y-125040142D01*
X79085356Y-125040142D02*
X79085356Y-124944904D01*
X79085356Y-124944904D02*
X79037737Y-124849666D01*
X79037737Y-124849666D02*
X78990118Y-124802047D01*
X78990118Y-124802047D02*
X78894880Y-124754428D01*
X78894880Y-124754428D02*
X78704404Y-124706809D01*
X78704404Y-124706809D02*
X78609166Y-124659190D01*
X78609166Y-124659190D02*
X78561547Y-124611571D01*
X78561547Y-124611571D02*
X78513928Y-124516333D01*
X78513928Y-124516333D02*
X78513928Y-124421095D01*
X78513928Y-124421095D02*
X78561547Y-124325857D01*
X78561547Y-124325857D02*
X78609166Y-124278238D01*
X78609166Y-124278238D02*
X78704404Y-124230619D01*
X78704404Y-124230619D02*
X78942499Y-124230619D01*
X78942499Y-124230619D02*
X79085356Y-124278238D01*
X79894880Y-125183000D02*
X79799642Y-125230619D01*
X79799642Y-125230619D02*
X79609166Y-125230619D01*
X79609166Y-125230619D02*
X79513928Y-125183000D01*
X79513928Y-125183000D02*
X79466309Y-125087761D01*
X79466309Y-125087761D02*
X79466309Y-124706809D01*
X79466309Y-124706809D02*
X79513928Y-124611571D01*
X79513928Y-124611571D02*
X79609166Y-124563952D01*
X79609166Y-124563952D02*
X79799642Y-124563952D01*
X79799642Y-124563952D02*
X79894880Y-124611571D01*
X79894880Y-124611571D02*
X79942499Y-124706809D01*
X79942499Y-124706809D02*
X79942499Y-124802047D01*
X79942499Y-124802047D02*
X79466309Y-124897285D01*
X80513928Y-125230619D02*
X80418690Y-125183000D01*
X80418690Y-125183000D02*
X80371071Y-125087761D01*
X80371071Y-125087761D02*
X80371071Y-124230619D01*
X81275833Y-125183000D02*
X81180595Y-125230619D01*
X81180595Y-125230619D02*
X80990119Y-125230619D01*
X80990119Y-125230619D02*
X80894881Y-125183000D01*
X80894881Y-125183000D02*
X80847262Y-125087761D01*
X80847262Y-125087761D02*
X80847262Y-124706809D01*
X80847262Y-124706809D02*
X80894881Y-124611571D01*
X80894881Y-124611571D02*
X80990119Y-124563952D01*
X80990119Y-124563952D02*
X81180595Y-124563952D01*
X81180595Y-124563952D02*
X81275833Y-124611571D01*
X81275833Y-124611571D02*
X81323452Y-124706809D01*
X81323452Y-124706809D02*
X81323452Y-124802047D01*
X81323452Y-124802047D02*
X80847262Y-124897285D01*
X82180595Y-125183000D02*
X82085357Y-125230619D01*
X82085357Y-125230619D02*
X81894881Y-125230619D01*
X81894881Y-125230619D02*
X81799643Y-125183000D01*
X81799643Y-125183000D02*
X81752024Y-125135380D01*
X81752024Y-125135380D02*
X81704405Y-125040142D01*
X81704405Y-125040142D02*
X81704405Y-124754428D01*
X81704405Y-124754428D02*
X81752024Y-124659190D01*
X81752024Y-124659190D02*
X81799643Y-124611571D01*
X81799643Y-124611571D02*
X81894881Y-124563952D01*
X81894881Y-124563952D02*
X82085357Y-124563952D01*
X82085357Y-124563952D02*
X82180595Y-124611571D01*
X82466310Y-124563952D02*
X82847262Y-124563952D01*
X82609167Y-124230619D02*
X82609167Y-125087761D01*
X82609167Y-125087761D02*
X82656786Y-125183000D01*
X82656786Y-125183000D02*
X82752024Y-125230619D01*
X82752024Y-125230619D02*
X82847262Y-125230619D01*
%TO.C,H4*%
X142160119Y-130609904D02*
X141160119Y-130609904D01*
X141636309Y-130609904D02*
X141636309Y-130038476D01*
X142160119Y-130038476D02*
X141160119Y-130038476D01*
X141493452Y-129133714D02*
X142160119Y-129133714D01*
X141112500Y-129371809D02*
X141826785Y-129609904D01*
X141826785Y-129609904D02*
X141826785Y-128990857D01*
%TO.C,H3*%
X142160119Y-92509904D02*
X141160119Y-92509904D01*
X141636309Y-92509904D02*
X141636309Y-91938476D01*
X142160119Y-91938476D02*
X141160119Y-91938476D01*
X141160119Y-91557523D02*
X141160119Y-90938476D01*
X141160119Y-90938476D02*
X141541071Y-91271809D01*
X141541071Y-91271809D02*
X141541071Y-91128952D01*
X141541071Y-91128952D02*
X141588690Y-91033714D01*
X141588690Y-91033714D02*
X141636309Y-90986095D01*
X141636309Y-90986095D02*
X141731547Y-90938476D01*
X141731547Y-90938476D02*
X141969642Y-90938476D01*
X141969642Y-90938476D02*
X142064880Y-90986095D01*
X142064880Y-90986095D02*
X142112500Y-91033714D01*
X142112500Y-91033714D02*
X142160119Y-91128952D01*
X142160119Y-91128952D02*
X142160119Y-91414666D01*
X142160119Y-91414666D02*
X142112500Y-91509904D01*
X142112500Y-91509904D02*
X142064880Y-91557523D01*
%TO.C,H2*%
X231060119Y-130609904D02*
X230060119Y-130609904D01*
X230536309Y-130609904D02*
X230536309Y-130038476D01*
X231060119Y-130038476D02*
X230060119Y-130038476D01*
X230155357Y-129609904D02*
X230107738Y-129562285D01*
X230107738Y-129562285D02*
X230060119Y-129467047D01*
X230060119Y-129467047D02*
X230060119Y-129228952D01*
X230060119Y-129228952D02*
X230107738Y-129133714D01*
X230107738Y-129133714D02*
X230155357Y-129086095D01*
X230155357Y-129086095D02*
X230250595Y-129038476D01*
X230250595Y-129038476D02*
X230345833Y-129038476D01*
X230345833Y-129038476D02*
X230488690Y-129086095D01*
X230488690Y-129086095D02*
X231060119Y-129657523D01*
X231060119Y-129657523D02*
X231060119Y-129038476D01*
%TO.C,H1*%
X231060119Y-92509904D02*
X230060119Y-92509904D01*
X230536309Y-92509904D02*
X230536309Y-91938476D01*
X231060119Y-91938476D02*
X230060119Y-91938476D01*
X231060119Y-90938476D02*
X231060119Y-91509904D01*
X231060119Y-91224190D02*
X230060119Y-91224190D01*
X230060119Y-91224190D02*
X230202976Y-91319428D01*
X230202976Y-91319428D02*
X230298214Y-91414666D01*
X230298214Y-91414666D02*
X230345833Y-91509904D01*
%TO.C,GND1*%
X233527738Y-93621095D02*
X233480119Y-93716333D01*
X233480119Y-93716333D02*
X233480119Y-93859190D01*
X233480119Y-93859190D02*
X233527738Y-94002047D01*
X233527738Y-94002047D02*
X233622976Y-94097285D01*
X233622976Y-94097285D02*
X233718214Y-94144904D01*
X233718214Y-94144904D02*
X233908690Y-94192523D01*
X233908690Y-94192523D02*
X234051547Y-94192523D01*
X234051547Y-94192523D02*
X234242023Y-94144904D01*
X234242023Y-94144904D02*
X234337261Y-94097285D01*
X234337261Y-94097285D02*
X234432500Y-94002047D01*
X234432500Y-94002047D02*
X234480119Y-93859190D01*
X234480119Y-93859190D02*
X234480119Y-93763952D01*
X234480119Y-93763952D02*
X234432500Y-93621095D01*
X234432500Y-93621095D02*
X234384880Y-93573476D01*
X234384880Y-93573476D02*
X234051547Y-93573476D01*
X234051547Y-93573476D02*
X234051547Y-93763952D01*
X234480119Y-93144904D02*
X233480119Y-93144904D01*
X233480119Y-93144904D02*
X234480119Y-92573476D01*
X234480119Y-92573476D02*
X233480119Y-92573476D01*
X234480119Y-92097285D02*
X233480119Y-92097285D01*
X233480119Y-92097285D02*
X233480119Y-91859190D01*
X233480119Y-91859190D02*
X233527738Y-91716333D01*
X233527738Y-91716333D02*
X233622976Y-91621095D01*
X233622976Y-91621095D02*
X233718214Y-91573476D01*
X233718214Y-91573476D02*
X233908690Y-91525857D01*
X233908690Y-91525857D02*
X234051547Y-91525857D01*
X234051547Y-91525857D02*
X234242023Y-91573476D01*
X234242023Y-91573476D02*
X234337261Y-91621095D01*
X234337261Y-91621095D02*
X234432500Y-91716333D01*
X234432500Y-91716333D02*
X234480119Y-91859190D01*
X234480119Y-91859190D02*
X234480119Y-92097285D01*
X234480119Y-90573476D02*
X234480119Y-91144904D01*
X234480119Y-90859190D02*
X233480119Y-90859190D01*
X233480119Y-90859190D02*
X233622976Y-90954428D01*
X233622976Y-90954428D02*
X233718214Y-91049666D01*
X233718214Y-91049666D02*
X233765833Y-91144904D01*
%TO.C,G1*%
G36*
X58983161Y-90714157D02*
G01*
X58983161Y-91118248D01*
X58558078Y-91118248D01*
X58132995Y-91118248D01*
X58132995Y-90714157D01*
X58132995Y-90310066D01*
X58558078Y-90310066D01*
X58983161Y-90310066D01*
X58983161Y-90714157D01*
G37*
G36*
X60526053Y-92445975D02*
G01*
X60526053Y-94658854D01*
X60128960Y-94658854D01*
X59731866Y-94658854D01*
X59731866Y-92445975D01*
X59731866Y-90233097D01*
X60128960Y-90233097D01*
X60526053Y-90233097D01*
X60526053Y-92445975D01*
G37*
G36*
X58951673Y-93105466D02*
G01*
X58951673Y-94658854D01*
X58556912Y-94658854D01*
X58504933Y-94658834D01*
X58454915Y-94658775D01*
X58407301Y-94658680D01*
X58362536Y-94658551D01*
X58321065Y-94658391D01*
X58283331Y-94658203D01*
X58249779Y-94657989D01*
X58220854Y-94657752D01*
X58197000Y-94657495D01*
X58178662Y-94657219D01*
X58166284Y-94656929D01*
X58160310Y-94656625D01*
X58159818Y-94656522D01*
X58159662Y-94652903D01*
X58159509Y-94642510D01*
X58159358Y-94625565D01*
X58159211Y-94602292D01*
X58159068Y-94572913D01*
X58158928Y-94537652D01*
X58158793Y-94496731D01*
X58158663Y-94450372D01*
X58158538Y-94398800D01*
X58158418Y-94342237D01*
X58158303Y-94280906D01*
X58158195Y-94215029D01*
X58158093Y-94144830D01*
X58157998Y-94070531D01*
X58157909Y-93992356D01*
X58157829Y-93910527D01*
X58157755Y-93825268D01*
X58157690Y-93736800D01*
X58157634Y-93645348D01*
X58157585Y-93551133D01*
X58157546Y-93454380D01*
X58157517Y-93355310D01*
X58157497Y-93254147D01*
X58157487Y-93151113D01*
X58157486Y-93103133D01*
X58157486Y-91552077D01*
X58554579Y-91552077D01*
X58951673Y-91552077D01*
X58951673Y-93105466D01*
G37*
G36*
X62094306Y-91501123D02*
G01*
X62095185Y-92769150D01*
X62597238Y-92160858D01*
X63099290Y-91552565D01*
X63555277Y-91552321D01*
X63611128Y-91552313D01*
X63664997Y-91552348D01*
X63716477Y-91552423D01*
X63765159Y-91552536D01*
X63810632Y-91552684D01*
X63852490Y-91552866D01*
X63890322Y-91553079D01*
X63923720Y-91553320D01*
X63952275Y-91553588D01*
X63975578Y-91553879D01*
X63993220Y-91554191D01*
X64004793Y-91554523D01*
X64009886Y-91554871D01*
X64010098Y-91554967D01*
X64007690Y-91557809D01*
X64000824Y-91565631D01*
X63989710Y-91578199D01*
X63974557Y-91595279D01*
X63955574Y-91616637D01*
X63932969Y-91642039D01*
X63906951Y-91671250D01*
X63877729Y-91704036D01*
X63845513Y-91740162D01*
X63810510Y-91779396D01*
X63772930Y-91821502D01*
X63732982Y-91866247D01*
X63690874Y-91913395D01*
X63646816Y-91962714D01*
X63601016Y-92013969D01*
X63553683Y-92066925D01*
X63505026Y-92121348D01*
X63484139Y-92144707D01*
X63435003Y-92199667D01*
X63387118Y-92253256D01*
X63340692Y-92305242D01*
X63295933Y-92355388D01*
X63253048Y-92403462D01*
X63212246Y-92449230D01*
X63173735Y-92492458D01*
X63137722Y-92532912D01*
X63104417Y-92570357D01*
X63074026Y-92604561D01*
X63046758Y-92635288D01*
X63022821Y-92662306D01*
X63002423Y-92685380D01*
X62985772Y-92704276D01*
X62973076Y-92718761D01*
X62964543Y-92728600D01*
X62960381Y-92733559D01*
X62959986Y-92734133D01*
X62961734Y-92737348D01*
X62966787Y-92746429D01*
X62975016Y-92761144D01*
X62986291Y-92781262D01*
X63000482Y-92806553D01*
X63017460Y-92836786D01*
X63037094Y-92871731D01*
X63059255Y-92911155D01*
X63083813Y-92954830D01*
X63110638Y-93002523D01*
X63139601Y-93054005D01*
X63170571Y-93109043D01*
X63203418Y-93167409D01*
X63238014Y-93228870D01*
X63274227Y-93293196D01*
X63311929Y-93360157D01*
X63350989Y-93429521D01*
X63391278Y-93501058D01*
X63432665Y-93574536D01*
X63475022Y-93649726D01*
X63501398Y-93696544D01*
X63544276Y-93772654D01*
X63586260Y-93847185D01*
X63627222Y-93919909D01*
X63667032Y-93990594D01*
X63705560Y-94059011D01*
X63742676Y-94124930D01*
X63778252Y-94188119D01*
X63812156Y-94248348D01*
X63844261Y-94305387D01*
X63874435Y-94359006D01*
X63902550Y-94408975D01*
X63928476Y-94455063D01*
X63952083Y-94497039D01*
X63973242Y-94534674D01*
X63991823Y-94567737D01*
X64007696Y-94595997D01*
X64020733Y-94619225D01*
X64030802Y-94637190D01*
X64037775Y-94649662D01*
X64041523Y-94656409D01*
X64042169Y-94657617D01*
X64038740Y-94657772D01*
X64028733Y-94657921D01*
X64012568Y-94658064D01*
X63990662Y-94658198D01*
X63963436Y-94658323D01*
X63931308Y-94658438D01*
X63894698Y-94658542D01*
X63854025Y-94658633D01*
X63809708Y-94658709D01*
X63762166Y-94658771D01*
X63711818Y-94658817D01*
X63659084Y-94658845D01*
X63605269Y-94658854D01*
X63538389Y-94658841D01*
X63478199Y-94658799D01*
X63424393Y-94658726D01*
X63376663Y-94658619D01*
X63334702Y-94658474D01*
X63298204Y-94658288D01*
X63266862Y-94658059D01*
X63240368Y-94657783D01*
X63218416Y-94657458D01*
X63200699Y-94657080D01*
X63186911Y-94656645D01*
X63176743Y-94656153D01*
X63169889Y-94655598D01*
X63166043Y-94654978D01*
X63164956Y-94654481D01*
X63163029Y-94651012D01*
X63157999Y-94641628D01*
X63150013Y-94626611D01*
X63139221Y-94606242D01*
X63125770Y-94580802D01*
X63109809Y-94550573D01*
X63091485Y-94515836D01*
X63070948Y-94476872D01*
X63048344Y-94433963D01*
X63023823Y-94387390D01*
X62997532Y-94337434D01*
X62969620Y-94284377D01*
X62940235Y-94228500D01*
X62909525Y-94170084D01*
X62877638Y-94109411D01*
X62844723Y-94046761D01*
X62810927Y-93982417D01*
X62801887Y-93965202D01*
X62767920Y-93900545D01*
X62734804Y-93837561D01*
X62702687Y-93776527D01*
X62671715Y-93717722D01*
X62642036Y-93661425D01*
X62613797Y-93607912D01*
X62587145Y-93557461D01*
X62562228Y-93510351D01*
X62539193Y-93466860D01*
X62518186Y-93427265D01*
X62499356Y-93391845D01*
X62482850Y-93360877D01*
X62468814Y-93334639D01*
X62457396Y-93313410D01*
X62448743Y-93297467D01*
X62443003Y-93287088D01*
X62440323Y-93282551D01*
X62440141Y-93282365D01*
X62437504Y-93285230D01*
X62430536Y-93292864D01*
X62419613Y-93304855D01*
X62405107Y-93320793D01*
X62387393Y-93340265D01*
X62366845Y-93362861D01*
X62343838Y-93388169D01*
X62318744Y-93415778D01*
X62291938Y-93445277D01*
X62265876Y-93473965D01*
X62093701Y-93663496D01*
X62093568Y-94161175D01*
X62093436Y-94658854D01*
X61701590Y-94658854D01*
X61309745Y-94658854D01*
X61309745Y-92445975D01*
X61309745Y-90233097D01*
X61701586Y-90233097D01*
X62093427Y-90233097D01*
X62094306Y-91501123D01*
G37*
G36*
X55617332Y-94893314D02*
G01*
X55657926Y-94893858D01*
X55696053Y-94894711D01*
X55730483Y-94895868D01*
X55759989Y-94897322D01*
X55776673Y-94898482D01*
X55854288Y-94906379D01*
X55925677Y-94916993D01*
X55991095Y-94930410D01*
X56050798Y-94946716D01*
X56105043Y-94965996D01*
X56154085Y-94988336D01*
X56198182Y-95013821D01*
X56237589Y-95042536D01*
X56255662Y-95058175D01*
X56286856Y-95090976D01*
X56312254Y-95127105D01*
X56332301Y-95167279D01*
X56343983Y-95200132D01*
X56347593Y-95212668D01*
X56350139Y-95223692D01*
X56351806Y-95234903D01*
X56352775Y-95247999D01*
X56353232Y-95264679D01*
X56353359Y-95286642D01*
X56353359Y-95286857D01*
X56353215Y-95310159D01*
X56352635Y-95328134D01*
X56351474Y-95342446D01*
X56349582Y-95354758D01*
X56346812Y-95366734D01*
X56346016Y-95369688D01*
X56329076Y-95418511D01*
X56306163Y-95463723D01*
X56277327Y-95505271D01*
X56242619Y-95543102D01*
X56202091Y-95577163D01*
X56155794Y-95607402D01*
X56103779Y-95633765D01*
X56081620Y-95643118D01*
X56036386Y-95659744D01*
X55989482Y-95673956D01*
X55939842Y-95685987D01*
X55886400Y-95696068D01*
X55828091Y-95704432D01*
X55771425Y-95710601D01*
X55751489Y-95712108D01*
X55725693Y-95713455D01*
X55695174Y-95714629D01*
X55661069Y-95715614D01*
X55624514Y-95716398D01*
X55586646Y-95716967D01*
X55548600Y-95717307D01*
X55511514Y-95717403D01*
X55476523Y-95717242D01*
X55444765Y-95716810D01*
X55417375Y-95716094D01*
X55397073Y-95715174D01*
X55373489Y-95713645D01*
X55347816Y-95711764D01*
X55322939Y-95709753D01*
X55301741Y-95707837D01*
X55299111Y-95707577D01*
X55255378Y-95703193D01*
X55252691Y-95675204D01*
X55251977Y-95664160D01*
X55251307Y-95646775D01*
X55250683Y-95623704D01*
X55250109Y-95595603D01*
X55249585Y-95563127D01*
X55249116Y-95526933D01*
X55248702Y-95487675D01*
X55248348Y-95446011D01*
X55248055Y-95402594D01*
X55247825Y-95358081D01*
X55247662Y-95313128D01*
X55247568Y-95268391D01*
X55247544Y-95224524D01*
X55247545Y-95223546D01*
X55310721Y-95223546D01*
X55310746Y-95266414D01*
X55310871Y-95310469D01*
X55311090Y-95354928D01*
X55311399Y-95399010D01*
X55311794Y-95441935D01*
X55312271Y-95482921D01*
X55312825Y-95521185D01*
X55313453Y-95555948D01*
X55314150Y-95586427D01*
X55314912Y-95611842D01*
X55315734Y-95631410D01*
X55316143Y-95638400D01*
X55318353Y-95671569D01*
X55334097Y-95674194D01*
X55350211Y-95676218D01*
X55372301Y-95678012D01*
X55399345Y-95679558D01*
X55430327Y-95680837D01*
X55464226Y-95681831D01*
X55500023Y-95682521D01*
X55536700Y-95682890D01*
X55573236Y-95682918D01*
X55608613Y-95682587D01*
X55641813Y-95681879D01*
X55671814Y-95680775D01*
X55678712Y-95680434D01*
X55756315Y-95675012D01*
X55827607Y-95667156D01*
X55892871Y-95656777D01*
X55952387Y-95643787D01*
X56006438Y-95628098D01*
X56055305Y-95609622D01*
X56099269Y-95588270D01*
X56138612Y-95563955D01*
X56173616Y-95536587D01*
X56191526Y-95519797D01*
X56223969Y-95483017D01*
X56249764Y-95444159D01*
X56269016Y-95402968D01*
X56281831Y-95359192D01*
X56288315Y-95312575D01*
X56289221Y-95286067D01*
X56286430Y-95240944D01*
X56277907Y-95199590D01*
X56263434Y-95161462D01*
X56242789Y-95126016D01*
X56215752Y-95092707D01*
X56207178Y-95083861D01*
X56176896Y-95056942D01*
X56142799Y-95032869D01*
X56104508Y-95011510D01*
X56061643Y-94992730D01*
X56013823Y-94976396D01*
X55960669Y-94962373D01*
X55901802Y-94950528D01*
X55836841Y-94940727D01*
X55783670Y-94934615D01*
X55767334Y-94933342D01*
X55746080Y-94932287D01*
X55720621Y-94931443D01*
X55691668Y-94930804D01*
X55659934Y-94930363D01*
X55626132Y-94930113D01*
X55590973Y-94930047D01*
X55555170Y-94930159D01*
X55519436Y-94930440D01*
X55484482Y-94930886D01*
X55451022Y-94931487D01*
X55419766Y-94932239D01*
X55391429Y-94933134D01*
X55366721Y-94934165D01*
X55346356Y-94935325D01*
X55331045Y-94936607D01*
X55321501Y-94938005D01*
X55318591Y-94939089D01*
X55318043Y-94942845D01*
X55317262Y-94952673D01*
X55316303Y-94967652D01*
X55315221Y-94986863D01*
X55314071Y-95009386D01*
X55312907Y-95034301D01*
X55312876Y-95035010D01*
X55312221Y-95054351D01*
X55311689Y-95079566D01*
X55311278Y-95109875D01*
X55310982Y-95144495D01*
X55310798Y-95182646D01*
X55310721Y-95223546D01*
X55247545Y-95223546D01*
X55247595Y-95182184D01*
X55247722Y-95142026D01*
X55247927Y-95104706D01*
X55248214Y-95070879D01*
X55248584Y-95041202D01*
X55249041Y-95016330D01*
X55249586Y-94996919D01*
X55250075Y-94985975D01*
X55251474Y-94963926D01*
X55252965Y-94944224D01*
X55254447Y-94927947D01*
X55255819Y-94916175D01*
X55256979Y-94909986D01*
X55257273Y-94909377D01*
X55260998Y-94907826D01*
X55269503Y-94906236D01*
X55283166Y-94904570D01*
X55302367Y-94902795D01*
X55327483Y-94900873D01*
X55358893Y-94898769D01*
X55390722Y-94896817D01*
X55420330Y-94895400D01*
X55454840Y-94894324D01*
X55493024Y-94893582D01*
X55533652Y-94893170D01*
X55575498Y-94893083D01*
X55617332Y-94893314D01*
G37*
G36*
X66583698Y-91552091D02*
G01*
X66640426Y-91552135D01*
X66690799Y-91552212D01*
X66735137Y-91552326D01*
X66773761Y-91552480D01*
X66806990Y-91552679D01*
X66835148Y-91552925D01*
X66858553Y-91553222D01*
X66877526Y-91553574D01*
X66892389Y-91553984D01*
X66903462Y-91554456D01*
X66911066Y-91554992D01*
X66915521Y-91555598D01*
X66917149Y-91556276D01*
X66917154Y-91556450D01*
X66915933Y-91560011D01*
X66912526Y-91569993D01*
X66907001Y-91586195D01*
X66899428Y-91608415D01*
X66889875Y-91636450D01*
X66878412Y-91670099D01*
X66865106Y-91709159D01*
X66850028Y-91753428D01*
X66833245Y-91802704D01*
X66814826Y-91856786D01*
X66794841Y-91915470D01*
X66773357Y-91978555D01*
X66750445Y-92045839D01*
X66726173Y-92117120D01*
X66700609Y-92192195D01*
X66673822Y-92270862D01*
X66645882Y-92352920D01*
X66616856Y-92438166D01*
X66586815Y-92526398D01*
X66555826Y-92617415D01*
X66523959Y-92711013D01*
X66491282Y-92806991D01*
X66457864Y-92905146D01*
X66423774Y-93005277D01*
X66389081Y-93107182D01*
X66368822Y-93166692D01*
X66333656Y-93269972D01*
X66298984Y-93371778D01*
X66264877Y-93471899D01*
X66231406Y-93570124D01*
X66198645Y-93666242D01*
X66166664Y-93760045D01*
X66135535Y-93851322D01*
X66105331Y-93939862D01*
X66076124Y-94025454D01*
X66047984Y-94107890D01*
X66020984Y-94186958D01*
X65995197Y-94262449D01*
X65970692Y-94334151D01*
X65947544Y-94401855D01*
X65925823Y-94465351D01*
X65905601Y-94524428D01*
X65886950Y-94578876D01*
X65869943Y-94628484D01*
X65854650Y-94673043D01*
X65841144Y-94712342D01*
X65829497Y-94746171D01*
X65819780Y-94774320D01*
X65812066Y-94796578D01*
X65806425Y-94812735D01*
X65802931Y-94822580D01*
X65802024Y-94825039D01*
X65786812Y-94864179D01*
X65772855Y-94898678D01*
X65759268Y-94930557D01*
X65745166Y-94961836D01*
X65729663Y-94994536D01*
X65712357Y-95029708D01*
X65676140Y-95099188D01*
X65639659Y-95162648D01*
X65602251Y-95221054D01*
X65563253Y-95275372D01*
X65522003Y-95326568D01*
X65477837Y-95375609D01*
X65467858Y-95386004D01*
X65436648Y-95417382D01*
X65407917Y-95444444D01*
X65380050Y-95468549D01*
X65351432Y-95491055D01*
X65320449Y-95513322D01*
X65300783Y-95526646D01*
X65235115Y-95566805D01*
X65166236Y-95601935D01*
X65093757Y-95632166D01*
X65017290Y-95657625D01*
X64936448Y-95678441D01*
X64850842Y-95694743D01*
X64760083Y-95706659D01*
X64755888Y-95707093D01*
X64740646Y-95708315D01*
X64719904Y-95709492D01*
X64694820Y-95710597D01*
X64666555Y-95711607D01*
X64636269Y-95712495D01*
X64605121Y-95713237D01*
X64574272Y-95713806D01*
X64544881Y-95714179D01*
X64518108Y-95714329D01*
X64495113Y-95714231D01*
X64477055Y-95713861D01*
X64467252Y-95713374D01*
X64457615Y-95712682D01*
X64442703Y-95711636D01*
X64424222Y-95710355D01*
X64403879Y-95708958D01*
X64393780Y-95708269D01*
X64355116Y-95705314D01*
X64317834Y-95701741D01*
X64279728Y-95697301D01*
X64238592Y-95691741D01*
X64205936Y-95686916D01*
X64154538Y-95679105D01*
X64152595Y-95657912D01*
X64152106Y-95650985D01*
X64151314Y-95637788D01*
X64150254Y-95618976D01*
X64148958Y-95595199D01*
X64147458Y-95567112D01*
X64145788Y-95535367D01*
X64143980Y-95500615D01*
X64142068Y-95463510D01*
X64140084Y-95424705D01*
X64138061Y-95384852D01*
X64136032Y-95344603D01*
X64134030Y-95304611D01*
X64132087Y-95265530D01*
X64130237Y-95228010D01*
X64128513Y-95192706D01*
X64126946Y-95160270D01*
X64125571Y-95131353D01*
X64124420Y-95106610D01*
X64123526Y-95086692D01*
X64122921Y-95072252D01*
X64122639Y-95063943D01*
X64122622Y-95062704D01*
X64122637Y-95048469D01*
X64177741Y-95058295D01*
X64245698Y-95069720D01*
X64308579Y-95078776D01*
X64367839Y-95085610D01*
X64424932Y-95090363D01*
X64481315Y-95093180D01*
X64538441Y-95094206D01*
X64540723Y-95094211D01*
X64571103Y-95094176D01*
X64595623Y-95093904D01*
X64615418Y-95093337D01*
X64631623Y-95092419D01*
X64645372Y-95091096D01*
X64657800Y-95089309D01*
X64664691Y-95088069D01*
X64721883Y-95073967D01*
X64775163Y-95054260D01*
X64824656Y-95028851D01*
X64870486Y-94997639D01*
X64912780Y-94960527D01*
X64951660Y-94917415D01*
X64987253Y-94868204D01*
X65019682Y-94812795D01*
X65024933Y-94802666D01*
X65036277Y-94779921D01*
X65046255Y-94758709D01*
X65055418Y-94737649D01*
X65064315Y-94715365D01*
X65073499Y-94690477D01*
X65083520Y-94661607D01*
X65094799Y-94627768D01*
X65119401Y-94552949D01*
X64601777Y-93055385D01*
X64567495Y-92956198D01*
X64533794Y-92858676D01*
X64500745Y-92763029D01*
X64468419Y-92669465D01*
X64436890Y-92578193D01*
X64406228Y-92489421D01*
X64376507Y-92403358D01*
X64347797Y-92320212D01*
X64320171Y-92240191D01*
X64293700Y-92163506D01*
X64268457Y-92090363D01*
X64244514Y-92020971D01*
X64221942Y-91955540D01*
X64200813Y-91894277D01*
X64181200Y-91837391D01*
X64163174Y-91785091D01*
X64146808Y-91737585D01*
X64132172Y-91695082D01*
X64119340Y-91657790D01*
X64108383Y-91625918D01*
X64099373Y-91599674D01*
X64092381Y-91579267D01*
X64087481Y-91564905D01*
X64084744Y-91556798D01*
X64084152Y-91554949D01*
X64087580Y-91554583D01*
X64097576Y-91554230D01*
X64113714Y-91553894D01*
X64135565Y-91553578D01*
X64162700Y-91553285D01*
X64194693Y-91553018D01*
X64231115Y-91552779D01*
X64271538Y-91552571D01*
X64315534Y-91552398D01*
X64362675Y-91552262D01*
X64412533Y-91552166D01*
X64464680Y-91552114D01*
X64503112Y-91552104D01*
X64922073Y-91552131D01*
X65102136Y-92184480D01*
X65120758Y-92249882D01*
X65138971Y-92313861D01*
X65156674Y-92376058D01*
X65173765Y-92436117D01*
X65190142Y-92493678D01*
X65205703Y-92548382D01*
X65220347Y-92599873D01*
X65233971Y-92647791D01*
X65246473Y-92691778D01*
X65257752Y-92731476D01*
X65267706Y-92766526D01*
X65276234Y-92796570D01*
X65283232Y-92821250D01*
X65288599Y-92840208D01*
X65292234Y-92853085D01*
X65293839Y-92858813D01*
X65298310Y-92875246D01*
X65304345Y-92897892D01*
X65311796Y-92926182D01*
X65320515Y-92959541D01*
X65330357Y-92997401D01*
X65341174Y-93039188D01*
X65352819Y-93084332D01*
X65365145Y-93132261D01*
X65378006Y-93182404D01*
X65391254Y-93234190D01*
X65404743Y-93287046D01*
X65418326Y-93340401D01*
X65431855Y-93393685D01*
X65445185Y-93446325D01*
X65458167Y-93497751D01*
X65461012Y-93509044D01*
X65473312Y-93557725D01*
X65484053Y-93599877D01*
X65493309Y-93635775D01*
X65501156Y-93665693D01*
X65507668Y-93689905D01*
X65512921Y-93708686D01*
X65516988Y-93722310D01*
X65519946Y-93731053D01*
X65521869Y-93735188D01*
X65522753Y-93735267D01*
X65524091Y-93730732D01*
X65527088Y-93719972D01*
X65531599Y-93703521D01*
X65537481Y-93681916D01*
X65544587Y-93655690D01*
X65552774Y-93625380D01*
X65561896Y-93591520D01*
X65571809Y-93554646D01*
X65582368Y-93515292D01*
X65593429Y-93473995D01*
X65595465Y-93466386D01*
X65606610Y-93424724D01*
X65617020Y-93385825D01*
X65626797Y-93349314D01*
X65636043Y-93314814D01*
X65644862Y-93281950D01*
X65653357Y-93250347D01*
X65661631Y-93219628D01*
X65669786Y-93189418D01*
X65677925Y-93159341D01*
X65686151Y-93129022D01*
X65694567Y-93098084D01*
X65703276Y-93066152D01*
X65712380Y-93032851D01*
X65721984Y-92997804D01*
X65732189Y-92960637D01*
X65743098Y-92920972D01*
X65754814Y-92878435D01*
X65767440Y-92832650D01*
X65781080Y-92783241D01*
X65795835Y-92729833D01*
X65811809Y-92672049D01*
X65829104Y-92609514D01*
X65847824Y-92541853D01*
X65868071Y-92468689D01*
X65889948Y-92389647D01*
X65913559Y-92304351D01*
X65921084Y-92277167D01*
X66121800Y-91552077D01*
X66520292Y-91552077D01*
X66583698Y-91552091D01*
G37*
G36*
X55723335Y-94838877D02*
G01*
X55769084Y-94839328D01*
X55810745Y-94840077D01*
X55848803Y-94841143D01*
X55883741Y-94842541D01*
X55916045Y-94844288D01*
X55946198Y-94846401D01*
X55974686Y-94848898D01*
X56001991Y-94851794D01*
X56028600Y-94855107D01*
X56054996Y-94858854D01*
X56081664Y-94863051D01*
X56086301Y-94863818D01*
X56141905Y-94874164D01*
X56192356Y-94886016D01*
X56239433Y-94899925D01*
X56284915Y-94916441D01*
X56330580Y-94936116D01*
X56350772Y-94945711D01*
X56406020Y-94975348D01*
X56454625Y-95007159D01*
X56496598Y-95041153D01*
X56531949Y-95077341D01*
X56560691Y-95115733D01*
X56580077Y-95150411D01*
X56590900Y-95174868D01*
X56598317Y-95196713D01*
X56602855Y-95218379D01*
X56605040Y-95242299D01*
X56605431Y-95267614D01*
X56605017Y-95288391D01*
X56603936Y-95304575D01*
X56601876Y-95318562D01*
X56598524Y-95332749D01*
X56595617Y-95342835D01*
X56578345Y-95388235D01*
X56554423Y-95432094D01*
X56524065Y-95474224D01*
X56487487Y-95514437D01*
X56444903Y-95552546D01*
X56396527Y-95588365D01*
X56342576Y-95621705D01*
X56283262Y-95652380D01*
X56218802Y-95680203D01*
X56200756Y-95687122D01*
X56148960Y-95704842D01*
X56092448Y-95721246D01*
X56033461Y-95735791D01*
X55974236Y-95747936D01*
X55917014Y-95757140D01*
X55904373Y-95758783D01*
X55887191Y-95760883D01*
X55871085Y-95762765D01*
X55855593Y-95764442D01*
X55840254Y-95765925D01*
X55824604Y-95767227D01*
X55808183Y-95768360D01*
X55790527Y-95769334D01*
X55771175Y-95770164D01*
X55749664Y-95770859D01*
X55725534Y-95771432D01*
X55698320Y-95771896D01*
X55667562Y-95772262D01*
X55632797Y-95772542D01*
X55593564Y-95772748D01*
X55549399Y-95772891D01*
X55499841Y-95772985D01*
X55444429Y-95773040D01*
X55382699Y-95773069D01*
X55351259Y-95773077D01*
X55288869Y-95773087D01*
X55233095Y-95773084D01*
X55183555Y-95773063D01*
X55139865Y-95773018D01*
X55101645Y-95772944D01*
X55068512Y-95772833D01*
X55040084Y-95772682D01*
X55015980Y-95772483D01*
X54995816Y-95772232D01*
X54979213Y-95771922D01*
X54965786Y-95771548D01*
X54955155Y-95771104D01*
X54946937Y-95770585D01*
X54940750Y-95769983D01*
X54936213Y-95769295D01*
X54932943Y-95768514D01*
X54930559Y-95767633D01*
X54928800Y-95766721D01*
X54922230Y-95762222D01*
X54918962Y-95757092D01*
X54917868Y-95748827D01*
X54917785Y-95742230D01*
X54918234Y-95731170D01*
X54920325Y-95724466D01*
X54925233Y-95719489D01*
X54929156Y-95716799D01*
X54937758Y-95712536D01*
X54950830Y-95707591D01*
X54966018Y-95702824D01*
X54971453Y-95701341D01*
X54985697Y-95697278D01*
X54997579Y-95693248D01*
X55005280Y-95689894D01*
X55006889Y-95688785D01*
X55009028Y-95685473D01*
X55010961Y-95679547D01*
X55012820Y-95670167D01*
X55014741Y-95656493D01*
X55016855Y-95637684D01*
X55019297Y-95612899D01*
X55019823Y-95607288D01*
X55020393Y-95597909D01*
X55020978Y-95582154D01*
X55021569Y-95560647D01*
X55022154Y-95534008D01*
X55022725Y-95502861D01*
X55023270Y-95467828D01*
X55023779Y-95429530D01*
X55024241Y-95388589D01*
X55024648Y-95345629D01*
X55024987Y-95301270D01*
X55025050Y-95291700D01*
X55025382Y-95233910D01*
X55025591Y-95182708D01*
X55025666Y-95137684D01*
X55025593Y-95098429D01*
X55025362Y-95064535D01*
X55024959Y-95035593D01*
X55024373Y-95011194D01*
X55023592Y-94990929D01*
X55022603Y-94974388D01*
X55021395Y-94961164D01*
X55019954Y-94950846D01*
X55018270Y-94943027D01*
X55016330Y-94937297D01*
X55014439Y-94933715D01*
X55011740Y-94930332D01*
X55008010Y-94927616D01*
X55002406Y-94925431D01*
X54994086Y-94923639D01*
X54982206Y-94922104D01*
X54965923Y-94920691D01*
X54944394Y-94919262D01*
X54916776Y-94917681D01*
X54914593Y-94917561D01*
X54889787Y-94916095D01*
X54870895Y-94914684D01*
X54856836Y-94913188D01*
X54846528Y-94911465D01*
X54838891Y-94909373D01*
X54833094Y-94906899D01*
X54819487Y-94899957D01*
X54820465Y-94877741D01*
X54887080Y-94877741D01*
X54891189Y-94878721D01*
X54901001Y-94879918D01*
X54915231Y-94881209D01*
X54932593Y-94882468D01*
X54941149Y-94882995D01*
X54974426Y-94885305D01*
X55001509Y-94888123D01*
X55023196Y-94891675D01*
X55040286Y-94896186D01*
X55053577Y-94901883D01*
X55063866Y-94908992D01*
X55071951Y-94917739D01*
X55074018Y-94920645D01*
X55076991Y-94925233D01*
X55079594Y-94929915D01*
X55081852Y-94935165D01*
X55083789Y-94941454D01*
X55085429Y-94949258D01*
X55086798Y-94959048D01*
X55087919Y-94971298D01*
X55088818Y-94986480D01*
X55089519Y-95005069D01*
X55090046Y-95027538D01*
X55090425Y-95054358D01*
X55090679Y-95086005D01*
X55090833Y-95122950D01*
X55090912Y-95165667D01*
X55090940Y-95214629D01*
X55090943Y-95246623D01*
X55090894Y-95307005D01*
X55090737Y-95360915D01*
X55090456Y-95408878D01*
X55090036Y-95451416D01*
X55089460Y-95489055D01*
X55088713Y-95522319D01*
X55087779Y-95551732D01*
X55086643Y-95577818D01*
X55085288Y-95601102D01*
X55083699Y-95622108D01*
X55081861Y-95641361D01*
X55079757Y-95659384D01*
X55078213Y-95670880D01*
X55075104Y-95688504D01*
X55070745Y-95701000D01*
X55063833Y-95709823D01*
X55053066Y-95716427D01*
X55037144Y-95722266D01*
X55030374Y-95724320D01*
X55016076Y-95728608D01*
X55003840Y-95732397D01*
X54995594Y-95735086D01*
X54993800Y-95735737D01*
X54996386Y-95736062D01*
X55005529Y-95736372D01*
X55020791Y-95736665D01*
X55041731Y-95736937D01*
X55067911Y-95737187D01*
X55098891Y-95737410D01*
X55134232Y-95737604D01*
X55173493Y-95737768D01*
X55216236Y-95737897D01*
X55262021Y-95737990D01*
X55310409Y-95738043D01*
X55360961Y-95738054D01*
X55368153Y-95738052D01*
X55429662Y-95738020D01*
X55484630Y-95737965D01*
X55533515Y-95737879D01*
X55576774Y-95737756D01*
X55614862Y-95737591D01*
X55648237Y-95737377D01*
X55677356Y-95737107D01*
X55702675Y-95736776D01*
X55724652Y-95736376D01*
X55743743Y-95735903D01*
X55760405Y-95735349D01*
X55775095Y-95734709D01*
X55788269Y-95733975D01*
X55800385Y-95733142D01*
X55811899Y-95732204D01*
X55815158Y-95731914D01*
X55896284Y-95722565D01*
X55973859Y-95709586D01*
X56047630Y-95693116D01*
X56117344Y-95673294D01*
X56182748Y-95650259D01*
X56243590Y-95624149D01*
X56299615Y-95595103D01*
X56350572Y-95563261D01*
X56396208Y-95528760D01*
X56436269Y-95491739D01*
X56470503Y-95452338D01*
X56498657Y-95410695D01*
X56520478Y-95366949D01*
X56530556Y-95339336D01*
X56537204Y-95310450D01*
X56540431Y-95278363D01*
X56540153Y-95245869D01*
X56536282Y-95215762D01*
X56534604Y-95208384D01*
X56520962Y-95167997D01*
X56500993Y-95129863D01*
X56474621Y-95093902D01*
X56441773Y-95060035D01*
X56402371Y-95028181D01*
X56356341Y-94998261D01*
X56314718Y-94975676D01*
X56274358Y-94956743D01*
X56232970Y-94940140D01*
X56189867Y-94925730D01*
X56144361Y-94913375D01*
X56095765Y-94902938D01*
X56043392Y-94894280D01*
X55986555Y-94887263D01*
X55924566Y-94881751D01*
X55856740Y-94877605D01*
X55816907Y-94875865D01*
X55789161Y-94875068D01*
X55754520Y-94874538D01*
X55712968Y-94874276D01*
X55664491Y-94874280D01*
X55609073Y-94874551D01*
X55546699Y-94875090D01*
X55477353Y-94875895D01*
X55451301Y-94876242D01*
X55403284Y-94876841D01*
X55353839Y-94877348D01*
X55303932Y-94877759D01*
X55254533Y-94878071D01*
X55206608Y-94878279D01*
X55161124Y-94878380D01*
X55119050Y-94878372D01*
X55081353Y-94878250D01*
X55049001Y-94878011D01*
X55029876Y-94877769D01*
X54998892Y-94877336D01*
X54970277Y-94877035D01*
X54944744Y-94876866D01*
X54923005Y-94876830D01*
X54905773Y-94876925D01*
X54893759Y-94877153D01*
X54887677Y-94877514D01*
X54887080Y-94877741D01*
X54820465Y-94877741D01*
X54820518Y-94876531D01*
X54821549Y-94853104D01*
X54837293Y-94845718D01*
X54841798Y-94843696D01*
X54846273Y-94842105D01*
X54851528Y-94840920D01*
X54858372Y-94840113D01*
X54867613Y-94839655D01*
X54880060Y-94839521D01*
X54896523Y-94839684D01*
X54917811Y-94840115D01*
X54944732Y-94840788D01*
X54966742Y-94841372D01*
X54992545Y-94841895D01*
X55024846Y-94842270D01*
X55063147Y-94842497D01*
X55106952Y-94842576D01*
X55155763Y-94842509D01*
X55209082Y-94842297D01*
X55266411Y-94841941D01*
X55327254Y-94841441D01*
X55391113Y-94840798D01*
X55416315Y-94840514D01*
X55489770Y-94839724D01*
X55556715Y-94839148D01*
X55617635Y-94838804D01*
X55673013Y-94838708D01*
X55723335Y-94838877D01*
G37*
G36*
X59513055Y-94839631D02*
G01*
X59536262Y-94839905D01*
X59564742Y-94840353D01*
X59599133Y-94840962D01*
X59626996Y-94841476D01*
X59681808Y-94842271D01*
X59741305Y-94842738D01*
X59803186Y-94842877D01*
X59865145Y-94842687D01*
X59924880Y-94842169D01*
X59971610Y-94841480D01*
X60011131Y-94840777D01*
X60044282Y-94840221D01*
X60071693Y-94839824D01*
X60093990Y-94839599D01*
X60111801Y-94839557D01*
X60125753Y-94839711D01*
X60136474Y-94840074D01*
X60144592Y-94840658D01*
X60150733Y-94841475D01*
X60155525Y-94842537D01*
X60159596Y-94843856D01*
X60163071Y-94845237D01*
X60179690Y-94852140D01*
X60179690Y-94876128D01*
X60179690Y-94900117D01*
X60166524Y-94906833D01*
X60161425Y-94909015D01*
X60154974Y-94910797D01*
X60146246Y-94912276D01*
X60134320Y-94913548D01*
X60118269Y-94914710D01*
X60097172Y-94915857D01*
X60070104Y-94917086D01*
X60066775Y-94917228D01*
X60034056Y-94918804D01*
X60007891Y-94920474D01*
X59988397Y-94922226D01*
X59975694Y-94924050D01*
X59970641Y-94925483D01*
X59965347Y-94928427D01*
X59961083Y-94932154D01*
X59957711Y-94937430D01*
X59955094Y-94945017D01*
X59953095Y-94955680D01*
X59951575Y-94970182D01*
X59950396Y-94989288D01*
X59949422Y-95013760D01*
X59948515Y-95044364D01*
X59948391Y-95048950D01*
X59947656Y-95081590D01*
X59947045Y-95119187D01*
X59946557Y-95160758D01*
X59946191Y-95205313D01*
X59945949Y-95251869D01*
X59945829Y-95299438D01*
X59945832Y-95347033D01*
X59945957Y-95393669D01*
X59946204Y-95438359D01*
X59946573Y-95480117D01*
X59947064Y-95517956D01*
X59947676Y-95550891D01*
X59948409Y-95577934D01*
X59948505Y-95580741D01*
X59949631Y-95610482D01*
X59950833Y-95634012D01*
X59952349Y-95652118D01*
X59954414Y-95665583D01*
X59957267Y-95675194D01*
X59961144Y-95681736D01*
X59966282Y-95685993D01*
X59972917Y-95688751D01*
X59981286Y-95690796D01*
X59981732Y-95690888D01*
X59991138Y-95692233D01*
X60006160Y-95693654D01*
X60025420Y-95695053D01*
X60047538Y-95696334D01*
X60071135Y-95697399D01*
X60077378Y-95697630D01*
X60104571Y-95698702D01*
X60125679Y-95699827D01*
X60141613Y-95701093D01*
X60153287Y-95702587D01*
X60161613Y-95704395D01*
X60166570Y-95706170D01*
X60179690Y-95712033D01*
X60179690Y-95736387D01*
X60179908Y-95742122D01*
X60180306Y-95747223D01*
X60180499Y-95751725D01*
X60180101Y-95755667D01*
X60178729Y-95759086D01*
X60175995Y-95762019D01*
X60171517Y-95764503D01*
X60164907Y-95766575D01*
X60155782Y-95768274D01*
X60143756Y-95769635D01*
X60128445Y-95770697D01*
X60109462Y-95771497D01*
X60086424Y-95772072D01*
X60058944Y-95772459D01*
X60026638Y-95772696D01*
X59989122Y-95772820D01*
X59946008Y-95772868D01*
X59896914Y-95772878D01*
X59841453Y-95772886D01*
X59802592Y-95772908D01*
X59744863Y-95772949D01*
X59693718Y-95772970D01*
X59648741Y-95772964D01*
X59609518Y-95772925D01*
X59575636Y-95772844D01*
X59546679Y-95772717D01*
X59522233Y-95772535D01*
X59501884Y-95772292D01*
X59485218Y-95771981D01*
X59471820Y-95771596D01*
X59461276Y-95771129D01*
X59453172Y-95770575D01*
X59447093Y-95769925D01*
X59442625Y-95769173D01*
X59439354Y-95768313D01*
X59436865Y-95767338D01*
X59435961Y-95766896D01*
X59423687Y-95760599D01*
X59424701Y-95736108D01*
X59490461Y-95736108D01*
X59493877Y-95736414D01*
X59503793Y-95736707D01*
X59519714Y-95736982D01*
X59541143Y-95737237D01*
X59567582Y-95737469D01*
X59598537Y-95737674D01*
X59633510Y-95737848D01*
X59672004Y-95737989D01*
X59713524Y-95738094D01*
X59757572Y-95738158D01*
X59801838Y-95738179D01*
X59847849Y-95738150D01*
X59891809Y-95738067D01*
X59933221Y-95737933D01*
X59971588Y-95737752D01*
X60006415Y-95737529D01*
X60037204Y-95737268D01*
X60063459Y-95736974D01*
X60084684Y-95736649D01*
X60100382Y-95736299D01*
X60110056Y-95735928D01*
X60113216Y-95735555D01*
X60109950Y-95734511D01*
X60101084Y-95733664D01*
X60088015Y-95733106D01*
X60073856Y-95732928D01*
X60033227Y-95732035D01*
X59997114Y-95729417D01*
X59965976Y-95725160D01*
X59940272Y-95719346D01*
X59920460Y-95712062D01*
X59907000Y-95703390D01*
X59905587Y-95702006D01*
X59902104Y-95698401D01*
X59899024Y-95695005D01*
X59896319Y-95691390D01*
X59893963Y-95687125D01*
X59891931Y-95681782D01*
X59890196Y-95674930D01*
X59888732Y-95666140D01*
X59887512Y-95654983D01*
X59886512Y-95641028D01*
X59885704Y-95623847D01*
X59885062Y-95603009D01*
X59884561Y-95578085D01*
X59884173Y-95548645D01*
X59883874Y-95514261D01*
X59883636Y-95474501D01*
X59883434Y-95428938D01*
X59883242Y-95377140D01*
X59883082Y-95332339D01*
X59882889Y-95265981D01*
X59882811Y-95206135D01*
X59882847Y-95152858D01*
X59882998Y-95106210D01*
X59883262Y-95066250D01*
X59883639Y-95033036D01*
X59884129Y-95006627D01*
X59884732Y-94987082D01*
X59885447Y-94974460D01*
X59885642Y-94972394D01*
X59888530Y-94951641D01*
X59892732Y-94934538D01*
X59898909Y-94920690D01*
X59907723Y-94909704D01*
X59919835Y-94901185D01*
X59935905Y-94894739D01*
X59956596Y-94889973D01*
X59982568Y-94886491D01*
X60014484Y-94883901D01*
X60036246Y-94882637D01*
X60057632Y-94881490D01*
X60076797Y-94880413D01*
X60092577Y-94879478D01*
X60103806Y-94878752D01*
X60109319Y-94878306D01*
X60109498Y-94878281D01*
X60106835Y-94878167D01*
X60097661Y-94878058D01*
X60082461Y-94877956D01*
X60061720Y-94877861D01*
X60035925Y-94877775D01*
X60005560Y-94877699D01*
X59971111Y-94877634D01*
X59933065Y-94877582D01*
X59891905Y-94877543D01*
X59848119Y-94877520D01*
X59802785Y-94877512D01*
X59756762Y-94877520D01*
X59712802Y-94877539D01*
X59671398Y-94877569D01*
X59633047Y-94877610D01*
X59598244Y-94877660D01*
X59567482Y-94877718D01*
X59541258Y-94877784D01*
X59520066Y-94877856D01*
X59504401Y-94877934D01*
X59494758Y-94878016D01*
X59491627Y-94878100D01*
X59495130Y-94878458D01*
X59504563Y-94879119D01*
X59518871Y-94880017D01*
X59536995Y-94881086D01*
X59557880Y-94882260D01*
X59562183Y-94882496D01*
X59598543Y-94884799D01*
X59628554Y-94887652D01*
X59652861Y-94891471D01*
X59672110Y-94896673D01*
X59686949Y-94903672D01*
X59698022Y-94912885D01*
X59705976Y-94924729D01*
X59711458Y-94939618D01*
X59715113Y-94957968D01*
X59717588Y-94980197D01*
X59717797Y-94982668D01*
X59718441Y-94994079D01*
X59719021Y-95011544D01*
X59719534Y-95034425D01*
X59719984Y-95062082D01*
X59720368Y-95093878D01*
X59720688Y-95129175D01*
X59720944Y-95167335D01*
X59721135Y-95207718D01*
X59721263Y-95249688D01*
X59721327Y-95292606D01*
X59721328Y-95335834D01*
X59721266Y-95378734D01*
X59721140Y-95420667D01*
X59720951Y-95460995D01*
X59720700Y-95499081D01*
X59720387Y-95534285D01*
X59720011Y-95565970D01*
X59719573Y-95593498D01*
X59719073Y-95616231D01*
X59718512Y-95633529D01*
X59717889Y-95644756D01*
X59717589Y-95647655D01*
X59714125Y-95666876D01*
X59709144Y-95682836D01*
X59702011Y-95695859D01*
X59692093Y-95706273D01*
X59678757Y-95714402D01*
X59661370Y-95720574D01*
X59639297Y-95725112D01*
X59611906Y-95728345D01*
X59578563Y-95730596D01*
X59554311Y-95731654D01*
X59534050Y-95732518D01*
X59516440Y-95733474D01*
X59502575Y-95734446D01*
X59493552Y-95735358D01*
X59490461Y-95736108D01*
X59424701Y-95736108D01*
X59424712Y-95735836D01*
X59425736Y-95711073D01*
X59441480Y-95704705D01*
X59450738Y-95701724D01*
X59462045Y-95699748D01*
X59476959Y-95698602D01*
X59497040Y-95698114D01*
X59500957Y-95698085D01*
X59519499Y-95697744D01*
X59540314Y-95696979D01*
X59562012Y-95695883D01*
X59583203Y-95694549D01*
X59602497Y-95693070D01*
X59618505Y-95691541D01*
X59629838Y-95690055D01*
X59634117Y-95689131D01*
X59639045Y-95685054D01*
X59644530Y-95677053D01*
X59645966Y-95674294D01*
X59648408Y-95666676D01*
X59650554Y-95654401D01*
X59652407Y-95637254D01*
X59653975Y-95615017D01*
X59655263Y-95587472D01*
X59656276Y-95554403D01*
X59657020Y-95515593D01*
X59657501Y-95470824D01*
X59657723Y-95419880D01*
X59657694Y-95362543D01*
X59657417Y-95298597D01*
X59657041Y-95244873D01*
X59656579Y-95191458D01*
X59656091Y-95144593D01*
X59655554Y-95103832D01*
X59654950Y-95068729D01*
X59654258Y-95038837D01*
X59653457Y-95013710D01*
X59652528Y-94992901D01*
X59651450Y-94975963D01*
X59650203Y-94962451D01*
X59648766Y-94951917D01*
X59647119Y-94943915D01*
X59645243Y-94937999D01*
X59643116Y-94933722D01*
X59642888Y-94933366D01*
X59640455Y-94930143D01*
X59637311Y-94927550D01*
X59632650Y-94925472D01*
X59625668Y-94923790D01*
X59615560Y-94922387D01*
X59601523Y-94921146D01*
X59582751Y-94919950D01*
X59558441Y-94918680D01*
X59534274Y-94917524D01*
X59506866Y-94916167D01*
X59485513Y-94914915D01*
X59469276Y-94913663D01*
X59457217Y-94912310D01*
X59448397Y-94910752D01*
X59441876Y-94908885D01*
X59437187Y-94906851D01*
X59423987Y-94900117D01*
X59423987Y-94876128D01*
X59423987Y-94852140D01*
X59440606Y-94845232D01*
X59444615Y-94843654D01*
X59448789Y-94842352D01*
X59453767Y-94841314D01*
X59460186Y-94840527D01*
X59468687Y-94839978D01*
X59479906Y-94839655D01*
X59494482Y-94839543D01*
X59513055Y-94839631D01*
G37*
G36*
X56023954Y-90240142D02*
G01*
X56128634Y-90245982D01*
X56228060Y-90255825D01*
X56322805Y-90269800D01*
X56413440Y-90288037D01*
X56500538Y-90310664D01*
X56584674Y-90337811D01*
X56666419Y-90369608D01*
X56735296Y-90400795D01*
X56820628Y-90445753D01*
X56901645Y-90496161D01*
X56978364Y-90552037D01*
X57050801Y-90613400D01*
X57118972Y-90680268D01*
X57182892Y-90752657D01*
X57242578Y-90830588D01*
X57298046Y-90914077D01*
X57349311Y-91003142D01*
X57396390Y-91097803D01*
X57437193Y-91192781D01*
X57443185Y-91208247D01*
X57450159Y-91226994D01*
X57457782Y-91248049D01*
X57465721Y-91270440D01*
X57473643Y-91293191D01*
X57481217Y-91315330D01*
X57488110Y-91335883D01*
X57493988Y-91353878D01*
X57498519Y-91368339D01*
X57501371Y-91378295D01*
X57502211Y-91382770D01*
X57502157Y-91382898D01*
X57498698Y-91383956D01*
X57488988Y-91386708D01*
X57473530Y-91391016D01*
X57452826Y-91396741D01*
X57427378Y-91403746D01*
X57397689Y-91411892D01*
X57364261Y-91421043D01*
X57327597Y-91431059D01*
X57288198Y-91441803D01*
X57246568Y-91453137D01*
X57224907Y-91459027D01*
X57178301Y-91471695D01*
X57130698Y-91484634D01*
X57082966Y-91497609D01*
X57035969Y-91510383D01*
X56990575Y-91522721D01*
X56947649Y-91534389D01*
X56908057Y-91545150D01*
X56872666Y-91554770D01*
X56842342Y-91563012D01*
X56819100Y-91569329D01*
X56790078Y-91577190D01*
X56763118Y-91584440D01*
X56738979Y-91590880D01*
X56718420Y-91596309D01*
X56702199Y-91600526D01*
X56691076Y-91603333D01*
X56685810Y-91604528D01*
X56685546Y-91604557D01*
X56683287Y-91601352D01*
X56680033Y-91592621D01*
X56676213Y-91579687D01*
X56672259Y-91563874D01*
X56672161Y-91563448D01*
X56651892Y-91485173D01*
X56627996Y-91410724D01*
X56600675Y-91340486D01*
X56570130Y-91274844D01*
X56536563Y-91214183D01*
X56500176Y-91158888D01*
X56461170Y-91109344D01*
X56419747Y-91065936D01*
X56404034Y-91051669D01*
X56353721Y-91012293D01*
X56299926Y-90978886D01*
X56242540Y-90951401D01*
X56181455Y-90929791D01*
X56116561Y-90914007D01*
X56071253Y-90906715D01*
X56046606Y-90904289D01*
X56016688Y-90902603D01*
X55983184Y-90901658D01*
X55947781Y-90901456D01*
X55912165Y-90901996D01*
X55878022Y-90903279D01*
X55847040Y-90905308D01*
X55833426Y-90906584D01*
X55761834Y-90916658D01*
X55694985Y-90931222D01*
X55633002Y-90950194D01*
X55576008Y-90973494D01*
X55524123Y-91001040D01*
X55477470Y-91032749D01*
X55436172Y-91068540D01*
X55400350Y-91108332D01*
X55370127Y-91152043D01*
X55345624Y-91199592D01*
X55329186Y-91243600D01*
X55316714Y-91293561D01*
X55309199Y-91347104D01*
X55306538Y-91402975D01*
X55308630Y-91459922D01*
X55315371Y-91516692D01*
X55326661Y-91572032D01*
X55342396Y-91624689D01*
X55362477Y-91673410D01*
X55364506Y-91677585D01*
X55385082Y-91714681D01*
X55409070Y-91748977D01*
X55437016Y-91780953D01*
X55469465Y-91811088D01*
X55506961Y-91839861D01*
X55550051Y-91867750D01*
X55599279Y-91895235D01*
X55629731Y-91910628D01*
X55690467Y-91938606D01*
X55757454Y-91966202D01*
X55829946Y-91993144D01*
X55907196Y-92019156D01*
X55988458Y-92043964D01*
X56005833Y-92048958D01*
X56024726Y-92054382D01*
X56048448Y-92061268D01*
X56075129Y-92069070D01*
X56102896Y-92077239D01*
X56129877Y-92085228D01*
X56137031Y-92087357D01*
X56161926Y-92094745D01*
X56191765Y-92103555D01*
X56224771Y-92113265D01*
X56259165Y-92123353D01*
X56293171Y-92133296D01*
X56325011Y-92142574D01*
X56327473Y-92143289D01*
X56435606Y-92175966D01*
X56537098Y-92209249D01*
X56632292Y-92243293D01*
X56721530Y-92278255D01*
X56805154Y-92314289D01*
X56883508Y-92351550D01*
X56956932Y-92390195D01*
X57025769Y-92430377D01*
X57090362Y-92472254D01*
X57151053Y-92515979D01*
X57154487Y-92518596D01*
X57216771Y-92569642D01*
X57273289Y-92623300D01*
X57324208Y-92679876D01*
X57369691Y-92739682D01*
X57409904Y-92803026D01*
X57445013Y-92870216D01*
X57475182Y-92941563D01*
X57500576Y-93017375D01*
X57521361Y-93097961D01*
X57537702Y-93183631D01*
X57547466Y-93254157D01*
X57549408Y-93275243D01*
X57551020Y-93301888D01*
X57552297Y-93332850D01*
X57553230Y-93366885D01*
X57553813Y-93402750D01*
X57554039Y-93439201D01*
X57553900Y-93474995D01*
X57553390Y-93508888D01*
X57552500Y-93539638D01*
X57551225Y-93566000D01*
X57549557Y-93586731D01*
X57549387Y-93588276D01*
X57538291Y-93670592D01*
X57524058Y-93747525D01*
X57506408Y-93820083D01*
X57485055Y-93889273D01*
X57459718Y-93956101D01*
X57430112Y-94021574D01*
X57424165Y-94033579D01*
X57389215Y-94097941D01*
X57350805Y-94158324D01*
X57308050Y-94215923D01*
X57260068Y-94271931D01*
X57208450Y-94325132D01*
X57141446Y-94386133D01*
X57070774Y-94441817D01*
X56996084Y-94492393D01*
X56917024Y-94538071D01*
X56833244Y-94579059D01*
X56744391Y-94615566D01*
X56686929Y-94635933D01*
X56597569Y-94663235D01*
X56505307Y-94686272D01*
X56409485Y-94705165D01*
X56309444Y-94720032D01*
X56204526Y-94730994D01*
X56138780Y-94735757D01*
X56117449Y-94736759D01*
X56090434Y-94737553D01*
X56058982Y-94738140D01*
X56024340Y-94738522D01*
X55987755Y-94738700D01*
X55950473Y-94738676D01*
X55913742Y-94738450D01*
X55878807Y-94738026D01*
X55846917Y-94737402D01*
X55819317Y-94736582D01*
X55797254Y-94735567D01*
X55794166Y-94735376D01*
X55676688Y-94724933D01*
X55563353Y-94709084D01*
X55454217Y-94687864D01*
X55349338Y-94661305D01*
X55248772Y-94629442D01*
X55152575Y-94592308D01*
X55060805Y-94549937D01*
X54973517Y-94502363D01*
X54890769Y-94449619D01*
X54812616Y-94391739D01*
X54739117Y-94328757D01*
X54670327Y-94260706D01*
X54606303Y-94187621D01*
X54547101Y-94109534D01*
X54492779Y-94026480D01*
X54443393Y-93938493D01*
X54438176Y-93928342D01*
X54421293Y-93893885D01*
X54404621Y-93857403D01*
X54388455Y-93819722D01*
X54373088Y-93781668D01*
X54358813Y-93744068D01*
X54345923Y-93707747D01*
X54334710Y-93673532D01*
X54325469Y-93642249D01*
X54318491Y-93614724D01*
X54314070Y-93591784D01*
X54312500Y-93574254D01*
X54312500Y-93574034D01*
X54312500Y-93550353D01*
X54329118Y-93544960D01*
X54344693Y-93539933D01*
X54365400Y-93533294D01*
X54390737Y-93525200D01*
X54420206Y-93515809D01*
X54453306Y-93505280D01*
X54489537Y-93493769D01*
X54528400Y-93481437D01*
X54569393Y-93468439D01*
X54612019Y-93454935D01*
X54655775Y-93441082D01*
X54700164Y-93427038D01*
X54744683Y-93412962D01*
X54788835Y-93399011D01*
X54832118Y-93385343D01*
X54874033Y-93372117D01*
X54914079Y-93359490D01*
X54951757Y-93347620D01*
X54986568Y-93336665D01*
X55018010Y-93326784D01*
X55045584Y-93318134D01*
X55068790Y-93310873D01*
X55087128Y-93305159D01*
X55100098Y-93301151D01*
X55107200Y-93299005D01*
X55108437Y-93298679D01*
X55109427Y-93302246D01*
X55111650Y-93311427D01*
X55114820Y-93325006D01*
X55118649Y-93341765D01*
X55120590Y-93350369D01*
X55142751Y-93436785D01*
X55169185Y-93517709D01*
X55199931Y-93593225D01*
X55235031Y-93663413D01*
X55274527Y-93728357D01*
X55318458Y-93788138D01*
X55365463Y-93841389D01*
X55417695Y-93891090D01*
X55472587Y-93934656D01*
X55530509Y-93972275D01*
X55591831Y-94004137D01*
X55656921Y-94030432D01*
X55726150Y-94051349D01*
X55799886Y-94067078D01*
X55808161Y-94068478D01*
X55822051Y-94070646D01*
X55835251Y-94072362D01*
X55848834Y-94073680D01*
X55863874Y-94074650D01*
X55881446Y-94075326D01*
X55902625Y-94075760D01*
X55928484Y-94076003D01*
X55960099Y-94076108D01*
X55965599Y-94076115D01*
X56030672Y-94075384D01*
X56090009Y-94072939D01*
X56144690Y-94068637D01*
X56195799Y-94062332D01*
X56244418Y-94053880D01*
X56291628Y-94043137D01*
X56338512Y-94029957D01*
X56358510Y-94023614D01*
X56418697Y-94001061D01*
X56473061Y-93974670D01*
X56521695Y-93944344D01*
X56564691Y-93909984D01*
X56602142Y-93871489D01*
X56634139Y-93828762D01*
X56660775Y-93781704D01*
X56682143Y-93730215D01*
X56698335Y-93674198D01*
X56702402Y-93655478D01*
X56705722Y-93634331D01*
X56708431Y-93607880D01*
X56710477Y-93577794D01*
X56711808Y-93545744D01*
X56712373Y-93513399D01*
X56712120Y-93482429D01*
X56710998Y-93454505D01*
X56709263Y-93433901D01*
X56700110Y-93373531D01*
X56686815Y-93318512D01*
X56669032Y-93268314D01*
X56646416Y-93222412D01*
X56618623Y-93180278D01*
X56585307Y-93141385D01*
X56546123Y-93105205D01*
X56500725Y-93071211D01*
X56451907Y-93040680D01*
X56419149Y-93022522D01*
X56384270Y-93004732D01*
X56346804Y-92987135D01*
X56306285Y-92969559D01*
X56262247Y-92951827D01*
X56214226Y-92933767D01*
X56161754Y-92915204D01*
X56104366Y-92895963D01*
X56041597Y-92875871D01*
X55972981Y-92854753D01*
X55898052Y-92832434D01*
X55885130Y-92828648D01*
X55830524Y-92812648D01*
X55782011Y-92798356D01*
X55738951Y-92785575D01*
X55700705Y-92774107D01*
X55666633Y-92763754D01*
X55636096Y-92754320D01*
X55608453Y-92745607D01*
X55583066Y-92737416D01*
X55559294Y-92729552D01*
X55536498Y-92721816D01*
X55516026Y-92714709D01*
X55405491Y-92673923D01*
X55301703Y-92631435D01*
X55204612Y-92587215D01*
X55114170Y-92541229D01*
X55030327Y-92493446D01*
X54953034Y-92443834D01*
X54882242Y-92392361D01*
X54817903Y-92338995D01*
X54759967Y-92283704D01*
X54708385Y-92226456D01*
X54663109Y-92167220D01*
X54652766Y-92152091D01*
X54615466Y-92091431D01*
X54582653Y-92027692D01*
X54554176Y-91960412D01*
X54529886Y-91889131D01*
X54509633Y-91813386D01*
X54493267Y-91732717D01*
X54480640Y-91646662D01*
X54476339Y-91608055D01*
X54474840Y-91588736D01*
X54473644Y-91564125D01*
X54472751Y-91535470D01*
X54472163Y-91504018D01*
X54471878Y-91471017D01*
X54471897Y-91437714D01*
X54472220Y-91405358D01*
X54472847Y-91375196D01*
X54473779Y-91348476D01*
X54475016Y-91326446D01*
X54476297Y-91312422D01*
X54490033Y-91222200D01*
X54509298Y-91136088D01*
X54534197Y-91053912D01*
X54564834Y-90975497D01*
X54601315Y-90900672D01*
X54643744Y-90829262D01*
X54692225Y-90761093D01*
X54746863Y-90695993D01*
X54807762Y-90633788D01*
X54875028Y-90574304D01*
X54948765Y-90517369D01*
X54960958Y-90508634D01*
X55026398Y-90465635D01*
X55097342Y-90425362D01*
X55172657Y-90388324D01*
X55251209Y-90355033D01*
X55331865Y-90326000D01*
X55413491Y-90301735D01*
X55428905Y-90297734D01*
X55530243Y-90275245D01*
X55635702Y-90258060D01*
X55744782Y-90246226D01*
X55856982Y-90239791D01*
X55971802Y-90238804D01*
X56023954Y-90240142D01*
G37*
G36*
X61389378Y-94822665D02*
G01*
X61449953Y-94825309D01*
X61504889Y-94828411D01*
X61555536Y-94832101D01*
X61603245Y-94836510D01*
X61649367Y-94841766D01*
X61695251Y-94848000D01*
X61742248Y-94855341D01*
X61759318Y-94858214D01*
X61794108Y-94864283D01*
X61822654Y-94869539D01*
X61845642Y-94874152D01*
X61863755Y-94878287D01*
X61877680Y-94882114D01*
X61888099Y-94885798D01*
X61895699Y-94889508D01*
X61900320Y-94892697D01*
X61911728Y-94902008D01*
X61903062Y-94923336D01*
X61897387Y-94939113D01*
X61890782Y-94960523D01*
X61883591Y-94986319D01*
X61876155Y-95015252D01*
X61868816Y-95046076D01*
X61865984Y-95058657D01*
X61862431Y-95074265D01*
X61859567Y-95084541D01*
X61856615Y-95090996D01*
X61852800Y-95095140D01*
X61847346Y-95098484D01*
X61844867Y-95099766D01*
X61831957Y-95103961D01*
X61814410Y-95106483D01*
X61794377Y-95107343D01*
X61774012Y-95106557D01*
X61755466Y-95104136D01*
X61740893Y-95100095D01*
X61738686Y-95099113D01*
X61723116Y-95091548D01*
X61720786Y-95061503D01*
X61718454Y-95034506D01*
X61716085Y-95013821D01*
X61713555Y-94998763D01*
X61710739Y-94988649D01*
X61707512Y-94982793D01*
X61706201Y-94981578D01*
X61697199Y-94976993D01*
X61682135Y-94971666D01*
X61661883Y-94965781D01*
X61637318Y-94959524D01*
X61609312Y-94953077D01*
X61578741Y-94946624D01*
X61546477Y-94940350D01*
X61513396Y-94934440D01*
X61480370Y-94929076D01*
X61448274Y-94924442D01*
X61417982Y-94920724D01*
X61416453Y-94920557D01*
X61399640Y-94919197D01*
X61377192Y-94918072D01*
X61350211Y-94917184D01*
X61319798Y-94916532D01*
X61287055Y-94916117D01*
X61253083Y-94915939D01*
X61218985Y-94915997D01*
X61185861Y-94916293D01*
X61154813Y-94916825D01*
X61126943Y-94917595D01*
X61103353Y-94918603D01*
X61085144Y-94919848D01*
X61078836Y-94920506D01*
X61004752Y-94931285D01*
X60936988Y-94944714D01*
X60875356Y-94960865D01*
X60819673Y-94979806D01*
X60769752Y-95001608D01*
X60725410Y-95026338D01*
X60686460Y-95054068D01*
X60659427Y-95078096D01*
X60627795Y-95113152D01*
X60602923Y-95149668D01*
X60584662Y-95187979D01*
X60572866Y-95228419D01*
X60567388Y-95271325D01*
X60566931Y-95288606D01*
X60567955Y-95318351D01*
X60571417Y-95344431D01*
X60577903Y-95369426D01*
X60587997Y-95395915D01*
X60594611Y-95410592D01*
X60618317Y-95452988D01*
X60648302Y-95492512D01*
X60684409Y-95529043D01*
X60726482Y-95562458D01*
X60774364Y-95592635D01*
X60827900Y-95619452D01*
X60886933Y-95642788D01*
X60895680Y-95645788D01*
X60962235Y-95665251D01*
X61033764Y-95680591D01*
X61109526Y-95691727D01*
X61188782Y-95698576D01*
X61270793Y-95701057D01*
X61354819Y-95699087D01*
X61369567Y-95698285D01*
X61405077Y-95695883D01*
X61440055Y-95692936D01*
X61473742Y-95689552D01*
X61505376Y-95685839D01*
X61534199Y-95681905D01*
X61559450Y-95677858D01*
X61580369Y-95673804D01*
X61596198Y-95669853D01*
X61606175Y-95666111D01*
X61608717Y-95664369D01*
X61611383Y-95658501D01*
X61613839Y-95647326D01*
X61615729Y-95632535D01*
X61615925Y-95630314D01*
X61616897Y-95613710D01*
X61617404Y-95594019D01*
X61617483Y-95572533D01*
X61617172Y-95550543D01*
X61616510Y-95529340D01*
X61615534Y-95510217D01*
X61614282Y-95494463D01*
X61612794Y-95483372D01*
X61611446Y-95478704D01*
X61608053Y-95474652D01*
X61602410Y-95471295D01*
X61593880Y-95468555D01*
X61581826Y-95466352D01*
X61565611Y-95464606D01*
X61544596Y-95463239D01*
X61518146Y-95462172D01*
X61485621Y-95461325D01*
X61468932Y-95460997D01*
X61439614Y-95460447D01*
X61416430Y-95459939D01*
X61398516Y-95459393D01*
X61385011Y-95458733D01*
X61375052Y-95457880D01*
X61367776Y-95456756D01*
X61362321Y-95455285D01*
X61357824Y-95453388D01*
X61353422Y-95450988D01*
X61352603Y-95450514D01*
X61337734Y-95441881D01*
X61337734Y-95420003D01*
X61337734Y-95419221D01*
X61405374Y-95419221D01*
X61405854Y-95421301D01*
X61407706Y-95421554D01*
X61410586Y-95420274D01*
X61410039Y-95419221D01*
X61405886Y-95418803D01*
X61405374Y-95419221D01*
X61337734Y-95419221D01*
X61337734Y-95398126D01*
X61352096Y-95391649D01*
X61354898Y-95390507D01*
X61358206Y-95389508D01*
X61362480Y-95388645D01*
X61368177Y-95387910D01*
X61375756Y-95387292D01*
X61385675Y-95386785D01*
X61398392Y-95386379D01*
X61414366Y-95386065D01*
X61434055Y-95385836D01*
X61457917Y-95385681D01*
X61486411Y-95385593D01*
X61519994Y-95385563D01*
X61559126Y-95385583D01*
X61604264Y-95385643D01*
X61655866Y-95385735D01*
X61664857Y-95385752D01*
X61720082Y-95385853D01*
X61768727Y-95385950D01*
X61811207Y-95386079D01*
X61847941Y-95386275D01*
X61879343Y-95386573D01*
X61905831Y-95387008D01*
X61927822Y-95387615D01*
X61945731Y-95388429D01*
X61959976Y-95389486D01*
X61970974Y-95390820D01*
X61979139Y-95392467D01*
X61984891Y-95394462D01*
X61988644Y-95396839D01*
X61990815Y-95399634D01*
X61991822Y-95402882D01*
X61992080Y-95406618D01*
X61992007Y-95410877D01*
X61991976Y-95413310D01*
X61991277Y-95424739D01*
X61988526Y-95433541D01*
X61982739Y-95440596D01*
X61972935Y-95446786D01*
X61958131Y-95452990D01*
X61941199Y-95458830D01*
X61901550Y-95471879D01*
X61896920Y-95494823D01*
X61894727Y-95510746D01*
X61893274Y-95531954D01*
X61892545Y-95556776D01*
X61892524Y-95583540D01*
X61893196Y-95610577D01*
X61894544Y-95636213D01*
X61896552Y-95658779D01*
X61898617Y-95673455D01*
X61904463Y-95706692D01*
X61894470Y-95715835D01*
X61889160Y-95719849D01*
X61882112Y-95723253D01*
X61872056Y-95726443D01*
X61857723Y-95729817D01*
X61837841Y-95733772D01*
X61835892Y-95734141D01*
X61729830Y-95752620D01*
X61626732Y-95767380D01*
X61523860Y-95778755D01*
X61418476Y-95787080D01*
X61388950Y-95788865D01*
X61373297Y-95789549D01*
X61352524Y-95790152D01*
X61327623Y-95790670D01*
X61299587Y-95791098D01*
X61269409Y-95791433D01*
X61238080Y-95791671D01*
X61206594Y-95791807D01*
X61175942Y-95791839D01*
X61147117Y-95791761D01*
X61121111Y-95791570D01*
X61098917Y-95791263D01*
X61081528Y-95790834D01*
X61069935Y-95790280D01*
X61068340Y-95790148D01*
X61060358Y-95789465D01*
X61047097Y-95788395D01*
X61030253Y-95787071D01*
X61011525Y-95785630D01*
X61007114Y-95785295D01*
X60943200Y-95779068D01*
X60878138Y-95770115D01*
X60813287Y-95758726D01*
X60750008Y-95745188D01*
X60689659Y-95729793D01*
X60633602Y-95712828D01*
X60586222Y-95695782D01*
X60537032Y-95674624D01*
X60489999Y-95650873D01*
X60445979Y-95625093D01*
X60405834Y-95597853D01*
X60370420Y-95569716D01*
X60340597Y-95541249D01*
X60325521Y-95523970D01*
X60298640Y-95487255D01*
X60278011Y-95451382D01*
X60263193Y-95415152D01*
X60253746Y-95377366D01*
X60249229Y-95336824D01*
X60249094Y-95331393D01*
X60313295Y-95331393D01*
X60318863Y-95374331D01*
X60330809Y-95416393D01*
X60349123Y-95456978D01*
X60373796Y-95495489D01*
X60387086Y-95512116D01*
X60418138Y-95544046D01*
X60455469Y-95574715D01*
X60498417Y-95603763D01*
X60546321Y-95630830D01*
X60598521Y-95655555D01*
X60654356Y-95677578D01*
X60713164Y-95696539D01*
X60737663Y-95703262D01*
X60815978Y-95721378D01*
X60897821Y-95735981D01*
X60980425Y-95746611D01*
X61021108Y-95750290D01*
X61040438Y-95751785D01*
X61058672Y-95753208D01*
X61073970Y-95754414D01*
X61084492Y-95755257D01*
X61085833Y-95755367D01*
X61095883Y-95755831D01*
X61111981Y-95756118D01*
X61133179Y-95756244D01*
X61158530Y-95756220D01*
X61187088Y-95756059D01*
X61217905Y-95755776D01*
X61250034Y-95755383D01*
X61282528Y-95754893D01*
X61314440Y-95754320D01*
X61344823Y-95753676D01*
X61372729Y-95752976D01*
X61397212Y-95752231D01*
X61417324Y-95751455D01*
X61432119Y-95750661D01*
X61433946Y-95750532D01*
X61465320Y-95747975D01*
X61498902Y-95744813D01*
X61534030Y-95741143D01*
X61570043Y-95737059D01*
X61606281Y-95732657D01*
X61642082Y-95728034D01*
X61676786Y-95723283D01*
X61709732Y-95718502D01*
X61740257Y-95713785D01*
X61767703Y-95709228D01*
X61791406Y-95704927D01*
X61810708Y-95700977D01*
X61824946Y-95697473D01*
X61833460Y-95694512D01*
X61835696Y-95692453D01*
X61830416Y-95653269D01*
X61827540Y-95608577D01*
X61827002Y-95573744D01*
X61827864Y-95537360D01*
X61830189Y-95507031D01*
X61833943Y-95482956D01*
X61839095Y-95465339D01*
X61845612Y-95454380D01*
X61845940Y-95454043D01*
X61852572Y-95449592D01*
X61864061Y-95443977D01*
X61878562Y-95438043D01*
X61888788Y-95434397D01*
X61923691Y-95422696D01*
X61671821Y-95422732D01*
X61624427Y-95422759D01*
X61583914Y-95422826D01*
X61550169Y-95422936D01*
X61523076Y-95423090D01*
X61502520Y-95423290D01*
X61488387Y-95423538D01*
X61480560Y-95423835D01*
X61478926Y-95424183D01*
X61483369Y-95424584D01*
X61493774Y-95425039D01*
X61502169Y-95425319D01*
X61542188Y-95426977D01*
X61575784Y-95429353D01*
X61603505Y-95432589D01*
X61625901Y-95436828D01*
X61643523Y-95442212D01*
X61656919Y-95448883D01*
X61666639Y-95456985D01*
X61673233Y-95466659D01*
X61674760Y-95470078D01*
X61678105Y-95482676D01*
X61680591Y-95500671D01*
X61682241Y-95522719D01*
X61683074Y-95547473D01*
X61683114Y-95573590D01*
X61682382Y-95599725D01*
X61680900Y-95624533D01*
X61678688Y-95646669D01*
X61675769Y-95664789D01*
X61672165Y-95677547D01*
X61671391Y-95679281D01*
X61667945Y-95685656D01*
X61664042Y-95690070D01*
X61658103Y-95693402D01*
X61648546Y-95696532D01*
X61633790Y-95700341D01*
X61633367Y-95700446D01*
X61576803Y-95712453D01*
X61513777Y-95722012D01*
X61444385Y-95729110D01*
X61368722Y-95733738D01*
X61318491Y-95735367D01*
X61233183Y-95735530D01*
X61153198Y-95732026D01*
X61077847Y-95724767D01*
X61006442Y-95713668D01*
X60938293Y-95698641D01*
X60872712Y-95679599D01*
X60870153Y-95678759D01*
X60805656Y-95654890D01*
X60747017Y-95627752D01*
X60694309Y-95597408D01*
X60647608Y-95563921D01*
X60606987Y-95527353D01*
X60572520Y-95487768D01*
X60544282Y-95445229D01*
X60522347Y-95399799D01*
X60513783Y-95376072D01*
X60507734Y-95351424D01*
X60503702Y-95322637D01*
X60501820Y-95292216D01*
X60502221Y-95262667D01*
X60505036Y-95236495D01*
X60506122Y-95230821D01*
X60519093Y-95186461D01*
X60538559Y-95144265D01*
X60564276Y-95104520D01*
X60595996Y-95067514D01*
X60633476Y-95033533D01*
X60676469Y-95002864D01*
X60723725Y-94976295D01*
X60778942Y-94951919D01*
X60839818Y-94930825D01*
X60905790Y-94913089D01*
X60976296Y-94898791D01*
X61050775Y-94888007D01*
X61128664Y-94880816D01*
X61209401Y-94877295D01*
X61292424Y-94877522D01*
X61377171Y-94881575D01*
X61397210Y-94883086D01*
X61457468Y-94889017D01*
X61516302Y-94897106D01*
X61575946Y-94907722D01*
X61638638Y-94921235D01*
X61663106Y-94927055D01*
X61695540Y-94935461D01*
X61721615Y-94943458D01*
X61741932Y-94951352D01*
X61757093Y-94959454D01*
X61767698Y-94968071D01*
X61774349Y-94977512D01*
X61777167Y-94985592D01*
X61778563Y-94993653D01*
X61780357Y-95006618D01*
X61782277Y-95022426D01*
X61783459Y-95033207D01*
X61785545Y-95050678D01*
X61787701Y-95062611D01*
X61790113Y-95068823D01*
X61792968Y-95069127D01*
X61796453Y-95063341D01*
X61800756Y-95051279D01*
X61806062Y-95032758D01*
X61812559Y-95007592D01*
X61813589Y-95003468D01*
X61819052Y-94981978D01*
X61824329Y-94962019D01*
X61829061Y-94944899D01*
X61832883Y-94931929D01*
X61835435Y-94924417D01*
X61835482Y-94924304D01*
X61840820Y-94911613D01*
X61814063Y-94905948D01*
X61733757Y-94890919D01*
X61648229Y-94878576D01*
X61558733Y-94868957D01*
X61466523Y-94862100D01*
X61372853Y-94858043D01*
X61278979Y-94856823D01*
X61186153Y-94858479D01*
X61095632Y-94863048D01*
X61008668Y-94870568D01*
X60937141Y-94879503D01*
X60863279Y-94892008D01*
X60792419Y-94907595D01*
X60724983Y-94926077D01*
X60661397Y-94947267D01*
X60602084Y-94970979D01*
X60547466Y-94997025D01*
X60497968Y-95025218D01*
X60454014Y-95055373D01*
X60416026Y-95087302D01*
X60384428Y-95120819D01*
X60381414Y-95124529D01*
X60354966Y-95162860D01*
X60334939Y-95203312D01*
X60321323Y-95245284D01*
X60314112Y-95288178D01*
X60313295Y-95331393D01*
X60249094Y-95331393D01*
X60248682Y-95314846D01*
X60251881Y-95267420D01*
X60261492Y-95222533D01*
X60277602Y-95179989D01*
X60300293Y-95139591D01*
X60329652Y-95101143D01*
X60350798Y-95078637D01*
X60390391Y-95043135D01*
X60434902Y-95010330D01*
X60484680Y-94980036D01*
X60540069Y-94952070D01*
X60601416Y-94926244D01*
X60669068Y-94902376D01*
X60697638Y-94893436D01*
X60769449Y-94874053D01*
X60846976Y-94857545D01*
X60929527Y-94843981D01*
X61016406Y-94833432D01*
X61106919Y-94825971D01*
X61200372Y-94821668D01*
X61296070Y-94820594D01*
X61389378Y-94822665D01*
G37*
G36*
X58825415Y-94821910D02*
G01*
X58863192Y-94822683D01*
X58898904Y-94823956D01*
X58931257Y-94825727D01*
X58958670Y-94827968D01*
X59024370Y-94835235D01*
X59083607Y-94843198D01*
X59136886Y-94851930D01*
X59170337Y-94858421D01*
X59197409Y-94864200D01*
X59218475Y-94869100D01*
X59234426Y-94873401D01*
X59246157Y-94877386D01*
X59254559Y-94881340D01*
X59260526Y-94885544D01*
X59262744Y-94887688D01*
X59270774Y-94896235D01*
X59263083Y-94918364D01*
X59256149Y-94941843D01*
X59249828Y-94969861D01*
X59244585Y-94999961D01*
X59240882Y-95029686D01*
X59239923Y-95041114D01*
X59237592Y-95074266D01*
X59222239Y-95081725D01*
X59214397Y-95085040D01*
X59206021Y-95087221D01*
X59195416Y-95088491D01*
X59180887Y-95089070D01*
X59165089Y-95089185D01*
X59146139Y-95089002D01*
X59132485Y-95088308D01*
X59122434Y-95086881D01*
X59114291Y-95084500D01*
X59107955Y-95081733D01*
X59092616Y-95074281D01*
X59090233Y-95029125D01*
X59089095Y-95011349D01*
X59087716Y-94995522D01*
X59086262Y-94983276D01*
X59084900Y-94976240D01*
X59084785Y-94975911D01*
X59081230Y-94970745D01*
X59074079Y-94965505D01*
X59062629Y-94959873D01*
X59046179Y-94953534D01*
X59024025Y-94946170D01*
X59007636Y-94941108D01*
X58962468Y-94929368D01*
X58914876Y-94920552D01*
X58865787Y-94914620D01*
X58816129Y-94911534D01*
X58766830Y-94911257D01*
X58718817Y-94913749D01*
X58673019Y-94918973D01*
X58630363Y-94926890D01*
X58591777Y-94937463D01*
X58558189Y-94950653D01*
X58539889Y-94960363D01*
X58519026Y-94975236D01*
X58499289Y-94993560D01*
X58482739Y-95013257D01*
X58474310Y-95026463D01*
X58466040Y-95047121D01*
X58462136Y-95069406D01*
X58462746Y-95091137D01*
X58468016Y-95110135D01*
X58468594Y-95111371D01*
X58481741Y-95130982D01*
X58501017Y-95148868D01*
X58525660Y-95164508D01*
X58554908Y-95177380D01*
X58574163Y-95183507D01*
X58586531Y-95186700D01*
X58599951Y-95189647D01*
X58615104Y-95192434D01*
X58632674Y-95195147D01*
X58653343Y-95197870D01*
X58677794Y-95200690D01*
X58706708Y-95203693D01*
X58740769Y-95206963D01*
X58780660Y-95210587D01*
X58811728Y-95213320D01*
X58872179Y-95218738D01*
X58926184Y-95223932D01*
X58974287Y-95228995D01*
X59017035Y-95234021D01*
X59054969Y-95239105D01*
X59088637Y-95244341D01*
X59118580Y-95249822D01*
X59145345Y-95255642D01*
X59169475Y-95261896D01*
X59191516Y-95268678D01*
X59212010Y-95276081D01*
X59231504Y-95284200D01*
X59237237Y-95286789D01*
X59274610Y-95306836D01*
X59306234Y-95329801D01*
X59331967Y-95355306D01*
X59351666Y-95382973D01*
X59365189Y-95412426D01*
X59372394Y-95443288D01*
X59373139Y-95475181D01*
X59367280Y-95507728D01*
X59354676Y-95540553D01*
X59341702Y-95563590D01*
X59320394Y-95591264D01*
X59292604Y-95618148D01*
X59258828Y-95643990D01*
X59219561Y-95668538D01*
X59175298Y-95691540D01*
X59126534Y-95712745D01*
X59073764Y-95731902D01*
X59017484Y-95748759D01*
X58958188Y-95763063D01*
X58942926Y-95766216D01*
X58913402Y-95771956D01*
X58886820Y-95776706D01*
X58862043Y-95780564D01*
X58837932Y-95783626D01*
X58813349Y-95785990D01*
X58787156Y-95787751D01*
X58758213Y-95789008D01*
X58725384Y-95789857D01*
X58687528Y-95790395D01*
X58656039Y-95790647D01*
X58625341Y-95790802D01*
X58596115Y-95790880D01*
X58569277Y-95790884D01*
X58545740Y-95790816D01*
X58526416Y-95790679D01*
X58512221Y-95790477D01*
X58504066Y-95790211D01*
X58503849Y-95790197D01*
X58463034Y-95786872D01*
X58419241Y-95782221D01*
X58374294Y-95776501D01*
X58330019Y-95769973D01*
X58288238Y-95762895D01*
X58250777Y-95755526D01*
X58235252Y-95752052D01*
X58216123Y-95747203D01*
X58202710Y-95742851D01*
X58193799Y-95738536D01*
X58188797Y-95734493D01*
X58184494Y-95729359D01*
X58182536Y-95724333D01*
X58182625Y-95717174D01*
X58183178Y-95713699D01*
X58250854Y-95713699D01*
X58251343Y-95716058D01*
X58256650Y-95718407D01*
X58267998Y-95721377D01*
X58284474Y-95724829D01*
X58305165Y-95728623D01*
X58329157Y-95732620D01*
X58355535Y-95736682D01*
X58383386Y-95740670D01*
X58411796Y-95744444D01*
X58439852Y-95747865D01*
X58466639Y-95750794D01*
X58491244Y-95753093D01*
X58498601Y-95753680D01*
X58517455Y-95754717D01*
X58541584Y-95755436D01*
X58569845Y-95755854D01*
X58601096Y-95755986D01*
X58634195Y-95755850D01*
X58668000Y-95755462D01*
X58701369Y-95754836D01*
X58733159Y-95753991D01*
X58762228Y-95752941D01*
X58787434Y-95751703D01*
X58807636Y-95750293D01*
X58818725Y-95749144D01*
X58889595Y-95738315D01*
X58956085Y-95724696D01*
X59017875Y-95708410D01*
X59074642Y-95689582D01*
X59126065Y-95668335D01*
X59171824Y-95644792D01*
X59211596Y-95619078D01*
X59245059Y-95591315D01*
X59254974Y-95581399D01*
X59277636Y-95553511D01*
X59294112Y-95524452D01*
X59304372Y-95494813D01*
X59308386Y-95465184D01*
X59306126Y-95436158D01*
X59297563Y-95408326D01*
X59282666Y-95382280D01*
X59265758Y-95362720D01*
X59249934Y-95348337D01*
X59233050Y-95335397D01*
X59214613Y-95323773D01*
X59194130Y-95313339D01*
X59171106Y-95303967D01*
X59145048Y-95295531D01*
X59115462Y-95287904D01*
X59081855Y-95280959D01*
X59043733Y-95274569D01*
X59000601Y-95268607D01*
X58951968Y-95262946D01*
X58897338Y-95257459D01*
X58836219Y-95252020D01*
X58834469Y-95251873D01*
X58780660Y-95247230D01*
X58733272Y-95242891D01*
X58691739Y-95238758D01*
X58655497Y-95234734D01*
X58623981Y-95230723D01*
X58596625Y-95226628D01*
X58572865Y-95222353D01*
X58552135Y-95217800D01*
X58533871Y-95212872D01*
X58517507Y-95207474D01*
X58502479Y-95201508D01*
X58488221Y-95194877D01*
X58481492Y-95191434D01*
X58451618Y-95172844D01*
X58428083Y-95151975D01*
X58410985Y-95129137D01*
X58400417Y-95104640D01*
X58396476Y-95078793D01*
X58399258Y-95051907D01*
X58408859Y-95024291D01*
X58422486Y-95000422D01*
X58442732Y-94975229D01*
X58467615Y-94953061D01*
X58497511Y-94933726D01*
X58532794Y-94917034D01*
X58573840Y-94902794D01*
X58621024Y-94890816D01*
X58649042Y-94885248D01*
X58662849Y-94882879D01*
X58675877Y-94881045D01*
X58689321Y-94879680D01*
X58704375Y-94878718D01*
X58722235Y-94878091D01*
X58744096Y-94877734D01*
X58771153Y-94877580D01*
X58787238Y-94877558D01*
X58825980Y-94877779D01*
X58859043Y-94878466D01*
X58886058Y-94879606D01*
X58906655Y-94881186D01*
X58914938Y-94882212D01*
X58949477Y-94888084D01*
X58983832Y-94895275D01*
X59017100Y-94903495D01*
X59048380Y-94912457D01*
X59076771Y-94921873D01*
X59101371Y-94931454D01*
X59121277Y-94940912D01*
X59135590Y-94949961D01*
X59140366Y-94954240D01*
X59147917Y-94966972D01*
X59152612Y-94986003D01*
X59154426Y-95011234D01*
X59154441Y-95012652D01*
X59155216Y-95031965D01*
X59157292Y-95044944D01*
X59160820Y-95052160D01*
X59165460Y-95054198D01*
X59168604Y-95053820D01*
X59170965Y-95051975D01*
X59172832Y-95047596D01*
X59174495Y-95039618D01*
X59176242Y-95026973D01*
X59178363Y-95008597D01*
X59178738Y-95005218D01*
X59183902Y-94971243D01*
X59192323Y-94934302D01*
X59198540Y-94911858D01*
X59199040Y-94906644D01*
X59195611Y-94903370D01*
X59187304Y-94900661D01*
X59158257Y-94893824D01*
X59123447Y-94887029D01*
X59084107Y-94880468D01*
X59041471Y-94874329D01*
X58996771Y-94868804D01*
X58951240Y-94864081D01*
X58948174Y-94863797D01*
X58868452Y-94858131D01*
X58792199Y-94856080D01*
X58719704Y-94857590D01*
X58651256Y-94862605D01*
X58587146Y-94871071D01*
X58527662Y-94882933D01*
X58473095Y-94898136D01*
X58423734Y-94916625D01*
X58379867Y-94938346D01*
X58341786Y-94963243D01*
X58318240Y-94982986D01*
X58295038Y-95008744D01*
X58277837Y-95036550D01*
X58266683Y-95065686D01*
X58261620Y-95095434D01*
X58262694Y-95125077D01*
X58269950Y-95153897D01*
X58283433Y-95181177D01*
X58303188Y-95206199D01*
X58304127Y-95207160D01*
X58325061Y-95226114D01*
X58348142Y-95242236D01*
X58374529Y-95256118D01*
X58405377Y-95268354D01*
X58441846Y-95279537D01*
X58449198Y-95281511D01*
X58467008Y-95286097D01*
X58483869Y-95290162D01*
X58500521Y-95293809D01*
X58517701Y-95297142D01*
X58536150Y-95300265D01*
X58556605Y-95303282D01*
X58579806Y-95306297D01*
X58606491Y-95309413D01*
X58637399Y-95312736D01*
X58673269Y-95316368D01*
X58714840Y-95320414D01*
X58748753Y-95323645D01*
X58779171Y-95326597D01*
X58809940Y-95329713D01*
X58839679Y-95332845D01*
X58867006Y-95335842D01*
X58890541Y-95338556D01*
X58908901Y-95340838D01*
X58913188Y-95341415D01*
X58965520Y-95350054D01*
X59011375Y-95360691D01*
X59051016Y-95373457D01*
X59084711Y-95388482D01*
X59112724Y-95405898D01*
X59135322Y-95425835D01*
X59152769Y-95448424D01*
X59160985Y-95463537D01*
X59165789Y-95475153D01*
X59168555Y-95486254D01*
X59169786Y-95499568D01*
X59170003Y-95512518D01*
X59169602Y-95529124D01*
X59168038Y-95541604D01*
X59164773Y-95552801D01*
X59160393Y-95563136D01*
X59142296Y-95594099D01*
X59117881Y-95622118D01*
X59087188Y-95647173D01*
X59050255Y-95669242D01*
X59007122Y-95688306D01*
X58957828Y-95704344D01*
X58902414Y-95717335D01*
X58850391Y-95725985D01*
X58803526Y-95731061D01*
X58753605Y-95733855D01*
X58701649Y-95734467D01*
X58648679Y-95732997D01*
X58595715Y-95729543D01*
X58543779Y-95724205D01*
X58493891Y-95717084D01*
X58447072Y-95708278D01*
X58404341Y-95697887D01*
X58366721Y-95686011D01*
X58343154Y-95676498D01*
X58323043Y-95666492D01*
X58307985Y-95656341D01*
X58297077Y-95644717D01*
X58289414Y-95630295D01*
X58284092Y-95611749D01*
X58280207Y-95587753D01*
X58279664Y-95583365D01*
X58277504Y-95566880D01*
X58275557Y-95556221D01*
X58273491Y-95550236D01*
X58270977Y-95547774D01*
X58269372Y-95547504D01*
X58266907Y-95548271D01*
X58265072Y-95551273D01*
X58263679Y-95557565D01*
X58262540Y-95568201D01*
X58261465Y-95584234D01*
X58260875Y-95594929D01*
X58259490Y-95616702D01*
X58257629Y-95639993D01*
X58255544Y-95661875D01*
X58253676Y-95678021D01*
X58251938Y-95693107D01*
X58250965Y-95705524D01*
X58250854Y-95713699D01*
X58183178Y-95713699D01*
X58184461Y-95705641D01*
X58184746Y-95704072D01*
X58186524Y-95692595D01*
X58188375Y-95677110D01*
X58190351Y-95657040D01*
X58192504Y-95631807D01*
X58194886Y-95600831D01*
X58197549Y-95563536D01*
X58197999Y-95557032D01*
X58200113Y-95526326D01*
X58213646Y-95519422D01*
X58225544Y-95515597D01*
X58242277Y-95513104D01*
X58261810Y-95511942D01*
X58282108Y-95512110D01*
X58301136Y-95513610D01*
X58316860Y-95516439D01*
X58325272Y-95519440D01*
X58332492Y-95523446D01*
X58336753Y-95527576D01*
X58339101Y-95533844D01*
X58340581Y-95544262D01*
X58341165Y-95550053D01*
X58343768Y-95573540D01*
X58346664Y-95594512D01*
X58349637Y-95611616D01*
X58352472Y-95623498D01*
X58353266Y-95625847D01*
X58359664Y-95634008D01*
X58372413Y-95642493D01*
X58390885Y-95651098D01*
X58414452Y-95659616D01*
X58442488Y-95667843D01*
X58474366Y-95675571D01*
X58509457Y-95682595D01*
X58543089Y-95688118D01*
X58559811Y-95690473D01*
X58575251Y-95692319D01*
X58590617Y-95693714D01*
X58607118Y-95694718D01*
X58625961Y-95695391D01*
X58648355Y-95695794D01*
X58675509Y-95695984D01*
X58703271Y-95696024D01*
X58739810Y-95695892D01*
X58770575Y-95695426D01*
X58796785Y-95694507D01*
X58819658Y-95693016D01*
X58840415Y-95690835D01*
X58860275Y-95687844D01*
X58880456Y-95683926D01*
X58902179Y-95678960D01*
X58917486Y-95675170D01*
X58959650Y-95662416D01*
X58997437Y-95646708D01*
X59030344Y-95628367D01*
X59057870Y-95607714D01*
X59079510Y-95585073D01*
X59094120Y-95562098D01*
X59099192Y-95550681D01*
X59102153Y-95540308D01*
X59103532Y-95528277D01*
X59103863Y-95512518D01*
X59103583Y-95496949D01*
X59102378Y-95485831D01*
X59099702Y-95476627D01*
X59095009Y-95466802D01*
X59093367Y-95463790D01*
X59077762Y-95442722D01*
X59055688Y-95424253D01*
X59027184Y-95408407D01*
X58992286Y-95395205D01*
X58968779Y-95388683D01*
X58947627Y-95384225D01*
X58919669Y-95379579D01*
X58885096Y-95374771D01*
X58844095Y-95369824D01*
X58796856Y-95364764D01*
X58752252Y-95360421D01*
X58702330Y-95355688D01*
X58658666Y-95351390D01*
X58620536Y-95347430D01*
X58587221Y-95343708D01*
X58558001Y-95340127D01*
X58532153Y-95336586D01*
X58508959Y-95332988D01*
X58487696Y-95329234D01*
X58467644Y-95325226D01*
X58448084Y-95320864D01*
X58428629Y-95316135D01*
X58377236Y-95300931D01*
X58332078Y-95282747D01*
X58293187Y-95261601D01*
X58260593Y-95237509D01*
X58234327Y-95210488D01*
X58229902Y-95204822D01*
X58212534Y-95177003D01*
X58201668Y-95147970D01*
X58196849Y-95117058D01*
X58197988Y-95082522D01*
X58205793Y-95049488D01*
X58220071Y-95018086D01*
X58240627Y-94988448D01*
X58267266Y-94960703D01*
X58299794Y-94934982D01*
X58338017Y-94911417D01*
X58381739Y-94890137D01*
X58430766Y-94871273D01*
X58484904Y-94854956D01*
X58543959Y-94841316D01*
X58607735Y-94830484D01*
X58627727Y-94827805D01*
X58650765Y-94825566D01*
X58679490Y-94823830D01*
X58712609Y-94822597D01*
X58748831Y-94821867D01*
X58786864Y-94821638D01*
X58825415Y-94821910D01*
G37*
G36*
X57993925Y-94847290D02*
G01*
X58001849Y-94852915D01*
X58006517Y-94857251D01*
X58007045Y-94858316D01*
X58005729Y-94862687D01*
X58002323Y-94871334D01*
X57998737Y-94879707D01*
X57991339Y-94899647D01*
X57984003Y-94925471D01*
X57976977Y-94956065D01*
X57970508Y-94990317D01*
X57964843Y-95027115D01*
X57963220Y-95039410D01*
X57960937Y-95051541D01*
X57956960Y-95059543D01*
X57949841Y-95066280D01*
X57949523Y-95066524D01*
X57944253Y-95070198D01*
X57938877Y-95072656D01*
X57931894Y-95074142D01*
X57921800Y-95074897D01*
X57907092Y-95075164D01*
X57895727Y-95075190D01*
X57876767Y-95075023D01*
X57863108Y-95074373D01*
X57853061Y-95073016D01*
X57844933Y-95070729D01*
X57837455Y-95067496D01*
X57821618Y-95059801D01*
X57821489Y-95031635D01*
X57820848Y-95015281D01*
X57819241Y-94997971D01*
X57816930Y-94981367D01*
X57814178Y-94967132D01*
X57811250Y-94956929D01*
X57809011Y-94952837D01*
X57803847Y-94950898D01*
X57792580Y-94948655D01*
X57776090Y-94946209D01*
X57755261Y-94943661D01*
X57730973Y-94941110D01*
X57704110Y-94938656D01*
X57675553Y-94936401D01*
X57648436Y-94934580D01*
X57630831Y-94933715D01*
X57608332Y-94932942D01*
X57581778Y-94932266D01*
X57552006Y-94931689D01*
X57519855Y-94931215D01*
X57486164Y-94930847D01*
X57451770Y-94930588D01*
X57417512Y-94930442D01*
X57384229Y-94930413D01*
X57352758Y-94930502D01*
X57323937Y-94930715D01*
X57298606Y-94931053D01*
X57277603Y-94931521D01*
X57261765Y-94932121D01*
X57251931Y-94932857D01*
X57250847Y-94933007D01*
X57234608Y-94935560D01*
X57232101Y-95006250D01*
X57230789Y-95044286D01*
X57229597Y-95080906D01*
X57228541Y-95115472D01*
X57227636Y-95147350D01*
X57226897Y-95175904D01*
X57226342Y-95200498D01*
X57225985Y-95220497D01*
X57225842Y-95235264D01*
X57225929Y-95244166D01*
X57226162Y-95246623D01*
X57229948Y-95247138D01*
X57239980Y-95247553D01*
X57255506Y-95247870D01*
X57275775Y-95248095D01*
X57300037Y-95248233D01*
X57327541Y-95248287D01*
X57357535Y-95248262D01*
X57389269Y-95248163D01*
X57421991Y-95247994D01*
X57454951Y-95247759D01*
X57487397Y-95247463D01*
X57518580Y-95247111D01*
X57547747Y-95246706D01*
X57574147Y-95246254D01*
X57597031Y-95245759D01*
X57615646Y-95245224D01*
X57629242Y-95244656D01*
X57635895Y-95244190D01*
X57653950Y-95242194D01*
X57666336Y-95239735D01*
X57674352Y-95235740D01*
X57679300Y-95229135D01*
X57682481Y-95218846D01*
X57685196Y-95203801D01*
X57685252Y-95203455D01*
X57688533Y-95183402D01*
X57691026Y-95169089D01*
X57693163Y-95159365D01*
X57695373Y-95153081D01*
X57698088Y-95149085D01*
X57701739Y-95146228D01*
X57706755Y-95143358D01*
X57708012Y-95142652D01*
X57715340Y-95139024D01*
X57723091Y-95136694D01*
X57733057Y-95135385D01*
X57747030Y-95134822D01*
X57759424Y-95134724D01*
X57777682Y-95134942D01*
X57790814Y-95135831D01*
X57800678Y-95137649D01*
X57809132Y-95140653D01*
X57812045Y-95142005D01*
X57827149Y-95149343D01*
X57826984Y-95299788D01*
X57826819Y-95450232D01*
X57814597Y-95456738D01*
X57803261Y-95460479D01*
X57787144Y-95462896D01*
X57768252Y-95463998D01*
X57748593Y-95463792D01*
X57730173Y-95462287D01*
X57714999Y-95459492D01*
X57706453Y-95456282D01*
X57701088Y-95453051D01*
X57697140Y-95449543D01*
X57694027Y-95444465D01*
X57691168Y-95436525D01*
X57687979Y-95424431D01*
X57683879Y-95406891D01*
X57683549Y-95405453D01*
X57679441Y-95388457D01*
X57675474Y-95373645D01*
X57672078Y-95362525D01*
X57669683Y-95356605D01*
X57669534Y-95356382D01*
X57663785Y-95352378D01*
X57654114Y-95348844D01*
X57649978Y-95347885D01*
X57638327Y-95346315D01*
X57620603Y-95344830D01*
X57597730Y-95343454D01*
X57570633Y-95342212D01*
X57540236Y-95341127D01*
X57507462Y-95340225D01*
X57473237Y-95339530D01*
X57438484Y-95339066D01*
X57404127Y-95338857D01*
X57371091Y-95338927D01*
X57340299Y-95339302D01*
X57331328Y-95339485D01*
X57224137Y-95341900D01*
X57222034Y-95354613D01*
X57221494Y-95361469D01*
X57221037Y-95374379D01*
X57220662Y-95392399D01*
X57220369Y-95414587D01*
X57220156Y-95439998D01*
X57220025Y-95467690D01*
X57219974Y-95496720D01*
X57220003Y-95526144D01*
X57220111Y-95555019D01*
X57220298Y-95582402D01*
X57220563Y-95607350D01*
X57220907Y-95628919D01*
X57221328Y-95646167D01*
X57221826Y-95658149D01*
X57222185Y-95662615D01*
X57224454Y-95681513D01*
X57490674Y-95679358D01*
X57544073Y-95678901D01*
X57591040Y-95678433D01*
X57632140Y-95677934D01*
X57667939Y-95677384D01*
X57699000Y-95676760D01*
X57725890Y-95676042D01*
X57749173Y-95675210D01*
X57769415Y-95674241D01*
X57787180Y-95673115D01*
X57803035Y-95671811D01*
X57817543Y-95670308D01*
X57831270Y-95668584D01*
X57844781Y-95666620D01*
X57848413Y-95666054D01*
X57873458Y-95662102D01*
X57894293Y-95617923D01*
X57902817Y-95599542D01*
X57911051Y-95581246D01*
X57918110Y-95565037D01*
X57923106Y-95552918D01*
X57923476Y-95551961D01*
X57928383Y-95540030D01*
X57932773Y-95532840D01*
X57938320Y-95528485D01*
X57946699Y-95525060D01*
X57947317Y-95524847D01*
X57962362Y-95521596D01*
X57984241Y-95519847D01*
X58002560Y-95519515D01*
X58021056Y-95519716D01*
X58034307Y-95520477D01*
X58044056Y-95522036D01*
X58052047Y-95524631D01*
X58057040Y-95526943D01*
X58065844Y-95531426D01*
X58071498Y-95534386D01*
X58072503Y-95534965D01*
X58071933Y-95538326D01*
X58069720Y-95546502D01*
X58066721Y-95556492D01*
X58061073Y-95577903D01*
X58055684Y-95604349D01*
X58050853Y-95633870D01*
X58046880Y-95664503D01*
X58044066Y-95694287D01*
X58043047Y-95711204D01*
X58040971Y-95757700D01*
X58030131Y-95765433D01*
X58019290Y-95773165D01*
X57432072Y-95773165D01*
X57356978Y-95773164D01*
X57288562Y-95773157D01*
X57226508Y-95773141D01*
X57170496Y-95773113D01*
X57120209Y-95773069D01*
X57075328Y-95773005D01*
X57035536Y-95772917D01*
X57000513Y-95772802D01*
X56969943Y-95772657D01*
X56943507Y-95772478D01*
X56920886Y-95772260D01*
X56901763Y-95772002D01*
X56885819Y-95771698D01*
X56872736Y-95771345D01*
X56862197Y-95770940D01*
X56853882Y-95770479D01*
X56847474Y-95769959D01*
X56842655Y-95769375D01*
X56839106Y-95768725D01*
X56836510Y-95768004D01*
X56834547Y-95767209D01*
X56832933Y-95766355D01*
X56825601Y-95761478D01*
X56822109Y-95756124D01*
X56821061Y-95747553D01*
X56821012Y-95742978D01*
X56821641Y-95732124D01*
X56824371Y-95725326D01*
X56830467Y-95719689D01*
X56831530Y-95718921D01*
X56839364Y-95714779D01*
X56851961Y-95709676D01*
X56867304Y-95704387D01*
X56877482Y-95701303D01*
X56892202Y-95697006D01*
X56904214Y-95693331D01*
X56912054Y-95690737D01*
X56914315Y-95689775D01*
X56916183Y-95684561D01*
X56918228Y-95672666D01*
X56920416Y-95654402D01*
X56922715Y-95630082D01*
X56925092Y-95600019D01*
X56927515Y-95564526D01*
X56927596Y-95563248D01*
X56928871Y-95540556D01*
X56929948Y-95515370D01*
X56930838Y-95487090D01*
X56931551Y-95455117D01*
X56932097Y-95418854D01*
X56932486Y-95377702D01*
X56932727Y-95331061D01*
X56932831Y-95278334D01*
X56932834Y-95248372D01*
X56932760Y-95194017D01*
X56932580Y-95146236D01*
X56932279Y-95104604D01*
X56931842Y-95068697D01*
X56931254Y-95038094D01*
X56930502Y-95012369D01*
X56929570Y-94991099D01*
X56928444Y-94973861D01*
X56927109Y-94960230D01*
X56925551Y-94949785D01*
X56923755Y-94942100D01*
X56922101Y-94937578D01*
X56919250Y-94932913D01*
X56914871Y-94929179D01*
X56908137Y-94926210D01*
X56898222Y-94923839D01*
X56884298Y-94921902D01*
X56865540Y-94920231D01*
X56841121Y-94918661D01*
X56822988Y-94917676D01*
X56798088Y-94916283D01*
X56779106Y-94914944D01*
X56764963Y-94913522D01*
X56754583Y-94911880D01*
X56746888Y-94909880D01*
X56740801Y-94907383D01*
X56740240Y-94907101D01*
X56726549Y-94900117D01*
X56726549Y-94878612D01*
X56794700Y-94878612D01*
X56798483Y-94879273D01*
X56808019Y-94880198D01*
X56822072Y-94881288D01*
X56839408Y-94882442D01*
X56849646Y-94883054D01*
X56884654Y-94885647D01*
X56913339Y-94889134D01*
X56936339Y-94893694D01*
X56954291Y-94899504D01*
X56967834Y-94906744D01*
X56977605Y-94915593D01*
X56980689Y-94919759D01*
X56983543Y-94924518D01*
X56986026Y-94929828D01*
X56988169Y-94936197D01*
X56990004Y-94944136D01*
X56991561Y-94954154D01*
X56992874Y-94966761D01*
X56993972Y-94982468D01*
X56994888Y-95001784D01*
X56995652Y-95025219D01*
X56996297Y-95053282D01*
X56996853Y-95086484D01*
X56997353Y-95125335D01*
X56997827Y-95170344D01*
X56998133Y-95202890D01*
X56998561Y-95253335D01*
X56998852Y-95297562D01*
X56998999Y-95336350D01*
X56998993Y-95370476D01*
X56998826Y-95400719D01*
X56998489Y-95427857D01*
X56997975Y-95452668D01*
X56997275Y-95475931D01*
X56996380Y-95498424D01*
X56995282Y-95520925D01*
X56994570Y-95533913D01*
X56992228Y-95573447D01*
X56990035Y-95606547D01*
X56987934Y-95633775D01*
X56985868Y-95655691D01*
X56983781Y-95672856D01*
X56981617Y-95685831D01*
X56979319Y-95695176D01*
X56977965Y-95699004D01*
X56972699Y-95706804D01*
X56963180Y-95713830D01*
X56948583Y-95720517D01*
X56928088Y-95727304D01*
X56920723Y-95729409D01*
X56907844Y-95733027D01*
X56897942Y-95735879D01*
X56892628Y-95737498D01*
X56892153Y-95737685D01*
X56895523Y-95737740D01*
X56905514Y-95737794D01*
X56921750Y-95737846D01*
X56943855Y-95737896D01*
X56971454Y-95737942D01*
X57004170Y-95737985D01*
X57041627Y-95738025D01*
X57083449Y-95738061D01*
X57129260Y-95738093D01*
X57178685Y-95738121D01*
X57231347Y-95738143D01*
X57286870Y-95738161D01*
X57344878Y-95738173D01*
X57404995Y-95738178D01*
X57432943Y-95738179D01*
X57974313Y-95738179D01*
X57978458Y-95692279D01*
X57981033Y-95667930D01*
X57984446Y-95641655D01*
X57988389Y-95615447D01*
X57992552Y-95591299D01*
X57996626Y-95571205D01*
X57998409Y-95563776D01*
X57999555Y-95556830D01*
X57997485Y-95554765D01*
X57995213Y-95555030D01*
X57991418Y-95558760D01*
X57985445Y-95568479D01*
X57977599Y-95583633D01*
X57968184Y-95603668D01*
X57966691Y-95606981D01*
X57958085Y-95625790D01*
X57949620Y-95643629D01*
X57942062Y-95658924D01*
X57936181Y-95670101D01*
X57934252Y-95673423D01*
X57924568Y-95689134D01*
X57885109Y-95696692D01*
X57870813Y-95699366D01*
X57857185Y-95701729D01*
X57843703Y-95703804D01*
X57829845Y-95705613D01*
X57815088Y-95707178D01*
X57798910Y-95708521D01*
X57780787Y-95709664D01*
X57760199Y-95710630D01*
X57736621Y-95711441D01*
X57709532Y-95712118D01*
X57678408Y-95712684D01*
X57642729Y-95713160D01*
X57601969Y-95713570D01*
X57555609Y-95713935D01*
X57503124Y-95714277D01*
X57464231Y-95714504D01*
X57161072Y-95716226D01*
X57158101Y-95685219D01*
X57157361Y-95673654D01*
X57156729Y-95656191D01*
X57156206Y-95633792D01*
X57155793Y-95607420D01*
X57155488Y-95578038D01*
X57155294Y-95546609D01*
X57155209Y-95514095D01*
X57155235Y-95481460D01*
X57155371Y-95449667D01*
X57155617Y-95419677D01*
X57155974Y-95392455D01*
X57156443Y-95368962D01*
X57157022Y-95350163D01*
X57157713Y-95337019D01*
X57158015Y-95333615D01*
X57160900Y-95306902D01*
X57285715Y-95304261D01*
X57330636Y-95303522D01*
X57376406Y-95303162D01*
X57422033Y-95303166D01*
X57466526Y-95303519D01*
X57508896Y-95304204D01*
X57548152Y-95305207D01*
X57583303Y-95306510D01*
X57613358Y-95308100D01*
X57635550Y-95309791D01*
X57663849Y-95313140D01*
X57686146Y-95317493D01*
X57703395Y-95323123D01*
X57716551Y-95330299D01*
X57721381Y-95334096D01*
X57726301Y-95339046D01*
X57730543Y-95345127D01*
X57734504Y-95353379D01*
X57738582Y-95364846D01*
X57743174Y-95380570D01*
X57748678Y-95401593D01*
X57751713Y-95413682D01*
X57754523Y-95422689D01*
X57757272Y-95427972D01*
X57758179Y-95428551D01*
X57758810Y-95425182D01*
X57759389Y-95415590D01*
X57759902Y-95400553D01*
X57760331Y-95380843D01*
X57760658Y-95357238D01*
X57760869Y-95330512D01*
X57760944Y-95301441D01*
X57760944Y-95300851D01*
X57760881Y-95271742D01*
X57760699Y-95244962D01*
X57760414Y-95221288D01*
X57760040Y-95201495D01*
X57759593Y-95186358D01*
X57759086Y-95176652D01*
X57758535Y-95173153D01*
X57758524Y-95173152D01*
X57756864Y-95176337D01*
X57754650Y-95184774D01*
X57752305Y-95196789D01*
X57751824Y-95199687D01*
X57747803Y-95220529D01*
X57743079Y-95235967D01*
X57737003Y-95247591D01*
X57728931Y-95256994D01*
X57728316Y-95257571D01*
X57719954Y-95264061D01*
X57709904Y-95268996D01*
X57696802Y-95272781D01*
X57679284Y-95275823D01*
X57658828Y-95278239D01*
X57642391Y-95279532D01*
X57619880Y-95280709D01*
X57592217Y-95281755D01*
X57560324Y-95282660D01*
X57525124Y-95283411D01*
X57487537Y-95283996D01*
X57448488Y-95284402D01*
X57408897Y-95284617D01*
X57369687Y-95284630D01*
X57331780Y-95284427D01*
X57296099Y-95283997D01*
X57267417Y-95283424D01*
X57159289Y-95280779D01*
X57161615Y-95177110D01*
X57162196Y-95153579D01*
X57162934Y-95127351D01*
X57163796Y-95099270D01*
X57164752Y-95070180D01*
X57165768Y-95040925D01*
X57166813Y-95012349D01*
X57167855Y-94985296D01*
X57168862Y-94960611D01*
X57169801Y-94939138D01*
X57170641Y-94921721D01*
X57171349Y-94909204D01*
X57171893Y-94902431D01*
X57172087Y-94901469D01*
X57175579Y-94901194D01*
X57185202Y-94900678D01*
X57200097Y-94899960D01*
X57219403Y-94899080D01*
X57242261Y-94898077D01*
X57267811Y-94896991D01*
X57277582Y-94896584D01*
X57331753Y-94894790D01*
X57387168Y-94893797D01*
X57443075Y-94893574D01*
X57498722Y-94894090D01*
X57553356Y-94895311D01*
X57606225Y-94897206D01*
X57656575Y-94899744D01*
X57703656Y-94902892D01*
X57746714Y-94906618D01*
X57784996Y-94910891D01*
X57817751Y-94915677D01*
X57842676Y-94920582D01*
X57855961Y-94923825D01*
X57864089Y-94926640D01*
X57868736Y-94930101D01*
X57871580Y-94935281D01*
X57873287Y-94940172D01*
X57876729Y-94952865D01*
X57880315Y-94969661D01*
X57883636Y-94988167D01*
X57886282Y-95005990D01*
X57887844Y-95020738D01*
X57888092Y-95026668D01*
X57889176Y-95036584D01*
X57892512Y-95040179D01*
X57892937Y-95040204D01*
X57896446Y-95037034D01*
X57899121Y-95027332D01*
X57900161Y-95020087D01*
X57902593Y-95003090D01*
X57906175Y-94982543D01*
X57910511Y-94960340D01*
X57915204Y-94938372D01*
X57919858Y-94918535D01*
X57924077Y-94902719D01*
X57926003Y-94896613D01*
X57932697Y-94877223D01*
X57363017Y-94877236D01*
X57300482Y-94877246D01*
X57239883Y-94877271D01*
X57181587Y-94877312D01*
X57125959Y-94877366D01*
X57073366Y-94877434D01*
X57024173Y-94877514D01*
X56978747Y-94877605D01*
X56937452Y-94877707D01*
X56900656Y-94877818D01*
X56868723Y-94877938D01*
X56842021Y-94878066D01*
X56820914Y-94878201D01*
X56805769Y-94878341D01*
X56796951Y-94878487D01*
X56794700Y-94878612D01*
X56726549Y-94878612D01*
X56726549Y-94876128D01*
X56726549Y-94852140D01*
X56743168Y-94845459D01*
X56746481Y-94844216D01*
X56750131Y-94843144D01*
X56754613Y-94842233D01*
X56760419Y-94841475D01*
X56768042Y-94840862D01*
X56777975Y-94840385D01*
X56790711Y-94840036D01*
X56806744Y-94839807D01*
X56826565Y-94839689D01*
X56850669Y-94839673D01*
X56879548Y-94839752D01*
X56913695Y-94839918D01*
X56953604Y-94840161D01*
X56999767Y-94840473D01*
X57025681Y-94840654D01*
X57070792Y-94840922D01*
X57121791Y-94841134D01*
X57177571Y-94841291D01*
X57237021Y-94841392D01*
X57299034Y-94841437D01*
X57362502Y-94841427D01*
X57426314Y-94841361D01*
X57489364Y-94841240D01*
X57550543Y-94841062D01*
X57608741Y-94840829D01*
X57636191Y-94840692D01*
X57980805Y-94838852D01*
X57993925Y-94847290D01*
G37*
G36*
X62306021Y-94842608D02*
G01*
X62527352Y-94843196D01*
X62724106Y-94981380D01*
X62755452Y-95003326D01*
X62790552Y-95027774D01*
X62828932Y-95054404D01*
X62870123Y-95082893D01*
X62913651Y-95112920D01*
X62959046Y-95144164D01*
X63005836Y-95176303D01*
X63053549Y-95209014D01*
X63101713Y-95241977D01*
X63149857Y-95274870D01*
X63197510Y-95307371D01*
X63244198Y-95339158D01*
X63289452Y-95369910D01*
X63332799Y-95399306D01*
X63373767Y-95427023D01*
X63411886Y-95452740D01*
X63446682Y-95476135D01*
X63477685Y-95496887D01*
X63504423Y-95514674D01*
X63526425Y-95529174D01*
X63543218Y-95540066D01*
X63545365Y-95541436D01*
X63599593Y-95575951D01*
X63600690Y-95364930D01*
X63600867Y-95293374D01*
X63600625Y-95227980D01*
X63599968Y-95168834D01*
X63598899Y-95116024D01*
X63597423Y-95069636D01*
X63595543Y-95029756D01*
X63593262Y-94996472D01*
X63590585Y-94969869D01*
X63587515Y-94950035D01*
X63584056Y-94937056D01*
X63582107Y-94933048D01*
X63579305Y-94929621D01*
X63575321Y-94926923D01*
X63569286Y-94924824D01*
X63560331Y-94923197D01*
X63547589Y-94921915D01*
X63530191Y-94920851D01*
X63507268Y-94919877D01*
X63487637Y-94919186D01*
X63464208Y-94918346D01*
X63446620Y-94917517D01*
X63433718Y-94916548D01*
X63424348Y-94915287D01*
X63417356Y-94913581D01*
X63411587Y-94911278D01*
X63406294Y-94908460D01*
X63391425Y-94899964D01*
X63391425Y-94879164D01*
X63391659Y-94867422D01*
X63393068Y-94860354D01*
X63396712Y-94855638D01*
X63403649Y-94850951D01*
X63404545Y-94850406D01*
X63417665Y-94842448D01*
X63687473Y-94842895D01*
X63739547Y-94842959D01*
X63785063Y-94843005D01*
X63824459Y-94843086D01*
X63858175Y-94843259D01*
X63886649Y-94843578D01*
X63910321Y-94844098D01*
X63929628Y-94844873D01*
X63945009Y-94845960D01*
X63956904Y-94847412D01*
X63965751Y-94849286D01*
X63971989Y-94851635D01*
X63976056Y-94854514D01*
X63978392Y-94857979D01*
X63979435Y-94862085D01*
X63979624Y-94866886D01*
X63979398Y-94872437D01*
X63979196Y-94878794D01*
X63979194Y-94879424D01*
X63979194Y-94902562D01*
X63962575Y-94909942D01*
X63955614Y-94912662D01*
X63947860Y-94914727D01*
X63938105Y-94916275D01*
X63925140Y-94917447D01*
X63907756Y-94918382D01*
X63884742Y-94919219D01*
X63881232Y-94919329D01*
X63859821Y-94920087D01*
X63840095Y-94920960D01*
X63823419Y-94921874D01*
X63811152Y-94922756D01*
X63805012Y-94923459D01*
X63800585Y-94924492D01*
X63796608Y-94926112D01*
X63793057Y-94928678D01*
X63789908Y-94932549D01*
X63787136Y-94938087D01*
X63784718Y-94945649D01*
X63782630Y-94955597D01*
X63780847Y-94968289D01*
X63779346Y-94984085D01*
X63778103Y-95003346D01*
X63777093Y-95026430D01*
X63776293Y-95053698D01*
X63775678Y-95085510D01*
X63775225Y-95122224D01*
X63774909Y-95164201D01*
X63774706Y-95211800D01*
X63774593Y-95265381D01*
X63774545Y-95325304D01*
X63774537Y-95379570D01*
X63774566Y-95429629D01*
X63774644Y-95478260D01*
X63774769Y-95524936D01*
X63774937Y-95569131D01*
X63775145Y-95610319D01*
X63775388Y-95647972D01*
X63775663Y-95681566D01*
X63775967Y-95710573D01*
X63776296Y-95734467D01*
X63776645Y-95752722D01*
X63777012Y-95764812D01*
X63777232Y-95768792D01*
X63778409Y-95781503D01*
X63779068Y-95790815D01*
X63778330Y-95797082D01*
X63775315Y-95800659D01*
X63769143Y-95801898D01*
X63758936Y-95801152D01*
X63743812Y-95798776D01*
X63722892Y-95795123D01*
X63715048Y-95793778D01*
X63695152Y-95790602D01*
X63670554Y-95786974D01*
X63643504Y-95783209D01*
X63616255Y-95779622D01*
X63595522Y-95777057D01*
X63524977Y-95768634D01*
X63471711Y-95734448D01*
X63445287Y-95717363D01*
X63413321Y-95696469D01*
X63376038Y-95671919D01*
X63333665Y-95643863D01*
X63286428Y-95612453D01*
X63234554Y-95577841D01*
X63178269Y-95540178D01*
X63117798Y-95499614D01*
X63053370Y-95456303D01*
X62985209Y-95410395D01*
X62913542Y-95362041D01*
X62838597Y-95311393D01*
X62785142Y-95275222D01*
X62741793Y-95245885D01*
X62700065Y-95217667D01*
X62660324Y-95190813D01*
X62622933Y-95165569D01*
X62588259Y-95142180D01*
X62556666Y-95120892D01*
X62528519Y-95101951D01*
X62504183Y-95085603D01*
X62484024Y-95072094D01*
X62468406Y-95061668D01*
X62457694Y-95054573D01*
X62452254Y-95051053D01*
X62451627Y-95050700D01*
X62451356Y-95054111D01*
X62451134Y-95063999D01*
X62450961Y-95079841D01*
X62450839Y-95101117D01*
X62450768Y-95127304D01*
X62450749Y-95157883D01*
X62450781Y-95192331D01*
X62450867Y-95230128D01*
X62451006Y-95270752D01*
X62451199Y-95313682D01*
X62451302Y-95333214D01*
X62451635Y-95390562D01*
X62451991Y-95441325D01*
X62452404Y-95485914D01*
X62452907Y-95524742D01*
X62453531Y-95558220D01*
X62454311Y-95586761D01*
X62455279Y-95610776D01*
X62456468Y-95630678D01*
X62457911Y-95646877D01*
X62459642Y-95659787D01*
X62461693Y-95669818D01*
X62464097Y-95677384D01*
X62466888Y-95682895D01*
X62470098Y-95686765D01*
X62473759Y-95689403D01*
X62477907Y-95691224D01*
X62480034Y-95691914D01*
X62486738Y-95692995D01*
X62499157Y-95694116D01*
X62516008Y-95695198D01*
X62536008Y-95696157D01*
X62557876Y-95696914D01*
X62559299Y-95696953D01*
X62583357Y-95697671D01*
X62601525Y-95698418D01*
X62614908Y-95699322D01*
X62624612Y-95700509D01*
X62631743Y-95702105D01*
X62637407Y-95704237D01*
X62641516Y-95706353D01*
X62648782Y-95710742D01*
X62652898Y-95715050D01*
X62654885Y-95721409D01*
X62655766Y-95731951D01*
X62655980Y-95736530D01*
X62656425Y-95742835D01*
X62656868Y-95748345D01*
X62656871Y-95753116D01*
X62655998Y-95757201D01*
X62653813Y-95760653D01*
X62649878Y-95763526D01*
X62643757Y-95765874D01*
X62635013Y-95767750D01*
X62623209Y-95769209D01*
X62607909Y-95770304D01*
X62588676Y-95771090D01*
X62565073Y-95771619D01*
X62536664Y-95771945D01*
X62503011Y-95772122D01*
X62463678Y-95772205D01*
X62418229Y-95772246D01*
X62366226Y-95772300D01*
X62365359Y-95772301D01*
X62315556Y-95772364D01*
X62272265Y-95772397D01*
X62234999Y-95772388D01*
X62203274Y-95772327D01*
X62176603Y-95772204D01*
X62154500Y-95772008D01*
X62136481Y-95771729D01*
X62122059Y-95771357D01*
X62110749Y-95770881D01*
X62102065Y-95770291D01*
X62095520Y-95769576D01*
X62090631Y-95768727D01*
X62086910Y-95767732D01*
X62083872Y-95766582D01*
X62083165Y-95766269D01*
X62068946Y-95759857D01*
X62068946Y-95736305D01*
X62068946Y-95712752D01*
X62087314Y-95705619D01*
X62095302Y-95702929D01*
X62104365Y-95700877D01*
X62115738Y-95699327D01*
X62130652Y-95698144D01*
X62150342Y-95697192D01*
X62170406Y-95696504D01*
X62196685Y-95695624D01*
X62216877Y-95694700D01*
X62231891Y-95693591D01*
X62242636Y-95692155D01*
X62250021Y-95690249D01*
X62254955Y-95687730D01*
X62258348Y-95684457D01*
X62259733Y-95682521D01*
X62263015Y-95674420D01*
X62265970Y-95660560D01*
X62268604Y-95640823D01*
X62270921Y-95615094D01*
X62272925Y-95583255D01*
X62274622Y-95545189D01*
X62276016Y-95500780D01*
X62277111Y-95449910D01*
X62277914Y-95392462D01*
X62278428Y-95328320D01*
X62278658Y-95257368D01*
X62278666Y-95215818D01*
X62278621Y-95166148D01*
X62278551Y-95122991D01*
X62278424Y-95085865D01*
X62278212Y-95054287D01*
X62277883Y-95027772D01*
X62277408Y-95005838D01*
X62276756Y-94988001D01*
X62275898Y-94973778D01*
X62274802Y-94962686D01*
X62273439Y-94954241D01*
X62271779Y-94947960D01*
X62269792Y-94943360D01*
X62267446Y-94939957D01*
X62264713Y-94937268D01*
X62261562Y-94934809D01*
X62261099Y-94934466D01*
X62254487Y-94930320D01*
X62246505Y-94927044D01*
X62236202Y-94924497D01*
X62222624Y-94922539D01*
X62204819Y-94921029D01*
X62181833Y-94919826D01*
X62155718Y-94918882D01*
X62131563Y-94918053D01*
X62113304Y-94917214D01*
X62099840Y-94916236D01*
X62090070Y-94914990D01*
X62082893Y-94913347D01*
X62077209Y-94911179D01*
X62073500Y-94909263D01*
X62066170Y-94904789D01*
X62062084Y-94900322D01*
X62060150Y-94893646D01*
X62059277Y-94882548D01*
X62059161Y-94880194D01*
X62059159Y-94880142D01*
X62124923Y-94880142D01*
X62128184Y-94881206D01*
X62137014Y-94882063D01*
X62149988Y-94882613D01*
X62162626Y-94882766D01*
X62200006Y-94883881D01*
X62234171Y-94887119D01*
X62263798Y-94892320D01*
X62281216Y-94897073D01*
X62300044Y-94905359D01*
X62316800Y-94916677D01*
X62329941Y-94929733D01*
X62337922Y-94943235D01*
X62338545Y-94945102D01*
X62339262Y-94950102D01*
X62339870Y-94960065D01*
X62340369Y-94975203D01*
X62340762Y-94995728D01*
X62341049Y-95021854D01*
X62341233Y-95053792D01*
X62341314Y-95091754D01*
X62341294Y-95135955D01*
X62341174Y-95186605D01*
X62340956Y-95243918D01*
X62340788Y-95279860D01*
X62340466Y-95341429D01*
X62340130Y-95396403D01*
X62339750Y-95445183D01*
X62339298Y-95488172D01*
X62338747Y-95525772D01*
X62338066Y-95558384D01*
X62337229Y-95586410D01*
X62336206Y-95610252D01*
X62334970Y-95630313D01*
X62333492Y-95646993D01*
X62331743Y-95660696D01*
X62329696Y-95671822D01*
X62327321Y-95680774D01*
X62324592Y-95687954D01*
X62321478Y-95693764D01*
X62317952Y-95698605D01*
X62313986Y-95702880D01*
X62310719Y-95705943D01*
X62299868Y-95713745D01*
X62285950Y-95719945D01*
X62268156Y-95724719D01*
X62245678Y-95728243D01*
X62217706Y-95730692D01*
X62190523Y-95732006D01*
X62170621Y-95732922D01*
X62154267Y-95734080D01*
X62142453Y-95735384D01*
X62136175Y-95736736D01*
X62135420Y-95737360D01*
X62138234Y-95739194D01*
X62143292Y-95738635D01*
X62148101Y-95738255D01*
X62159289Y-95737877D01*
X62176238Y-95737509D01*
X62198328Y-95737158D01*
X62224941Y-95736832D01*
X62255458Y-95736538D01*
X62289262Y-95736283D01*
X62325732Y-95736075D01*
X62364252Y-95735922D01*
X62371577Y-95735900D01*
X62414985Y-95735742D01*
X62452487Y-95735535D01*
X62483946Y-95735280D01*
X62509226Y-95734980D01*
X62528192Y-95734637D01*
X62540709Y-95734255D01*
X62546641Y-95733834D01*
X62545852Y-95733379D01*
X62538207Y-95732890D01*
X62537761Y-95732870D01*
X62505856Y-95731029D01*
X62480017Y-95728525D01*
X62459330Y-95725204D01*
X62442881Y-95720912D01*
X62429757Y-95715493D01*
X62427246Y-95714146D01*
X62417947Y-95708078D01*
X62410364Y-95700828D01*
X62404266Y-95691598D01*
X62399420Y-95679593D01*
X62395594Y-95664016D01*
X62392556Y-95644071D01*
X62390072Y-95618961D01*
X62387911Y-95587890D01*
X62387289Y-95577243D01*
X62386835Y-95565992D01*
X62386406Y-95549091D01*
X62386004Y-95527139D01*
X62385631Y-95500738D01*
X62385287Y-95470488D01*
X62384975Y-95436989D01*
X62384695Y-95400842D01*
X62384451Y-95362648D01*
X62384243Y-95323007D01*
X62384073Y-95282519D01*
X62383943Y-95241786D01*
X62383853Y-95201407D01*
X62383807Y-95161984D01*
X62383805Y-95124116D01*
X62383849Y-95088405D01*
X62383940Y-95055451D01*
X62384081Y-95025854D01*
X62384272Y-95000216D01*
X62384516Y-94979136D01*
X62384814Y-94963215D01*
X62385168Y-94953053D01*
X62385579Y-94949252D01*
X62385606Y-94949240D01*
X62388657Y-94951166D01*
X62397182Y-94956801D01*
X62410862Y-94965929D01*
X62429378Y-94978337D01*
X62452409Y-94993807D01*
X62479638Y-95012126D01*
X62510745Y-95033077D01*
X62545411Y-95056447D01*
X62583315Y-95082019D01*
X62624140Y-95109578D01*
X62667565Y-95138910D01*
X62713271Y-95169800D01*
X62760940Y-95202031D01*
X62810251Y-95235389D01*
X62819503Y-95241649D01*
X62898468Y-95295050D01*
X62973661Y-95345828D01*
X63044951Y-95393898D01*
X63112213Y-95439176D01*
X63175319Y-95481577D01*
X63234141Y-95521015D01*
X63288551Y-95557407D01*
X63338421Y-95590666D01*
X63383625Y-95620709D01*
X63424034Y-95647450D01*
X63459521Y-95670805D01*
X63489959Y-95690688D01*
X63515219Y-95707015D01*
X63535174Y-95719701D01*
X63549696Y-95728661D01*
X63558658Y-95733810D01*
X63561495Y-95735087D01*
X63567927Y-95736272D01*
X63579881Y-95738098D01*
X63595932Y-95740378D01*
X63614656Y-95742925D01*
X63634625Y-95745555D01*
X63654415Y-95748081D01*
X63672601Y-95750316D01*
X63687756Y-95752075D01*
X63698456Y-95753172D01*
X63702010Y-95753429D01*
X63713462Y-95753923D01*
X63710830Y-95725059D01*
X63710445Y-95717359D01*
X63710075Y-95703205D01*
X63709725Y-95683145D01*
X63709398Y-95657721D01*
X63709099Y-95627480D01*
X63708833Y-95592965D01*
X63708602Y-95554723D01*
X63708412Y-95513296D01*
X63708266Y-95469231D01*
X63708169Y-95423073D01*
X63708125Y-95375365D01*
X63708124Y-95370824D01*
X63708139Y-95306654D01*
X63708228Y-95249095D01*
X63708410Y-95197758D01*
X63708705Y-95152256D01*
X63709132Y-95112203D01*
X63709712Y-95077212D01*
X63710463Y-95046894D01*
X63711406Y-95020863D01*
X63712559Y-94998732D01*
X63713944Y-94980113D01*
X63715578Y-94964620D01*
X63717482Y-94951865D01*
X63719675Y-94941461D01*
X63722177Y-94933021D01*
X63725008Y-94926157D01*
X63728187Y-94920484D01*
X63731134Y-94916362D01*
X63740280Y-94907230D01*
X63752352Y-94899872D01*
X63768097Y-94894098D01*
X63788260Y-94889719D01*
X63813587Y-94886546D01*
X63844822Y-94884388D01*
X63859366Y-94883759D01*
X63877787Y-94882938D01*
X63893455Y-94881990D01*
X63905171Y-94881007D01*
X63911737Y-94880081D01*
X63912719Y-94879640D01*
X63909317Y-94879274D01*
X63899499Y-94878928D01*
X63883846Y-94878608D01*
X63862938Y-94878319D01*
X63837357Y-94878065D01*
X63807684Y-94877854D01*
X63774499Y-94877689D01*
X63738384Y-94877577D01*
X63699919Y-94877522D01*
X63685308Y-94877518D01*
X63646127Y-94877557D01*
X63609081Y-94877671D01*
X63574751Y-94877851D01*
X63543720Y-94878092D01*
X63516568Y-94878388D01*
X63493875Y-94878730D01*
X63476224Y-94879113D01*
X63464193Y-94879530D01*
X63458366Y-94879973D01*
X63457899Y-94880142D01*
X63461147Y-94881259D01*
X63469892Y-94882146D01*
X63482633Y-94882685D01*
X63492011Y-94882795D01*
X63514348Y-94883329D01*
X63538164Y-94884768D01*
X63561465Y-94886920D01*
X63582257Y-94889592D01*
X63598546Y-94892593D01*
X63601689Y-94893374D01*
X63619737Y-94900422D01*
X63633828Y-94911230D01*
X63644439Y-94926514D01*
X63652046Y-94946986D01*
X63657125Y-94973360D01*
X63657621Y-94977229D01*
X63658468Y-94987893D01*
X63659258Y-95005532D01*
X63659991Y-95030123D01*
X63660666Y-95061643D01*
X63661284Y-95100069D01*
X63661844Y-95145380D01*
X63662345Y-95197551D01*
X63662787Y-95256562D01*
X63663170Y-95322388D01*
X63663251Y-95338720D01*
X63664824Y-95666975D01*
X63656699Y-95662628D01*
X63648140Y-95657789D01*
X63634693Y-95649867D01*
X63617400Y-95639500D01*
X63597299Y-95627325D01*
X63575429Y-95613979D01*
X63552832Y-95600100D01*
X63530546Y-95586325D01*
X63509611Y-95573290D01*
X63491067Y-95561634D01*
X63475954Y-95551994D01*
X63471893Y-95549362D01*
X63454071Y-95537633D01*
X63431003Y-95522277D01*
X63403199Y-95503641D01*
X63371170Y-95482075D01*
X63335427Y-95457927D01*
X63296480Y-95431546D01*
X63254840Y-95403282D01*
X63211018Y-95373482D01*
X63165525Y-95342496D01*
X63118872Y-95310673D01*
X63071568Y-95278361D01*
X63024125Y-95245909D01*
X62977054Y-95213667D01*
X62930865Y-95181982D01*
X62886069Y-95151205D01*
X62843177Y-95121683D01*
X62802699Y-95093765D01*
X62765147Y-95067801D01*
X62731030Y-95044139D01*
X62700860Y-95023129D01*
X62676957Y-95006390D01*
X62496028Y-94879242D01*
X62310475Y-94878380D01*
X62275178Y-94878264D01*
X62242078Y-94878248D01*
X62211820Y-94878326D01*
X62185047Y-94878492D01*
X62162400Y-94878739D01*
X62144525Y-94879063D01*
X62132063Y-94879455D01*
X62125658Y-94879912D01*
X62124923Y-94880142D01*
X62059159Y-94880142D01*
X62058124Y-94858569D01*
X62071407Y-94850294D01*
X62084690Y-94842019D01*
X62306021Y-94842608D01*
G37*
D12*
%TO.C,R8*%
X218547500Y-122863000D02*
X219317500Y-122863000D01*
X226627500Y-122863000D02*
X225857500Y-122863000D01*
X225857500Y-124233000D02*
X225857500Y-121493000D01*
X219317500Y-121493000D02*
X219317500Y-124233000D01*
X225857500Y-121493000D02*
X219317500Y-121493000D01*
X219317500Y-124233000D02*
X225857500Y-124233000D01*
%TO.C,R7*%
X200767500Y-122863000D02*
X201537500Y-122863000D01*
X208847500Y-122863000D02*
X208077500Y-122863000D01*
X208077500Y-124233000D02*
X208077500Y-121493000D01*
X201537500Y-121493000D02*
X201537500Y-124233000D01*
X208077500Y-121493000D02*
X201537500Y-121493000D01*
X201537500Y-124233000D02*
X208077500Y-124233000D01*
%TO.C,R6*%
X175367500Y-122863000D02*
X176137500Y-122863000D01*
X183447500Y-122863000D02*
X182677500Y-122863000D01*
X182677500Y-124233000D02*
X182677500Y-121493000D01*
X176137500Y-121493000D02*
X176137500Y-124233000D01*
X182677500Y-121493000D02*
X176137500Y-121493000D01*
X176137500Y-124233000D02*
X182677500Y-124233000D01*
%TO.C,R5*%
X149967500Y-122863000D02*
X150737500Y-122863000D01*
X158047500Y-122863000D02*
X157277500Y-122863000D01*
X157277500Y-124233000D02*
X157277500Y-121493000D01*
X150737500Y-121493000D02*
X150737500Y-124233000D01*
X157277500Y-121493000D02*
X150737500Y-121493000D01*
X150737500Y-124233000D02*
X157277500Y-124233000D01*
%TO.C,R4*%
X122487500Y-98733000D02*
X121717500Y-98733000D01*
X114407500Y-98733000D02*
X115177500Y-98733000D01*
X115177500Y-97363000D02*
X115177500Y-100103000D01*
X121717500Y-100103000D02*
X121717500Y-97363000D01*
X115177500Y-100103000D02*
X121717500Y-100103000D01*
X121717500Y-97363000D02*
X115177500Y-97363000D01*
%TO.C,R3*%
X97087500Y-98733000D02*
X96317500Y-98733000D01*
X89007500Y-98733000D02*
X89777500Y-98733000D01*
X89777500Y-97363000D02*
X89777500Y-100103000D01*
X96317500Y-100103000D02*
X96317500Y-97363000D01*
X89777500Y-100103000D02*
X96317500Y-100103000D01*
X96317500Y-97363000D02*
X89777500Y-97363000D01*
%TO.C,R2*%
X71687500Y-98733000D02*
X70917500Y-98733000D01*
X63607500Y-98733000D02*
X64377500Y-98733000D01*
X64377500Y-97363000D02*
X64377500Y-100103000D01*
X70917500Y-100103000D02*
X70917500Y-97363000D01*
X64377500Y-100103000D02*
X70917500Y-100103000D01*
X70917500Y-97363000D02*
X64377500Y-97363000D01*
%TO.C,R1*%
X56447500Y-98733000D02*
X55677500Y-98733000D01*
X48367500Y-98733000D02*
X49137500Y-98733000D01*
X49137500Y-97363000D02*
X49137500Y-100103000D01*
X55677500Y-100103000D02*
X55677500Y-97363000D01*
X49137500Y-100103000D02*
X55677500Y-100103000D01*
X55677500Y-97363000D02*
X49137500Y-97363000D01*
%TO.C,LED8*%
X221337500Y-108422000D02*
X221337500Y-113174000D01*
X221337500Y-113173816D02*
G75*
G03*
X231987498Y-110802741I5060000J2375816D01*
G01*
X231987498Y-110793259D02*
G75*
G03*
X221337500Y-108422184I-5589998J-4741D01*
G01*
X231397500Y-110798000D02*
G75*
G03*
X231397500Y-110798000I-5000000J0D01*
G01*
%TO.C,LED7*%
X195937500Y-108422000D02*
X195937500Y-113174000D01*
X195937500Y-113173816D02*
G75*
G03*
X206587498Y-110802741I5060000J2375816D01*
G01*
X206587498Y-110793259D02*
G75*
G03*
X195937500Y-108422184I-5589998J-4741D01*
G01*
X205997500Y-110798000D02*
G75*
G03*
X205997500Y-110798000I-5000000J0D01*
G01*
%TO.C,LED6*%
X170537500Y-108422000D02*
X170537500Y-113174000D01*
X170537500Y-113173816D02*
G75*
G03*
X181187498Y-110802741I5060000J2375816D01*
G01*
X181187498Y-110793259D02*
G75*
G03*
X170537500Y-108422184I-5589998J-4741D01*
G01*
X180597500Y-110798000D02*
G75*
G03*
X180597500Y-110798000I-5000000J0D01*
G01*
%TO.C,LED5*%
X145137500Y-108422000D02*
X145137500Y-113174000D01*
X145137500Y-113173816D02*
G75*
G03*
X155787498Y-110802741I5060000J2375816D01*
G01*
X155787498Y-110793259D02*
G75*
G03*
X145137500Y-108422184I-5589998J-4741D01*
G01*
X155197500Y-110798000D02*
G75*
G03*
X155197500Y-110798000I-5000000J0D01*
G01*
%TO.C,LED4*%
X119737500Y-108422000D02*
X119737500Y-113174000D01*
X119737500Y-113173816D02*
G75*
G03*
X130387498Y-110802741I5060000J2375816D01*
G01*
X130387498Y-110793259D02*
G75*
G03*
X119737500Y-108422184I-5589998J-4741D01*
G01*
X129797500Y-110798000D02*
G75*
G03*
X129797500Y-110798000I-5000000J0D01*
G01*
%TO.C,LED3*%
X94337500Y-108422000D02*
X94337500Y-113174000D01*
X94337500Y-113173816D02*
G75*
G03*
X104987498Y-110802741I5060000J2375816D01*
G01*
X104987498Y-110793259D02*
G75*
G03*
X94337500Y-108422184I-5589998J-4741D01*
G01*
X104397500Y-110798000D02*
G75*
G03*
X104397500Y-110798000I-5000000J0D01*
G01*
%TO.C,LED2*%
X68937500Y-108422000D02*
X68937500Y-113174000D01*
X68937500Y-113173816D02*
G75*
G03*
X79587498Y-110802741I5060000J2375816D01*
G01*
X79587498Y-110793259D02*
G75*
G03*
X68937500Y-108422184I-5589998J-4741D01*
G01*
X78997500Y-110798000D02*
G75*
G03*
X78997500Y-110798000I-5000000J0D01*
G01*
%TO.C,LED1*%
X43537500Y-108422000D02*
X43537500Y-113174000D01*
X43537500Y-113173816D02*
G75*
G03*
X54187498Y-110802741I5060000J2375816D01*
G01*
X54187498Y-110793259D02*
G75*
G03*
X43537500Y-108422184I-5589998J-4741D01*
G01*
X53597500Y-110798000D02*
G75*
G03*
X53597500Y-110798000I-5000000J0D01*
G01*
%TO.C,J1*%
X86697500Y-126038000D02*
X84097500Y-126038000D01*
X86697500Y-128638000D02*
X104537500Y-128638000D01*
X84097500Y-123438000D02*
X104537500Y-123438000D01*
X86697500Y-128638000D02*
X86697500Y-126038000D01*
X104537500Y-128638000D02*
X104537500Y-123438000D01*
X84097500Y-126038000D02*
X84097500Y-123438000D01*
X85427500Y-128638000D02*
X84097500Y-128638000D01*
X84097500Y-128638000D02*
X84097500Y-127308000D01*
%TO.C,GND1*%
X237887500Y-91053000D02*
X237887500Y-92383000D01*
X235287500Y-91053000D02*
X235287500Y-93713000D01*
X235227500Y-91053000D02*
X235227500Y-93713000D01*
X235287500Y-93713000D02*
X235227500Y-93713000D01*
X235287500Y-91053000D02*
X235227500Y-91053000D01*
X236557500Y-91053000D02*
X237887500Y-91053000D01*
%TD*%
M02*
