%TF.GenerationSoftware,KiCad,Pcbnew,7.0.2*%
%TF.CreationDate,2024-06-24T19:44:11-07:00*%
%TF.ProjectId,Score-Board-LinInd,53636f72-652d-4426-9f61-72642d4c696e,1*%
%TF.SameCoordinates,Original*%
%TF.FileFunction,Plated,1,2,PTH,Drill*%
%TF.FilePolarity,Positive*%
%FSLAX46Y46*%
G04 Gerber Fmt 4.6, Leading zero omitted, Abs format (unit mm)*
G04 Created by KiCad (PCBNEW 7.0.2) date 2024-06-24 19:44:11*
%MOMM*%
%LPD*%
G01*
G04 APERTURE LIST*
%TA.AperFunction,ViaDrill*%
%ADD10C,0.635000*%
%TD*%
%TA.AperFunction,ComponentDrill*%
%ADD11C,0.800000*%
%TD*%
%TA.AperFunction,ViaDrill*%
%ADD12C,0.889000*%
%TD*%
%TA.AperFunction,ComponentDrill*%
%ADD13C,0.900000*%
%TD*%
%TA.AperFunction,ComponentDrill*%
%ADD14C,1.000000*%
%TD*%
G04 APERTURE END LIST*
D10*
X44152500Y-108258000D03*
X46057500Y-108258000D03*
X53677500Y-121593000D03*
X88602500Y-130483000D03*
X90507500Y-130038000D03*
X103207500Y-122228000D03*
X109557500Y-130483000D03*
X143847500Y-113338000D03*
X160992500Y-125340000D03*
X212427500Y-95748000D03*
X212427500Y-99368000D03*
X228937500Y-120323000D03*
X230842500Y-117148000D03*
D11*
%TO.C,R1*%
X47327500Y-98733000D03*
X57487500Y-98733000D03*
%TO.C,R2*%
X62567500Y-98733000D03*
X72727500Y-98733000D03*
%TO.C,R3*%
X87967500Y-98733000D03*
X98127500Y-98733000D03*
%TO.C,R4*%
X113367500Y-98733000D03*
X123527500Y-98733000D03*
%TO.C,R5*%
X148927500Y-122863000D03*
X159087500Y-122863000D03*
%TO.C,R6*%
X174327500Y-122863000D03*
X184487500Y-122863000D03*
%TO.C,R7*%
X199727500Y-122863000D03*
X209887500Y-122863000D03*
%TO.C,R8*%
X217507500Y-122863000D03*
X227667500Y-122863000D03*
%TD*%
D12*
X53042500Y-102543000D03*
X63837500Y-115878000D03*
X63837500Y-118418000D03*
X63837500Y-121593000D03*
X70187500Y-102543000D03*
X79077500Y-102543000D03*
X91777500Y-102543000D03*
X98127500Y-118418000D03*
X98127500Y-120958000D03*
X103842500Y-102543000D03*
X120987500Y-102543000D03*
X125432500Y-102543000D03*
X134322500Y-119053000D03*
X138132500Y-119053000D03*
X147657500Y-119053000D03*
X150197500Y-119053000D03*
X173057500Y-119053000D03*
X175597500Y-119053000D03*
X198457500Y-119053000D03*
X200997500Y-119053000D03*
X225127500Y-119053000D03*
X225127500Y-123498000D03*
D13*
%TO.C,LED1*%
X47327500Y-110798000D03*
X49867500Y-110798000D03*
%TO.C,LED2*%
X72727500Y-110798000D03*
X75267500Y-110798000D03*
%TO.C,LED3*%
X98127500Y-110798000D03*
X100667500Y-110798000D03*
%TO.C,LED4*%
X123527500Y-110798000D03*
X126067500Y-110798000D03*
%TO.C,LED5*%
X148927500Y-110798000D03*
X151467500Y-110798000D03*
%TO.C,LED6*%
X174327500Y-110798000D03*
X176867500Y-110798000D03*
%TO.C,LED7*%
X199727500Y-110798000D03*
X202267500Y-110798000D03*
%TO.C,LED8*%
X225127500Y-110798000D03*
X227667500Y-110798000D03*
D14*
%TO.C,J2*%
X38432500Y-100628000D03*
X38432500Y-103168000D03*
X38432500Y-105708000D03*
X38432500Y-108248000D03*
X38432500Y-110788000D03*
X38432500Y-113328000D03*
X38432500Y-115868000D03*
X38432500Y-118408000D03*
X38432500Y-120948000D03*
X40972500Y-100628000D03*
X40972500Y-103168000D03*
X40972500Y-105708000D03*
X40972500Y-108248000D03*
X40972500Y-110788000D03*
X40972500Y-113328000D03*
X40972500Y-115868000D03*
X40972500Y-118408000D03*
X40972500Y-120948000D03*
%TO.C,J1*%
X85427500Y-124768000D03*
X85427500Y-127308000D03*
X87967500Y-124768000D03*
X87967500Y-127308000D03*
X90507500Y-124768000D03*
X90507500Y-127308000D03*
X93047500Y-124768000D03*
X93047500Y-127308000D03*
X95587500Y-124768000D03*
X95587500Y-127308000D03*
X98127500Y-124768000D03*
X98127500Y-127308000D03*
X100667500Y-124768000D03*
X100667500Y-127308000D03*
X103207500Y-124768000D03*
X103207500Y-127308000D03*
%TO.C,J3*%
X234012500Y-100628000D03*
X234012500Y-103168000D03*
X234012500Y-105708000D03*
X234012500Y-108248000D03*
X234012500Y-110788000D03*
X234012500Y-113328000D03*
X234012500Y-115868000D03*
X234012500Y-118408000D03*
X234012500Y-120948000D03*
X236552500Y-100628000D03*
X236552500Y-103168000D03*
X236552500Y-105708000D03*
X236552500Y-108248000D03*
X236552500Y-110788000D03*
X236552500Y-113328000D03*
X236552500Y-115868000D03*
X236552500Y-118408000D03*
X236552500Y-120948000D03*
%TO.C,GND1*%
X236557500Y-92383000D03*
M02*
