%TF.GenerationSoftware,KiCad,Pcbnew,7.0.2*%
%TF.CreationDate,2024-06-24T19:43:42-07:00*%
%TF.ProjectId,Score-Board-LinInd,53636f72-652d-4426-9f61-72642d4c696e,1*%
%TF.SameCoordinates,Original*%
%TF.FileFunction,Copper,L1,Top*%
%TF.FilePolarity,Positive*%
%FSLAX46Y46*%
G04 Gerber Fmt 4.6, Leading zero omitted, Abs format (unit mm)*
G04 Created by KiCad (PCBNEW 7.0.2) date 2024-06-24 19:43:42*
%MOMM*%
%LPD*%
G01*
G04 APERTURE LIST*
%TA.AperFunction,ComponentPad*%
%ADD10C,1.600000*%
%TD*%
%TA.AperFunction,ComponentPad*%
%ADD11O,1.600000X1.600000*%
%TD*%
%TA.AperFunction,ComponentPad*%
%ADD12R,1.800000X1.800000*%
%TD*%
%TA.AperFunction,ComponentPad*%
%ADD13C,1.800000*%
%TD*%
%TA.AperFunction,ComponentPad*%
%ADD14R,1.700000X1.700000*%
%TD*%
%TA.AperFunction,ComponentPad*%
%ADD15O,1.700000X1.700000*%
%TD*%
%TA.AperFunction,ViaPad*%
%ADD16C,1.270000*%
%TD*%
%TA.AperFunction,ViaPad*%
%ADD17C,1.016000*%
%TD*%
%TA.AperFunction,Conductor*%
%ADD18C,0.381000*%
%TD*%
%TA.AperFunction,Conductor*%
%ADD19C,0.889000*%
%TD*%
G04 APERTURE END LIST*
D10*
%TO.P,R8,1*%
%TO.N,/SD.A*%
X227667500Y-122863000D03*
D11*
%TO.P,R8,2*%
%TO.N,/SDA.A*%
X217507500Y-122863000D03*
%TD*%
D10*
%TO.P,R7,1*%
%TO.N,/SD.B*%
X209887500Y-122863000D03*
D11*
%TO.P,R7,2*%
%TO.N,/SDA.B*%
X199727500Y-122863000D03*
%TD*%
D10*
%TO.P,R6,1*%
%TO.N,/SD.C*%
X184487500Y-122863000D03*
D11*
%TO.P,R6,2*%
%TO.N,/SDA.C*%
X174327500Y-122863000D03*
%TD*%
D10*
%TO.P,R5,1*%
%TO.N,/SD.D*%
X159087500Y-122863000D03*
D11*
%TO.P,R5,2*%
%TO.N,/SDA.D*%
X148927500Y-122863000D03*
%TD*%
D10*
%TO.P,R4,1*%
%TO.N,/SD.E*%
X113367500Y-98733000D03*
D11*
%TO.P,R4,2*%
%TO.N,/SDA.E*%
X123527500Y-98733000D03*
%TD*%
D10*
%TO.P,R3,1*%
%TO.N,/SD.F*%
X87967500Y-98733000D03*
D11*
%TO.P,R3,2*%
%TO.N,/SDA.F*%
X98127500Y-98733000D03*
%TD*%
D10*
%TO.P,R2,1*%
%TO.N,/SD.G*%
X62567500Y-98733000D03*
D11*
%TO.P,R2,2*%
%TO.N,/SDA.G*%
X72727500Y-98733000D03*
%TD*%
D10*
%TO.P,R1,1*%
%TO.N,/SD.P*%
X47327500Y-98733000D03*
D11*
%TO.P,R1,2*%
%TO.N,/SDA.P*%
X57487500Y-98733000D03*
%TD*%
D12*
%TO.P,LED8,1,K*%
%TO.N,/SDA.A*%
X225127500Y-110798000D03*
D13*
%TO.P,LED8,2,A*%
%TO.N,Net-(J1-Pin_10)*%
X227667500Y-110798000D03*
%TD*%
D12*
%TO.P,LED7,1,K*%
%TO.N,/SDA.B*%
X199727500Y-110798000D03*
D13*
%TO.P,LED7,2,A*%
%TO.N,Net-(J1-Pin_10)*%
X202267500Y-110798000D03*
%TD*%
D12*
%TO.P,LED6,1,K*%
%TO.N,/SDA.C*%
X174327500Y-110798000D03*
D13*
%TO.P,LED6,2,A*%
%TO.N,Net-(J1-Pin_10)*%
X176867500Y-110798000D03*
%TD*%
D12*
%TO.P,LED5,1,K*%
%TO.N,/SDA.D*%
X148927500Y-110798000D03*
D13*
%TO.P,LED5,2,A*%
%TO.N,Net-(J1-Pin_10)*%
X151467500Y-110798000D03*
%TD*%
D12*
%TO.P,LED4,1,K*%
%TO.N,/SDA.E*%
X123527500Y-110798000D03*
D13*
%TO.P,LED4,2,A*%
%TO.N,Net-(J1-Pin_10)*%
X126067500Y-110798000D03*
%TD*%
D12*
%TO.P,LED3,1,K*%
%TO.N,/SDA.F*%
X98127500Y-110798000D03*
D13*
%TO.P,LED3,2,A*%
%TO.N,Net-(J1-Pin_10)*%
X100667500Y-110798000D03*
%TD*%
D12*
%TO.P,LED2,1,K*%
%TO.N,/SDA.G*%
X72727500Y-110798000D03*
D13*
%TO.P,LED2,2,A*%
%TO.N,Net-(J1-Pin_10)*%
X75267500Y-110798000D03*
%TD*%
D12*
%TO.P,LED1,1,K*%
%TO.N,/SDA.P*%
X47327500Y-110798000D03*
D13*
%TO.P,LED1,2,A*%
%TO.N,Net-(J1-Pin_10)*%
X49867500Y-110798000D03*
%TD*%
D14*
%TO.P,J3,1,Pin_1*%
%TO.N,GND*%
X234012500Y-120948000D03*
D15*
%TO.P,J3,2,Pin_2*%
%TO.N,/DD.A10*%
X236552500Y-120948000D03*
%TO.P,J3,3,Pin_3*%
%TO.N,/SD.A*%
X234012500Y-118408000D03*
%TO.P,J3,4,Pin_4*%
%TO.N,/DD.A01*%
X236552500Y-118408000D03*
%TO.P,J3,5,Pin_5*%
%TO.N,/SD.B*%
X234012500Y-115868000D03*
%TO.P,J3,6,Pin_6*%
%TO.N,/DD.B10*%
X236552500Y-115868000D03*
%TO.P,J3,7,Pin_7*%
%TO.N,/SD.C*%
X234012500Y-113328000D03*
%TO.P,J3,8,Pin_8*%
%TO.N,/DD.B01*%
X236552500Y-113328000D03*
%TO.P,J3,9,Pin_9*%
%TO.N,/SD.D*%
X234012500Y-110788000D03*
%TO.P,J3,10,Pin_10*%
%TO.N,/DD.C10*%
X236552500Y-110788000D03*
%TO.P,J3,11,Pin_11*%
%TO.N,/SD.E*%
X234012500Y-108248000D03*
%TO.P,J3,12,Pin_12*%
%TO.N,/DD.C01*%
X236552500Y-108248000D03*
%TO.P,J3,13,Pin_13*%
%TO.N,/SD.F*%
X234012500Y-105708000D03*
%TO.P,J3,14,Pin_14*%
%TO.N,/DD.IND*%
X236552500Y-105708000D03*
%TO.P,J3,15,Pin_15*%
%TO.N,/SD.G*%
X234012500Y-103168000D03*
%TO.P,J3,16,Pin_16*%
%TO.N,Net-(J2-Pin_16)*%
X236552500Y-103168000D03*
%TO.P,J3,17,Pin_17*%
%TO.N,/SD.P*%
X234012500Y-100628000D03*
%TO.P,J3,18,Pin_18*%
%TO.N,GND*%
X236552500Y-100628000D03*
%TD*%
D14*
%TO.P,J2,1,Pin_1*%
%TO.N,GND*%
X38432500Y-120948000D03*
D15*
%TO.P,J2,2,Pin_2*%
%TO.N,/DD.A10*%
X40972500Y-120948000D03*
%TO.P,J2,3,Pin_3*%
%TO.N,/SD.A*%
X38432500Y-118408000D03*
%TO.P,J2,4,Pin_4*%
%TO.N,/DD.A01*%
X40972500Y-118408000D03*
%TO.P,J2,5,Pin_5*%
%TO.N,/SD.B*%
X38432500Y-115868000D03*
%TO.P,J2,6,Pin_6*%
%TO.N,/DD.B10*%
X40972500Y-115868000D03*
%TO.P,J2,7,Pin_7*%
%TO.N,/SD.C*%
X38432500Y-113328000D03*
%TO.P,J2,8,Pin_8*%
%TO.N,/DD.B01*%
X40972500Y-113328000D03*
%TO.P,J2,9,Pin_9*%
%TO.N,/SD.D*%
X38432500Y-110788000D03*
%TO.P,J2,10,Pin_10*%
%TO.N,/DD.C10*%
X40972500Y-110788000D03*
%TO.P,J2,11,Pin_11*%
%TO.N,/SD.E*%
X38432500Y-108248000D03*
%TO.P,J2,12,Pin_12*%
%TO.N,/DD.C01*%
X40972500Y-108248000D03*
%TO.P,J2,13,Pin_13*%
%TO.N,/SD.F*%
X38432500Y-105708000D03*
%TO.P,J2,14,Pin_14*%
%TO.N,/DD.IND*%
X40972500Y-105708000D03*
%TO.P,J2,15,Pin_15*%
%TO.N,/SD.G*%
X38432500Y-103168000D03*
%TO.P,J2,16,Pin_16*%
%TO.N,Net-(J2-Pin_16)*%
X40972500Y-103168000D03*
%TO.P,J2,17,Pin_17*%
%TO.N,/SD.P*%
X38432500Y-100628000D03*
%TO.P,J2,18,Pin_18*%
%TO.N,GND*%
X40972500Y-100628000D03*
%TD*%
D14*
%TO.P,J1,1,Pin_1*%
%TO.N,/DD.A10*%
X85427500Y-127308000D03*
D15*
%TO.P,J1,2,Pin_2*%
%TO.N,Net-(J1-Pin_10)*%
X85427500Y-124768000D03*
%TO.P,J1,3,Pin_3*%
%TO.N,/DD.A01*%
X87967500Y-127308000D03*
%TO.P,J1,4,Pin_4*%
%TO.N,Net-(J1-Pin_10)*%
X87967500Y-124768000D03*
%TO.P,J1,5,Pin_5*%
%TO.N,/DD.B10*%
X90507500Y-127308000D03*
%TO.P,J1,6,Pin_6*%
%TO.N,Net-(J1-Pin_10)*%
X90507500Y-124768000D03*
%TO.P,J1,7,Pin_7*%
%TO.N,/DD.B01*%
X93047500Y-127308000D03*
%TO.P,J1,8,Pin_8*%
%TO.N,Net-(J1-Pin_10)*%
X93047500Y-124768000D03*
%TO.P,J1,9,Pin_9*%
%TO.N,/DD.C10*%
X95587500Y-127308000D03*
%TO.P,J1,10,Pin_10*%
%TO.N,Net-(J1-Pin_10)*%
X95587500Y-124768000D03*
%TO.P,J1,11,Pin_11*%
%TO.N,/DD.C01*%
X98127500Y-127308000D03*
%TO.P,J1,12,Pin_12*%
%TO.N,Net-(J1-Pin_10)*%
X98127500Y-124768000D03*
%TO.P,J1,13,Pin_13*%
%TO.N,/DD.IND*%
X100667500Y-127308000D03*
%TO.P,J1,14,Pin_14*%
%TO.N,Net-(J1-Pin_10)*%
X100667500Y-124768000D03*
%TO.P,J1,15,Pin_15*%
%TO.N,unconnected-(J1-Pin_15-Pad15)*%
X103207500Y-127308000D03*
%TO.P,J1,16,Pin_16*%
%TO.N,unconnected-(J1-Pin_16-Pad16)*%
X103207500Y-124768000D03*
%TD*%
D14*
%TO.P,GND1,1,Pin_1*%
%TO.N,GND*%
X236557500Y-92383000D03*
%TD*%
D16*
%TO.N,GND*%
X98127500Y-120958000D03*
X98127500Y-118418000D03*
X63837500Y-118418000D03*
X63837500Y-121593000D03*
X63837500Y-115878000D03*
X53042500Y-102543000D03*
X70187500Y-102543000D03*
X79077500Y-102543000D03*
X91777500Y-102543000D03*
X103842500Y-102543000D03*
X120987500Y-102543000D03*
X125432500Y-102543000D03*
X134322500Y-119053000D03*
X138132500Y-119053000D03*
X147657500Y-119053000D03*
X150197500Y-119053000D03*
X173057500Y-119053000D03*
X175597500Y-119053000D03*
X198457500Y-119053000D03*
X200997500Y-119053000D03*
X225127500Y-123498000D03*
X225127500Y-119053000D03*
D17*
X212427500Y-99368000D03*
X212427500Y-95748000D03*
%TO.N,/DD.C01*%
X46057500Y-108258000D03*
%TO.N,/SD.D*%
X143847500Y-113338000D03*
%TO.N,/DD.IND*%
X53677500Y-121593000D03*
X44152500Y-108258000D03*
%TO.N,/SD.A*%
X160992500Y-125340000D03*
%TO.N,/DD.A10*%
X88602500Y-130483000D03*
%TO.N,/DD.C01*%
X230842500Y-117148000D03*
X228937500Y-120323000D03*
%TO.N,/DD.B10*%
X109557500Y-130483000D03*
%TO.N,/DD.B01*%
X103207500Y-122228000D03*
%TO.N,/DD.A01*%
X90507500Y-130038000D03*
%TD*%
D18*
%TO.N,/DD.C01*%
X235180000Y-109620500D02*
X236552500Y-108248000D01*
X235180000Y-113811595D02*
X235180000Y-109620500D01*
X233495000Y-114495500D02*
X234496095Y-114495500D01*
X230842500Y-117148000D02*
X233495000Y-114495500D01*
X234496095Y-114495500D02*
X235180000Y-113811595D01*
%TO.N,/DD.IND*%
X235180000Y-107080500D02*
X236552500Y-105708000D01*
X235180000Y-108731595D02*
X235180000Y-107080500D01*
X234496095Y-109415500D02*
X235180000Y-108731595D01*
X233528905Y-109415500D02*
X234496095Y-109415500D01*
X227667500Y-115276905D02*
X233528905Y-109415500D01*
X227667500Y-118418000D02*
X227667500Y-115276905D01*
X221089001Y-124996499D02*
X227667500Y-118418000D01*
X161816434Y-124996500D02*
X221089001Y-124996499D01*
X161818000Y-124998066D02*
X161816434Y-124996500D01*
X161818000Y-125681934D02*
X161818000Y-124998066D01*
X160650566Y-126165500D02*
X161334434Y-126165500D01*
X109982080Y-125911000D02*
X160396066Y-125911000D01*
X108839080Y-124768000D02*
X109982080Y-125911000D01*
X160396066Y-125911000D02*
X160650566Y-126165500D01*
X105131580Y-128475500D02*
X108839080Y-124768000D01*
X101835000Y-128475500D02*
X105131580Y-128475500D01*
X161334434Y-126165500D02*
X161818000Y-125681934D01*
X100667500Y-127308000D02*
X101835000Y-128475500D01*
%TO.N,/DD.A10*%
X46697500Y-126673000D02*
X40972500Y-120948000D01*
X84792500Y-126673000D02*
X46697500Y-126673000D01*
X85427500Y-127308000D02*
X84792500Y-126673000D01*
%TO.N,/DD.IND*%
X54898595Y-122814095D02*
X53677500Y-121593000D01*
X103549434Y-121402500D02*
X100223000Y-121402500D01*
X104375000Y-122228066D02*
X103549434Y-121402500D01*
X104375000Y-125251595D02*
X104375000Y-122228066D01*
X103691095Y-125935500D02*
X104375000Y-125251595D01*
X98811405Y-122814095D02*
X54898595Y-122814095D01*
X100667500Y-127308000D02*
X102040000Y-125935500D01*
X102040000Y-125935500D02*
X103691095Y-125935500D01*
X100223000Y-121402500D02*
X98811405Y-122814095D01*
D19*
%TO.N,GND*%
X113367500Y-102543000D02*
X120987500Y-102543000D01*
X103842500Y-102543000D02*
X113367500Y-102543000D01*
X79077500Y-102543000D02*
X91777500Y-102543000D01*
D18*
%TO.N,/DD.C01*%
X226480920Y-120323000D02*
X228937500Y-120323000D01*
X162326000Y-125504500D02*
X221299421Y-125504499D01*
X162326000Y-125892354D02*
X162326000Y-125504500D01*
X109771660Y-126419000D02*
X160185646Y-126419000D01*
X108839080Y-125486420D02*
X109771660Y-126419000D01*
X105322703Y-129002797D02*
X108839080Y-125486420D01*
X161544855Y-126673499D02*
X162326000Y-125892354D01*
X99822297Y-129002797D02*
X105322703Y-129002797D01*
X98127500Y-127308000D02*
X99822297Y-129002797D01*
X221299421Y-125504499D02*
X226480920Y-120323000D01*
X160185646Y-126419000D02*
X160440146Y-126673500D01*
X160440146Y-126673500D02*
X161544855Y-126673499D01*
%TO.N,Net-(J2-Pin_16)*%
X229196405Y-97463000D02*
X50177884Y-97463000D01*
X44472884Y-103168000D02*
X40972500Y-103168000D01*
X233528905Y-101795500D02*
X229196405Y-97463000D01*
X50177884Y-97463000D02*
X44472884Y-103168000D01*
X236552500Y-103168000D02*
X235180000Y-101795500D01*
X235180000Y-101795500D02*
X233528905Y-101795500D01*
%TO.N,/SD.P*%
X49232500Y-96828000D02*
X47327500Y-98733000D01*
X230212500Y-96828000D02*
X49232500Y-96828000D01*
X234012500Y-100628000D02*
X230212500Y-96828000D01*
%TO.N,/DD.C01*%
X41822500Y-109098000D02*
X45217500Y-109098000D01*
X45217500Y-109098000D02*
X46057500Y-108258000D01*
X40972500Y-108248000D02*
X41822500Y-109098000D01*
%TO.N,/SD.D*%
X51689080Y-113338000D02*
X143847500Y-113338000D01*
X50511580Y-112160500D02*
X51689080Y-113338000D01*
X39805000Y-112160500D02*
X50511580Y-112160500D01*
X38432500Y-110788000D02*
X39805000Y-112160500D01*
%TO.N,/DD.IND*%
X42872500Y-105708000D02*
X40972500Y-105708000D01*
X44152500Y-106988000D02*
X42872500Y-105708000D01*
X44152500Y-108258000D02*
X44152500Y-106988000D01*
%TO.N,/DD.B01*%
X94317500Y-126038000D02*
X93047500Y-127308000D01*
X101048595Y-126038000D02*
X94317500Y-126038000D01*
X101835000Y-125251595D02*
X101048595Y-126038000D01*
X101835000Y-123600500D02*
X101835000Y-125251595D01*
X103207500Y-122228000D02*
X101835000Y-123600500D01*
%TO.N,/SD.B*%
X208262000Y-124488500D02*
X209887500Y-122863000D01*
X160676566Y-124488500D02*
X208262000Y-124488500D01*
X110275920Y-124768000D02*
X160397066Y-124768000D01*
X104150074Y-118642154D02*
X110275920Y-124768000D01*
X160397066Y-124768000D02*
X160676566Y-124488500D01*
X102983346Y-118642154D02*
X104150074Y-118642154D01*
%TO.N,/SD.C*%
X183370000Y-123980500D02*
X184487500Y-122863000D01*
X141307500Y-124133000D02*
X159722500Y-124133000D01*
X159722500Y-124133000D02*
X160357500Y-123498000D01*
X173382116Y-123498000D02*
X173864616Y-123980500D01*
X131670000Y-114495500D02*
X141307500Y-124133000D01*
X39600000Y-114495500D02*
X131670000Y-114495500D01*
X160357500Y-123498000D02*
X173382116Y-123498000D01*
X173864616Y-123980500D02*
X183370000Y-123980500D01*
X38432500Y-113328000D02*
X39600000Y-114495500D01*
%TO.N,/SD.B*%
X101376692Y-117035500D02*
X102983346Y-118642154D01*
X39600000Y-117035500D02*
X101376692Y-117035500D01*
X38432500Y-115868000D02*
X39600000Y-117035500D01*
%TO.N,/SD.A*%
X110192500Y-125403000D02*
X104365000Y-119575500D01*
X160929500Y-125403000D02*
X110192500Y-125403000D01*
X160992500Y-125340000D02*
X160929500Y-125403000D01*
X104365000Y-119575500D02*
X39600000Y-119575500D01*
X39600000Y-119575500D02*
X38432500Y-118408000D01*
%TO.N,/DD.B10*%
X109557500Y-130483000D02*
X93682500Y-130483000D01*
X93682500Y-130483000D02*
X90507500Y-127308000D01*
%TO.N,/DD.A01*%
X90507500Y-129848000D02*
X87967500Y-127308000D01*
X90507500Y-130038000D02*
X90507500Y-129848000D01*
%TO.N,/DD.A10*%
X85427500Y-127308000D02*
X88602500Y-130483000D01*
%TO.N,Net-(J1-Pin_10)*%
X85427500Y-124768000D02*
X87967500Y-124768000D01*
X87967500Y-124768000D02*
X100667500Y-124768000D01*
X200859500Y-109390000D02*
X202267500Y-110798000D01*
X178275500Y-109390000D02*
X200859500Y-109390000D01*
X176867500Y-110798000D02*
X178275500Y-109390000D01*
X175459500Y-109390000D02*
X176867500Y-110798000D01*
X152875500Y-109390000D02*
X175459500Y-109390000D01*
X151467500Y-110798000D02*
X152875500Y-109390000D01*
X150059500Y-109390000D02*
X151467500Y-110798000D01*
X146260500Y-110798000D02*
X147668500Y-109390000D01*
X147668500Y-109390000D02*
X150059500Y-109390000D01*
X126067500Y-110798000D02*
X146260500Y-110798000D01*
X102075500Y-112206000D02*
X124659500Y-112206000D01*
X100667500Y-110798000D02*
X102075500Y-112206000D01*
X124659500Y-112206000D02*
X126067500Y-110798000D01*
X76675500Y-112206000D02*
X99259500Y-112206000D01*
X75267500Y-110798000D02*
X76675500Y-112206000D01*
X99259500Y-112206000D02*
X100667500Y-110798000D01*
X73859500Y-112206000D02*
X75267500Y-110798000D01*
X51275500Y-112206000D02*
X73859500Y-112206000D01*
X49867500Y-110798000D02*
X51275500Y-112206000D01*
%TO.N,/SDA.A*%
X217507500Y-122863000D02*
X217507500Y-118418000D01*
X217507500Y-118418000D02*
X225127500Y-110798000D01*
%TO.N,/SDA.B*%
X199727500Y-122863000D02*
X199727500Y-110798000D01*
%TO.N,/SDA.C*%
X174327500Y-122863000D02*
X174327500Y-110798000D01*
%TO.N,/SDA.D*%
X148927500Y-122863000D02*
X148927500Y-110798000D01*
%TO.N,/SDA.E*%
X123527500Y-98733000D02*
X123527500Y-110798000D01*
%TO.N,/SDA.F*%
X98127500Y-98733000D02*
X98127500Y-110798000D01*
%TO.N,/SDA.G*%
X72727500Y-98733000D02*
X72727500Y-110798000D01*
%TO.N,/SDA.P*%
X57487500Y-100638000D02*
X47327500Y-110798000D01*
X57487500Y-98733000D02*
X57487500Y-100638000D01*
%TD*%
%TA.AperFunction,Conductor*%
%TO.N,GND*%
G36*
X104094455Y-120286185D02*
G01*
X104115097Y-120302819D01*
X108133387Y-124321109D01*
X108166872Y-124382432D01*
X108161888Y-124452124D01*
X108133387Y-124496471D01*
X104881677Y-127748181D01*
X104820354Y-127781666D01*
X104793996Y-127784500D01*
X104639563Y-127784500D01*
X104572524Y-127764815D01*
X104526769Y-127712011D01*
X104516825Y-127642853D01*
X104519788Y-127628406D01*
X104542563Y-127543408D01*
X104563159Y-127308000D01*
X104542563Y-127072592D01*
X104481403Y-126844337D01*
X104381535Y-126630171D01*
X104273229Y-126475494D01*
X104250903Y-126409289D01*
X104267913Y-126341522D01*
X104287121Y-126316694D01*
X104846209Y-125757605D01*
X104851628Y-125752503D01*
X104896020Y-125713178D01*
X104929714Y-125664360D01*
X104934120Y-125658372D01*
X104970688Y-125611700D01*
X104974730Y-125602717D01*
X104985748Y-125583183D01*
X104991344Y-125575077D01*
X105012368Y-125519636D01*
X105015223Y-125512745D01*
X105039558Y-125458680D01*
X105041332Y-125448992D01*
X105047357Y-125427379D01*
X105050848Y-125418177D01*
X105057991Y-125359340D01*
X105059117Y-125351940D01*
X105069805Y-125293623D01*
X105066226Y-125234455D01*
X105066000Y-125226968D01*
X105066000Y-123761181D01*
X105066000Y-122252669D01*
X105066223Y-122245249D01*
X105069806Y-122186038D01*
X105059114Y-122127702D01*
X105057989Y-122120302D01*
X105050848Y-122061484D01*
X105047362Y-122052294D01*
X105041331Y-122030660D01*
X105039558Y-122020983D01*
X105024036Y-121986495D01*
X105015224Y-121966914D01*
X105012360Y-121959999D01*
X104991344Y-121904584D01*
X104985751Y-121896481D01*
X104974724Y-121876928D01*
X104970688Y-121867961D01*
X104934140Y-121821311D01*
X104929700Y-121815277D01*
X104896020Y-121766483D01*
X104851638Y-121727164D01*
X104846185Y-121722030D01*
X104055461Y-120931305D01*
X104050327Y-120925852D01*
X104011016Y-120881479D01*
X103962227Y-120847803D01*
X103956193Y-120843363D01*
X103909538Y-120806811D01*
X103900566Y-120802773D01*
X103881019Y-120791749D01*
X103872916Y-120786156D01*
X103872916Y-120786155D01*
X103817478Y-120765130D01*
X103810577Y-120762272D01*
X103810568Y-120762268D01*
X103756519Y-120737943D01*
X103756517Y-120737942D01*
X103748745Y-120736518D01*
X103746832Y-120736167D01*
X103725222Y-120730143D01*
X103716017Y-120726652D01*
X103657169Y-120719506D01*
X103649766Y-120718379D01*
X103591463Y-120707695D01*
X103591462Y-120707695D01*
X103540330Y-120710787D01*
X103532295Y-120711274D01*
X103524808Y-120711500D01*
X100247626Y-120711500D01*
X100240139Y-120711274D01*
X100232103Y-120710787D01*
X100180972Y-120707695D01*
X100180971Y-120707695D01*
X100122668Y-120718379D01*
X100115266Y-120719505D01*
X100056418Y-120726652D01*
X100056416Y-120726652D01*
X100056413Y-120726653D01*
X100047203Y-120730145D01*
X100025604Y-120736166D01*
X100015917Y-120737941D01*
X99961864Y-120762268D01*
X99954950Y-120765132D01*
X99899515Y-120786156D01*
X99891409Y-120791752D01*
X99871875Y-120802769D01*
X99862895Y-120806812D01*
X99862893Y-120806813D01*
X99862894Y-120806813D01*
X99816239Y-120843364D01*
X99810208Y-120847801D01*
X99761417Y-120881479D01*
X99722098Y-120925860D01*
X99716965Y-120931312D01*
X98561502Y-122086776D01*
X98500179Y-122120261D01*
X98473821Y-122123095D01*
X55236179Y-122123095D01*
X55169140Y-122103410D01*
X55148498Y-122086776D01*
X54726203Y-121664481D01*
X54692718Y-121603158D01*
X54690482Y-121588962D01*
X54671408Y-121395299D01*
X54613741Y-121205196D01*
X54520095Y-121029996D01*
X54394068Y-120876432D01*
X54240504Y-120750405D01*
X54240503Y-120750404D01*
X54142461Y-120698000D01*
X54065304Y-120656759D01*
X53875201Y-120599092D01*
X53875198Y-120599091D01*
X53677500Y-120579620D01*
X53479801Y-120599091D01*
X53420098Y-120617202D01*
X53289696Y-120656759D01*
X53289692Y-120656760D01*
X53289692Y-120656761D01*
X53114496Y-120750404D01*
X52960932Y-120876432D01*
X52834904Y-121029996D01*
X52766569Y-121157844D01*
X52741259Y-121205196D01*
X52707372Y-121316908D01*
X52683591Y-121395301D01*
X52664120Y-121593000D01*
X52683591Y-121790698D01*
X52683592Y-121790701D01*
X52741259Y-121980804D01*
X52772947Y-122040089D01*
X52834468Y-122155188D01*
X52834905Y-122156004D01*
X52960932Y-122309568D01*
X53114496Y-122435595D01*
X53289696Y-122529241D01*
X53479799Y-122586908D01*
X53673455Y-122605981D01*
X53738241Y-122632142D01*
X53748981Y-122641703D01*
X54392574Y-123285296D01*
X54397694Y-123290734D01*
X54437012Y-123335115D01*
X54443171Y-123339366D01*
X54485809Y-123368798D01*
X54491828Y-123373227D01*
X54514485Y-123390977D01*
X54538487Y-123409782D01*
X54538488Y-123409782D01*
X54538489Y-123409783D01*
X54547465Y-123413822D01*
X54567012Y-123424847D01*
X54575113Y-123430439D01*
X54630537Y-123451458D01*
X54637446Y-123454320D01*
X54691510Y-123478652D01*
X54701197Y-123480427D01*
X54722803Y-123486450D01*
X54732013Y-123489943D01*
X54790863Y-123497088D01*
X54798236Y-123498210D01*
X54856567Y-123508900D01*
X54915733Y-123505321D01*
X54923221Y-123505095D01*
X84483313Y-123505095D01*
X84550352Y-123524780D01*
X84596107Y-123577584D01*
X84606051Y-123646742D01*
X84577026Y-123710298D01*
X84559506Y-123726097D01*
X84389005Y-123896598D01*
X84253465Y-124090170D01*
X84153597Y-124304336D01*
X84092436Y-124532592D01*
X84071840Y-124768000D01*
X84092436Y-125003407D01*
X84137209Y-125170501D01*
X84153597Y-125231663D01*
X84253465Y-125445830D01*
X84389005Y-125639401D01*
X84389008Y-125639404D01*
X84510930Y-125761326D01*
X84544415Y-125822649D01*
X84539431Y-125892341D01*
X84497559Y-125948274D01*
X84466588Y-125965187D01*
X84450673Y-125971123D01*
X84442477Y-125974180D01*
X84399141Y-125982000D01*
X47035083Y-125982000D01*
X46968044Y-125962315D01*
X46947402Y-125945681D01*
X42332313Y-121330591D01*
X42298828Y-121269268D01*
X42300219Y-121210816D01*
X42303653Y-121198000D01*
X42307563Y-121183408D01*
X42328159Y-120948000D01*
X42307563Y-120712592D01*
X42246403Y-120484337D01*
X42227083Y-120442905D01*
X42216591Y-120373828D01*
X42245111Y-120310044D01*
X42303587Y-120271804D01*
X42339465Y-120266500D01*
X104027416Y-120266500D01*
X104094455Y-120286185D01*
G37*
%TD.AperFunction*%
%TA.AperFunction,Conductor*%
G36*
X56201704Y-98173685D02*
G01*
X56247459Y-98226489D01*
X56257403Y-98295647D01*
X56254440Y-98310093D01*
X56201864Y-98506308D01*
X56182031Y-98733000D01*
X56201864Y-98959689D01*
X56260761Y-99179497D01*
X56356932Y-99385735D01*
X56487453Y-99572140D01*
X56648358Y-99733045D01*
X56648361Y-99733047D01*
X56743623Y-99799749D01*
X56787248Y-99854325D01*
X56796500Y-99901324D01*
X56796500Y-100300415D01*
X56776815Y-100367454D01*
X56760181Y-100388096D01*
X47787095Y-109361181D01*
X47725772Y-109394666D01*
X47699414Y-109397500D01*
X46560066Y-109397500D01*
X46493027Y-109377815D01*
X46447272Y-109325011D01*
X46437328Y-109255853D01*
X46466353Y-109192297D01*
X46501607Y-109164146D01*
X46620504Y-109100595D01*
X46774068Y-108974568D01*
X46900095Y-108821004D01*
X46993741Y-108645804D01*
X47051408Y-108455701D01*
X47070880Y-108258000D01*
X47051408Y-108060299D01*
X46993741Y-107870196D01*
X46900095Y-107694996D01*
X46774068Y-107541432D01*
X46620504Y-107415405D01*
X46620503Y-107415404D01*
X46525890Y-107364833D01*
X46445304Y-107321759D01*
X46255201Y-107264092D01*
X46255198Y-107264091D01*
X46057500Y-107244620D01*
X45859801Y-107264091D01*
X45796431Y-107283314D01*
X45669696Y-107321759D01*
X45669692Y-107321760D01*
X45669692Y-107321761D01*
X45494496Y-107415404D01*
X45340932Y-107541432D01*
X45214900Y-107695001D01*
X45214353Y-107696026D01*
X45212571Y-107697838D01*
X45207157Y-107704437D01*
X45206566Y-107703952D01*
X45165388Y-107745867D01*
X45097249Y-107761324D01*
X45031571Y-107737488D01*
X45002897Y-107704392D01*
X45002843Y-107704437D01*
X45001168Y-107702396D01*
X44995639Y-107696015D01*
X44995095Y-107694996D01*
X44995092Y-107694992D01*
X44871647Y-107544574D01*
X44844334Y-107480264D01*
X44843500Y-107465909D01*
X44843500Y-107012624D01*
X44843726Y-107005137D01*
X44845062Y-106983045D01*
X44847305Y-106945971D01*
X44836613Y-106887630D01*
X44835494Y-106880276D01*
X44828348Y-106821418D01*
X44824855Y-106812208D01*
X44818832Y-106790602D01*
X44817057Y-106780915D01*
X44792725Y-106726851D01*
X44789861Y-106719936D01*
X44768844Y-106664518D01*
X44763252Y-106656417D01*
X44752227Y-106636870D01*
X44748188Y-106627894D01*
X44748187Y-106627893D01*
X44748187Y-106627892D01*
X44729382Y-106603890D01*
X44711632Y-106581233D01*
X44707203Y-106575214D01*
X44694719Y-106557129D01*
X44673520Y-106526417D01*
X44629139Y-106487099D01*
X44623701Y-106481979D01*
X43378527Y-105236805D01*
X43373393Y-105231352D01*
X43334082Y-105186979D01*
X43285293Y-105153303D01*
X43279259Y-105148863D01*
X43232604Y-105112311D01*
X43223632Y-105108273D01*
X43204085Y-105097249D01*
X43195982Y-105091656D01*
X43195981Y-105091656D01*
X43140544Y-105070630D01*
X43133643Y-105067772D01*
X43079583Y-105043442D01*
X43071811Y-105042018D01*
X43069898Y-105041667D01*
X43048288Y-105035643D01*
X43039083Y-105032152D01*
X42980235Y-105025006D01*
X42972832Y-105023879D01*
X42914529Y-105013195D01*
X42914528Y-105013195D01*
X42863396Y-105016287D01*
X42855361Y-105016774D01*
X42847874Y-105017000D01*
X42201863Y-105017000D01*
X42134824Y-104997315D01*
X42100288Y-104964123D01*
X42010994Y-104836598D01*
X41843901Y-104669505D01*
X41843900Y-104669504D01*
X41658339Y-104539573D01*
X41614716Y-104484998D01*
X41607522Y-104415500D01*
X41639045Y-104353145D01*
X41658337Y-104336428D01*
X41843901Y-104206495D01*
X42010995Y-104039401D01*
X42100288Y-103911876D01*
X42154865Y-103868252D01*
X42201863Y-103859000D01*
X44448258Y-103859000D01*
X44455745Y-103859226D01*
X44514912Y-103862805D01*
X44514912Y-103862804D01*
X44514914Y-103862805D01*
X44573220Y-103852119D01*
X44580609Y-103850994D01*
X44639466Y-103843848D01*
X44648674Y-103840355D01*
X44670282Y-103834332D01*
X44679969Y-103832557D01*
X44734045Y-103808218D01*
X44740929Y-103805368D01*
X44796366Y-103784344D01*
X44804469Y-103778750D01*
X44824021Y-103767723D01*
X44832989Y-103763688D01*
X44879660Y-103727122D01*
X44885653Y-103722711D01*
X44934467Y-103689020D01*
X44973786Y-103644635D01*
X44978887Y-103639217D01*
X50427786Y-98190319D01*
X50489110Y-98156834D01*
X50515468Y-98154000D01*
X56134665Y-98154000D01*
X56201704Y-98173685D01*
G37*
%TD.AperFunction*%
%TA.AperFunction,Conductor*%
G36*
X61281704Y-98173685D02*
G01*
X61327459Y-98226489D01*
X61337403Y-98295647D01*
X61334440Y-98310093D01*
X61281864Y-98506308D01*
X61262031Y-98733000D01*
X61281864Y-98959689D01*
X61340761Y-99179497D01*
X61436932Y-99385735D01*
X61567453Y-99572140D01*
X61728359Y-99733046D01*
X61914764Y-99863567D01*
X61914765Y-99863567D01*
X61914766Y-99863568D01*
X62121004Y-99959739D01*
X62340808Y-100018635D01*
X62491935Y-100031857D01*
X62567499Y-100038468D01*
X62567499Y-100038467D01*
X62567500Y-100038468D01*
X62794192Y-100018635D01*
X63013996Y-99959739D01*
X63220234Y-99863568D01*
X63406639Y-99733047D01*
X63567547Y-99572139D01*
X63698068Y-99385734D01*
X63794239Y-99179496D01*
X63853135Y-98959692D01*
X63872968Y-98733000D01*
X63853135Y-98506308D01*
X63800560Y-98310093D01*
X63802223Y-98240244D01*
X63841386Y-98182381D01*
X63905614Y-98154877D01*
X63920335Y-98154000D01*
X71374665Y-98154000D01*
X71441704Y-98173685D01*
X71487459Y-98226489D01*
X71497403Y-98295647D01*
X71494440Y-98310093D01*
X71441864Y-98506308D01*
X71422031Y-98733000D01*
X71441864Y-98959689D01*
X71500761Y-99179497D01*
X71596932Y-99385735D01*
X71727453Y-99572140D01*
X71888358Y-99733045D01*
X71888361Y-99733047D01*
X71983623Y-99799749D01*
X72027248Y-99854325D01*
X72036500Y-99901324D01*
X72036500Y-109273500D01*
X72016815Y-109340539D01*
X71964011Y-109386294D01*
X71912501Y-109397500D01*
X71782939Y-109397500D01*
X71782920Y-109397500D01*
X71779628Y-109397501D01*
X71776348Y-109397853D01*
X71776340Y-109397854D01*
X71720015Y-109403909D01*
X71585169Y-109454204D01*
X71469954Y-109540454D01*
X71383704Y-109655668D01*
X71333891Y-109789226D01*
X71333409Y-109790517D01*
X71327000Y-109850127D01*
X71327000Y-109853448D01*
X71327000Y-109853449D01*
X71327001Y-111391000D01*
X71307316Y-111458039D01*
X71254513Y-111503794D01*
X71203001Y-111515000D01*
X51613083Y-111515000D01*
X51546044Y-111495315D01*
X51525402Y-111478681D01*
X51267565Y-111220844D01*
X51234080Y-111159521D01*
X51235040Y-111102725D01*
X51253634Y-111029305D01*
X51272800Y-110798000D01*
X51253634Y-110566695D01*
X51196657Y-110341700D01*
X51103424Y-110129151D01*
X50976479Y-109934847D01*
X50819284Y-109764087D01*
X50636126Y-109621530D01*
X50432003Y-109511064D01*
X50431999Y-109511062D01*
X50431998Y-109511062D01*
X50212484Y-109435702D01*
X49982634Y-109397347D01*
X49919749Y-109366896D01*
X49883309Y-109307282D01*
X49884885Y-109237430D01*
X49915361Y-109187359D01*
X57958708Y-101144011D01*
X57964128Y-101138909D01*
X58008520Y-101099583D01*
X58042214Y-101050765D01*
X58046608Y-101044793D01*
X58083188Y-100998105D01*
X58087223Y-100989137D01*
X58098251Y-100969584D01*
X58103844Y-100961482D01*
X58124868Y-100906045D01*
X58127718Y-100899161D01*
X58152057Y-100845085D01*
X58153832Y-100835398D01*
X58159855Y-100813790D01*
X58163348Y-100804582D01*
X58170494Y-100745725D01*
X58171619Y-100738336D01*
X58182305Y-100680030D01*
X58178726Y-100620860D01*
X58178500Y-100613373D01*
X58178500Y-99901324D01*
X58198185Y-99834285D01*
X58231375Y-99799750D01*
X58326639Y-99733047D01*
X58487547Y-99572139D01*
X58618068Y-99385734D01*
X58714239Y-99179496D01*
X58773135Y-98959692D01*
X58792968Y-98733000D01*
X58773135Y-98506308D01*
X58720560Y-98310093D01*
X58722223Y-98240244D01*
X58761386Y-98182381D01*
X58825614Y-98154877D01*
X58840335Y-98154000D01*
X61214665Y-98154000D01*
X61281704Y-98173685D01*
G37*
%TD.AperFunction*%
%TA.AperFunction,Conductor*%
G36*
X86681704Y-98173685D02*
G01*
X86727459Y-98226489D01*
X86737403Y-98295647D01*
X86734440Y-98310093D01*
X86681864Y-98506308D01*
X86662031Y-98733000D01*
X86681864Y-98959689D01*
X86740761Y-99179497D01*
X86836932Y-99385735D01*
X86967453Y-99572140D01*
X87128359Y-99733046D01*
X87314764Y-99863567D01*
X87314765Y-99863567D01*
X87314766Y-99863568D01*
X87521004Y-99959739D01*
X87740808Y-100018635D01*
X87967500Y-100038468D01*
X88194192Y-100018635D01*
X88413996Y-99959739D01*
X88620234Y-99863568D01*
X88806639Y-99733047D01*
X88967547Y-99572139D01*
X89098068Y-99385734D01*
X89194239Y-99179496D01*
X89253135Y-98959692D01*
X89272968Y-98733000D01*
X89253135Y-98506308D01*
X89200560Y-98310093D01*
X89202223Y-98240244D01*
X89241386Y-98182381D01*
X89305614Y-98154877D01*
X89320335Y-98154000D01*
X96774665Y-98154000D01*
X96841704Y-98173685D01*
X96887459Y-98226489D01*
X96897403Y-98295647D01*
X96894440Y-98310093D01*
X96841864Y-98506308D01*
X96822031Y-98733000D01*
X96841864Y-98959689D01*
X96900761Y-99179497D01*
X96996932Y-99385735D01*
X97127453Y-99572140D01*
X97288358Y-99733045D01*
X97288361Y-99733047D01*
X97383623Y-99799749D01*
X97427248Y-99854325D01*
X97436500Y-99901324D01*
X97436500Y-109273500D01*
X97416815Y-109340539D01*
X97364011Y-109386294D01*
X97312501Y-109397500D01*
X97182939Y-109397500D01*
X97182920Y-109397500D01*
X97179628Y-109397501D01*
X97176348Y-109397853D01*
X97176340Y-109397854D01*
X97120015Y-109403909D01*
X96985169Y-109454204D01*
X96869954Y-109540454D01*
X96783704Y-109655668D01*
X96733891Y-109789226D01*
X96733409Y-109790517D01*
X96727000Y-109850127D01*
X96727000Y-109853448D01*
X96727000Y-109853449D01*
X96727001Y-111391000D01*
X96707316Y-111458039D01*
X96654513Y-111503794D01*
X96603001Y-111515000D01*
X77013083Y-111515000D01*
X76946044Y-111495315D01*
X76925402Y-111478681D01*
X76667565Y-111220844D01*
X76634080Y-111159521D01*
X76635040Y-111102725D01*
X76653634Y-111029305D01*
X76672800Y-110798000D01*
X76653634Y-110566695D01*
X76596657Y-110341700D01*
X76503424Y-110129151D01*
X76376479Y-109934847D01*
X76219284Y-109764087D01*
X76036126Y-109621530D01*
X75832003Y-109511064D01*
X75831999Y-109511062D01*
X75831998Y-109511062D01*
X75612484Y-109435702D01*
X75421956Y-109403909D01*
X75383549Y-109397500D01*
X75151451Y-109397500D01*
X75113044Y-109403909D01*
X74922515Y-109435702D01*
X74703001Y-109511062D01*
X74702997Y-109511063D01*
X74702997Y-109511064D01*
X74648689Y-109540454D01*
X74498872Y-109621531D01*
X74315713Y-109764089D01*
X74307363Y-109773160D01*
X74247475Y-109809148D01*
X74177637Y-109807046D01*
X74120022Y-109767520D01*
X74099955Y-109732510D01*
X74071296Y-109655669D01*
X73985046Y-109540454D01*
X73869831Y-109454204D01*
X73734983Y-109403909D01*
X73675373Y-109397500D01*
X73672051Y-109397500D01*
X73542500Y-109397500D01*
X73475461Y-109377815D01*
X73429706Y-109325011D01*
X73418500Y-109273500D01*
X73418500Y-99901324D01*
X73438185Y-99834285D01*
X73471375Y-99799750D01*
X73566639Y-99733047D01*
X73727547Y-99572139D01*
X73858068Y-99385734D01*
X73954239Y-99179496D01*
X74013135Y-98959692D01*
X74032968Y-98733000D01*
X74013135Y-98506308D01*
X73960560Y-98310093D01*
X73962223Y-98240244D01*
X74001386Y-98182381D01*
X74065614Y-98154877D01*
X74080335Y-98154000D01*
X86614665Y-98154000D01*
X86681704Y-98173685D01*
G37*
%TD.AperFunction*%
%TA.AperFunction,Conductor*%
G36*
X112081704Y-98173685D02*
G01*
X112127459Y-98226489D01*
X112137403Y-98295647D01*
X112134440Y-98310093D01*
X112081864Y-98506308D01*
X112062031Y-98732999D01*
X112081864Y-98959689D01*
X112140761Y-99179497D01*
X112236932Y-99385735D01*
X112367453Y-99572140D01*
X112528359Y-99733046D01*
X112714764Y-99863567D01*
X112714765Y-99863567D01*
X112714766Y-99863568D01*
X112921004Y-99959739D01*
X113140808Y-100018635D01*
X113367500Y-100038468D01*
X113594192Y-100018635D01*
X113813996Y-99959739D01*
X114020234Y-99863568D01*
X114206639Y-99733047D01*
X114367547Y-99572139D01*
X114498068Y-99385734D01*
X114594239Y-99179496D01*
X114653135Y-98959692D01*
X114672968Y-98733000D01*
X114653135Y-98506308D01*
X114600560Y-98310093D01*
X114602223Y-98240244D01*
X114641386Y-98182381D01*
X114705614Y-98154877D01*
X114720335Y-98154000D01*
X122174665Y-98154000D01*
X122241704Y-98173685D01*
X122287459Y-98226489D01*
X122297403Y-98295647D01*
X122294440Y-98310093D01*
X122241864Y-98506308D01*
X122222031Y-98733000D01*
X122241864Y-98959689D01*
X122300761Y-99179497D01*
X122396932Y-99385735D01*
X122527453Y-99572140D01*
X122688359Y-99733046D01*
X122783622Y-99799749D01*
X122827247Y-99854325D01*
X122836499Y-99901324D01*
X122836500Y-109273500D01*
X122816815Y-109340539D01*
X122764011Y-109386294D01*
X122712501Y-109397500D01*
X122582939Y-109397500D01*
X122582920Y-109397500D01*
X122579628Y-109397501D01*
X122576348Y-109397853D01*
X122576340Y-109397854D01*
X122520015Y-109403909D01*
X122385169Y-109454204D01*
X122269954Y-109540454D01*
X122183704Y-109655668D01*
X122133891Y-109789226D01*
X122133409Y-109790517D01*
X122127000Y-109850127D01*
X122127000Y-109853448D01*
X122127000Y-109853449D01*
X122127001Y-111391000D01*
X122107316Y-111458039D01*
X122054513Y-111503794D01*
X122003001Y-111515000D01*
X102413083Y-111515000D01*
X102346044Y-111495315D01*
X102325402Y-111478681D01*
X102067565Y-111220844D01*
X102034080Y-111159521D01*
X102035040Y-111102725D01*
X102053634Y-111029305D01*
X102072800Y-110798000D01*
X102053634Y-110566695D01*
X101996657Y-110341700D01*
X101903424Y-110129151D01*
X101776479Y-109934847D01*
X101619284Y-109764087D01*
X101436126Y-109621530D01*
X101232003Y-109511064D01*
X101231999Y-109511062D01*
X101231998Y-109511062D01*
X101012484Y-109435702D01*
X100821956Y-109403909D01*
X100783549Y-109397500D01*
X100551451Y-109397500D01*
X100513044Y-109403909D01*
X100322515Y-109435702D01*
X100103001Y-109511062D01*
X100102997Y-109511063D01*
X100102997Y-109511064D01*
X100048689Y-109540454D01*
X99898872Y-109621531D01*
X99715713Y-109764089D01*
X99707363Y-109773160D01*
X99647475Y-109809148D01*
X99577637Y-109807046D01*
X99520022Y-109767520D01*
X99499955Y-109732510D01*
X99471296Y-109655669D01*
X99385046Y-109540454D01*
X99269831Y-109454204D01*
X99134983Y-109403909D01*
X99075373Y-109397500D01*
X99072051Y-109397500D01*
X98942500Y-109397500D01*
X98875461Y-109377815D01*
X98829706Y-109325011D01*
X98818500Y-109273500D01*
X98818500Y-99901324D01*
X98838185Y-99834285D01*
X98871375Y-99799750D01*
X98966639Y-99733047D01*
X99127547Y-99572139D01*
X99258068Y-99385734D01*
X99354239Y-99179496D01*
X99413135Y-98959692D01*
X99432968Y-98733000D01*
X99413135Y-98506308D01*
X99360560Y-98310093D01*
X99362223Y-98240244D01*
X99401386Y-98182381D01*
X99465614Y-98154877D01*
X99480335Y-98154000D01*
X112014665Y-98154000D01*
X112081704Y-98173685D01*
G37*
%TD.AperFunction*%
%TA.AperFunction,Conductor*%
G36*
X228925860Y-98173685D02*
G01*
X228946502Y-98190319D01*
X232932875Y-102176692D01*
X232966360Y-102238015D01*
X232961376Y-102307707D01*
X232946769Y-102335496D01*
X232838465Y-102490170D01*
X232738597Y-102704336D01*
X232677436Y-102932592D01*
X232656840Y-103168000D01*
X232677436Y-103403407D01*
X232722209Y-103570502D01*
X232738597Y-103631663D01*
X232838465Y-103845830D01*
X232974005Y-104039401D01*
X233141099Y-104206495D01*
X233326660Y-104336426D01*
X233370283Y-104391002D01*
X233377476Y-104460501D01*
X233345954Y-104522855D01*
X233326659Y-104539575D01*
X233141095Y-104669508D01*
X232974005Y-104836598D01*
X232838465Y-105030170D01*
X232738597Y-105244336D01*
X232677436Y-105472592D01*
X232656840Y-105707999D01*
X232677436Y-105943407D01*
X232722209Y-106110502D01*
X232738597Y-106171663D01*
X232838465Y-106385830D01*
X232974005Y-106579401D01*
X233141099Y-106746495D01*
X233326660Y-106876426D01*
X233370283Y-106931002D01*
X233377476Y-107000501D01*
X233345954Y-107062855D01*
X233326659Y-107079575D01*
X233141095Y-107209508D01*
X232974005Y-107376598D01*
X232838465Y-107570170D01*
X232738597Y-107784336D01*
X232677436Y-108012592D01*
X232656840Y-108247999D01*
X232677436Y-108483407D01*
X232720950Y-108645804D01*
X232738597Y-108711663D01*
X232811955Y-108868979D01*
X232838465Y-108925830D01*
X232862342Y-108959931D01*
X232884669Y-109026138D01*
X232867657Y-109093905D01*
X232848447Y-109118734D01*
X227196304Y-114770877D01*
X227190852Y-114776009D01*
X227146480Y-114815320D01*
X227112798Y-114864117D01*
X227108361Y-114870148D01*
X227071812Y-114916799D01*
X227071812Y-114916800D01*
X227067769Y-114925780D01*
X227056752Y-114945314D01*
X227051156Y-114953420D01*
X227030132Y-115008855D01*
X227027268Y-115015769D01*
X227002941Y-115069822D01*
X227001166Y-115079509D01*
X226995145Y-115101108D01*
X226991653Y-115110318D01*
X226984506Y-115169171D01*
X226983379Y-115176573D01*
X226972694Y-115234876D01*
X226976273Y-115294041D01*
X226976499Y-115301527D01*
X226976499Y-118080416D01*
X226956814Y-118147455D01*
X226940180Y-118168097D01*
X220839098Y-124269180D01*
X220777775Y-124302665D01*
X220751417Y-124305499D01*
X218050625Y-124305499D01*
X217983586Y-124285814D01*
X217937831Y-124233010D01*
X217927887Y-124163852D01*
X217956912Y-124100296D01*
X217998220Y-124069117D01*
X218034354Y-124052267D01*
X218160234Y-123993568D01*
X218346639Y-123863047D01*
X218507547Y-123702139D01*
X218638068Y-123515734D01*
X218734239Y-123309496D01*
X218793135Y-123089692D01*
X218812968Y-122863000D01*
X218793135Y-122636308D01*
X218734239Y-122416504D01*
X218638068Y-122210266D01*
X218599502Y-122155188D01*
X218518910Y-122040089D01*
X218507547Y-122023861D01*
X218346639Y-121862953D01*
X218346638Y-121862952D01*
X218251376Y-121796248D01*
X218207751Y-121741671D01*
X218198500Y-121694674D01*
X218198500Y-118755583D01*
X218218185Y-118688544D01*
X218234814Y-118667907D01*
X224667903Y-112234817D01*
X224729226Y-112201333D01*
X224755584Y-112198499D01*
X226072061Y-112198499D01*
X226075372Y-112198499D01*
X226134983Y-112192091D01*
X226269831Y-112141796D01*
X226385046Y-112055546D01*
X226471296Y-111940331D01*
X226499955Y-111863491D01*
X226541825Y-111807559D01*
X226607289Y-111783141D01*
X226675562Y-111797992D01*
X226707364Y-111822840D01*
X226715716Y-111831913D01*
X226898874Y-111974470D01*
X227102997Y-112084936D01*
X227161436Y-112104998D01*
X227322515Y-112160297D01*
X227322517Y-112160297D01*
X227322519Y-112160298D01*
X227551451Y-112198500D01*
X227551452Y-112198500D01*
X227783548Y-112198500D01*
X227783549Y-112198500D01*
X228012481Y-112160298D01*
X228232003Y-112084936D01*
X228436126Y-111974470D01*
X228619284Y-111831913D01*
X228776479Y-111661153D01*
X228903424Y-111466849D01*
X228996657Y-111254300D01*
X229053634Y-111029305D01*
X229072800Y-110798000D01*
X229053634Y-110566695D01*
X228996657Y-110341700D01*
X228903424Y-110129151D01*
X228776479Y-109934847D01*
X228619284Y-109764087D01*
X228436126Y-109621530D01*
X228232003Y-109511064D01*
X228231999Y-109511062D01*
X228231998Y-109511062D01*
X228012484Y-109435702D01*
X227821956Y-109403909D01*
X227783549Y-109397500D01*
X227551451Y-109397500D01*
X227513044Y-109403909D01*
X227322515Y-109435702D01*
X227103001Y-109511062D01*
X227102997Y-109511063D01*
X227102997Y-109511064D01*
X227048689Y-109540454D01*
X226898872Y-109621531D01*
X226715713Y-109764089D01*
X226707363Y-109773160D01*
X226647475Y-109809148D01*
X226577637Y-109807046D01*
X226520022Y-109767520D01*
X226499955Y-109732510D01*
X226471296Y-109655669D01*
X226385046Y-109540454D01*
X226269831Y-109454204D01*
X226134983Y-109403909D01*
X226075373Y-109397500D01*
X226072050Y-109397500D01*
X224182939Y-109397500D01*
X224182920Y-109397500D01*
X224179628Y-109397501D01*
X224176348Y-109397853D01*
X224176340Y-109397854D01*
X224120015Y-109403909D01*
X223985169Y-109454204D01*
X223869954Y-109540454D01*
X223783704Y-109655668D01*
X223733891Y-109789226D01*
X223733409Y-109790517D01*
X223727000Y-109850127D01*
X223727000Y-109853448D01*
X223727000Y-109853449D01*
X223727000Y-111169914D01*
X223707315Y-111236953D01*
X223690681Y-111257595D01*
X217036304Y-117911972D01*
X217030852Y-117917104D01*
X216986480Y-117956415D01*
X216952798Y-118005212D01*
X216948361Y-118011243D01*
X216911812Y-118057894D01*
X216911812Y-118057895D01*
X216907769Y-118066875D01*
X216896752Y-118086409D01*
X216891156Y-118094515D01*
X216870132Y-118149950D01*
X216867268Y-118156864D01*
X216842941Y-118210917D01*
X216841166Y-118220604D01*
X216835145Y-118242203D01*
X216831653Y-118251413D01*
X216824506Y-118310266D01*
X216823379Y-118317668D01*
X216812695Y-118375971D01*
X216816274Y-118435137D01*
X216816500Y-118442624D01*
X216816500Y-121694674D01*
X216796815Y-121761713D01*
X216763624Y-121796248D01*
X216668361Y-121862952D01*
X216507453Y-122023860D01*
X216376932Y-122210264D01*
X216280761Y-122416502D01*
X216221864Y-122636310D01*
X216202031Y-122862999D01*
X216221864Y-123089689D01*
X216280761Y-123309497D01*
X216376932Y-123515735D01*
X216507453Y-123702140D01*
X216668359Y-123863046D01*
X216854764Y-123993567D01*
X217016780Y-124069117D01*
X217069219Y-124115290D01*
X217088371Y-124182483D01*
X217068155Y-124249364D01*
X217014990Y-124294699D01*
X216964375Y-124305499D01*
X210430625Y-124305499D01*
X210363586Y-124285814D01*
X210317831Y-124233010D01*
X210307887Y-124163852D01*
X210336912Y-124100296D01*
X210378220Y-124069117D01*
X210414354Y-124052267D01*
X210540234Y-123993568D01*
X210726639Y-123863047D01*
X210887547Y-123702139D01*
X211018068Y-123515734D01*
X211114239Y-123309496D01*
X211173135Y-123089692D01*
X211192968Y-122863000D01*
X211173135Y-122636308D01*
X211114239Y-122416504D01*
X211018068Y-122210266D01*
X210987066Y-122165989D01*
X210887546Y-122023859D01*
X210726640Y-121862953D01*
X210540235Y-121732432D01*
X210333997Y-121636261D01*
X210114189Y-121577364D01*
X209887500Y-121557531D01*
X209660810Y-121577364D01*
X209441002Y-121636261D01*
X209234764Y-121732432D01*
X209048359Y-121862953D01*
X208887453Y-122023859D01*
X208756932Y-122210264D01*
X208660761Y-122416502D01*
X208601864Y-122636310D01*
X208582031Y-122862999D01*
X208602810Y-123100499D01*
X208600231Y-123100724D01*
X208598941Y-123154844D01*
X208568511Y-123204765D01*
X208012097Y-123761181D01*
X207950774Y-123794666D01*
X207924416Y-123797500D01*
X200898976Y-123797500D01*
X200831937Y-123777815D01*
X200786182Y-123725011D01*
X200776238Y-123655853D01*
X200797401Y-123602377D01*
X200851734Y-123524780D01*
X200858068Y-123515734D01*
X200954239Y-123309496D01*
X201013135Y-123089692D01*
X201032968Y-122863000D01*
X201013135Y-122636308D01*
X200954239Y-122416504D01*
X200858068Y-122210266D01*
X200819502Y-122155188D01*
X200738910Y-122040089D01*
X200727547Y-122023861D01*
X200566639Y-121862953D01*
X200566638Y-121862952D01*
X200471376Y-121796248D01*
X200427751Y-121741671D01*
X200418500Y-121694674D01*
X200418500Y-112322499D01*
X200438185Y-112255460D01*
X200490989Y-112209705D01*
X200542500Y-112198499D01*
X200672061Y-112198499D01*
X200675372Y-112198499D01*
X200734983Y-112192091D01*
X200869831Y-112141796D01*
X200985046Y-112055546D01*
X201071296Y-111940331D01*
X201099955Y-111863491D01*
X201141825Y-111807559D01*
X201207289Y-111783141D01*
X201275562Y-111797992D01*
X201307364Y-111822840D01*
X201315716Y-111831913D01*
X201498874Y-111974470D01*
X201702997Y-112084936D01*
X201761436Y-112104998D01*
X201922515Y-112160297D01*
X201922517Y-112160297D01*
X201922519Y-112160298D01*
X202151451Y-112198500D01*
X202151452Y-112198500D01*
X202383548Y-112198500D01*
X202383549Y-112198500D01*
X202612481Y-112160298D01*
X202832003Y-112084936D01*
X203036126Y-111974470D01*
X203219284Y-111831913D01*
X203376479Y-111661153D01*
X203503424Y-111466849D01*
X203596657Y-111254300D01*
X203653634Y-111029305D01*
X203672800Y-110798000D01*
X203653634Y-110566695D01*
X203596657Y-110341700D01*
X203503424Y-110129151D01*
X203376479Y-109934847D01*
X203219284Y-109764087D01*
X203036126Y-109621530D01*
X202832003Y-109511064D01*
X202831999Y-109511062D01*
X202831998Y-109511062D01*
X202612484Y-109435702D01*
X202421956Y-109403909D01*
X202383549Y-109397500D01*
X202151451Y-109397500D01*
X202095965Y-109406759D01*
X201951115Y-109430930D01*
X201881749Y-109422548D01*
X201843024Y-109396302D01*
X201365527Y-108918805D01*
X201360393Y-108913352D01*
X201321082Y-108868979D01*
X201272293Y-108835303D01*
X201266259Y-108830863D01*
X201219604Y-108794311D01*
X201210632Y-108790273D01*
X201191085Y-108779249D01*
X201182982Y-108773656D01*
X201127544Y-108752630D01*
X201120643Y-108749772D01*
X201066583Y-108725442D01*
X201058811Y-108724018D01*
X201056898Y-108723667D01*
X201035288Y-108717643D01*
X201026083Y-108714152D01*
X200967235Y-108707006D01*
X200959832Y-108705879D01*
X200901529Y-108695195D01*
X200901528Y-108695195D01*
X200850396Y-108698287D01*
X200842361Y-108698774D01*
X200834874Y-108699000D01*
X178300126Y-108699000D01*
X178292639Y-108698774D01*
X178233470Y-108695194D01*
X178175170Y-108705878D01*
X178167769Y-108707005D01*
X178108915Y-108714152D01*
X178099716Y-108717641D01*
X178078107Y-108723665D01*
X178068418Y-108725440D01*
X178014354Y-108749772D01*
X178007439Y-108752636D01*
X177952015Y-108773656D01*
X177943909Y-108779252D01*
X177924375Y-108790269D01*
X177915395Y-108794312D01*
X177915393Y-108794313D01*
X177915394Y-108794313D01*
X177868739Y-108830864D01*
X177862708Y-108835301D01*
X177813917Y-108868979D01*
X177774598Y-108913360D01*
X177769465Y-108918812D01*
X177291975Y-109396302D01*
X177230652Y-109429787D01*
X177183884Y-109430930D01*
X176983549Y-109397500D01*
X176751451Y-109397500D01*
X176695965Y-109406759D01*
X176551115Y-109430930D01*
X176481749Y-109422548D01*
X176443024Y-109396302D01*
X175965527Y-108918805D01*
X175960393Y-108913352D01*
X175921082Y-108868979D01*
X175872293Y-108835303D01*
X175866259Y-108830863D01*
X175819604Y-108794311D01*
X175810632Y-108790273D01*
X175791085Y-108779249D01*
X175782982Y-108773656D01*
X175727544Y-108752630D01*
X175720643Y-108749772D01*
X175666583Y-108725442D01*
X175658811Y-108724018D01*
X175656898Y-108723667D01*
X175635288Y-108717643D01*
X175626083Y-108714152D01*
X175567235Y-108707006D01*
X175559832Y-108705879D01*
X175501529Y-108695195D01*
X175501528Y-108695195D01*
X175450396Y-108698287D01*
X175442361Y-108698774D01*
X175434874Y-108699000D01*
X152900126Y-108699000D01*
X152892639Y-108698774D01*
X152833470Y-108695194D01*
X152775170Y-108705878D01*
X152767769Y-108707005D01*
X152708915Y-108714152D01*
X152699716Y-108717641D01*
X152678107Y-108723665D01*
X152668418Y-108725440D01*
X152614354Y-108749772D01*
X152607439Y-108752636D01*
X152552015Y-108773656D01*
X152543909Y-108779252D01*
X152524375Y-108790269D01*
X152515395Y-108794312D01*
X152515393Y-108794313D01*
X152515394Y-108794313D01*
X152468739Y-108830864D01*
X152462708Y-108835301D01*
X152413917Y-108868979D01*
X152374598Y-108913360D01*
X152369465Y-108918812D01*
X151891975Y-109396302D01*
X151830652Y-109429787D01*
X151783884Y-109430930D01*
X151583549Y-109397500D01*
X151351451Y-109397500D01*
X151295965Y-109406759D01*
X151151115Y-109430930D01*
X151081749Y-109422548D01*
X151043024Y-109396302D01*
X150565527Y-108918805D01*
X150560393Y-108913352D01*
X150521082Y-108868979D01*
X150472293Y-108835303D01*
X150466259Y-108830863D01*
X150419604Y-108794311D01*
X150410632Y-108790273D01*
X150391085Y-108779249D01*
X150382982Y-108773656D01*
X150327544Y-108752630D01*
X150320643Y-108749772D01*
X150266583Y-108725442D01*
X150258811Y-108724018D01*
X150256898Y-108723667D01*
X150235288Y-108717643D01*
X150226083Y-108714152D01*
X150167235Y-108707006D01*
X150159832Y-108705879D01*
X150101529Y-108695195D01*
X150101528Y-108695195D01*
X150050396Y-108698287D01*
X150042361Y-108698774D01*
X150034874Y-108699000D01*
X147693126Y-108699000D01*
X147685639Y-108698774D01*
X147626470Y-108695194D01*
X147568170Y-108705878D01*
X147560769Y-108707005D01*
X147501915Y-108714152D01*
X147492716Y-108717641D01*
X147471107Y-108723665D01*
X147461418Y-108725440D01*
X147407354Y-108749772D01*
X147400439Y-108752636D01*
X147345015Y-108773656D01*
X147336909Y-108779252D01*
X147317375Y-108790269D01*
X147308395Y-108794312D01*
X147308393Y-108794313D01*
X147308394Y-108794313D01*
X147261739Y-108830864D01*
X147255708Y-108835301D01*
X147206917Y-108868979D01*
X147167598Y-108913360D01*
X147162465Y-108918812D01*
X146010597Y-110070681D01*
X145949274Y-110104166D01*
X145922916Y-110107000D01*
X127356058Y-110107000D01*
X127289019Y-110087315D01*
X127252250Y-110050822D01*
X127176481Y-109934849D01*
X127019284Y-109764087D01*
X126939964Y-109702350D01*
X126836126Y-109621530D01*
X126632003Y-109511064D01*
X126631999Y-109511062D01*
X126631998Y-109511062D01*
X126412484Y-109435702D01*
X126221956Y-109403909D01*
X126183549Y-109397500D01*
X125951451Y-109397500D01*
X125913044Y-109403909D01*
X125722515Y-109435702D01*
X125503001Y-109511062D01*
X125502997Y-109511063D01*
X125502997Y-109511064D01*
X125448689Y-109540454D01*
X125298872Y-109621531D01*
X125115713Y-109764089D01*
X125107363Y-109773160D01*
X125047475Y-109809148D01*
X124977637Y-109807046D01*
X124920022Y-109767520D01*
X124899955Y-109732510D01*
X124871296Y-109655669D01*
X124785046Y-109540454D01*
X124669831Y-109454204D01*
X124534983Y-109403909D01*
X124475373Y-109397500D01*
X124472051Y-109397500D01*
X124342500Y-109397500D01*
X124275461Y-109377815D01*
X124229706Y-109325011D01*
X124218500Y-109273500D01*
X124218500Y-99901324D01*
X124238185Y-99834285D01*
X124271375Y-99799750D01*
X124366639Y-99733047D01*
X124527547Y-99572139D01*
X124658068Y-99385734D01*
X124754239Y-99179496D01*
X124813135Y-98959692D01*
X124832968Y-98733000D01*
X124813135Y-98506308D01*
X124760560Y-98310093D01*
X124762223Y-98240244D01*
X124801386Y-98182381D01*
X124865614Y-98154877D01*
X124880335Y-98154000D01*
X228858821Y-98154000D01*
X228925860Y-98173685D01*
G37*
%TD.AperFunction*%
%TA.AperFunction,Conductor*%
G36*
X131399455Y-115206185D02*
G01*
X131420097Y-115222819D01*
X140062597Y-123865319D01*
X140096082Y-123926642D01*
X140091098Y-123996334D01*
X140049226Y-124052267D01*
X139983762Y-124076684D01*
X139974916Y-124077000D01*
X110613504Y-124077000D01*
X110546465Y-124057315D01*
X110525823Y-124040681D01*
X104656101Y-118170959D01*
X104650967Y-118165506D01*
X104611656Y-118121133D01*
X104562867Y-118087457D01*
X104556833Y-118083017D01*
X104510178Y-118046465D01*
X104501206Y-118042427D01*
X104481659Y-118031403D01*
X104473556Y-118025810D01*
X104418118Y-118004784D01*
X104411217Y-118001926D01*
X104357157Y-117977596D01*
X104349385Y-117976172D01*
X104347472Y-117975821D01*
X104325862Y-117969797D01*
X104316657Y-117966306D01*
X104257809Y-117959160D01*
X104250406Y-117958033D01*
X104192103Y-117947349D01*
X104192102Y-117947349D01*
X104140970Y-117950441D01*
X104132935Y-117950928D01*
X104125448Y-117951154D01*
X103320929Y-117951154D01*
X103253890Y-117931469D01*
X103233248Y-117914835D01*
X102557988Y-117239575D01*
X101882719Y-116564305D01*
X101877585Y-116558852D01*
X101838274Y-116514479D01*
X101789485Y-116480803D01*
X101783451Y-116476363D01*
X101736796Y-116439811D01*
X101727824Y-116435773D01*
X101708277Y-116424749D01*
X101700174Y-116419156D01*
X101700173Y-116419155D01*
X101644736Y-116398130D01*
X101637835Y-116395272D01*
X101583775Y-116370942D01*
X101576003Y-116369518D01*
X101574090Y-116369167D01*
X101552480Y-116363143D01*
X101543275Y-116359652D01*
X101484427Y-116352506D01*
X101477024Y-116351379D01*
X101418721Y-116340695D01*
X101418720Y-116340695D01*
X101367588Y-116343787D01*
X101359553Y-116344274D01*
X101352066Y-116344500D01*
X42404563Y-116344500D01*
X42337524Y-116324815D01*
X42291769Y-116272011D01*
X42281825Y-116202853D01*
X42284788Y-116188406D01*
X42293982Y-116154092D01*
X42307563Y-116103408D01*
X42328159Y-115868000D01*
X42307563Y-115632592D01*
X42246403Y-115404337D01*
X42227083Y-115362905D01*
X42216591Y-115293828D01*
X42245111Y-115230044D01*
X42303587Y-115191804D01*
X42339465Y-115186500D01*
X131332416Y-115186500D01*
X131399455Y-115206185D01*
G37*
%TD.AperFunction*%
%TA.AperFunction,Conductor*%
G36*
X172870039Y-110100685D02*
G01*
X172915794Y-110153489D01*
X172927000Y-110205000D01*
X172927000Y-111742560D01*
X172927000Y-111742578D01*
X172927001Y-111745872D01*
X172927353Y-111749152D01*
X172927354Y-111749159D01*
X172933409Y-111805484D01*
X172941246Y-111826495D01*
X172983704Y-111940331D01*
X173069954Y-112055546D01*
X173185169Y-112141796D01*
X173320017Y-112192091D01*
X173379627Y-112198500D01*
X173512500Y-112198499D01*
X173579539Y-112218183D01*
X173625294Y-112270987D01*
X173636500Y-112322499D01*
X173636500Y-121694674D01*
X173616815Y-121761713D01*
X173583624Y-121796248D01*
X173488361Y-121862952D01*
X173327453Y-122023860D01*
X173196932Y-122210264D01*
X173100761Y-122416502D01*
X173041864Y-122636310D01*
X173036834Y-122693807D01*
X173011382Y-122758876D01*
X172954791Y-122799855D01*
X172913306Y-122807000D01*
X160501694Y-122807000D01*
X160434655Y-122787315D01*
X160388900Y-122734511D01*
X160378166Y-122693807D01*
X160373135Y-122636310D01*
X160373135Y-122636308D01*
X160314239Y-122416504D01*
X160218068Y-122210266D01*
X160187066Y-122165989D01*
X160087546Y-122023859D01*
X159926640Y-121862953D01*
X159740235Y-121732432D01*
X159533997Y-121636261D01*
X159314189Y-121577364D01*
X159087500Y-121557531D01*
X158860810Y-121577364D01*
X158641002Y-121636261D01*
X158434764Y-121732432D01*
X158248359Y-121862953D01*
X158087453Y-122023859D01*
X157956932Y-122210264D01*
X157860761Y-122416502D01*
X157801864Y-122636310D01*
X157782031Y-122863000D01*
X157801864Y-123089691D01*
X157854440Y-123285907D01*
X157852777Y-123355756D01*
X157813614Y-123413619D01*
X157749386Y-123441123D01*
X157734665Y-123442000D01*
X150280335Y-123442000D01*
X150213296Y-123422315D01*
X150167541Y-123369511D01*
X150157597Y-123300353D01*
X150160560Y-123285907D01*
X150213135Y-123089691D01*
X150232968Y-122863000D01*
X150228069Y-122807000D01*
X150213135Y-122636308D01*
X150154239Y-122416504D01*
X150058068Y-122210266D01*
X150019502Y-122155188D01*
X149938910Y-122040089D01*
X149927547Y-122023861D01*
X149766639Y-121862953D01*
X149766638Y-121862952D01*
X149671376Y-121796248D01*
X149627751Y-121741671D01*
X149618500Y-121694674D01*
X149618500Y-112322499D01*
X149638185Y-112255460D01*
X149690989Y-112209705D01*
X149742500Y-112198499D01*
X149872061Y-112198499D01*
X149875372Y-112198499D01*
X149934983Y-112192091D01*
X150069831Y-112141796D01*
X150185046Y-112055546D01*
X150271296Y-111940331D01*
X150299955Y-111863491D01*
X150341825Y-111807559D01*
X150407289Y-111783141D01*
X150475562Y-111797992D01*
X150507364Y-111822840D01*
X150515716Y-111831913D01*
X150698874Y-111974470D01*
X150902997Y-112084936D01*
X150961436Y-112104998D01*
X151122515Y-112160297D01*
X151122517Y-112160297D01*
X151122519Y-112160298D01*
X151351451Y-112198500D01*
X151351452Y-112198500D01*
X151583548Y-112198500D01*
X151583549Y-112198500D01*
X151812481Y-112160298D01*
X152032003Y-112084936D01*
X152236126Y-111974470D01*
X152419284Y-111831913D01*
X152576479Y-111661153D01*
X152703424Y-111466849D01*
X152796657Y-111254300D01*
X152853634Y-111029305D01*
X152872800Y-110798000D01*
X152853634Y-110566695D01*
X152835040Y-110493274D01*
X152837666Y-110423454D01*
X152867562Y-110375157D01*
X153125403Y-110117316D01*
X153186725Y-110083834D01*
X153213083Y-110081000D01*
X172803000Y-110081000D01*
X172870039Y-110100685D01*
G37*
%TD.AperFunction*%
%TA.AperFunction,Conductor*%
G36*
X198270039Y-110100685D02*
G01*
X198315794Y-110153489D01*
X198327000Y-110205000D01*
X198327000Y-111742560D01*
X198327000Y-111742578D01*
X198327001Y-111745872D01*
X198327353Y-111749152D01*
X198327354Y-111749159D01*
X198333409Y-111805484D01*
X198341246Y-111826495D01*
X198383704Y-111940331D01*
X198469954Y-112055546D01*
X198585169Y-112141796D01*
X198720017Y-112192091D01*
X198779627Y-112198500D01*
X198912500Y-112198499D01*
X198979539Y-112218183D01*
X199025294Y-112270987D01*
X199036500Y-112322499D01*
X199036500Y-121694674D01*
X199016815Y-121761713D01*
X198983624Y-121796248D01*
X198888361Y-121862952D01*
X198727453Y-122023860D01*
X198596932Y-122210264D01*
X198500761Y-122416502D01*
X198441864Y-122636310D01*
X198422031Y-122863000D01*
X198441864Y-123089689D01*
X198500761Y-123309497D01*
X198596932Y-123515735D01*
X198657599Y-123602377D01*
X198679926Y-123668584D01*
X198662915Y-123736351D01*
X198611967Y-123784163D01*
X198556024Y-123797500D01*
X185658976Y-123797500D01*
X185591937Y-123777815D01*
X185546182Y-123725011D01*
X185536238Y-123655853D01*
X185557401Y-123602377D01*
X185611734Y-123524780D01*
X185618068Y-123515734D01*
X185714239Y-123309496D01*
X185773135Y-123089692D01*
X185792968Y-122863000D01*
X185773135Y-122636308D01*
X185714239Y-122416504D01*
X185618068Y-122210266D01*
X185587066Y-122165989D01*
X185487546Y-122023859D01*
X185326640Y-121862953D01*
X185140235Y-121732432D01*
X184933997Y-121636261D01*
X184714189Y-121577364D01*
X184487499Y-121557531D01*
X184260810Y-121577364D01*
X184041002Y-121636261D01*
X183834764Y-121732432D01*
X183648359Y-121862953D01*
X183487453Y-122023859D01*
X183356932Y-122210264D01*
X183260761Y-122416502D01*
X183201864Y-122636310D01*
X183182031Y-122862999D01*
X183202810Y-123100499D01*
X183200231Y-123100724D01*
X183198941Y-123154844D01*
X183168512Y-123204764D01*
X183120097Y-123253180D01*
X183058774Y-123286666D01*
X183032415Y-123289500D01*
X175721197Y-123289500D01*
X175654158Y-123269815D01*
X175608403Y-123217011D01*
X175598459Y-123147853D01*
X175601422Y-123133406D01*
X175605863Y-123116832D01*
X175613135Y-123089692D01*
X175632968Y-122863000D01*
X175613135Y-122636308D01*
X175554239Y-122416504D01*
X175458068Y-122210266D01*
X175419502Y-122155188D01*
X175338910Y-122040089D01*
X175327547Y-122023861D01*
X175166639Y-121862953D01*
X175166638Y-121862952D01*
X175071376Y-121796248D01*
X175027751Y-121741671D01*
X175018500Y-121694674D01*
X175018500Y-112322499D01*
X175038185Y-112255460D01*
X175090989Y-112209705D01*
X175142500Y-112198499D01*
X175272061Y-112198499D01*
X175275372Y-112198499D01*
X175334983Y-112192091D01*
X175469831Y-112141796D01*
X175585046Y-112055546D01*
X175671296Y-111940331D01*
X175699955Y-111863491D01*
X175741825Y-111807559D01*
X175807289Y-111783141D01*
X175875562Y-111797992D01*
X175907364Y-111822840D01*
X175915716Y-111831913D01*
X176098874Y-111974470D01*
X176302997Y-112084936D01*
X176361436Y-112104998D01*
X176522515Y-112160297D01*
X176522517Y-112160297D01*
X176522519Y-112160298D01*
X176751451Y-112198500D01*
X176751452Y-112198500D01*
X176983548Y-112198500D01*
X176983549Y-112198500D01*
X177212481Y-112160298D01*
X177432003Y-112084936D01*
X177636126Y-111974470D01*
X177819284Y-111831913D01*
X177976479Y-111661153D01*
X178103424Y-111466849D01*
X178196657Y-111254300D01*
X178253634Y-111029305D01*
X178272800Y-110798000D01*
X178253634Y-110566695D01*
X178235040Y-110493274D01*
X178237666Y-110423454D01*
X178267562Y-110375157D01*
X178525403Y-110117316D01*
X178586725Y-110083834D01*
X178613083Y-110081000D01*
X198203000Y-110081000D01*
X198270039Y-110100685D01*
G37*
%TD.AperFunction*%
%TA.AperFunction,Conductor*%
G36*
X147446334Y-110691900D02*
G01*
X147502267Y-110733772D01*
X147526684Y-110799236D01*
X147527000Y-110808082D01*
X147527000Y-111742560D01*
X147527000Y-111742578D01*
X147527001Y-111745872D01*
X147527353Y-111749152D01*
X147527354Y-111749159D01*
X147533409Y-111805484D01*
X147541246Y-111826495D01*
X147583704Y-111940331D01*
X147669954Y-112055546D01*
X147785169Y-112141796D01*
X147920017Y-112192091D01*
X147979627Y-112198500D01*
X148112500Y-112198499D01*
X148179539Y-112218183D01*
X148225294Y-112270987D01*
X148236500Y-112322499D01*
X148236500Y-121694674D01*
X148216815Y-121761713D01*
X148183624Y-121796248D01*
X148088361Y-121862952D01*
X147927453Y-122023860D01*
X147796932Y-122210264D01*
X147700761Y-122416502D01*
X147641864Y-122636310D01*
X147622031Y-122863000D01*
X147641864Y-123089691D01*
X147694440Y-123285907D01*
X147692777Y-123355756D01*
X147653614Y-123413619D01*
X147589386Y-123441123D01*
X147574665Y-123442000D01*
X141645084Y-123442000D01*
X141578045Y-123422315D01*
X141557403Y-123405681D01*
X132392403Y-114240681D01*
X132358918Y-114179358D01*
X132363902Y-114109666D01*
X132405774Y-114053733D01*
X132471238Y-114029316D01*
X132480084Y-114029000D01*
X143055409Y-114029000D01*
X143122448Y-114048685D01*
X143134074Y-114057147D01*
X143192650Y-114105219D01*
X143284496Y-114180595D01*
X143459696Y-114274241D01*
X143649799Y-114331908D01*
X143847500Y-114351380D01*
X144045201Y-114331908D01*
X144235304Y-114274241D01*
X144410504Y-114180595D01*
X144564068Y-114054568D01*
X144690095Y-113901004D01*
X144783741Y-113725804D01*
X144841408Y-113535701D01*
X144860880Y-113338000D01*
X144841408Y-113140299D01*
X144783741Y-112950196D01*
X144690095Y-112774996D01*
X144564068Y-112621432D01*
X144410504Y-112495405D01*
X144410503Y-112495404D01*
X144310210Y-112441797D01*
X144235304Y-112401759D01*
X144045201Y-112344092D01*
X144045198Y-112344091D01*
X143847500Y-112324620D01*
X143649801Y-112344091D01*
X143586431Y-112363314D01*
X143459696Y-112401759D01*
X143459692Y-112401760D01*
X143459692Y-112401761D01*
X143284496Y-112495404D01*
X143134074Y-112618853D01*
X143069764Y-112646166D01*
X143055409Y-112647000D01*
X125495084Y-112647000D01*
X125428045Y-112627315D01*
X125382290Y-112574511D01*
X125372346Y-112505353D01*
X125401371Y-112441797D01*
X125407394Y-112435327D01*
X125643026Y-112199694D01*
X125704345Y-112166212D01*
X125751110Y-112165069D01*
X125951451Y-112198500D01*
X125951453Y-112198500D01*
X126183548Y-112198500D01*
X126183549Y-112198500D01*
X126412481Y-112160298D01*
X126632003Y-112084936D01*
X126836126Y-111974470D01*
X127019284Y-111831913D01*
X127176479Y-111661153D01*
X127207001Y-111614436D01*
X127252250Y-111545178D01*
X127305396Y-111499822D01*
X127356058Y-111489000D01*
X146235874Y-111489000D01*
X146243361Y-111489226D01*
X146302528Y-111492805D01*
X146302528Y-111492804D01*
X146302530Y-111492805D01*
X146360836Y-111482119D01*
X146368225Y-111480994D01*
X146427082Y-111473848D01*
X146436290Y-111470355D01*
X146457898Y-111464332D01*
X146467585Y-111462557D01*
X146521661Y-111438218D01*
X146528545Y-111435368D01*
X146583982Y-111414344D01*
X146592085Y-111408750D01*
X146611637Y-111397723D01*
X146620605Y-111393688D01*
X146667276Y-111357122D01*
X146673269Y-111352711D01*
X146722083Y-111319020D01*
X146761402Y-111274635D01*
X146766503Y-111269217D01*
X147315321Y-110720399D01*
X147376642Y-110686916D01*
X147446334Y-110691900D01*
G37*
%TD.AperFunction*%
%TA.AperFunction,Conductor*%
G36*
X101106147Y-117746185D02*
G01*
X101126789Y-117762819D01*
X101615388Y-118251418D01*
X102036790Y-118672819D01*
X102070275Y-118734142D01*
X102065291Y-118803833D01*
X102023419Y-118859767D01*
X101957955Y-118884184D01*
X101949109Y-118884500D01*
X42404563Y-118884500D01*
X42337524Y-118864815D01*
X42291769Y-118812011D01*
X42281825Y-118742853D01*
X42284788Y-118728406D01*
X42297073Y-118682557D01*
X42307563Y-118643408D01*
X42328159Y-118408000D01*
X42307563Y-118172592D01*
X42246403Y-117944337D01*
X42227083Y-117902905D01*
X42216591Y-117833828D01*
X42245111Y-117770044D01*
X42303587Y-117731804D01*
X42339465Y-117726500D01*
X101039108Y-117726500D01*
X101106147Y-117746185D01*
G37*
%TD.AperFunction*%
%TA.AperFunction,Conductor*%
G36*
X238405539Y-89227685D02*
G01*
X238451294Y-89280489D01*
X238462500Y-89332000D01*
X238462500Y-132264000D01*
X238442815Y-132331039D01*
X238390011Y-132376794D01*
X238338500Y-132388000D01*
X36656500Y-132388000D01*
X36589461Y-132368315D01*
X36543706Y-132315511D01*
X36532500Y-132264000D01*
X36532500Y-129915764D01*
X46743287Y-129915764D01*
X46772913Y-130185016D01*
X46772914Y-130185018D01*
X46841428Y-130447088D01*
X46940701Y-130680697D01*
X46947371Y-130696392D01*
X47088482Y-130927611D01*
X47249998Y-131121693D01*
X47261755Y-131135820D01*
X47463498Y-131316582D01*
X47689410Y-131466044D01*
X47754123Y-131496380D01*
X47934677Y-131581021D01*
X48194062Y-131659058D01*
X48194069Y-131659060D01*
X48462061Y-131698500D01*
X48462064Y-131698500D01*
X48662869Y-131698500D01*
X48665131Y-131698500D01*
X48867656Y-131683677D01*
X49132053Y-131624780D01*
X49385058Y-131528014D01*
X49621277Y-131395441D01*
X49835677Y-131229888D01*
X50023686Y-131034881D01*
X50181299Y-130814579D01*
X50305156Y-130573675D01*
X50392618Y-130317305D01*
X50441819Y-130050933D01*
X50451712Y-129780235D01*
X50422086Y-129510982D01*
X50353572Y-129248912D01*
X50247630Y-128999610D01*
X50106518Y-128768390D01*
X50106517Y-128768388D01*
X49933246Y-128560181D01*
X49828259Y-128466112D01*
X49731502Y-128379418D01*
X49505590Y-128229956D01*
X49505586Y-128229954D01*
X49260322Y-128114978D01*
X49000937Y-128036941D01*
X49000931Y-128036940D01*
X48732939Y-127997500D01*
X48529869Y-127997500D01*
X48527620Y-127997664D01*
X48527609Y-127997665D01*
X48327343Y-128012322D01*
X48062949Y-128071219D01*
X47809941Y-128167986D01*
X47573723Y-128300559D01*
X47359325Y-128466109D01*
X47171313Y-128661120D01*
X47013701Y-128881420D01*
X46889842Y-129122329D01*
X46802381Y-129378695D01*
X46753180Y-129645066D01*
X46743287Y-129915764D01*
X36532500Y-129915764D01*
X36532500Y-118408000D01*
X37076840Y-118408000D01*
X37097436Y-118643407D01*
X37140422Y-118803833D01*
X37158597Y-118871663D01*
X37258465Y-119085830D01*
X37394005Y-119279401D01*
X37394007Y-119279404D01*
X37394008Y-119279404D01*
X37516318Y-119401714D01*
X37549803Y-119463037D01*
X37544819Y-119532729D01*
X37502947Y-119588662D01*
X37471972Y-119605576D01*
X37340413Y-119654646D01*
X37225311Y-119740811D01*
X37139147Y-119855910D01*
X37088900Y-119990628D01*
X37082854Y-120046867D01*
X37082500Y-120053481D01*
X37082500Y-120698000D01*
X37998814Y-120698000D01*
X37973007Y-120738156D01*
X37932500Y-120876111D01*
X37932500Y-121019889D01*
X37973007Y-121157844D01*
X37998814Y-121198000D01*
X37082500Y-121198000D01*
X37082500Y-121842518D01*
X37082854Y-121849132D01*
X37088900Y-121905371D01*
X37139147Y-122040089D01*
X37225311Y-122155188D01*
X37340410Y-122241352D01*
X37475128Y-122291599D01*
X37531367Y-122297645D01*
X37537982Y-122298000D01*
X38182500Y-122298000D01*
X38182500Y-121383501D01*
X38290185Y-121432680D01*
X38396737Y-121448000D01*
X38468263Y-121448000D01*
X38574815Y-121432680D01*
X38682500Y-121383501D01*
X38682500Y-122298000D01*
X39327018Y-122298000D01*
X39333632Y-122297645D01*
X39389871Y-122291599D01*
X39524589Y-122241352D01*
X39639688Y-122155188D01*
X39725852Y-122040089D01*
X39774922Y-121908528D01*
X39816794Y-121852595D01*
X39882258Y-121828178D01*
X39950531Y-121843030D01*
X39978784Y-121864180D01*
X40101099Y-121986495D01*
X40294670Y-122122035D01*
X40508837Y-122221903D01*
X40737092Y-122283063D01*
X40972500Y-122303659D01*
X41207908Y-122283063D01*
X41235316Y-122275719D01*
X41305166Y-122277382D01*
X41355091Y-122307813D01*
X46191471Y-127144192D01*
X46196591Y-127149630D01*
X46235917Y-127194020D01*
X46261670Y-127211795D01*
X46284711Y-127227700D01*
X46290745Y-127232140D01*
X46337395Y-127268688D01*
X46346362Y-127272724D01*
X46365915Y-127283751D01*
X46366645Y-127284255D01*
X46374018Y-127289344D01*
X46429438Y-127310362D01*
X46436354Y-127313227D01*
X46479171Y-127332497D01*
X46490416Y-127337558D01*
X46500093Y-127339331D01*
X46521719Y-127345359D01*
X46530918Y-127348848D01*
X46589774Y-127355994D01*
X46597136Y-127357114D01*
X46655472Y-127367805D01*
X46714638Y-127364226D01*
X46722126Y-127364000D01*
X83953001Y-127364000D01*
X84020040Y-127383685D01*
X84065795Y-127436489D01*
X84077001Y-127488000D01*
X84077001Y-128205872D01*
X84077353Y-128209152D01*
X84077354Y-128209159D01*
X84079590Y-128229956D01*
X84083409Y-128265483D01*
X84133704Y-128400331D01*
X84219954Y-128515546D01*
X84335169Y-128601796D01*
X84470017Y-128652091D01*
X84529627Y-128658500D01*
X85749415Y-128658499D01*
X85816454Y-128678184D01*
X85837096Y-128694818D01*
X87553796Y-130411518D01*
X87587281Y-130472841D01*
X87589518Y-130487045D01*
X87608591Y-130680697D01*
X87608591Y-130680699D01*
X87608592Y-130680701D01*
X87666259Y-130870804D01*
X87696622Y-130927610D01*
X87753959Y-131034881D01*
X87759905Y-131046004D01*
X87885932Y-131199568D01*
X88039496Y-131325595D01*
X88214696Y-131419241D01*
X88404799Y-131476908D01*
X88602500Y-131496380D01*
X88800201Y-131476908D01*
X88990304Y-131419241D01*
X89165504Y-131325595D01*
X89319068Y-131199568D01*
X89445095Y-131046004D01*
X89538741Y-130870804D01*
X89565204Y-130783566D01*
X89603500Y-130725131D01*
X89667312Y-130696675D01*
X89736379Y-130707235D01*
X89779713Y-130740898D01*
X89790932Y-130754568D01*
X89944496Y-130880595D01*
X90119696Y-130974241D01*
X90309799Y-131031908D01*
X90507500Y-131051380D01*
X90705201Y-131031908D01*
X90895304Y-130974241D01*
X91070504Y-130880595D01*
X91224068Y-130754568D01*
X91350095Y-130601004D01*
X91443741Y-130425804D01*
X91501408Y-130235701D01*
X91520880Y-130038000D01*
X91501408Y-129840299D01*
X91443741Y-129650196D01*
X91350095Y-129474996D01*
X91350094Y-129474995D01*
X91345495Y-129466390D01*
X91331253Y-129397987D01*
X91356253Y-129332743D01*
X91412558Y-129291373D01*
X91482292Y-129287011D01*
X91542534Y-129320256D01*
X93176479Y-130954201D01*
X93181614Y-130959656D01*
X93220916Y-131004020D01*
X93269706Y-131037696D01*
X93275719Y-131042119D01*
X93322395Y-131078688D01*
X93331359Y-131082722D01*
X93350917Y-131093752D01*
X93359019Y-131099345D01*
X93400870Y-131115216D01*
X93414443Y-131120364D01*
X93421342Y-131123221D01*
X93475415Y-131147557D01*
X93485102Y-131149332D01*
X93506708Y-131155355D01*
X93515918Y-131158848D01*
X93574768Y-131165993D01*
X93582141Y-131167115D01*
X93640472Y-131177805D01*
X93699638Y-131174226D01*
X93707126Y-131174000D01*
X108765409Y-131174000D01*
X108832448Y-131193685D01*
X108844074Y-131202147D01*
X108877877Y-131229888D01*
X108994496Y-131325595D01*
X109169696Y-131419241D01*
X109359799Y-131476908D01*
X109557500Y-131496380D01*
X109755201Y-131476908D01*
X109945304Y-131419241D01*
X110120504Y-131325595D01*
X110274068Y-131199568D01*
X110400095Y-131046004D01*
X110493741Y-130870804D01*
X110551408Y-130680701D01*
X110570880Y-130483000D01*
X110551408Y-130285299D01*
X110493741Y-130095196D01*
X110400095Y-129919996D01*
X110396622Y-129915764D01*
X135643287Y-129915764D01*
X135672913Y-130185016D01*
X135672914Y-130185018D01*
X135741428Y-130447088D01*
X135840701Y-130680697D01*
X135847371Y-130696392D01*
X135988482Y-130927611D01*
X136149998Y-131121693D01*
X136161755Y-131135820D01*
X136363498Y-131316582D01*
X136589410Y-131466044D01*
X136654123Y-131496380D01*
X136834677Y-131581021D01*
X137094062Y-131659058D01*
X137094069Y-131659060D01*
X137362061Y-131698500D01*
X137362064Y-131698500D01*
X137562869Y-131698500D01*
X137565131Y-131698500D01*
X137767656Y-131683677D01*
X138032053Y-131624780D01*
X138285058Y-131528014D01*
X138521277Y-131395441D01*
X138735677Y-131229888D01*
X138923686Y-131034881D01*
X139081299Y-130814579D01*
X139205156Y-130573675D01*
X139292618Y-130317305D01*
X139341819Y-130050933D01*
X139346759Y-129915764D01*
X224543287Y-129915764D01*
X224572913Y-130185016D01*
X224572914Y-130185018D01*
X224641428Y-130447088D01*
X224740701Y-130680697D01*
X224747371Y-130696392D01*
X224888482Y-130927611D01*
X225049998Y-131121693D01*
X225061755Y-131135820D01*
X225263498Y-131316582D01*
X225489410Y-131466044D01*
X225554123Y-131496380D01*
X225734677Y-131581021D01*
X225994062Y-131659058D01*
X225994069Y-131659060D01*
X226262061Y-131698500D01*
X226262064Y-131698500D01*
X226462869Y-131698500D01*
X226465131Y-131698500D01*
X226667656Y-131683677D01*
X226932053Y-131624780D01*
X227185058Y-131528014D01*
X227421277Y-131395441D01*
X227635677Y-131229888D01*
X227823686Y-131034881D01*
X227981299Y-130814579D01*
X228105156Y-130573675D01*
X228192618Y-130317305D01*
X228241819Y-130050933D01*
X228251712Y-129780235D01*
X228222086Y-129510982D01*
X228153572Y-129248912D01*
X228047630Y-128999610D01*
X227906518Y-128768390D01*
X227906517Y-128768388D01*
X227733246Y-128560181D01*
X227628259Y-128466112D01*
X227531502Y-128379418D01*
X227305590Y-128229956D01*
X227305586Y-128229954D01*
X227060322Y-128114978D01*
X226800937Y-128036941D01*
X226800931Y-128036940D01*
X226532939Y-127997500D01*
X226329869Y-127997500D01*
X226327620Y-127997664D01*
X226327609Y-127997665D01*
X226127343Y-128012322D01*
X225862949Y-128071219D01*
X225609941Y-128167986D01*
X225373723Y-128300559D01*
X225159325Y-128466109D01*
X224971313Y-128661120D01*
X224813701Y-128881420D01*
X224689842Y-129122329D01*
X224602381Y-129378695D01*
X224553180Y-129645066D01*
X224543287Y-129915764D01*
X139346759Y-129915764D01*
X139351712Y-129780235D01*
X139322086Y-129510982D01*
X139253572Y-129248912D01*
X139147630Y-128999610D01*
X139006518Y-128768390D01*
X139006517Y-128768388D01*
X138833246Y-128560181D01*
X138728259Y-128466112D01*
X138631502Y-128379418D01*
X138405590Y-128229956D01*
X138405586Y-128229954D01*
X138160322Y-128114978D01*
X137900937Y-128036941D01*
X137900931Y-128036940D01*
X137632939Y-127997500D01*
X137429869Y-127997500D01*
X137427620Y-127997664D01*
X137427609Y-127997665D01*
X137227343Y-128012322D01*
X136962949Y-128071219D01*
X136709941Y-128167986D01*
X136473723Y-128300559D01*
X136259325Y-128466109D01*
X136071313Y-128661120D01*
X135913701Y-128881420D01*
X135789842Y-129122329D01*
X135702381Y-129378695D01*
X135653180Y-129645066D01*
X135643287Y-129915764D01*
X110396622Y-129915764D01*
X110274068Y-129766432D01*
X110132434Y-129650196D01*
X110120503Y-129640404D01*
X110020210Y-129586797D01*
X109945304Y-129546759D01*
X109755201Y-129489092D01*
X109755198Y-129489091D01*
X109581747Y-129472008D01*
X109557500Y-129469620D01*
X109557499Y-129469620D01*
X109359801Y-129489091D01*
X109300728Y-129507011D01*
X109169696Y-129546759D01*
X109169692Y-129546760D01*
X109169692Y-129546761D01*
X108994496Y-129640404D01*
X108844074Y-129763853D01*
X108779764Y-129791166D01*
X108765409Y-129792000D01*
X105795142Y-129792000D01*
X105728103Y-129772315D01*
X105682348Y-129719511D01*
X105672404Y-129650353D01*
X105701429Y-129586797D01*
X105718660Y-129570397D01*
X105729455Y-129561938D01*
X105735472Y-129557508D01*
X105784286Y-129523817D01*
X105823605Y-129479432D01*
X105828706Y-129474014D01*
X108751400Y-126551320D01*
X108812721Y-126517837D01*
X108882413Y-126522821D01*
X108926757Y-126551320D01*
X109104438Y-126729000D01*
X109265639Y-126890201D01*
X109270759Y-126895639D01*
X109310077Y-126940020D01*
X109340789Y-126961219D01*
X109358874Y-126973703D01*
X109364893Y-126978132D01*
X109387550Y-126995882D01*
X109411552Y-127014687D01*
X109411553Y-127014687D01*
X109411554Y-127014688D01*
X109420530Y-127018727D01*
X109440077Y-127029752D01*
X109448178Y-127035344D01*
X109503602Y-127056363D01*
X109510511Y-127059225D01*
X109564575Y-127083557D01*
X109574262Y-127085332D01*
X109595868Y-127091355D01*
X109605078Y-127094848D01*
X109663936Y-127101994D01*
X109671290Y-127103113D01*
X109729631Y-127113805D01*
X109788797Y-127110226D01*
X109796285Y-127110000D01*
X159847877Y-127110000D01*
X159914916Y-127129685D01*
X159940692Y-127151773D01*
X159978562Y-127194520D01*
X160027345Y-127228191D01*
X160033373Y-127232626D01*
X160080040Y-127269188D01*
X160089017Y-127273228D01*
X160108564Y-127284252D01*
X160116665Y-127289844D01*
X160136633Y-127297416D01*
X160172093Y-127310865D01*
X160179014Y-127313732D01*
X160233061Y-127338057D01*
X160242746Y-127339831D01*
X160264362Y-127345857D01*
X160273565Y-127349348D01*
X160332411Y-127356493D01*
X160339797Y-127357617D01*
X160398117Y-127368305D01*
X160453567Y-127364949D01*
X160457286Y-127364725D01*
X160464774Y-127364499D01*
X161520230Y-127364499D01*
X161527717Y-127364725D01*
X161586883Y-127368304D01*
X161645215Y-127357613D01*
X161652570Y-127356493D01*
X161711438Y-127349347D01*
X161720639Y-127345857D01*
X161742268Y-127339828D01*
X161751940Y-127338056D01*
X161753049Y-127337557D01*
X161805990Y-127313728D01*
X161812881Y-127310873D01*
X161868338Y-127289843D01*
X161876434Y-127284253D01*
X161895993Y-127273223D01*
X161904960Y-127269187D01*
X161951616Y-127232635D01*
X161957636Y-127228204D01*
X162006438Y-127194519D01*
X162045760Y-127150131D01*
X162050864Y-127144710D01*
X162797209Y-126398364D01*
X162802628Y-126393262D01*
X162847020Y-126353937D01*
X162880714Y-126305119D01*
X162885108Y-126299147D01*
X162921688Y-126252459D01*
X162921689Y-126252455D01*
X162929080Y-126243023D01*
X162985921Y-126202392D01*
X163026689Y-126195499D01*
X221274795Y-126195499D01*
X221282282Y-126195725D01*
X221341449Y-126199304D01*
X221341449Y-126199303D01*
X221341451Y-126199304D01*
X221399757Y-126188618D01*
X221407146Y-126187493D01*
X221466003Y-126180347D01*
X221475211Y-126176854D01*
X221496819Y-126170831D01*
X221506506Y-126169056D01*
X221560582Y-126144717D01*
X221567466Y-126141867D01*
X221622903Y-126120843D01*
X221631006Y-126115249D01*
X221650558Y-126104222D01*
X221659526Y-126100187D01*
X221706197Y-126063621D01*
X221712190Y-126059210D01*
X221761004Y-126025519D01*
X221800323Y-125981134D01*
X221805424Y-125975716D01*
X224918141Y-122863000D01*
X226362031Y-122863000D01*
X226381864Y-123089689D01*
X226440761Y-123309497D01*
X226536932Y-123515735D01*
X226667453Y-123702140D01*
X226828359Y-123863046D01*
X227014764Y-123993567D01*
X227014765Y-123993567D01*
X227014766Y-123993568D01*
X227221004Y-124089739D01*
X227440808Y-124148635D01*
X227591935Y-124161857D01*
X227667499Y-124168468D01*
X227667499Y-124168467D01*
X227667500Y-124168468D01*
X227894192Y-124148635D01*
X228113996Y-124089739D01*
X228320234Y-123993568D01*
X228506639Y-123863047D01*
X228667547Y-123702139D01*
X228798068Y-123515734D01*
X228894239Y-123309496D01*
X228953135Y-123089692D01*
X228972968Y-122863000D01*
X228953135Y-122636308D01*
X228894239Y-122416504D01*
X228798068Y-122210266D01*
X228767066Y-122165989D01*
X228667546Y-122023859D01*
X228506640Y-121862953D01*
X228320235Y-121732432D01*
X228113997Y-121636261D01*
X227894189Y-121577364D01*
X227667499Y-121557531D01*
X227440810Y-121577364D01*
X227221002Y-121636261D01*
X227014764Y-121732432D01*
X226828359Y-121862953D01*
X226667453Y-122023859D01*
X226536932Y-122210264D01*
X226440761Y-122416502D01*
X226381864Y-122636310D01*
X226362031Y-122863000D01*
X224918141Y-122863000D01*
X226730822Y-121050319D01*
X226792146Y-121016834D01*
X226818504Y-121014000D01*
X228145409Y-121014000D01*
X228212448Y-121033685D01*
X228224074Y-121042147D01*
X228234032Y-121050319D01*
X228374496Y-121165595D01*
X228549696Y-121259241D01*
X228739799Y-121316908D01*
X228937500Y-121336380D01*
X229135201Y-121316908D01*
X229325304Y-121259241D01*
X229500504Y-121165595D01*
X229654068Y-121039568D01*
X229780095Y-120886004D01*
X229873741Y-120710804D01*
X229931408Y-120520701D01*
X229950880Y-120323000D01*
X229931408Y-120125299D01*
X229873741Y-119935196D01*
X229780095Y-119759996D01*
X229654068Y-119606432D01*
X229500504Y-119480405D01*
X229500503Y-119480404D01*
X229400210Y-119426797D01*
X229325304Y-119386759D01*
X229135201Y-119329092D01*
X229135198Y-119329091D01*
X228961747Y-119312008D01*
X228937500Y-119309620D01*
X228937499Y-119309620D01*
X228739801Y-119329091D01*
X228676431Y-119348314D01*
X228549696Y-119386759D01*
X228549692Y-119386760D01*
X228549692Y-119386761D01*
X228374496Y-119480404D01*
X228224074Y-119603853D01*
X228159764Y-119631166D01*
X228145409Y-119632000D01*
X227730083Y-119632000D01*
X227663044Y-119612315D01*
X227617289Y-119559511D01*
X227607345Y-119490353D01*
X227636370Y-119426797D01*
X227642402Y-119420319D01*
X227755980Y-119306739D01*
X228138708Y-118924011D01*
X228144128Y-118918909D01*
X228188520Y-118879583D01*
X228222214Y-118830765D01*
X228226608Y-118824793D01*
X228263188Y-118778105D01*
X228267223Y-118769137D01*
X228278251Y-118749584D01*
X228283844Y-118741482D01*
X228304878Y-118686019D01*
X228307717Y-118679165D01*
X228332058Y-118625084D01*
X228333831Y-118615405D01*
X228339862Y-118593773D01*
X228343348Y-118584582D01*
X228350489Y-118525763D01*
X228351616Y-118518354D01*
X228362306Y-118460028D01*
X228358726Y-118400849D01*
X228358500Y-118393362D01*
X228358500Y-115614488D01*
X228378185Y-115547449D01*
X228394819Y-115526807D01*
X230385928Y-113535698D01*
X232591550Y-111330075D01*
X232652871Y-111296592D01*
X232722563Y-111301576D01*
X232778496Y-111343448D01*
X232791611Y-111365352D01*
X232838465Y-111465830D01*
X232974005Y-111659401D01*
X233141099Y-111826495D01*
X233326660Y-111956426D01*
X233370283Y-112011002D01*
X233377476Y-112080501D01*
X233345954Y-112142855D01*
X233326659Y-112159575D01*
X233318813Y-112165069D01*
X233219201Y-112234818D01*
X233141095Y-112289508D01*
X232974005Y-112456598D01*
X232838465Y-112650170D01*
X232738597Y-112864336D01*
X232677436Y-113092592D01*
X232656840Y-113328000D01*
X232677436Y-113563407D01*
X232738597Y-113791662D01*
X232838465Y-114005830D01*
X232848379Y-114019989D01*
X232870706Y-114086196D01*
X232853694Y-114153963D01*
X232834484Y-114178792D01*
X230913980Y-116099296D01*
X230852657Y-116132781D01*
X230838454Y-116135018D01*
X230644801Y-116154091D01*
X230581431Y-116173314D01*
X230454696Y-116211759D01*
X230454692Y-116211760D01*
X230454692Y-116211761D01*
X230279496Y-116305404D01*
X230125932Y-116431432D01*
X229999904Y-116584996D01*
X229906261Y-116760192D01*
X229906259Y-116760196D01*
X229867814Y-116886931D01*
X229848591Y-116950301D01*
X229829120Y-117147999D01*
X229848591Y-117345698D01*
X229848592Y-117345701D01*
X229906259Y-117535804D01*
X229906684Y-117536599D01*
X229999904Y-117711003D01*
X230012622Y-117726500D01*
X230125932Y-117864568D01*
X230279496Y-117990595D01*
X230454696Y-118084241D01*
X230644799Y-118141908D01*
X230842500Y-118161380D01*
X231040201Y-118141908D01*
X231230304Y-118084241D01*
X231405504Y-117990595D01*
X231559068Y-117864568D01*
X231685095Y-117711004D01*
X231778741Y-117535804D01*
X231836408Y-117345701D01*
X231855481Y-117152041D01*
X231881642Y-117087257D01*
X231891194Y-117076526D01*
X232580768Y-116386952D01*
X232642089Y-116353469D01*
X232711781Y-116358453D01*
X232767714Y-116400325D01*
X232780829Y-116422230D01*
X232838465Y-116545830D01*
X232974005Y-116739401D01*
X233141099Y-116906495D01*
X233326660Y-117036426D01*
X233370283Y-117091002D01*
X233377476Y-117160501D01*
X233345954Y-117222855D01*
X233326659Y-117239575D01*
X233141095Y-117369508D01*
X232974005Y-117536598D01*
X232838465Y-117730170D01*
X232738597Y-117944336D01*
X232677436Y-118172592D01*
X232656840Y-118408000D01*
X232677436Y-118643407D01*
X232720422Y-118803833D01*
X232738597Y-118871663D01*
X232838465Y-119085830D01*
X232974005Y-119279401D01*
X232974007Y-119279403D01*
X232974008Y-119279404D01*
X233096318Y-119401714D01*
X233129803Y-119463037D01*
X233124819Y-119532729D01*
X233082947Y-119588662D01*
X233051972Y-119605576D01*
X232920413Y-119654646D01*
X232805311Y-119740811D01*
X232719147Y-119855910D01*
X232668900Y-119990628D01*
X232662854Y-120046867D01*
X232662500Y-120053481D01*
X232662500Y-120698000D01*
X233578814Y-120698000D01*
X233553007Y-120738156D01*
X233512500Y-120876111D01*
X233512500Y-121019889D01*
X233553007Y-121157844D01*
X233578814Y-121198000D01*
X232662500Y-121198000D01*
X232662500Y-121842518D01*
X232662854Y-121849132D01*
X232668900Y-121905371D01*
X232719147Y-122040089D01*
X232805311Y-122155188D01*
X232920410Y-122241352D01*
X233055128Y-122291599D01*
X233111367Y-122297645D01*
X233117982Y-122298000D01*
X233762500Y-122298000D01*
X233762500Y-121383501D01*
X233870185Y-121432680D01*
X233976737Y-121448000D01*
X234048263Y-121448000D01*
X234154815Y-121432680D01*
X234262500Y-121383501D01*
X234262500Y-122298000D01*
X234907018Y-122298000D01*
X234913632Y-122297645D01*
X234969871Y-122291599D01*
X235104589Y-122241352D01*
X235219688Y-122155188D01*
X235305852Y-122040089D01*
X235354922Y-121908528D01*
X235396794Y-121852595D01*
X235462258Y-121828178D01*
X235530531Y-121843030D01*
X235558785Y-121864181D01*
X235681099Y-121986495D01*
X235874670Y-122122035D01*
X236088837Y-122221903D01*
X236317092Y-122283063D01*
X236552500Y-122303659D01*
X236787908Y-122283063D01*
X237016163Y-122221903D01*
X237230330Y-122122035D01*
X237423901Y-121986495D01*
X237590995Y-121819401D01*
X237726535Y-121625830D01*
X237826403Y-121411663D01*
X237887563Y-121183408D01*
X237908159Y-120948000D01*
X237901897Y-120876432D01*
X237887563Y-120712592D01*
X237872603Y-120656759D01*
X237826403Y-120484337D01*
X237726535Y-120270171D01*
X237590995Y-120076599D01*
X237423901Y-119909505D01*
X237238339Y-119779573D01*
X237194716Y-119724998D01*
X237187522Y-119655500D01*
X237219045Y-119593145D01*
X237238337Y-119576428D01*
X237423901Y-119446495D01*
X237590995Y-119279401D01*
X237726535Y-119085830D01*
X237826403Y-118871663D01*
X237887563Y-118643408D01*
X237908159Y-118408000D01*
X237887563Y-118172592D01*
X237826403Y-117944337D01*
X237726535Y-117730171D01*
X237590995Y-117536599D01*
X237423901Y-117369505D01*
X237238339Y-117239573D01*
X237194716Y-117184998D01*
X237187522Y-117115500D01*
X237219045Y-117053145D01*
X237238337Y-117036428D01*
X237423901Y-116906495D01*
X237590995Y-116739401D01*
X237726535Y-116545830D01*
X237826403Y-116331663D01*
X237887563Y-116103408D01*
X237908159Y-115868000D01*
X237887563Y-115632592D01*
X237826403Y-115404337D01*
X237726535Y-115190171D01*
X237590995Y-114996599D01*
X237423901Y-114829505D01*
X237238339Y-114699573D01*
X237194716Y-114644998D01*
X237187522Y-114575500D01*
X237219045Y-114513145D01*
X237238337Y-114496428D01*
X237423901Y-114366495D01*
X237590995Y-114199401D01*
X237726535Y-114005830D01*
X237826403Y-113791663D01*
X237887563Y-113563408D01*
X237908159Y-113328000D01*
X237887563Y-113092592D01*
X237826403Y-112864337D01*
X237726535Y-112650171D01*
X237590995Y-112456599D01*
X237423901Y-112289505D01*
X237238339Y-112159573D01*
X237194716Y-112104998D01*
X237187522Y-112035500D01*
X237219045Y-111973145D01*
X237238337Y-111956428D01*
X237423901Y-111826495D01*
X237590995Y-111659401D01*
X237726535Y-111465830D01*
X237826403Y-111251663D01*
X237887563Y-111023408D01*
X237908159Y-110788000D01*
X237887563Y-110552592D01*
X237826403Y-110324337D01*
X237726535Y-110110171D01*
X237590995Y-109916599D01*
X237423901Y-109749505D01*
X237238339Y-109619573D01*
X237194717Y-109564998D01*
X237187524Y-109495499D01*
X237219046Y-109433145D01*
X237238337Y-109416428D01*
X237423901Y-109286495D01*
X237590995Y-109119401D01*
X237726535Y-108925830D01*
X237826403Y-108711663D01*
X237887563Y-108483408D01*
X237908159Y-108248000D01*
X237887563Y-108012592D01*
X237826403Y-107784337D01*
X237726535Y-107570171D01*
X237590995Y-107376599D01*
X237423901Y-107209505D01*
X237238339Y-107079573D01*
X237194716Y-107024998D01*
X237187522Y-106955500D01*
X237219045Y-106893145D01*
X237238337Y-106876428D01*
X237423901Y-106746495D01*
X237590995Y-106579401D01*
X237726535Y-106385830D01*
X237826403Y-106171663D01*
X237887563Y-105943408D01*
X237908159Y-105708000D01*
X237887563Y-105472592D01*
X237826403Y-105244337D01*
X237726535Y-105030171D01*
X237590995Y-104836599D01*
X237423901Y-104669505D01*
X237238339Y-104539573D01*
X237194716Y-104484998D01*
X237187522Y-104415500D01*
X237219045Y-104353145D01*
X237238337Y-104336428D01*
X237423901Y-104206495D01*
X237590995Y-104039401D01*
X237726535Y-103845830D01*
X237826403Y-103631663D01*
X237887563Y-103403408D01*
X237908159Y-103168000D01*
X237887563Y-102932592D01*
X237826403Y-102704337D01*
X237726535Y-102490171D01*
X237590995Y-102296599D01*
X237423901Y-102129505D01*
X237237902Y-101999267D01*
X237194280Y-101944692D01*
X237187087Y-101875193D01*
X237218609Y-101812839D01*
X237237905Y-101796119D01*
X237423578Y-101666109D01*
X237590606Y-101499081D01*
X237726100Y-101305576D01*
X237825930Y-101091492D01*
X237883136Y-100878000D01*
X236986186Y-100878000D01*
X237011993Y-100837844D01*
X237052500Y-100699889D01*
X237052500Y-100556111D01*
X237011993Y-100418156D01*
X236986186Y-100378000D01*
X237883136Y-100378000D01*
X237883135Y-100377999D01*
X237825930Y-100164507D01*
X237726099Y-99950421D01*
X237590609Y-99756921D01*
X237423581Y-99589893D01*
X237230076Y-99454399D01*
X237015992Y-99354569D01*
X236802499Y-99297364D01*
X236802499Y-100192498D01*
X236694815Y-100143320D01*
X236588263Y-100128000D01*
X236516737Y-100128000D01*
X236410185Y-100143320D01*
X236302500Y-100192498D01*
X236302500Y-99297364D01*
X236302499Y-99297364D01*
X236089007Y-99354569D01*
X235874921Y-99454400D01*
X235681421Y-99589890D01*
X235514393Y-99756918D01*
X235384380Y-99942596D01*
X235329803Y-99986220D01*
X235260304Y-99993413D01*
X235197950Y-99961891D01*
X235181230Y-99942595D01*
X235050995Y-99756599D01*
X234883901Y-99589505D01*
X234690330Y-99453965D01*
X234476163Y-99354097D01*
X234415001Y-99337709D01*
X234247907Y-99292936D01*
X234012500Y-99272340D01*
X233777092Y-99292936D01*
X233749682Y-99300281D01*
X233679832Y-99298618D01*
X233629908Y-99268187D01*
X230718527Y-96356805D01*
X230713393Y-96351352D01*
X230674082Y-96306979D01*
X230625293Y-96273303D01*
X230619259Y-96268863D01*
X230572604Y-96232311D01*
X230563632Y-96228273D01*
X230544085Y-96217249D01*
X230535982Y-96211656D01*
X230480544Y-96190630D01*
X230473643Y-96187772D01*
X230473634Y-96187768D01*
X230419585Y-96163443D01*
X230419583Y-96163442D01*
X230411811Y-96162018D01*
X230409898Y-96161667D01*
X230388288Y-96155643D01*
X230379083Y-96152152D01*
X230320235Y-96145006D01*
X230312832Y-96143879D01*
X230254529Y-96133195D01*
X230254528Y-96133195D01*
X230203396Y-96136287D01*
X230195361Y-96136774D01*
X230187874Y-96137000D01*
X49257126Y-96137000D01*
X49249639Y-96136774D01*
X49241603Y-96136287D01*
X49190472Y-96133195D01*
X49190471Y-96133195D01*
X49132168Y-96143879D01*
X49124766Y-96145005D01*
X49065918Y-96152152D01*
X49065916Y-96152152D01*
X49065913Y-96152153D01*
X49056703Y-96155645D01*
X49035104Y-96161666D01*
X49025417Y-96163441D01*
X48971364Y-96187768D01*
X48964450Y-96190632D01*
X48909015Y-96211656D01*
X48900909Y-96217252D01*
X48881375Y-96228269D01*
X48872395Y-96232312D01*
X48872393Y-96232313D01*
X48872394Y-96232313D01*
X48825739Y-96268864D01*
X48819708Y-96273301D01*
X48770917Y-96306979D01*
X48731598Y-96351360D01*
X48726465Y-96356812D01*
X47669265Y-97414011D01*
X47607942Y-97447496D01*
X47565159Y-97446478D01*
X47564999Y-97448310D01*
X47327499Y-97427531D01*
X47100810Y-97447364D01*
X46881002Y-97506261D01*
X46674764Y-97602432D01*
X46488359Y-97732953D01*
X46327453Y-97893859D01*
X46196932Y-98080264D01*
X46100761Y-98286502D01*
X46041864Y-98506310D01*
X46022031Y-98733000D01*
X46041864Y-98959689D01*
X46100761Y-99179497D01*
X46196932Y-99385735D01*
X46327453Y-99572140D01*
X46488356Y-99733043D01*
X46488359Y-99733045D01*
X46488361Y-99733047D01*
X46627428Y-99830422D01*
X46671051Y-99884996D01*
X46678245Y-99954494D01*
X46646723Y-100016849D01*
X46643984Y-100019676D01*
X44222981Y-102440681D01*
X44161658Y-102474166D01*
X44135300Y-102477000D01*
X42201863Y-102477000D01*
X42134824Y-102457315D01*
X42100288Y-102424123D01*
X42010994Y-102296598D01*
X41843904Y-102129508D01*
X41843903Y-102129508D01*
X41843901Y-102129505D01*
X41657902Y-101999267D01*
X41614280Y-101944692D01*
X41607087Y-101875193D01*
X41638609Y-101812839D01*
X41657905Y-101796119D01*
X41843578Y-101666109D01*
X42010606Y-101499081D01*
X42146100Y-101305576D01*
X42245930Y-101091492D01*
X42303136Y-100878000D01*
X41406186Y-100878000D01*
X41431993Y-100837844D01*
X41472500Y-100699889D01*
X41472500Y-100556111D01*
X41431993Y-100418156D01*
X41406186Y-100378000D01*
X42303136Y-100378000D01*
X42303135Y-100377999D01*
X42245930Y-100164507D01*
X42146099Y-99950421D01*
X42010609Y-99756921D01*
X41843581Y-99589893D01*
X41650076Y-99454399D01*
X41435992Y-99354569D01*
X41222500Y-99297364D01*
X41222500Y-100192498D01*
X41114815Y-100143320D01*
X41008263Y-100128000D01*
X40936737Y-100128000D01*
X40830185Y-100143320D01*
X40722500Y-100192498D01*
X40722500Y-99297364D01*
X40722499Y-99297364D01*
X40509007Y-99354569D01*
X40294921Y-99454400D01*
X40101421Y-99589890D01*
X39934393Y-99756918D01*
X39804380Y-99942596D01*
X39749803Y-99986220D01*
X39680304Y-99993413D01*
X39617950Y-99961891D01*
X39601230Y-99942595D01*
X39470995Y-99756599D01*
X39303901Y-99589505D01*
X39110330Y-99453965D01*
X38896163Y-99354097D01*
X38835001Y-99337709D01*
X38667907Y-99292936D01*
X38432500Y-99272340D01*
X38197092Y-99292936D01*
X37968836Y-99354097D01*
X37754670Y-99453965D01*
X37561098Y-99589505D01*
X37394005Y-99756598D01*
X37258465Y-99950170D01*
X37158597Y-100164336D01*
X37097436Y-100392592D01*
X37076840Y-100628000D01*
X37097436Y-100863407D01*
X37142209Y-101030501D01*
X37158597Y-101091663D01*
X37258465Y-101305830D01*
X37394005Y-101499401D01*
X37561099Y-101666495D01*
X37746660Y-101796426D01*
X37790283Y-101851002D01*
X37797476Y-101920501D01*
X37765954Y-101982855D01*
X37746659Y-101999575D01*
X37561095Y-102129508D01*
X37394005Y-102296598D01*
X37258465Y-102490170D01*
X37158597Y-102704336D01*
X37097436Y-102932592D01*
X37076840Y-103167999D01*
X37097436Y-103403407D01*
X37142209Y-103570501D01*
X37158597Y-103631663D01*
X37258465Y-103845830D01*
X37394005Y-104039401D01*
X37561099Y-104206495D01*
X37746660Y-104336426D01*
X37790283Y-104391002D01*
X37797476Y-104460501D01*
X37765954Y-104522855D01*
X37746659Y-104539575D01*
X37561095Y-104669508D01*
X37394005Y-104836598D01*
X37258465Y-105030170D01*
X37158597Y-105244336D01*
X37097436Y-105472592D01*
X37076840Y-105708000D01*
X37097436Y-105943407D01*
X37142209Y-106110501D01*
X37158597Y-106171663D01*
X37258465Y-106385830D01*
X37394005Y-106579401D01*
X37561099Y-106746495D01*
X37746660Y-106876426D01*
X37790283Y-106931002D01*
X37797476Y-107000501D01*
X37765954Y-107062855D01*
X37746659Y-107079575D01*
X37561095Y-107209508D01*
X37394005Y-107376598D01*
X37258465Y-107570170D01*
X37158597Y-107784336D01*
X37097436Y-108012592D01*
X37076840Y-108247999D01*
X37097436Y-108483407D01*
X37140950Y-108645804D01*
X37158597Y-108711663D01*
X37258465Y-108925830D01*
X37394005Y-109119401D01*
X37561099Y-109286495D01*
X37746660Y-109416426D01*
X37790283Y-109471002D01*
X37797476Y-109540501D01*
X37765954Y-109602855D01*
X37746658Y-109619575D01*
X37611315Y-109714344D01*
X37561095Y-109749508D01*
X37394005Y-109916598D01*
X37258465Y-110110170D01*
X37158597Y-110324336D01*
X37097436Y-110552592D01*
X37076840Y-110788000D01*
X37097436Y-111023407D01*
X37118688Y-111102720D01*
X37158597Y-111251663D01*
X37258465Y-111465830D01*
X37394005Y-111659401D01*
X37561099Y-111826495D01*
X37746660Y-111956426D01*
X37790283Y-112011002D01*
X37797476Y-112080501D01*
X37765954Y-112142855D01*
X37746659Y-112159575D01*
X37738813Y-112165069D01*
X37639201Y-112234818D01*
X37561095Y-112289508D01*
X37394005Y-112456598D01*
X37258465Y-112650170D01*
X37158597Y-112864336D01*
X37097436Y-113092592D01*
X37076840Y-113328000D01*
X37097436Y-113563407D01*
X37124083Y-113662853D01*
X37158597Y-113791663D01*
X37258465Y-114005830D01*
X37394005Y-114199401D01*
X37561099Y-114366495D01*
X37746660Y-114496426D01*
X37790283Y-114551002D01*
X37797476Y-114620501D01*
X37765954Y-114682855D01*
X37746658Y-114699575D01*
X37581358Y-114815320D01*
X37561095Y-114829508D01*
X37394005Y-114996598D01*
X37258465Y-115190170D01*
X37158597Y-115404336D01*
X37097436Y-115632592D01*
X37076840Y-115868000D01*
X37097436Y-116103407D01*
X37136928Y-116250793D01*
X37158597Y-116331663D01*
X37258465Y-116545830D01*
X37394005Y-116739401D01*
X37561099Y-116906495D01*
X37746660Y-117036426D01*
X37790283Y-117091002D01*
X37797476Y-117160501D01*
X37765954Y-117222855D01*
X37746659Y-117239575D01*
X37561095Y-117369508D01*
X37394005Y-117536598D01*
X37258465Y-117730170D01*
X37158597Y-117944336D01*
X37097436Y-118172592D01*
X37076840Y-118408000D01*
X36532500Y-118408000D01*
X36532500Y-91815764D01*
X46743287Y-91815764D01*
X46772913Y-92085016D01*
X46772914Y-92085018D01*
X46832022Y-92311111D01*
X46841428Y-92347087D01*
X46947371Y-92596392D01*
X47088482Y-92827611D01*
X47177753Y-92934881D01*
X47261755Y-93035820D01*
X47463498Y-93216582D01*
X47689410Y-93366044D01*
X47795711Y-93415876D01*
X47934677Y-93481021D01*
X48194062Y-93559058D01*
X48194069Y-93559060D01*
X48462061Y-93598500D01*
X48462064Y-93598500D01*
X48662869Y-93598500D01*
X48665131Y-93598500D01*
X48867656Y-93583677D01*
X49132053Y-93524780D01*
X49385058Y-93428014D01*
X49621277Y-93295441D01*
X49835677Y-93129888D01*
X50023686Y-92934881D01*
X50181299Y-92714579D01*
X50305156Y-92473675D01*
X50392618Y-92217305D01*
X50441819Y-91950933D01*
X50446759Y-91815764D01*
X135643287Y-91815764D01*
X135672913Y-92085016D01*
X135672914Y-92085018D01*
X135732022Y-92311111D01*
X135741428Y-92347087D01*
X135847371Y-92596392D01*
X135988482Y-92827611D01*
X136077753Y-92934881D01*
X136161755Y-93035820D01*
X136363498Y-93216582D01*
X136589410Y-93366044D01*
X136695711Y-93415876D01*
X136834677Y-93481021D01*
X137094062Y-93559058D01*
X137094069Y-93559060D01*
X137362061Y-93598500D01*
X137362064Y-93598500D01*
X137562869Y-93598500D01*
X137565131Y-93598500D01*
X137767656Y-93583677D01*
X138032053Y-93524780D01*
X138285058Y-93428014D01*
X138521277Y-93295441D01*
X138735677Y-93129888D01*
X138923686Y-92934881D01*
X139081299Y-92714579D01*
X139205156Y-92473675D01*
X139292618Y-92217305D01*
X139341819Y-91950933D01*
X139346759Y-91815764D01*
X224543287Y-91815764D01*
X224572913Y-92085016D01*
X224572914Y-92085018D01*
X224632022Y-92311111D01*
X224641428Y-92347087D01*
X224747371Y-92596392D01*
X224888482Y-92827611D01*
X224977753Y-92934881D01*
X225061755Y-93035820D01*
X225263498Y-93216582D01*
X225489410Y-93366044D01*
X225595711Y-93415876D01*
X225734677Y-93481021D01*
X225994062Y-93559058D01*
X225994069Y-93559060D01*
X226262061Y-93598500D01*
X226262064Y-93598500D01*
X226462869Y-93598500D01*
X226465131Y-93598500D01*
X226667656Y-93583677D01*
X226932053Y-93524780D01*
X227185058Y-93428014D01*
X227421277Y-93295441D01*
X227444488Y-93277518D01*
X235207500Y-93277518D01*
X235207854Y-93284132D01*
X235213900Y-93340371D01*
X235264147Y-93475089D01*
X235350311Y-93590188D01*
X235465410Y-93676352D01*
X235600128Y-93726599D01*
X235656367Y-93732645D01*
X235662982Y-93733000D01*
X236307499Y-93733000D01*
X236307499Y-92818501D01*
X236415185Y-92867680D01*
X236521737Y-92883000D01*
X236593263Y-92883000D01*
X236699815Y-92867680D01*
X236807499Y-92818501D01*
X236807499Y-93732999D01*
X236807500Y-93733000D01*
X237452018Y-93733000D01*
X237458632Y-93732645D01*
X237514871Y-93726599D01*
X237649589Y-93676352D01*
X237764688Y-93590188D01*
X237850852Y-93475089D01*
X237901099Y-93340371D01*
X237907145Y-93284132D01*
X237907500Y-93277518D01*
X237907500Y-92633000D01*
X236991186Y-92633000D01*
X237016993Y-92592844D01*
X237057500Y-92454889D01*
X237057500Y-92311111D01*
X237016993Y-92173156D01*
X236991186Y-92133000D01*
X237907499Y-92133000D01*
X237907500Y-91488481D01*
X237907145Y-91481867D01*
X237901099Y-91425628D01*
X237850852Y-91290910D01*
X237764688Y-91175811D01*
X237649589Y-91089647D01*
X237514871Y-91039400D01*
X237458632Y-91033354D01*
X237452018Y-91033000D01*
X236807500Y-91033000D01*
X236807499Y-91947498D01*
X236699815Y-91898320D01*
X236593263Y-91883000D01*
X236521737Y-91883000D01*
X236415185Y-91898320D01*
X236307499Y-91947498D01*
X236307500Y-91033000D01*
X235662982Y-91033000D01*
X235656367Y-91033354D01*
X235600128Y-91039400D01*
X235465410Y-91089647D01*
X235350311Y-91175811D01*
X235264147Y-91290910D01*
X235213900Y-91425628D01*
X235207854Y-91481867D01*
X235207500Y-91488481D01*
X235207500Y-92133000D01*
X236123814Y-92133000D01*
X236098007Y-92173156D01*
X236057500Y-92311111D01*
X236057500Y-92454889D01*
X236098007Y-92592844D01*
X236123814Y-92633000D01*
X235207500Y-92633000D01*
X235207500Y-93277518D01*
X227444488Y-93277518D01*
X227635677Y-93129888D01*
X227823686Y-92934881D01*
X227981299Y-92714579D01*
X228105156Y-92473675D01*
X228192618Y-92217305D01*
X228241819Y-91950933D01*
X228251712Y-91680235D01*
X228222086Y-91410982D01*
X228153572Y-91148912D01*
X228047630Y-90899610D01*
X227906518Y-90668390D01*
X227906517Y-90668388D01*
X227733246Y-90460181D01*
X227628259Y-90366112D01*
X227531502Y-90279418D01*
X227305590Y-90129956D01*
X227305586Y-90129954D01*
X227060322Y-90014978D01*
X226800937Y-89936941D01*
X226800931Y-89936940D01*
X226532939Y-89897500D01*
X226329869Y-89897500D01*
X226327620Y-89897664D01*
X226327609Y-89897665D01*
X226127343Y-89912322D01*
X225862949Y-89971219D01*
X225609941Y-90067986D01*
X225373723Y-90200559D01*
X225159325Y-90366109D01*
X224971313Y-90561120D01*
X224813701Y-90781420D01*
X224689842Y-91022329D01*
X224602381Y-91278695D01*
X224553180Y-91545066D01*
X224543287Y-91815764D01*
X139346759Y-91815764D01*
X139351712Y-91680235D01*
X139322086Y-91410982D01*
X139253572Y-91148912D01*
X139147630Y-90899610D01*
X139006518Y-90668390D01*
X139006517Y-90668388D01*
X138833246Y-90460181D01*
X138728259Y-90366112D01*
X138631502Y-90279418D01*
X138405590Y-90129956D01*
X138405586Y-90129954D01*
X138160322Y-90014978D01*
X137900937Y-89936941D01*
X137900931Y-89936940D01*
X137632939Y-89897500D01*
X137429869Y-89897500D01*
X137427620Y-89897664D01*
X137427609Y-89897665D01*
X137227343Y-89912322D01*
X136962949Y-89971219D01*
X136709941Y-90067986D01*
X136473723Y-90200559D01*
X136259325Y-90366109D01*
X136071313Y-90561120D01*
X135913701Y-90781420D01*
X135789842Y-91022329D01*
X135702381Y-91278695D01*
X135653180Y-91545066D01*
X135643287Y-91815764D01*
X50446759Y-91815764D01*
X50451712Y-91680235D01*
X50422086Y-91410982D01*
X50353572Y-91148912D01*
X50247630Y-90899610D01*
X50106518Y-90668390D01*
X50106517Y-90668388D01*
X49933246Y-90460181D01*
X49828259Y-90366112D01*
X49731502Y-90279418D01*
X49505590Y-90129956D01*
X49505586Y-90129954D01*
X49260322Y-90014978D01*
X49000937Y-89936941D01*
X49000931Y-89936940D01*
X48732939Y-89897500D01*
X48529869Y-89897500D01*
X48527620Y-89897664D01*
X48527609Y-89897665D01*
X48327343Y-89912322D01*
X48062949Y-89971219D01*
X47809941Y-90067986D01*
X47573723Y-90200559D01*
X47359325Y-90366109D01*
X47171313Y-90561120D01*
X47013701Y-90781420D01*
X46889842Y-91022329D01*
X46802381Y-91278695D01*
X46753180Y-91545066D01*
X46743287Y-91815764D01*
X36532500Y-91815764D01*
X36532500Y-89332000D01*
X36552185Y-89264961D01*
X36604989Y-89219206D01*
X36656500Y-89208000D01*
X238338500Y-89208000D01*
X238405539Y-89227685D01*
G37*
%TD.AperFunction*%
%TD*%
M02*
