%TF.GenerationSoftware,KiCad,Pcbnew,7.0.2*%
%TF.CreationDate,2024-06-24T19:43:42-07:00*%
%TF.ProjectId,Score-Board-LinInd,53636f72-652d-4426-9f61-72642d4c696e,1*%
%TF.SameCoordinates,Original*%
%TF.FileFunction,Copper,L2,Bot*%
%TF.FilePolarity,Positive*%
%FSLAX46Y46*%
G04 Gerber Fmt 4.6, Leading zero omitted, Abs format (unit mm)*
G04 Created by KiCad (PCBNEW 7.0.2) date 2024-06-24 19:43:42*
%MOMM*%
%LPD*%
G01*
G04 APERTURE LIST*
%ADD10C,0.152400*%
%TA.AperFunction,NonConductor*%
%ADD11C,0.152400*%
%TD*%
%TA.AperFunction,ComponentPad*%
%ADD12C,1.600000*%
%TD*%
%TA.AperFunction,ComponentPad*%
%ADD13O,1.600000X1.600000*%
%TD*%
%TA.AperFunction,ComponentPad*%
%ADD14R,1.800000X1.800000*%
%TD*%
%TA.AperFunction,ComponentPad*%
%ADD15C,1.800000*%
%TD*%
%TA.AperFunction,ComponentPad*%
%ADD16R,1.700000X1.700000*%
%TD*%
%TA.AperFunction,ComponentPad*%
%ADD17O,1.700000X1.700000*%
%TD*%
%TA.AperFunction,ViaPad*%
%ADD18C,1.270000*%
%TD*%
%TA.AperFunction,ViaPad*%
%ADD19C,1.016000*%
%TD*%
%TA.AperFunction,Conductor*%
%ADD20C,0.381000*%
%TD*%
%TA.AperFunction,Conductor*%
%ADD21C,0.889000*%
%TD*%
G04 APERTURE END LIST*
D10*
D11*
X82693976Y-91199360D02*
X82548833Y-91247740D01*
X82548833Y-91247740D02*
X82306928Y-91247740D01*
X82306928Y-91247740D02*
X82210166Y-91199360D01*
X82210166Y-91199360D02*
X82161785Y-91150979D01*
X82161785Y-91150979D02*
X82113404Y-91054217D01*
X82113404Y-91054217D02*
X82113404Y-90957455D01*
X82113404Y-90957455D02*
X82161785Y-90860693D01*
X82161785Y-90860693D02*
X82210166Y-90812312D01*
X82210166Y-90812312D02*
X82306928Y-90763931D01*
X82306928Y-90763931D02*
X82500452Y-90715550D01*
X82500452Y-90715550D02*
X82597214Y-90667169D01*
X82597214Y-90667169D02*
X82645595Y-90618788D01*
X82645595Y-90618788D02*
X82693976Y-90522026D01*
X82693976Y-90522026D02*
X82693976Y-90425264D01*
X82693976Y-90425264D02*
X82645595Y-90328502D01*
X82645595Y-90328502D02*
X82597214Y-90280121D01*
X82597214Y-90280121D02*
X82500452Y-90231740D01*
X82500452Y-90231740D02*
X82258547Y-90231740D01*
X82258547Y-90231740D02*
X82113404Y-90280121D01*
X81242547Y-91199360D02*
X81339309Y-91247740D01*
X81339309Y-91247740D02*
X81532833Y-91247740D01*
X81532833Y-91247740D02*
X81629595Y-91199360D01*
X81629595Y-91199360D02*
X81677976Y-91150979D01*
X81677976Y-91150979D02*
X81726357Y-91054217D01*
X81726357Y-91054217D02*
X81726357Y-90763931D01*
X81726357Y-90763931D02*
X81677976Y-90667169D01*
X81677976Y-90667169D02*
X81629595Y-90618788D01*
X81629595Y-90618788D02*
X81532833Y-90570407D01*
X81532833Y-90570407D02*
X81339309Y-90570407D01*
X81339309Y-90570407D02*
X81242547Y-90618788D01*
X80661976Y-91247740D02*
X80758738Y-91199360D01*
X80758738Y-91199360D02*
X80807119Y-91150979D01*
X80807119Y-91150979D02*
X80855500Y-91054217D01*
X80855500Y-91054217D02*
X80855500Y-90763931D01*
X80855500Y-90763931D02*
X80807119Y-90667169D01*
X80807119Y-90667169D02*
X80758738Y-90618788D01*
X80758738Y-90618788D02*
X80661976Y-90570407D01*
X80661976Y-90570407D02*
X80516833Y-90570407D01*
X80516833Y-90570407D02*
X80420071Y-90618788D01*
X80420071Y-90618788D02*
X80371690Y-90667169D01*
X80371690Y-90667169D02*
X80323309Y-90763931D01*
X80323309Y-90763931D02*
X80323309Y-91054217D01*
X80323309Y-91054217D02*
X80371690Y-91150979D01*
X80371690Y-91150979D02*
X80420071Y-91199360D01*
X80420071Y-91199360D02*
X80516833Y-91247740D01*
X80516833Y-91247740D02*
X80661976Y-91247740D01*
X79887881Y-91247740D02*
X79887881Y-90570407D01*
X79887881Y-90763931D02*
X79839500Y-90667169D01*
X79839500Y-90667169D02*
X79791119Y-90618788D01*
X79791119Y-90618788D02*
X79694357Y-90570407D01*
X79694357Y-90570407D02*
X79597595Y-90570407D01*
X78871881Y-91199360D02*
X78968643Y-91247740D01*
X78968643Y-91247740D02*
X79162167Y-91247740D01*
X79162167Y-91247740D02*
X79258929Y-91199360D01*
X79258929Y-91199360D02*
X79307310Y-91102598D01*
X79307310Y-91102598D02*
X79307310Y-90715550D01*
X79307310Y-90715550D02*
X79258929Y-90618788D01*
X79258929Y-90618788D02*
X79162167Y-90570407D01*
X79162167Y-90570407D02*
X78968643Y-90570407D01*
X78968643Y-90570407D02*
X78871881Y-90618788D01*
X78871881Y-90618788D02*
X78823500Y-90715550D01*
X78823500Y-90715550D02*
X78823500Y-90812312D01*
X78823500Y-90812312D02*
X79307310Y-90909074D01*
X78388072Y-91247740D02*
X78388072Y-90231740D01*
X78388072Y-90618788D02*
X78291310Y-90570407D01*
X78291310Y-90570407D02*
X78097786Y-90570407D01*
X78097786Y-90570407D02*
X78001024Y-90618788D01*
X78001024Y-90618788D02*
X77952643Y-90667169D01*
X77952643Y-90667169D02*
X77904262Y-90763931D01*
X77904262Y-90763931D02*
X77904262Y-91054217D01*
X77904262Y-91054217D02*
X77952643Y-91150979D01*
X77952643Y-91150979D02*
X78001024Y-91199360D01*
X78001024Y-91199360D02*
X78097786Y-91247740D01*
X78097786Y-91247740D02*
X78291310Y-91247740D01*
X78291310Y-91247740D02*
X78388072Y-91199360D01*
X77323691Y-91247740D02*
X77420453Y-91199360D01*
X77420453Y-91199360D02*
X77468834Y-91150979D01*
X77468834Y-91150979D02*
X77517215Y-91054217D01*
X77517215Y-91054217D02*
X77517215Y-90763931D01*
X77517215Y-90763931D02*
X77468834Y-90667169D01*
X77468834Y-90667169D02*
X77420453Y-90618788D01*
X77420453Y-90618788D02*
X77323691Y-90570407D01*
X77323691Y-90570407D02*
X77178548Y-90570407D01*
X77178548Y-90570407D02*
X77081786Y-90618788D01*
X77081786Y-90618788D02*
X77033405Y-90667169D01*
X77033405Y-90667169D02*
X76985024Y-90763931D01*
X76985024Y-90763931D02*
X76985024Y-91054217D01*
X76985024Y-91054217D02*
X77033405Y-91150979D01*
X77033405Y-91150979D02*
X77081786Y-91199360D01*
X77081786Y-91199360D02*
X77178548Y-91247740D01*
X77178548Y-91247740D02*
X77323691Y-91247740D01*
X76114167Y-91247740D02*
X76114167Y-90715550D01*
X76114167Y-90715550D02*
X76162548Y-90618788D01*
X76162548Y-90618788D02*
X76259310Y-90570407D01*
X76259310Y-90570407D02*
X76452834Y-90570407D01*
X76452834Y-90570407D02*
X76549596Y-90618788D01*
X76114167Y-91199360D02*
X76210929Y-91247740D01*
X76210929Y-91247740D02*
X76452834Y-91247740D01*
X76452834Y-91247740D02*
X76549596Y-91199360D01*
X76549596Y-91199360D02*
X76597977Y-91102598D01*
X76597977Y-91102598D02*
X76597977Y-91005836D01*
X76597977Y-91005836D02*
X76549596Y-90909074D01*
X76549596Y-90909074D02*
X76452834Y-90860693D01*
X76452834Y-90860693D02*
X76210929Y-90860693D01*
X76210929Y-90860693D02*
X76114167Y-90812312D01*
X75630358Y-91247740D02*
X75630358Y-90570407D01*
X75630358Y-90763931D02*
X75581977Y-90667169D01*
X75581977Y-90667169D02*
X75533596Y-90618788D01*
X75533596Y-90618788D02*
X75436834Y-90570407D01*
X75436834Y-90570407D02*
X75340072Y-90570407D01*
X74565977Y-91247740D02*
X74565977Y-90231740D01*
X74565977Y-91199360D02*
X74662739Y-91247740D01*
X74662739Y-91247740D02*
X74856263Y-91247740D01*
X74856263Y-91247740D02*
X74953025Y-91199360D01*
X74953025Y-91199360D02*
X75001406Y-91150979D01*
X75001406Y-91150979D02*
X75049787Y-91054217D01*
X75049787Y-91054217D02*
X75049787Y-90763931D01*
X75049787Y-90763931D02*
X75001406Y-90667169D01*
X75001406Y-90667169D02*
X74953025Y-90618788D01*
X74953025Y-90618788D02*
X74856263Y-90570407D01*
X74856263Y-90570407D02*
X74662739Y-90570407D01*
X74662739Y-90570407D02*
X74565977Y-90618788D01*
X73308073Y-90860693D02*
X72533978Y-90860693D01*
X70792263Y-91247740D02*
X71276073Y-91247740D01*
X71276073Y-91247740D02*
X71276073Y-90231740D01*
X70453597Y-91247740D02*
X70453597Y-90570407D01*
X70453597Y-90231740D02*
X70501978Y-90280121D01*
X70501978Y-90280121D02*
X70453597Y-90328502D01*
X70453597Y-90328502D02*
X70405216Y-90280121D01*
X70405216Y-90280121D02*
X70453597Y-90231740D01*
X70453597Y-90231740D02*
X70453597Y-90328502D01*
X69969787Y-90570407D02*
X69969787Y-91247740D01*
X69969787Y-90667169D02*
X69921406Y-90618788D01*
X69921406Y-90618788D02*
X69824644Y-90570407D01*
X69824644Y-90570407D02*
X69679501Y-90570407D01*
X69679501Y-90570407D02*
X69582739Y-90618788D01*
X69582739Y-90618788D02*
X69534358Y-90715550D01*
X69534358Y-90715550D02*
X69534358Y-91247740D01*
X68663501Y-91199360D02*
X68760263Y-91247740D01*
X68760263Y-91247740D02*
X68953787Y-91247740D01*
X68953787Y-91247740D02*
X69050549Y-91199360D01*
X69050549Y-91199360D02*
X69098930Y-91102598D01*
X69098930Y-91102598D02*
X69098930Y-90715550D01*
X69098930Y-90715550D02*
X69050549Y-90618788D01*
X69050549Y-90618788D02*
X68953787Y-90570407D01*
X68953787Y-90570407D02*
X68760263Y-90570407D01*
X68760263Y-90570407D02*
X68663501Y-90618788D01*
X68663501Y-90618788D02*
X68615120Y-90715550D01*
X68615120Y-90715550D02*
X68615120Y-90812312D01*
X68615120Y-90812312D02*
X69098930Y-90909074D01*
X67744263Y-91247740D02*
X67744263Y-90715550D01*
X67744263Y-90715550D02*
X67792644Y-90618788D01*
X67792644Y-90618788D02*
X67889406Y-90570407D01*
X67889406Y-90570407D02*
X68082930Y-90570407D01*
X68082930Y-90570407D02*
X68179692Y-90618788D01*
X67744263Y-91199360D02*
X67841025Y-91247740D01*
X67841025Y-91247740D02*
X68082930Y-91247740D01*
X68082930Y-91247740D02*
X68179692Y-91199360D01*
X68179692Y-91199360D02*
X68228073Y-91102598D01*
X68228073Y-91102598D02*
X68228073Y-91005836D01*
X68228073Y-91005836D02*
X68179692Y-90909074D01*
X68179692Y-90909074D02*
X68082930Y-90860693D01*
X68082930Y-90860693D02*
X67841025Y-90860693D01*
X67841025Y-90860693D02*
X67744263Y-90812312D01*
X67260454Y-91247740D02*
X67260454Y-90570407D01*
X67260454Y-90763931D02*
X67212073Y-90667169D01*
X67212073Y-90667169D02*
X67163692Y-90618788D01*
X67163692Y-90618788D02*
X67066930Y-90570407D01*
X67066930Y-90570407D02*
X66970168Y-90570407D01*
X65857407Y-91247740D02*
X65857407Y-90231740D01*
X65373597Y-90570407D02*
X65373597Y-91247740D01*
X65373597Y-90667169D02*
X65325216Y-90618788D01*
X65325216Y-90618788D02*
X65228454Y-90570407D01*
X65228454Y-90570407D02*
X65083311Y-90570407D01*
X65083311Y-90570407D02*
X64986549Y-90618788D01*
X64986549Y-90618788D02*
X64938168Y-90715550D01*
X64938168Y-90715550D02*
X64938168Y-91247740D01*
X64018930Y-91247740D02*
X64018930Y-90231740D01*
X64018930Y-91199360D02*
X64115692Y-91247740D01*
X64115692Y-91247740D02*
X64309216Y-91247740D01*
X64309216Y-91247740D02*
X64405978Y-91199360D01*
X64405978Y-91199360D02*
X64454359Y-91150979D01*
X64454359Y-91150979D02*
X64502740Y-91054217D01*
X64502740Y-91054217D02*
X64502740Y-90763931D01*
X64502740Y-90763931D02*
X64454359Y-90667169D01*
X64454359Y-90667169D02*
X64405978Y-90618788D01*
X64405978Y-90618788D02*
X64309216Y-90570407D01*
X64309216Y-90570407D02*
X64115692Y-90570407D01*
X64115692Y-90570407D02*
X64018930Y-90618788D01*
X63535121Y-91247740D02*
X63535121Y-90570407D01*
X63535121Y-90231740D02*
X63583502Y-90280121D01*
X63583502Y-90280121D02*
X63535121Y-90328502D01*
X63535121Y-90328502D02*
X63486740Y-90280121D01*
X63486740Y-90280121D02*
X63535121Y-90231740D01*
X63535121Y-90231740D02*
X63535121Y-90328502D01*
X62615882Y-91199360D02*
X62712644Y-91247740D01*
X62712644Y-91247740D02*
X62906168Y-91247740D01*
X62906168Y-91247740D02*
X63002930Y-91199360D01*
X63002930Y-91199360D02*
X63051311Y-91150979D01*
X63051311Y-91150979D02*
X63099692Y-91054217D01*
X63099692Y-91054217D02*
X63099692Y-90763931D01*
X63099692Y-90763931D02*
X63051311Y-90667169D01*
X63051311Y-90667169D02*
X63002930Y-90618788D01*
X63002930Y-90618788D02*
X62906168Y-90570407D01*
X62906168Y-90570407D02*
X62712644Y-90570407D01*
X62712644Y-90570407D02*
X62615882Y-90618788D01*
X61745025Y-91247740D02*
X61745025Y-90715550D01*
X61745025Y-90715550D02*
X61793406Y-90618788D01*
X61793406Y-90618788D02*
X61890168Y-90570407D01*
X61890168Y-90570407D02*
X62083692Y-90570407D01*
X62083692Y-90570407D02*
X62180454Y-90618788D01*
X61745025Y-91199360D02*
X61841787Y-91247740D01*
X61841787Y-91247740D02*
X62083692Y-91247740D01*
X62083692Y-91247740D02*
X62180454Y-91199360D01*
X62180454Y-91199360D02*
X62228835Y-91102598D01*
X62228835Y-91102598D02*
X62228835Y-91005836D01*
X62228835Y-91005836D02*
X62180454Y-90909074D01*
X62180454Y-90909074D02*
X62083692Y-90860693D01*
X62083692Y-90860693D02*
X61841787Y-90860693D01*
X61841787Y-90860693D02*
X61745025Y-90812312D01*
X61406359Y-90570407D02*
X61019311Y-90570407D01*
X61261216Y-90231740D02*
X61261216Y-91102598D01*
X61261216Y-91102598D02*
X61212835Y-91199360D01*
X61212835Y-91199360D02*
X61116073Y-91247740D01*
X61116073Y-91247740D02*
X61019311Y-91247740D01*
X60535502Y-91247740D02*
X60632264Y-91199360D01*
X60632264Y-91199360D02*
X60680645Y-91150979D01*
X60680645Y-91150979D02*
X60729026Y-91054217D01*
X60729026Y-91054217D02*
X60729026Y-90763931D01*
X60729026Y-90763931D02*
X60680645Y-90667169D01*
X60680645Y-90667169D02*
X60632264Y-90618788D01*
X60632264Y-90618788D02*
X60535502Y-90570407D01*
X60535502Y-90570407D02*
X60390359Y-90570407D01*
X60390359Y-90570407D02*
X60293597Y-90618788D01*
X60293597Y-90618788D02*
X60245216Y-90667169D01*
X60245216Y-90667169D02*
X60196835Y-90763931D01*
X60196835Y-90763931D02*
X60196835Y-91054217D01*
X60196835Y-91054217D02*
X60245216Y-91150979D01*
X60245216Y-91150979D02*
X60293597Y-91199360D01*
X60293597Y-91199360D02*
X60390359Y-91247740D01*
X60390359Y-91247740D02*
X60535502Y-91247740D01*
X59761407Y-91247740D02*
X59761407Y-90570407D01*
X59761407Y-90763931D02*
X59713026Y-90667169D01*
X59713026Y-90667169D02*
X59664645Y-90618788D01*
X59664645Y-90618788D02*
X59567883Y-90570407D01*
X59567883Y-90570407D02*
X59471121Y-90570407D01*
X59180836Y-91199360D02*
X59084074Y-91247740D01*
X59084074Y-91247740D02*
X58890550Y-91247740D01*
X58890550Y-91247740D02*
X58793788Y-91199360D01*
X58793788Y-91199360D02*
X58745407Y-91102598D01*
X58745407Y-91102598D02*
X58745407Y-91054217D01*
X58745407Y-91054217D02*
X58793788Y-90957455D01*
X58793788Y-90957455D02*
X58890550Y-90909074D01*
X58890550Y-90909074D02*
X59035693Y-90909074D01*
X59035693Y-90909074D02*
X59132455Y-90860693D01*
X59132455Y-90860693D02*
X59180836Y-90763931D01*
X59180836Y-90763931D02*
X59180836Y-90715550D01*
X59180836Y-90715550D02*
X59132455Y-90618788D01*
X59132455Y-90618788D02*
X59035693Y-90570407D01*
X59035693Y-90570407D02*
X58890550Y-90570407D01*
X58890550Y-90570407D02*
X58793788Y-90618788D01*
X57681027Y-90231740D02*
X57342360Y-91247740D01*
X57342360Y-91247740D02*
X57003693Y-90231740D01*
X56132836Y-91247740D02*
X56713408Y-91247740D01*
X56423122Y-91247740D02*
X56423122Y-90231740D01*
X56423122Y-90231740D02*
X56519884Y-90376883D01*
X56519884Y-90376883D02*
X56616646Y-90473645D01*
X56616646Y-90473645D02*
X56713408Y-90522026D01*
X55697408Y-91150979D02*
X55649027Y-91199360D01*
X55649027Y-91199360D02*
X55697408Y-91247740D01*
X55697408Y-91247740D02*
X55745789Y-91199360D01*
X55745789Y-91199360D02*
X55697408Y-91150979D01*
X55697408Y-91150979D02*
X55697408Y-91247740D01*
X55020074Y-90231740D02*
X54923312Y-90231740D01*
X54923312Y-90231740D02*
X54826550Y-90280121D01*
X54826550Y-90280121D02*
X54778169Y-90328502D01*
X54778169Y-90328502D02*
X54729788Y-90425264D01*
X54729788Y-90425264D02*
X54681407Y-90618788D01*
X54681407Y-90618788D02*
X54681407Y-90860693D01*
X54681407Y-90860693D02*
X54729788Y-91054217D01*
X54729788Y-91054217D02*
X54778169Y-91150979D01*
X54778169Y-91150979D02*
X54826550Y-91199360D01*
X54826550Y-91199360D02*
X54923312Y-91247740D01*
X54923312Y-91247740D02*
X55020074Y-91247740D01*
X55020074Y-91247740D02*
X55116836Y-91199360D01*
X55116836Y-91199360D02*
X55165217Y-91150979D01*
X55165217Y-91150979D02*
X55213598Y-91054217D01*
X55213598Y-91054217D02*
X55261979Y-90860693D01*
X55261979Y-90860693D02*
X55261979Y-90618788D01*
X55261979Y-90618788D02*
X55213598Y-90425264D01*
X55213598Y-90425264D02*
X55165217Y-90328502D01*
X55165217Y-90328502D02*
X55116836Y-90280121D01*
X55116836Y-90280121D02*
X55020074Y-90231740D01*
X82065023Y-92796899D02*
X82113404Y-92845280D01*
X82113404Y-92845280D02*
X82258547Y-92893660D01*
X82258547Y-92893660D02*
X82355309Y-92893660D01*
X82355309Y-92893660D02*
X82500452Y-92845280D01*
X82500452Y-92845280D02*
X82597214Y-92748518D01*
X82597214Y-92748518D02*
X82645595Y-92651756D01*
X82645595Y-92651756D02*
X82693976Y-92458232D01*
X82693976Y-92458232D02*
X82693976Y-92313089D01*
X82693976Y-92313089D02*
X82645595Y-92119565D01*
X82645595Y-92119565D02*
X82597214Y-92022803D01*
X82597214Y-92022803D02*
X82500452Y-91926041D01*
X82500452Y-91926041D02*
X82355309Y-91877660D01*
X82355309Y-91877660D02*
X82258547Y-91877660D01*
X82258547Y-91877660D02*
X82113404Y-91926041D01*
X82113404Y-91926041D02*
X82065023Y-91974422D01*
X81484452Y-92893660D02*
X81581214Y-92845280D01*
X81581214Y-92845280D02*
X81629595Y-92796899D01*
X81629595Y-92796899D02*
X81677976Y-92700137D01*
X81677976Y-92700137D02*
X81677976Y-92409851D01*
X81677976Y-92409851D02*
X81629595Y-92313089D01*
X81629595Y-92313089D02*
X81581214Y-92264708D01*
X81581214Y-92264708D02*
X81484452Y-92216327D01*
X81484452Y-92216327D02*
X81339309Y-92216327D01*
X81339309Y-92216327D02*
X81242547Y-92264708D01*
X81242547Y-92264708D02*
X81194166Y-92313089D01*
X81194166Y-92313089D02*
X81145785Y-92409851D01*
X81145785Y-92409851D02*
X81145785Y-92700137D01*
X81145785Y-92700137D02*
X81194166Y-92796899D01*
X81194166Y-92796899D02*
X81242547Y-92845280D01*
X81242547Y-92845280D02*
X81339309Y-92893660D01*
X81339309Y-92893660D02*
X81484452Y-92893660D01*
X80710357Y-92216327D02*
X80710357Y-93232327D01*
X80710357Y-92264708D02*
X80613595Y-92216327D01*
X80613595Y-92216327D02*
X80420071Y-92216327D01*
X80420071Y-92216327D02*
X80323309Y-92264708D01*
X80323309Y-92264708D02*
X80274928Y-92313089D01*
X80274928Y-92313089D02*
X80226547Y-92409851D01*
X80226547Y-92409851D02*
X80226547Y-92700137D01*
X80226547Y-92700137D02*
X80274928Y-92796899D01*
X80274928Y-92796899D02*
X80323309Y-92845280D01*
X80323309Y-92845280D02*
X80420071Y-92893660D01*
X80420071Y-92893660D02*
X80613595Y-92893660D01*
X80613595Y-92893660D02*
X80710357Y-92845280D01*
X79887881Y-92216327D02*
X79645976Y-92893660D01*
X79404071Y-92216327D02*
X79645976Y-92893660D01*
X79645976Y-92893660D02*
X79742738Y-93135565D01*
X79742738Y-93135565D02*
X79791119Y-93183946D01*
X79791119Y-93183946D02*
X79887881Y-93232327D01*
X79017024Y-92893660D02*
X79017024Y-92216327D01*
X79017024Y-92409851D02*
X78968643Y-92313089D01*
X78968643Y-92313089D02*
X78920262Y-92264708D01*
X78920262Y-92264708D02*
X78823500Y-92216327D01*
X78823500Y-92216327D02*
X78726738Y-92216327D01*
X78388072Y-92893660D02*
X78388072Y-92216327D01*
X78388072Y-91877660D02*
X78436453Y-91926041D01*
X78436453Y-91926041D02*
X78388072Y-91974422D01*
X78388072Y-91974422D02*
X78339691Y-91926041D01*
X78339691Y-91926041D02*
X78388072Y-91877660D01*
X78388072Y-91877660D02*
X78388072Y-91974422D01*
X77468833Y-92216327D02*
X77468833Y-93038803D01*
X77468833Y-93038803D02*
X77517214Y-93135565D01*
X77517214Y-93135565D02*
X77565595Y-93183946D01*
X77565595Y-93183946D02*
X77662357Y-93232327D01*
X77662357Y-93232327D02*
X77807500Y-93232327D01*
X77807500Y-93232327D02*
X77904262Y-93183946D01*
X77468833Y-92845280D02*
X77565595Y-92893660D01*
X77565595Y-92893660D02*
X77759119Y-92893660D01*
X77759119Y-92893660D02*
X77855881Y-92845280D01*
X77855881Y-92845280D02*
X77904262Y-92796899D01*
X77904262Y-92796899D02*
X77952643Y-92700137D01*
X77952643Y-92700137D02*
X77952643Y-92409851D01*
X77952643Y-92409851D02*
X77904262Y-92313089D01*
X77904262Y-92313089D02*
X77855881Y-92264708D01*
X77855881Y-92264708D02*
X77759119Y-92216327D01*
X77759119Y-92216327D02*
X77565595Y-92216327D01*
X77565595Y-92216327D02*
X77468833Y-92264708D01*
X76985024Y-92893660D02*
X76985024Y-91877660D01*
X76549595Y-92893660D02*
X76549595Y-92361470D01*
X76549595Y-92361470D02*
X76597976Y-92264708D01*
X76597976Y-92264708D02*
X76694738Y-92216327D01*
X76694738Y-92216327D02*
X76839881Y-92216327D01*
X76839881Y-92216327D02*
X76936643Y-92264708D01*
X76936643Y-92264708D02*
X76985024Y-92313089D01*
X76210929Y-92216327D02*
X75823881Y-92216327D01*
X76065786Y-91877660D02*
X76065786Y-92748518D01*
X76065786Y-92748518D02*
X76017405Y-92845280D01*
X76017405Y-92845280D02*
X75920643Y-92893660D01*
X75920643Y-92893660D02*
X75823881Y-92893660D01*
X74759501Y-92603375D02*
X74275691Y-92603375D01*
X74856263Y-92893660D02*
X74517596Y-91877660D01*
X74517596Y-91877660D02*
X74178929Y-92893660D01*
X73840263Y-92361470D02*
X73501596Y-92361470D01*
X73356453Y-92893660D02*
X73840263Y-92893660D01*
X73840263Y-92893660D02*
X73840263Y-91877660D01*
X73840263Y-91877660D02*
X73356453Y-91877660D01*
X72969406Y-92845280D02*
X72824263Y-92893660D01*
X72824263Y-92893660D02*
X72582358Y-92893660D01*
X72582358Y-92893660D02*
X72485596Y-92845280D01*
X72485596Y-92845280D02*
X72437215Y-92796899D01*
X72437215Y-92796899D02*
X72388834Y-92700137D01*
X72388834Y-92700137D02*
X72388834Y-92603375D01*
X72388834Y-92603375D02*
X72437215Y-92506613D01*
X72437215Y-92506613D02*
X72485596Y-92458232D01*
X72485596Y-92458232D02*
X72582358Y-92409851D01*
X72582358Y-92409851D02*
X72775882Y-92361470D01*
X72775882Y-92361470D02*
X72872644Y-92313089D01*
X72872644Y-92313089D02*
X72921025Y-92264708D01*
X72921025Y-92264708D02*
X72969406Y-92167946D01*
X72969406Y-92167946D02*
X72969406Y-92071184D01*
X72969406Y-92071184D02*
X72921025Y-91974422D01*
X72921025Y-91974422D02*
X72872644Y-91926041D01*
X72872644Y-91926041D02*
X72775882Y-91877660D01*
X72775882Y-91877660D02*
X72533977Y-91877660D01*
X72533977Y-91877660D02*
X72388834Y-91926041D01*
X71953406Y-92893660D02*
X71953406Y-92216327D01*
X71953406Y-91877660D02*
X72001787Y-91926041D01*
X72001787Y-91926041D02*
X71953406Y-91974422D01*
X71953406Y-91974422D02*
X71905025Y-91926041D01*
X71905025Y-91926041D02*
X71953406Y-91877660D01*
X71953406Y-91877660D02*
X71953406Y-91974422D01*
X71324453Y-92893660D02*
X71421215Y-92845280D01*
X71421215Y-92845280D02*
X71469596Y-92748518D01*
X71469596Y-92748518D02*
X71469596Y-91877660D01*
X70937406Y-92893660D02*
X70937406Y-91877660D01*
X70840644Y-92506613D02*
X70550358Y-92893660D01*
X70550358Y-92216327D02*
X70937406Y-92603375D01*
X70211692Y-92216327D02*
X69969787Y-92893660D01*
X69727882Y-92216327D02*
X69969787Y-92893660D01*
X69969787Y-92893660D02*
X70066549Y-93135565D01*
X70066549Y-93135565D02*
X70114930Y-93183946D01*
X70114930Y-93183946D02*
X70211692Y-93232327D01*
X68615121Y-91974422D02*
X68566740Y-91926041D01*
X68566740Y-91926041D02*
X68469978Y-91877660D01*
X68469978Y-91877660D02*
X68228073Y-91877660D01*
X68228073Y-91877660D02*
X68131311Y-91926041D01*
X68131311Y-91926041D02*
X68082930Y-91974422D01*
X68082930Y-91974422D02*
X68034549Y-92071184D01*
X68034549Y-92071184D02*
X68034549Y-92167946D01*
X68034549Y-92167946D02*
X68082930Y-92313089D01*
X68082930Y-92313089D02*
X68663502Y-92893660D01*
X68663502Y-92893660D02*
X68034549Y-92893660D01*
X67405597Y-91877660D02*
X67308835Y-91877660D01*
X67308835Y-91877660D02*
X67212073Y-91926041D01*
X67212073Y-91926041D02*
X67163692Y-91974422D01*
X67163692Y-91974422D02*
X67115311Y-92071184D01*
X67115311Y-92071184D02*
X67066930Y-92264708D01*
X67066930Y-92264708D02*
X67066930Y-92506613D01*
X67066930Y-92506613D02*
X67115311Y-92700137D01*
X67115311Y-92700137D02*
X67163692Y-92796899D01*
X67163692Y-92796899D02*
X67212073Y-92845280D01*
X67212073Y-92845280D02*
X67308835Y-92893660D01*
X67308835Y-92893660D02*
X67405597Y-92893660D01*
X67405597Y-92893660D02*
X67502359Y-92845280D01*
X67502359Y-92845280D02*
X67550740Y-92796899D01*
X67550740Y-92796899D02*
X67599121Y-92700137D01*
X67599121Y-92700137D02*
X67647502Y-92506613D01*
X67647502Y-92506613D02*
X67647502Y-92264708D01*
X67647502Y-92264708D02*
X67599121Y-92071184D01*
X67599121Y-92071184D02*
X67550740Y-91974422D01*
X67550740Y-91974422D02*
X67502359Y-91926041D01*
X67502359Y-91926041D02*
X67405597Y-91877660D01*
X66679883Y-91974422D02*
X66631502Y-91926041D01*
X66631502Y-91926041D02*
X66534740Y-91877660D01*
X66534740Y-91877660D02*
X66292835Y-91877660D01*
X66292835Y-91877660D02*
X66196073Y-91926041D01*
X66196073Y-91926041D02*
X66147692Y-91974422D01*
X66147692Y-91974422D02*
X66099311Y-92071184D01*
X66099311Y-92071184D02*
X66099311Y-92167946D01*
X66099311Y-92167946D02*
X66147692Y-92313089D01*
X66147692Y-92313089D02*
X66728264Y-92893660D01*
X66728264Y-92893660D02*
X66099311Y-92893660D01*
X65228454Y-92216327D02*
X65228454Y-92893660D01*
X65470359Y-91829280D02*
X65712264Y-92554994D01*
X65712264Y-92554994D02*
X65083311Y-92554994D01*
D12*
%TO.P,R8,1*%
%TO.N,/SD.A*%
X227667500Y-122863000D03*
D13*
%TO.P,R8,2*%
%TO.N,/SDA.A*%
X217507500Y-122863000D03*
%TD*%
D12*
%TO.P,R7,1*%
%TO.N,/SD.B*%
X209887500Y-122863000D03*
D13*
%TO.P,R7,2*%
%TO.N,/SDA.B*%
X199727500Y-122863000D03*
%TD*%
D12*
%TO.P,R6,1*%
%TO.N,/SD.C*%
X184487500Y-122863000D03*
D13*
%TO.P,R6,2*%
%TO.N,/SDA.C*%
X174327500Y-122863000D03*
%TD*%
D12*
%TO.P,R5,1*%
%TO.N,/SD.D*%
X159087500Y-122863000D03*
D13*
%TO.P,R5,2*%
%TO.N,/SDA.D*%
X148927500Y-122863000D03*
%TD*%
D12*
%TO.P,R4,1*%
%TO.N,/SD.E*%
X113367500Y-98733000D03*
D13*
%TO.P,R4,2*%
%TO.N,/SDA.E*%
X123527500Y-98733000D03*
%TD*%
D12*
%TO.P,R3,1*%
%TO.N,/SD.F*%
X87967500Y-98733000D03*
D13*
%TO.P,R3,2*%
%TO.N,/SDA.F*%
X98127500Y-98733000D03*
%TD*%
D12*
%TO.P,R2,1*%
%TO.N,/SD.G*%
X62567500Y-98733000D03*
D13*
%TO.P,R2,2*%
%TO.N,/SDA.G*%
X72727500Y-98733000D03*
%TD*%
D12*
%TO.P,R1,1*%
%TO.N,/SD.P*%
X47327500Y-98733000D03*
D13*
%TO.P,R1,2*%
%TO.N,/SDA.P*%
X57487500Y-98733000D03*
%TD*%
D14*
%TO.P,LED8,1,K*%
%TO.N,/SDA.A*%
X225127500Y-110798000D03*
D15*
%TO.P,LED8,2,A*%
%TO.N,Net-(J1-Pin_10)*%
X227667500Y-110798000D03*
%TD*%
D14*
%TO.P,LED7,1,K*%
%TO.N,/SDA.B*%
X199727500Y-110798000D03*
D15*
%TO.P,LED7,2,A*%
%TO.N,Net-(J1-Pin_10)*%
X202267500Y-110798000D03*
%TD*%
D14*
%TO.P,LED6,1,K*%
%TO.N,/SDA.C*%
X174327500Y-110798000D03*
D15*
%TO.P,LED6,2,A*%
%TO.N,Net-(J1-Pin_10)*%
X176867500Y-110798000D03*
%TD*%
D14*
%TO.P,LED5,1,K*%
%TO.N,/SDA.D*%
X148927500Y-110798000D03*
D15*
%TO.P,LED5,2,A*%
%TO.N,Net-(J1-Pin_10)*%
X151467500Y-110798000D03*
%TD*%
D14*
%TO.P,LED4,1,K*%
%TO.N,/SDA.E*%
X123527500Y-110798000D03*
D15*
%TO.P,LED4,2,A*%
%TO.N,Net-(J1-Pin_10)*%
X126067500Y-110798000D03*
%TD*%
D14*
%TO.P,LED3,1,K*%
%TO.N,/SDA.F*%
X98127500Y-110798000D03*
D15*
%TO.P,LED3,2,A*%
%TO.N,Net-(J1-Pin_10)*%
X100667500Y-110798000D03*
%TD*%
D14*
%TO.P,LED2,1,K*%
%TO.N,/SDA.G*%
X72727500Y-110798000D03*
D15*
%TO.P,LED2,2,A*%
%TO.N,Net-(J1-Pin_10)*%
X75267500Y-110798000D03*
%TD*%
D14*
%TO.P,LED1,1,K*%
%TO.N,/SDA.P*%
X47327500Y-110798000D03*
D15*
%TO.P,LED1,2,A*%
%TO.N,Net-(J1-Pin_10)*%
X49867500Y-110798000D03*
%TD*%
D16*
%TO.P,J3,1,Pin_1*%
%TO.N,GND*%
X234012500Y-120948000D03*
D17*
%TO.P,J3,2,Pin_2*%
%TO.N,/DD.A10*%
X236552500Y-120948000D03*
%TO.P,J3,3,Pin_3*%
%TO.N,/SD.A*%
X234012500Y-118408000D03*
%TO.P,J3,4,Pin_4*%
%TO.N,/DD.A01*%
X236552500Y-118408000D03*
%TO.P,J3,5,Pin_5*%
%TO.N,/SD.B*%
X234012500Y-115868000D03*
%TO.P,J3,6,Pin_6*%
%TO.N,/DD.B10*%
X236552500Y-115868000D03*
%TO.P,J3,7,Pin_7*%
%TO.N,/SD.C*%
X234012500Y-113328000D03*
%TO.P,J3,8,Pin_8*%
%TO.N,/DD.B01*%
X236552500Y-113328000D03*
%TO.P,J3,9,Pin_9*%
%TO.N,/SD.D*%
X234012500Y-110788000D03*
%TO.P,J3,10,Pin_10*%
%TO.N,/DD.C10*%
X236552500Y-110788000D03*
%TO.P,J3,11,Pin_11*%
%TO.N,/SD.E*%
X234012500Y-108248000D03*
%TO.P,J3,12,Pin_12*%
%TO.N,/DD.C01*%
X236552500Y-108248000D03*
%TO.P,J3,13,Pin_13*%
%TO.N,/SD.F*%
X234012500Y-105708000D03*
%TO.P,J3,14,Pin_14*%
%TO.N,/DD.IND*%
X236552500Y-105708000D03*
%TO.P,J3,15,Pin_15*%
%TO.N,/SD.G*%
X234012500Y-103168000D03*
%TO.P,J3,16,Pin_16*%
%TO.N,Net-(J2-Pin_16)*%
X236552500Y-103168000D03*
%TO.P,J3,17,Pin_17*%
%TO.N,/SD.P*%
X234012500Y-100628000D03*
%TO.P,J3,18,Pin_18*%
%TO.N,GND*%
X236552500Y-100628000D03*
%TD*%
D16*
%TO.P,J2,1,Pin_1*%
%TO.N,GND*%
X38432500Y-120948000D03*
D17*
%TO.P,J2,2,Pin_2*%
%TO.N,/DD.A10*%
X40972500Y-120948000D03*
%TO.P,J2,3,Pin_3*%
%TO.N,/SD.A*%
X38432500Y-118408000D03*
%TO.P,J2,4,Pin_4*%
%TO.N,/DD.A01*%
X40972500Y-118408000D03*
%TO.P,J2,5,Pin_5*%
%TO.N,/SD.B*%
X38432500Y-115868000D03*
%TO.P,J2,6,Pin_6*%
%TO.N,/DD.B10*%
X40972500Y-115868000D03*
%TO.P,J2,7,Pin_7*%
%TO.N,/SD.C*%
X38432500Y-113328000D03*
%TO.P,J2,8,Pin_8*%
%TO.N,/DD.B01*%
X40972500Y-113328000D03*
%TO.P,J2,9,Pin_9*%
%TO.N,/SD.D*%
X38432500Y-110788000D03*
%TO.P,J2,10,Pin_10*%
%TO.N,/DD.C10*%
X40972500Y-110788000D03*
%TO.P,J2,11,Pin_11*%
%TO.N,/SD.E*%
X38432500Y-108248000D03*
%TO.P,J2,12,Pin_12*%
%TO.N,/DD.C01*%
X40972500Y-108248000D03*
%TO.P,J2,13,Pin_13*%
%TO.N,/SD.F*%
X38432500Y-105708000D03*
%TO.P,J2,14,Pin_14*%
%TO.N,/DD.IND*%
X40972500Y-105708000D03*
%TO.P,J2,15,Pin_15*%
%TO.N,/SD.G*%
X38432500Y-103168000D03*
%TO.P,J2,16,Pin_16*%
%TO.N,Net-(J2-Pin_16)*%
X40972500Y-103168000D03*
%TO.P,J2,17,Pin_17*%
%TO.N,/SD.P*%
X38432500Y-100628000D03*
%TO.P,J2,18,Pin_18*%
%TO.N,GND*%
X40972500Y-100628000D03*
%TD*%
D16*
%TO.P,J1,1,Pin_1*%
%TO.N,/DD.A10*%
X85427500Y-127308000D03*
D17*
%TO.P,J1,2,Pin_2*%
%TO.N,Net-(J1-Pin_10)*%
X85427500Y-124768000D03*
%TO.P,J1,3,Pin_3*%
%TO.N,/DD.A01*%
X87967500Y-127308000D03*
%TO.P,J1,4,Pin_4*%
%TO.N,Net-(J1-Pin_10)*%
X87967500Y-124768000D03*
%TO.P,J1,5,Pin_5*%
%TO.N,/DD.B10*%
X90507500Y-127308000D03*
%TO.P,J1,6,Pin_6*%
%TO.N,Net-(J1-Pin_10)*%
X90507500Y-124768000D03*
%TO.P,J1,7,Pin_7*%
%TO.N,/DD.B01*%
X93047500Y-127308000D03*
%TO.P,J1,8,Pin_8*%
%TO.N,Net-(J1-Pin_10)*%
X93047500Y-124768000D03*
%TO.P,J1,9,Pin_9*%
%TO.N,/DD.C10*%
X95587500Y-127308000D03*
%TO.P,J1,10,Pin_10*%
%TO.N,Net-(J1-Pin_10)*%
X95587500Y-124768000D03*
%TO.P,J1,11,Pin_11*%
%TO.N,/DD.C01*%
X98127500Y-127308000D03*
%TO.P,J1,12,Pin_12*%
%TO.N,Net-(J1-Pin_10)*%
X98127500Y-124768000D03*
%TO.P,J1,13,Pin_13*%
%TO.N,/DD.IND*%
X100667500Y-127308000D03*
%TO.P,J1,14,Pin_14*%
%TO.N,Net-(J1-Pin_10)*%
X100667500Y-124768000D03*
%TO.P,J1,15,Pin_15*%
%TO.N,unconnected-(J1-Pin_15-Pad15)*%
X103207500Y-127308000D03*
%TO.P,J1,16,Pin_16*%
%TO.N,unconnected-(J1-Pin_16-Pad16)*%
X103207500Y-124768000D03*
%TD*%
D16*
%TO.P,GND1,1,Pin_1*%
%TO.N,GND*%
X236557500Y-92383000D03*
%TD*%
D18*
%TO.N,GND*%
X98127500Y-120958000D03*
X98127500Y-118418000D03*
X63837500Y-118418000D03*
X63837500Y-121593000D03*
X63837500Y-115878000D03*
X53042500Y-102543000D03*
X70187500Y-102543000D03*
X79077500Y-102543000D03*
X91777500Y-102543000D03*
X103842500Y-102543000D03*
X120987500Y-102543000D03*
X125432500Y-102543000D03*
X134322500Y-119053000D03*
X138132500Y-119053000D03*
X147657500Y-119053000D03*
X150197500Y-119053000D03*
X173057500Y-119053000D03*
X175597500Y-119053000D03*
X198457500Y-119053000D03*
X200997500Y-119053000D03*
X225127500Y-123498000D03*
X225127500Y-119053000D03*
D19*
X212427500Y-99368000D03*
X212427500Y-95748000D03*
%TO.N,/DD.C01*%
X46057500Y-108258000D03*
%TO.N,/SD.D*%
X143847500Y-113338000D03*
%TO.N,/DD.IND*%
X53677500Y-121593000D03*
X44152500Y-108258000D03*
%TO.N,/SD.A*%
X160992500Y-125340000D03*
%TO.N,/DD.A10*%
X88602500Y-130483000D03*
%TO.N,/DD.C01*%
X230842500Y-117148000D03*
X228937500Y-120323000D03*
%TO.N,/DD.B10*%
X109557500Y-130483000D03*
%TO.N,/DD.B01*%
X103207500Y-122228000D03*
%TO.N,/DD.A01*%
X90507500Y-130038000D03*
%TD*%
D20*
%TO.N,/DD.C01*%
X228937500Y-120323000D02*
X228937500Y-119053000D01*
X228937500Y-119053000D02*
X230842500Y-117148000D01*
%TO.N,/DD.B01*%
X39707500Y-114593000D02*
X40972500Y-113328000D01*
X40488905Y-119575500D02*
X39707500Y-118794095D01*
X39707500Y-118794095D02*
X39707500Y-114593000D01*
X43243160Y-119575500D02*
X40488905Y-119575500D01*
X91142500Y-129213000D02*
X52880660Y-129213000D01*
X93047500Y-127308000D02*
X91142500Y-129213000D01*
X52880660Y-129213000D02*
X43243160Y-119575500D01*
%TO.N,/DD.A01*%
X42794080Y-118408000D02*
X40972500Y-118408000D01*
X53052080Y-128666000D02*
X42794080Y-118408000D01*
X86609500Y-128666000D02*
X53052080Y-128666000D01*
X87967500Y-127308000D02*
X86609500Y-128666000D01*
X235307000Y-119653500D02*
X236552500Y-118408000D01*
X232782000Y-119653500D02*
X235307000Y-119653500D01*
X112311660Y-126292000D02*
X226143500Y-126292000D01*
X111930660Y-126673000D02*
X112311660Y-126292000D01*
X105112500Y-129848000D02*
X108287500Y-126673000D01*
X90697500Y-129848000D02*
X105112500Y-129848000D01*
X108287500Y-126673000D02*
X111930660Y-126673000D01*
X90507500Y-130038000D02*
X90697500Y-129848000D01*
X226143500Y-126292000D02*
X232782000Y-119653500D01*
%TO.N,/SD.D*%
X169247500Y-112703000D02*
X232097500Y-112703000D01*
X232097500Y-112703000D02*
X234012500Y-110788000D01*
X159087500Y-122863000D02*
X169247500Y-112703000D01*
%TO.N,/DD.B01*%
X233528905Y-112160500D02*
X235385000Y-112160500D01*
X157873884Y-125657000D02*
X170192884Y-113338000D01*
X107906500Y-125657000D02*
X157873884Y-125657000D01*
X232351405Y-113338000D02*
X233528905Y-112160500D01*
X104477500Y-122228000D02*
X107906500Y-125657000D01*
X235385000Y-112160500D02*
X236552500Y-113328000D01*
X103207500Y-122228000D02*
X104477500Y-122228000D01*
X170192884Y-113338000D02*
X232351405Y-113338000D01*
%TO.N,/SD.C*%
X233367500Y-113973000D02*
X234012500Y-113328000D01*
X193377500Y-113973000D02*
X233367500Y-113973000D01*
X184487500Y-122863000D02*
X193377500Y-113973000D01*
%TO.N,/SD.F*%
X138561623Y-94288000D02*
X222592500Y-94288000D01*
X138553123Y-94296500D02*
X138561623Y-94288000D01*
X136441877Y-94296500D02*
X138553123Y-94296500D01*
X92412500Y-94288000D02*
X136433377Y-94288000D01*
X222592500Y-94288000D02*
X234012500Y-105708000D01*
X87967500Y-98733000D02*
X92412500Y-94288000D01*
X136433377Y-94288000D02*
X136441877Y-94296500D01*
%TO.N,/SD.G*%
X224497500Y-93653000D02*
X234012500Y-103168000D01*
X138342703Y-93788500D02*
X138478203Y-93653000D01*
X136652297Y-93788500D02*
X138342703Y-93788500D01*
X138478203Y-93653000D02*
X224497500Y-93653000D01*
X67647500Y-93653000D02*
X136516797Y-93653000D01*
X62567500Y-98733000D02*
X67647500Y-93653000D01*
X136516797Y-93653000D02*
X136652297Y-93788500D01*
D21*
%TO.N,GND*%
X98127500Y-118418000D02*
X98127500Y-120958000D01*
X63837500Y-115878000D02*
X63837500Y-121593000D01*
X70187500Y-102543000D02*
X79077500Y-102543000D01*
X53042500Y-102543000D02*
X70187500Y-102543000D01*
D20*
%TO.N,/SD.G*%
X39678000Y-101922500D02*
X38432500Y-103168000D01*
X41508700Y-101922500D02*
X39678000Y-101922500D01*
X60662500Y-100638000D02*
X42793200Y-100638000D01*
X62567500Y-98733000D02*
X60662500Y-100638000D01*
X42793200Y-100638000D02*
X41508700Y-101922500D01*
D21*
%TO.N,GND*%
X103842500Y-102543000D02*
X91777500Y-102543000D01*
X120987500Y-102543000D02*
X125432500Y-102543000D01*
X173057500Y-119053000D02*
X175597500Y-119053000D01*
X147657500Y-119053000D02*
X150197500Y-119053000D01*
X134322500Y-119053000D02*
X138132500Y-119053000D01*
X200997500Y-119053000D02*
X198457500Y-119053000D01*
X225127500Y-119053000D02*
X225127500Y-123498000D01*
D20*
%TO.N,/SD.A*%
X227667500Y-123498000D02*
X227667500Y-122863000D01*
X161436500Y-125784000D02*
X225381500Y-125784000D01*
X160992500Y-125340000D02*
X161436500Y-125784000D01*
X225381500Y-125784000D02*
X227667500Y-123498000D01*
%TO.N,/DD.A10*%
X89237500Y-131118000D02*
X88602500Y-130483000D01*
X104560920Y-131118000D02*
X89237500Y-131118000D01*
X108370920Y-127308000D02*
X104560920Y-131118000D01*
X112014080Y-127308000D02*
X108370920Y-127308000D01*
X230700500Y-126800000D02*
X112522080Y-126800000D01*
X112522080Y-126800000D02*
X112014080Y-127308000D01*
X236552500Y-120948000D02*
X230700500Y-126800000D01*
%TO.N,/DD.B10*%
X237910500Y-117226000D02*
X236552500Y-115868000D01*
X234017500Y-127308000D02*
X237910500Y-123415000D01*
X237910500Y-123415000D02*
X237910500Y-117226000D01*
X112732500Y-127308000D02*
X234017500Y-127308000D01*
X109557500Y-130483000D02*
X112732500Y-127308000D01*
D21*
%TO.N,GND*%
X212427500Y-99368000D02*
X212427500Y-95748000D01*
D20*
%TO.N,Net-(J1-Pin_10)*%
X223910000Y-109580500D02*
X226450000Y-109580500D01*
X222692500Y-110798000D02*
X223910000Y-109580500D01*
X202267500Y-110798000D02*
X222692500Y-110798000D01*
X226450000Y-109580500D02*
X227667500Y-110798000D01*
%TO.N,/DD.C10*%
X101835000Y-113440500D02*
X101835000Y-128045500D01*
X106382500Y-108893000D02*
X101835000Y-113440500D01*
X101835000Y-128045500D02*
X101302500Y-128578000D01*
X233006405Y-108893000D02*
X106382500Y-108893000D01*
X235180000Y-109415500D02*
X233528905Y-109415500D01*
X233528905Y-109415500D02*
X233006405Y-108893000D01*
X96857500Y-128578000D02*
X95587500Y-127308000D01*
X236552500Y-110788000D02*
X235180000Y-109415500D01*
X101302500Y-128578000D02*
X96857500Y-128578000D01*
%TO.N,/DD.C01*%
X96857500Y-126038000D02*
X98127500Y-127308000D01*
X96857500Y-122228000D02*
X96857500Y-126038000D01*
X82887500Y-108258000D02*
X96857500Y-122228000D01*
X46057500Y-108258000D02*
X82887500Y-108258000D01*
%TO.N,/SD.D*%
X149562500Y-113338000D02*
X159087500Y-122863000D01*
X143847500Y-113338000D02*
X149562500Y-113338000D01*
%TO.N,/DD.IND*%
X44152500Y-112068000D02*
X44152500Y-108258000D01*
X53677500Y-121593000D02*
X44152500Y-112068000D01*
%TO.N,/SD.A*%
X228302500Y-122863000D02*
X232757500Y-118408000D01*
X227667500Y-122863000D02*
X228302500Y-122863000D01*
X232757500Y-118408000D02*
X234012500Y-118408000D01*
%TO.N,/SD.E*%
X105225000Y-106875500D02*
X39805000Y-106875500D01*
X113367500Y-98733000D02*
X105225000Y-106875500D01*
X39805000Y-106875500D02*
X38432500Y-108248000D01*
%TO.N,/SD.F*%
X39805000Y-104335500D02*
X38432500Y-105708000D01*
X82365000Y-104335500D02*
X39805000Y-104335500D01*
X87967500Y-98733000D02*
X82365000Y-104335500D01*
%TO.N,/DD.C10*%
X53047500Y-122863000D02*
X40972500Y-110788000D01*
X94215000Y-124030500D02*
X93047500Y-122863000D01*
X93047500Y-122863000D02*
X53047500Y-122863000D01*
X94215000Y-125935500D02*
X94215000Y-124030500D01*
X95587500Y-127308000D02*
X94215000Y-125935500D01*
%TO.N,/DD.B10*%
X89135000Y-125935500D02*
X51040000Y-125935500D01*
X90507500Y-127308000D02*
X89135000Y-125935500D01*
X51040000Y-125935500D02*
X40972500Y-115868000D01*
%TO.N,Net-(J1-Pin_10)*%
X100667500Y-124768000D02*
X100667500Y-110798000D01*
%TO.N,/SD.P*%
X40327500Y-98733000D02*
X38432500Y-100628000D01*
X47327500Y-98733000D02*
X40327500Y-98733000D01*
%TO.N,/SD.E*%
X122882500Y-108248000D02*
X234012500Y-108248000D01*
X113367500Y-98733000D02*
X122882500Y-108248000D01*
%TO.N,/SD.B*%
X216882500Y-115868000D02*
X234012500Y-115868000D01*
X209887500Y-122863000D02*
X216882500Y-115868000D01*
%TD*%
M02*
