%TF.GenerationSoftware,KiCad,Pcbnew,7.0.2*%
%TF.CreationDate,2024-06-24T19:43:42-07:00*%
%TF.ProjectId,Score-Board-LinInd,53636f72-652d-4426-9f61-72642d4c696e,1*%
%TF.SameCoordinates,Original*%
%TF.FileFunction,Legend,Bot*%
%TF.FilePolarity,Positive*%
%FSLAX46Y46*%
G04 Gerber Fmt 4.6, Leading zero omitted, Abs format (unit mm)*
G04 Created by KiCad (PCBNEW 7.0.2) date 2024-06-24 19:43:42*
%MOMM*%
%LPD*%
G01*
G04 APERTURE LIST*
%ADD10C,0.150000*%
%ADD11C,0.120000*%
G04 APERTURE END LIST*
D10*
%TO.C,J3*%
X234745119Y-123799666D02*
X235459404Y-123799666D01*
X235459404Y-123799666D02*
X235602261Y-123752047D01*
X235602261Y-123752047D02*
X235697500Y-123656809D01*
X235697500Y-123656809D02*
X235745119Y-123513952D01*
X235745119Y-123513952D02*
X235745119Y-123418714D01*
X234745119Y-124180619D02*
X234745119Y-124799666D01*
X234745119Y-124799666D02*
X235126071Y-124466333D01*
X235126071Y-124466333D02*
X235126071Y-124609190D01*
X235126071Y-124609190D02*
X235173690Y-124704428D01*
X235173690Y-124704428D02*
X235221309Y-124752047D01*
X235221309Y-124752047D02*
X235316547Y-124799666D01*
X235316547Y-124799666D02*
X235554642Y-124799666D01*
X235554642Y-124799666D02*
X235649880Y-124752047D01*
X235649880Y-124752047D02*
X235697500Y-124704428D01*
X235697500Y-124704428D02*
X235745119Y-124609190D01*
X235745119Y-124609190D02*
X235745119Y-124323476D01*
X235745119Y-124323476D02*
X235697500Y-124228238D01*
X235697500Y-124228238D02*
X235649880Y-124180619D01*
%TO.C,J2*%
X39170119Y-123799666D02*
X39884404Y-123799666D01*
X39884404Y-123799666D02*
X40027261Y-123752047D01*
X40027261Y-123752047D02*
X40122500Y-123656809D01*
X40122500Y-123656809D02*
X40170119Y-123513952D01*
X40170119Y-123513952D02*
X40170119Y-123418714D01*
X39265357Y-124228238D02*
X39217738Y-124275857D01*
X39217738Y-124275857D02*
X39170119Y-124371095D01*
X39170119Y-124371095D02*
X39170119Y-124609190D01*
X39170119Y-124609190D02*
X39217738Y-124704428D01*
X39217738Y-124704428D02*
X39265357Y-124752047D01*
X39265357Y-124752047D02*
X39360595Y-124799666D01*
X39360595Y-124799666D02*
X39455833Y-124799666D01*
X39455833Y-124799666D02*
X39598690Y-124752047D01*
X39598690Y-124752047D02*
X40170119Y-124180619D01*
X40170119Y-124180619D02*
X40170119Y-124799666D01*
D11*
%TO.C,J3*%
X232682500Y-99298000D02*
X237882500Y-99298000D01*
X235282500Y-122278000D02*
X237882500Y-122278000D01*
X232682500Y-119678000D02*
X232682500Y-99298000D01*
X232682500Y-120948000D02*
X232682500Y-122278000D01*
X232682500Y-122278000D02*
X234012500Y-122278000D01*
X232682500Y-119678000D02*
X235282500Y-119678000D01*
X237882500Y-122278000D02*
X237882500Y-99298000D01*
X235282500Y-119678000D02*
X235282500Y-122278000D01*
%TO.C,J2*%
X37102500Y-99298000D02*
X42302500Y-99298000D01*
X39702500Y-122278000D02*
X42302500Y-122278000D01*
X37102500Y-119678000D02*
X37102500Y-99298000D01*
X37102500Y-120948000D02*
X37102500Y-122278000D01*
X37102500Y-122278000D02*
X38432500Y-122278000D01*
X37102500Y-119678000D02*
X39702500Y-119678000D01*
X42302500Y-122278000D02*
X42302500Y-99298000D01*
X39702500Y-119678000D02*
X39702500Y-122278000D01*
%TD*%
M02*
