%TF.GenerationSoftware,KiCad,Pcbnew,7.0.2*%
%TF.CreationDate,2024-06-26T08:39:52-07:00*%
%TF.ProjectId,Score-Board-LinInd-SW,53636f72-652d-4426-9f61-72642d4c696e,1.0*%
%TF.SameCoordinates,Original*%
%TF.FileFunction,Profile,NP*%
%FSLAX46Y46*%
G04 Gerber Fmt 4.6, Leading zero omitted, Abs format (unit mm)*
G04 Created by KiCad (PCBNEW 7.0.2) date 2024-06-26 08:39:52*
%MOMM*%
%LPD*%
G01*
G04 APERTURE LIST*
%TA.AperFunction,Profile*%
%ADD10C,0.100000*%
%TD*%
%TA.AperFunction,Profile*%
%ADD11C,0.050000*%
%TD*%
G04 APERTURE END LIST*
D10*
X59267450Y-150333506D02*
X59267450Y-95767000D01*
X59267444Y-150333506D02*
G75*
G03*
X60548000Y-151614056I1280556J6D01*
G01*
X167243968Y-95762132D02*
G75*
G03*
X165975000Y-94493132I-1268968J32D01*
G01*
X165972642Y-151612698D02*
G75*
G03*
X167241698Y-150343642I-42J1269098D01*
G01*
X165972642Y-151612698D02*
X60544000Y-151614056D01*
X60542318Y-94492132D02*
X165975000Y-94493132D01*
X60542318Y-94492150D02*
G75*
G03*
X59267450Y-95767000I-18J-1274850D01*
G01*
X167244000Y-95762132D02*
X167241698Y-150343642D01*
D11*
%TO.C,SW3*%
X73817000Y-118666000D02*
G75*
G03*
X73817000Y-118666000I-1850000J0D01*
G01*
X73817000Y-127666000D02*
G75*
G03*
X73817000Y-127666000I-1850000J0D01*
G01*
%TO.C,SW2*%
X92867000Y-99616000D02*
G75*
G03*
X92867000Y-99616000I-1850000J0D01*
G01*
X92867000Y-108616000D02*
G75*
G03*
X92867000Y-108616000I-1850000J0D01*
G01*
%TO.C,SW5*%
X111917000Y-118666000D02*
G75*
G03*
X111917000Y-118666000I-1850000J0D01*
G01*
X111917000Y-127666000D02*
G75*
G03*
X111917000Y-127666000I-1850000J0D01*
G01*
%TO.C,SW6*%
X92867000Y-137716000D02*
G75*
G03*
X92867000Y-137716000I-1850000J0D01*
G01*
X92867000Y-146716000D02*
G75*
G03*
X92867000Y-146716000I-1850000J0D01*
G01*
%TO.C,SW4*%
X92867000Y-118666000D02*
G75*
G03*
X92867000Y-118666000I-1850000J0D01*
G01*
X92867000Y-127666000D02*
G75*
G03*
X92867000Y-127666000I-1850000J0D01*
G01*
%TO.C,SW1*%
X143666000Y-118666000D02*
G75*
G03*
X143666000Y-118666000I-1850000J0D01*
G01*
X143666000Y-127666000D02*
G75*
G03*
X143666000Y-127666000I-1850000J0D01*
G01*
%TD*%
M02*
