%TF.GenerationSoftware,KiCad,Pcbnew,7.0.2*%
%TF.CreationDate,2023-07-21T23:10:52-07:00*%
%TF.ProjectId,Score-Board,53636f72-652d-4426-9f61-72642e6b6963,1*%
%TF.SameCoordinates,Original*%
%TF.FileFunction,Soldermask,Top*%
%TF.FilePolarity,Negative*%
%FSLAX46Y46*%
G04 Gerber Fmt 4.6, Leading zero omitted, Abs format (unit mm)*
G04 Created by KiCad (PCBNEW 7.0.2) date 2023-07-21 23:10:52*
%MOMM*%
%LPD*%
G01*
G04 APERTURE LIST*
G04 Aperture macros list*
%AMRoundRect*
0 Rectangle with rounded corners*
0 $1 Rounding radius*
0 $2 $3 $4 $5 $6 $7 $8 $9 X,Y pos of 4 corners*
0 Add a 4 corners polygon primitive as box body*
4,1,4,$2,$3,$4,$5,$6,$7,$8,$9,$2,$3,0*
0 Add four circle primitives for the rounded corners*
1,1,$1+$1,$2,$3*
1,1,$1+$1,$4,$5*
1,1,$1+$1,$6,$7*
1,1,$1+$1,$8,$9*
0 Add four rect primitives between the rounded corners*
20,1,$1+$1,$2,$3,$4,$5,0*
20,1,$1+$1,$4,$5,$6,$7,0*
20,1,$1+$1,$6,$7,$8,$9,0*
20,1,$1+$1,$8,$9,$2,$3,0*%
G04 Aperture macros list end*
%ADD10O,1.700000X1.700000*%
%ADD11R,1.700000X1.700000*%
%ADD12R,3.500000X1.700000*%
%ADD13O,1.500000X1.500000*%
%ADD14O,1.800000X1.800000*%
%ADD15C,1.600000*%
%ADD16O,1.600000X1.600000*%
%ADD17C,3.200000*%
%ADD18R,1.500000X1.050000*%
%ADD19O,1.500000X1.050000*%
%ADD20R,1.600000X1.600000*%
%ADD21R,1.050000X1.500000*%
%ADD22O,1.050000X1.500000*%
%ADD23C,0.950000*%
%ADD24R,0.620000X1.400000*%
%ADD25R,1.100000X2.400000*%
%ADD26R,2.100000X2.100000*%
%ADD27C,2.100000*%
%ADD28R,2.000000X1.000000*%
%ADD29R,1.000000X2.000000*%
%ADD30R,2.400000X2.400000*%
%ADD31C,2.400000*%
%ADD32R,2.000000X2.000000*%
%ADD33C,2.000000*%
%ADD34O,5.000000X2.500000*%
%ADD35O,4.500000X2.250000*%
%ADD36R,1.800000X1.800000*%
%ADD37C,1.800000*%
%ADD38R,2.200000X2.200000*%
%ADD39O,2.200000X2.200000*%
%ADD40RoundRect,0.250200X-0.649800X-0.649800X0.649800X-0.649800X0.649800X0.649800X-0.649800X0.649800X0*%
%ADD41RoundRect,0.250200X0.649800X0.649800X-0.649800X0.649800X-0.649800X-0.649800X0.649800X-0.649800X0*%
G04 APERTURE END LIST*
D10*
%TO.C,U1*%
X169455000Y-91286000D03*
D11*
X171995000Y-91286000D03*
D10*
X174535000Y-91286000D03*
X166229100Y-121016000D03*
D12*
X165329100Y-121016000D03*
D10*
X166229100Y-118476000D03*
D12*
X165329100Y-118476000D03*
D11*
X166229100Y-115936000D03*
D12*
X165329100Y-115936000D03*
D10*
X166229100Y-113396000D03*
D12*
X165329100Y-113396000D03*
X165329100Y-110856000D03*
D10*
X166229100Y-110856000D03*
D12*
X165329100Y-108316000D03*
D10*
X166229100Y-108316000D03*
D12*
X165329100Y-105776000D03*
D10*
X166229100Y-105776000D03*
D11*
X166229100Y-103236000D03*
D12*
X165329100Y-103236000D03*
X165329100Y-100696000D03*
D10*
X166229100Y-100696000D03*
D12*
X165329100Y-98156000D03*
D10*
X166229100Y-98156000D03*
D12*
X165329100Y-95616000D03*
D10*
X166229100Y-95616000D03*
X166229100Y-93076000D03*
D12*
X165329100Y-93076000D03*
D11*
X166229100Y-90536000D03*
D12*
X165329100Y-90536000D03*
X165329100Y-87996000D03*
D10*
X166229100Y-87996000D03*
X166229100Y-85456000D03*
D12*
X165329100Y-85456000D03*
D10*
X166229100Y-82916000D03*
D12*
X165329100Y-82916000D03*
X165329100Y-80376000D03*
D10*
X166229100Y-80376000D03*
D12*
X165329100Y-77836000D03*
D11*
X166229100Y-77836000D03*
D10*
X166229100Y-75296000D03*
D12*
X165329100Y-75296000D03*
D10*
X166229100Y-72756000D03*
D12*
X165329100Y-72756000D03*
X184909100Y-72756000D03*
D10*
X184009100Y-72756000D03*
D12*
X184909100Y-75296000D03*
D10*
X184009100Y-75296000D03*
D11*
X184009100Y-77836000D03*
D12*
X184909100Y-77836000D03*
D10*
X184009100Y-80376000D03*
D12*
X184909100Y-80376000D03*
X184909100Y-82916000D03*
D10*
X184009100Y-82916000D03*
X184009100Y-85456000D03*
D12*
X184909100Y-85456000D03*
X184909100Y-87996000D03*
D10*
X184009100Y-87996000D03*
D11*
X184009100Y-90536000D03*
D12*
X184909100Y-90536000D03*
D10*
X184009100Y-93076000D03*
D12*
X184909100Y-93076000D03*
X184909100Y-95616000D03*
D10*
X184009100Y-95616000D03*
D12*
X184909100Y-98156000D03*
D10*
X184009100Y-98156000D03*
X184009100Y-100696000D03*
D12*
X184909100Y-100696000D03*
D11*
X184009100Y-103236000D03*
D12*
X184909100Y-103236000D03*
X184909100Y-105776000D03*
D10*
X184009100Y-105776000D03*
X184009100Y-108316000D03*
D12*
X184909100Y-108316000D03*
D10*
X184009100Y-110856000D03*
D12*
X184909100Y-110856000D03*
D10*
X184009100Y-113396000D03*
D12*
X184909100Y-113396000D03*
X184909100Y-115936000D03*
D11*
X184009100Y-115936000D03*
D12*
X184909100Y-118476000D03*
D10*
X184009100Y-118476000D03*
D12*
X184909100Y-121016000D03*
D10*
X184009100Y-121016000D03*
D13*
X172694100Y-117856000D03*
X177544100Y-117856000D03*
D14*
X177844100Y-120886000D03*
X172394100Y-120886000D03*
%TD*%
D15*
%TO.C,C5*%
X46900000Y-54015000D03*
X44400000Y-54015000D03*
%TD*%
%TO.C,C4*%
X218390000Y-93512000D03*
X220890000Y-93512000D03*
%TD*%
%TO.C,R21*%
X64680000Y-55920000D03*
D16*
X64680000Y-66080000D03*
%TD*%
D15*
%TO.C,R26*%
X78650000Y-96433000D03*
D16*
X78650000Y-86273000D03*
%TD*%
D17*
%TO.C,H2*%
X218350000Y-115610000D03*
%TD*%
D18*
%TO.C,Q21*%
X63304000Y-106974000D03*
D19*
X63304000Y-108244000D03*
X63304000Y-109514000D03*
%TD*%
D20*
%TO.C,C1*%
X106500000Y-113070000D03*
D15*
X106500000Y-116570000D03*
%TD*%
D17*
%TO.C,H5*%
X106574237Y-51024919D03*
%TD*%
D15*
%TO.C,R7*%
X90080000Y-47030000D03*
D16*
X79920000Y-47030000D03*
%TD*%
D21*
%TO.C,Q9*%
X102526000Y-65078000D03*
D22*
X101256000Y-65078000D03*
X99986000Y-65078000D03*
%TD*%
D15*
%TO.C,R11*%
X90080000Y-64810000D03*
D16*
X79920000Y-64810000D03*
%TD*%
D15*
%TO.C,R5*%
X153580000Y-110784000D03*
D16*
X143420000Y-110784000D03*
%TD*%
D18*
%TO.C,Q6*%
X107881000Y-99608000D03*
D19*
X107881000Y-100878000D03*
X107881000Y-102148000D03*
%TD*%
D11*
%TO.C,TP1*%
X151040000Y-80050000D03*
%TD*%
D23*
%TO.C,SD1*%
X196310000Y-118618000D03*
X203110000Y-118618000D03*
D24*
X202290000Y-107198000D03*
X201190000Y-107198000D03*
X200090000Y-107198000D03*
X198990000Y-107198000D03*
X197890000Y-107198000D03*
X196790000Y-107198000D03*
X195690000Y-107198000D03*
X194590000Y-107198000D03*
X193490000Y-107198000D03*
D25*
X192110000Y-109198000D03*
X192110000Y-118198000D03*
X208260000Y-109198000D03*
X208260000Y-118198000D03*
%TD*%
D15*
%TO.C,R27*%
X77888000Y-116626000D03*
D16*
X88048000Y-116626000D03*
%TD*%
D21*
%TO.C,Q12*%
X84746000Y-87938000D03*
D22*
X83476000Y-87938000D03*
X82206000Y-87938000D03*
%TD*%
D26*
%TO.C,SW1*%
X205550000Y-97790000D03*
D27*
X193050000Y-97790000D03*
X205550000Y-92790000D03*
X193050000Y-92790000D03*
%TD*%
D15*
%TO.C,R25*%
X63283000Y-92623000D03*
D16*
X63283000Y-102783000D03*
%TD*%
D15*
%TO.C,R13*%
X107860000Y-77510000D03*
D16*
X97700000Y-77510000D03*
%TD*%
D18*
%TO.C,Q1*%
X90080000Y-51475000D03*
D19*
X90080000Y-52745000D03*
X90080000Y-54015000D03*
%TD*%
D21*
%TO.C,Q13*%
X102526000Y-100638000D03*
D22*
X101256000Y-100638000D03*
X99986000Y-100638000D03*
%TD*%
D18*
%TO.C,Q4*%
X107881000Y-81828000D03*
D19*
X107881000Y-83098000D03*
X107881000Y-84368000D03*
%TD*%
D28*
%TO.C,U2*%
X171822100Y-55812500D03*
X171822100Y-57082500D03*
X171822100Y-58352500D03*
X171822100Y-59622500D03*
X171822100Y-60892500D03*
X171822100Y-62162500D03*
X171822100Y-63432500D03*
X171822100Y-64702500D03*
D29*
X174442100Y-66962500D03*
X175712100Y-66962500D03*
X176982100Y-66962500D03*
X178252100Y-66962500D03*
X179522100Y-66962500D03*
X180792372Y-66972349D03*
X182062100Y-66962500D03*
X183332100Y-66962500D03*
D28*
X185792100Y-64702500D03*
X185792100Y-63432500D03*
X185801319Y-62225188D03*
X185792100Y-60892500D03*
X185792100Y-59622500D03*
X185792100Y-58352500D03*
X185792100Y-57082500D03*
X185792100Y-55812500D03*
%TD*%
D10*
%TO.C,J4*%
X216318000Y-83860000D03*
X216318000Y-81320000D03*
D11*
X216318000Y-78780000D03*
%TD*%
D15*
%TO.C,R1*%
X210730000Y-97830000D03*
D16*
X220890000Y-97830000D03*
%TD*%
D20*
%TO.C,D3*%
X130720000Y-90210000D03*
D16*
X130720000Y-100370000D03*
%TD*%
D15*
%TO.C,R18*%
X92366000Y-111038000D03*
D16*
X82206000Y-111038000D03*
%TD*%
D15*
%TO.C,R6*%
X91985000Y-57825000D03*
D16*
X81825000Y-57825000D03*
%TD*%
D15*
%TO.C,R10*%
X92366000Y-75478000D03*
D16*
X82206000Y-75478000D03*
%TD*%
D21*
%TO.C,Q8*%
X84365000Y-52385000D03*
D22*
X83095000Y-52385000D03*
X81825000Y-52385000D03*
%TD*%
D18*
%TO.C,Q17*%
X63304000Y-68627000D03*
D19*
X63304000Y-69897000D03*
X63304000Y-71167000D03*
%TD*%
D30*
%TO.C,J2*%
X116700000Y-114040000D03*
D31*
X121700000Y-114040000D03*
%TD*%
D15*
%TO.C,R42*%
X59346000Y-110410000D03*
D16*
X59346000Y-100250000D03*
%TD*%
D21*
%TO.C,Q11*%
X102526000Y-82858000D03*
D22*
X101256000Y-82858000D03*
X99986000Y-82858000D03*
%TD*%
D18*
%TO.C,Q15*%
X63304000Y-50847000D03*
D19*
X63304000Y-52117000D03*
X63304000Y-53387000D03*
%TD*%
D17*
%TO.C,H1*%
X46900000Y-115610000D03*
%TD*%
D18*
%TO.C,Q19*%
X63304000Y-86407000D03*
D19*
X63304000Y-87677000D03*
X63304000Y-88947000D03*
%TD*%
D17*
%TO.C,H3*%
X46900000Y-64810000D03*
%TD*%
D15*
%TO.C,R28*%
X73824000Y-107482000D03*
D16*
X73824000Y-97322000D03*
%TD*%
D15*
%TO.C,R15*%
X90080000Y-82590000D03*
D16*
X79920000Y-82590000D03*
%TD*%
D15*
%TO.C,R12*%
X110146000Y-88178000D03*
D16*
X99986000Y-88178000D03*
%TD*%
D15*
%TO.C,R16*%
X110146000Y-105958000D03*
D16*
X99986000Y-105958000D03*
%TD*%
D15*
%TO.C,R33*%
X69506000Y-62270000D03*
D16*
X69506000Y-52110000D03*
%TD*%
D26*
%TO.C,SW2*%
X205550000Y-78740000D03*
D27*
X193050000Y-78740000D03*
X205550000Y-73740000D03*
X193050000Y-73740000D03*
%TD*%
D18*
%TO.C,Q18*%
X73824000Y-78272000D03*
D19*
X73824000Y-77002000D03*
X73824000Y-75732000D03*
%TD*%
D18*
%TO.C,Q2*%
X107881000Y-64048000D03*
D19*
X107881000Y-65318000D03*
X107881000Y-66588000D03*
%TD*%
D20*
%TO.C,D4*%
X145960000Y-90210000D03*
D16*
X145960000Y-100370000D03*
%TD*%
D11*
%TO.C,Conn1*%
X44360000Y-80050000D03*
D10*
X46900000Y-80050000D03*
X44360000Y-82590000D03*
X46900000Y-82590000D03*
X44360000Y-85130000D03*
X46900000Y-85130000D03*
X44360000Y-87670000D03*
X46900000Y-87670000D03*
X44360000Y-90210000D03*
X46900000Y-90210000D03*
X44360000Y-92750000D03*
X46900000Y-92750000D03*
X44360000Y-95290000D03*
X46900000Y-95290000D03*
X44360000Y-97830000D03*
X46900000Y-97830000D03*
X44360000Y-100370000D03*
X46900000Y-100370000D03*
%TD*%
D21*
%TO.C,U5*%
X142150000Y-80050000D03*
D22*
X143420000Y-80050000D03*
X144690000Y-80050000D03*
%TD*%
D15*
%TO.C,R2*%
X54520000Y-62270000D03*
D16*
X54520000Y-52110000D03*
%TD*%
D18*
%TO.C,Q3*%
X90101000Y-69128000D03*
D19*
X90101000Y-70398000D03*
X90101000Y-71668000D03*
%TD*%
D15*
%TO.C,R9*%
X107860000Y-59730000D03*
D16*
X97700000Y-59730000D03*
%TD*%
D15*
%TO.C,R19*%
X90080000Y-100370000D03*
D16*
X79920000Y-100370000D03*
%TD*%
D15*
%TO.C,R20*%
X59346000Y-57070000D03*
D16*
X59346000Y-46910000D03*
%TD*%
D15*
%TO.C,R41*%
X69506000Y-97830000D03*
D16*
X69506000Y-87670000D03*
%TD*%
D20*
%TO.C,C3*%
X148500000Y-72430000D03*
D15*
X146500000Y-72430000D03*
%TD*%
%TO.C,R40*%
X59346000Y-92630000D03*
D16*
X59346000Y-82470000D03*
%TD*%
D32*
%TO.C,BZ1*%
X133240000Y-77510000D03*
D33*
X125640000Y-77510000D03*
%TD*%
D34*
%TO.C,J1*%
X131990000Y-109265200D03*
D35*
X131990000Y-115265200D03*
%TD*%
D36*
%TO.C,LED2*%
X200677500Y-50840000D03*
D37*
X198137500Y-50840000D03*
%TD*%
D11*
%TO.C,J5*%
X164121000Y-52755000D03*
D10*
X164121000Y-55295000D03*
X164121000Y-57835000D03*
X164121000Y-60375000D03*
%TD*%
D17*
%TO.C,H6*%
X157374237Y-51024919D03*
%TD*%
D11*
%TO.C,J6*%
X147484000Y-103926000D03*
D10*
X150024000Y-103926000D03*
%TD*%
D18*
%TO.C,Q16*%
X73824000Y-58460000D03*
D19*
X73824000Y-57190000D03*
X73824000Y-55920000D03*
%TD*%
D17*
%TO.C,H4*%
X218350000Y-64810000D03*
%TD*%
D15*
%TO.C,R43*%
X69506000Y-115610000D03*
D16*
X69506000Y-105450000D03*
%TD*%
D15*
%TO.C,R17*%
X107860000Y-95290000D03*
D16*
X97700000Y-95290000D03*
%TD*%
D11*
%TO.C,J7*%
X115480000Y-97830000D03*
D10*
X115480000Y-95290000D03*
%TD*%
D15*
%TO.C,R14*%
X92366000Y-93258000D03*
D16*
X82206000Y-93258000D03*
%TD*%
D38*
%TO.C,D1*%
X123100000Y-90210000D03*
D39*
X123100000Y-100370000D03*
%TD*%
D18*
%TO.C,Q20*%
X73824000Y-94020000D03*
D19*
X73824000Y-92750000D03*
X73824000Y-91480000D03*
%TD*%
D40*
%TO.C,IR1*%
X215810000Y-107473000D03*
D37*
X218350000Y-107473000D03*
X220890000Y-107473000D03*
%TD*%
D15*
%TO.C,R24*%
X73824000Y-72430000D03*
D16*
X73824000Y-62270000D03*
%TD*%
D15*
%TO.C,R3*%
X192950000Y-54650000D03*
D16*
X192950000Y-44490000D03*
%TD*%
D15*
%TO.C,R34*%
X59346000Y-74850000D03*
D16*
X59346000Y-64690000D03*
%TD*%
D21*
%TO.C,Q14*%
X84746000Y-105718000D03*
D22*
X83476000Y-105718000D03*
X82206000Y-105718000D03*
%TD*%
D15*
%TO.C,R8*%
X110146000Y-70398000D03*
D16*
X99986000Y-70398000D03*
%TD*%
D15*
%TO.C,R4*%
X192950000Y-57190000D03*
D16*
X192950000Y-67350000D03*
%TD*%
D20*
%TO.C,D2*%
X138340000Y-90210000D03*
D16*
X138340000Y-100370000D03*
%TD*%
D20*
%TO.C,C2*%
X140340000Y-72430000D03*
D15*
X138340000Y-72430000D03*
%TD*%
D18*
%TO.C,Q7*%
X90101000Y-104688000D03*
D19*
X90101000Y-105958000D03*
X90101000Y-107228000D03*
%TD*%
D11*
%TO.C,J8*%
X155866000Y-119674000D03*
D10*
X155866000Y-117134000D03*
%TD*%
D21*
%TO.C,Q10*%
X84746000Y-70158000D03*
D22*
X83476000Y-70158000D03*
X82206000Y-70158000D03*
%TD*%
D36*
%TO.C,LED3*%
X200677500Y-61000000D03*
D37*
X198137500Y-61000000D03*
%TD*%
D15*
%TO.C,R23*%
X63283000Y-78526000D03*
D16*
X53123000Y-78526000D03*
%TD*%
D15*
%TO.C,R39*%
X69506000Y-82336000D03*
D16*
X69506000Y-72176000D03*
%TD*%
D36*
%TO.C,LED1*%
X145960000Y-118150000D03*
D37*
X143420000Y-118150000D03*
%TD*%
D18*
%TO.C,Q22*%
X73824000Y-113197000D03*
D19*
X73824000Y-111927000D03*
X73824000Y-110657000D03*
%TD*%
D15*
%TO.C,R22*%
X53250000Y-72430000D03*
D16*
X43090000Y-72430000D03*
%TD*%
D18*
%TO.C,Q5*%
X90101000Y-86908000D03*
D19*
X90101000Y-88178000D03*
X90101000Y-89448000D03*
%TD*%
D41*
%TO.C,IR2*%
X49440000Y-47030000D03*
D37*
X46900000Y-47030000D03*
X44360000Y-47030000D03*
%TD*%
D11*
%TO.C,J3*%
X124137237Y-45984919D03*
D10*
X126677237Y-45984919D03*
X129217237Y-45984919D03*
X131757237Y-45984919D03*
X134297237Y-45984919D03*
X136837237Y-45984919D03*
X139377237Y-45984919D03*
%TD*%
D26*
%TO.C,SW3*%
X138124237Y-54914919D03*
D27*
X125624237Y-54914919D03*
X138124237Y-59914919D03*
X125624237Y-59914919D03*
%TD*%
M02*
