%TF.GenerationSoftware,KiCad,Pcbnew,7.0.2*%
%TF.CreationDate,2023-07-06T23:20:30-07:00*%
%TF.ProjectId,Score-Board-Digits,53636f72-652d-4426-9f61-72642d446967,1*%
%TF.SameCoordinates,Original*%
%TF.FileFunction,Copper,L2,Bot*%
%TF.FilePolarity,Positive*%
%FSLAX46Y46*%
G04 Gerber Fmt 4.6, Leading zero omitted, Abs format (unit mm)*
G04 Created by KiCad (PCBNEW 7.0.2) date 2023-07-06 23:20:30*
%MOMM*%
%LPD*%
G01*
G04 APERTURE LIST*
%ADD10C,0.203200*%
%TA.AperFunction,NonConductor*%
%ADD11C,0.203200*%
%TD*%
%TA.AperFunction,ComponentPad*%
%ADD12R,1.800000X1.800000*%
%TD*%
%TA.AperFunction,ComponentPad*%
%ADD13C,1.800000*%
%TD*%
%TA.AperFunction,ComponentPad*%
%ADD14R,2.200000X2.000000*%
%TD*%
%TA.AperFunction,ComponentPad*%
%ADD15C,2.200000*%
%TD*%
%TA.AperFunction,ComponentPad*%
%ADD16R,2.000000X2.000000*%
%TD*%
%TA.AperFunction,ComponentPad*%
%ADD17C,2.000000*%
%TD*%
%TA.AperFunction,ComponentPad*%
%ADD18C,1.600000*%
%TD*%
%TA.AperFunction,ComponentPad*%
%ADD19O,1.600000X1.600000*%
%TD*%
%TA.AperFunction,ComponentPad*%
%ADD20R,1.700000X1.700000*%
%TD*%
%TA.AperFunction,ComponentPad*%
%ADD21O,1.700000X1.700000*%
%TD*%
%TA.AperFunction,ViaPad*%
%ADD22C,1.016000*%
%TD*%
%TA.AperFunction,Conductor*%
%ADD23C,0.508000*%
%TD*%
G04 APERTURE END LIST*
D10*
D11*
X181984714Y-22035920D02*
X181767000Y-22108491D01*
X181767000Y-22108491D02*
X181404142Y-22108491D01*
X181404142Y-22108491D02*
X181259000Y-22035920D01*
X181259000Y-22035920D02*
X181186428Y-21963348D01*
X181186428Y-21963348D02*
X181113857Y-21818205D01*
X181113857Y-21818205D02*
X181113857Y-21673062D01*
X181113857Y-21673062D02*
X181186428Y-21527920D01*
X181186428Y-21527920D02*
X181259000Y-21455348D01*
X181259000Y-21455348D02*
X181404142Y-21382777D01*
X181404142Y-21382777D02*
X181694428Y-21310205D01*
X181694428Y-21310205D02*
X181839571Y-21237634D01*
X181839571Y-21237634D02*
X181912142Y-21165062D01*
X181912142Y-21165062D02*
X181984714Y-21019920D01*
X181984714Y-21019920D02*
X181984714Y-20874777D01*
X181984714Y-20874777D02*
X181912142Y-20729634D01*
X181912142Y-20729634D02*
X181839571Y-20657062D01*
X181839571Y-20657062D02*
X181694428Y-20584491D01*
X181694428Y-20584491D02*
X181331571Y-20584491D01*
X181331571Y-20584491D02*
X181113857Y-20657062D01*
X179807571Y-22035920D02*
X179952713Y-22108491D01*
X179952713Y-22108491D02*
X180242999Y-22108491D01*
X180242999Y-22108491D02*
X180388142Y-22035920D01*
X180388142Y-22035920D02*
X180460713Y-21963348D01*
X180460713Y-21963348D02*
X180533285Y-21818205D01*
X180533285Y-21818205D02*
X180533285Y-21382777D01*
X180533285Y-21382777D02*
X180460713Y-21237634D01*
X180460713Y-21237634D02*
X180388142Y-21165062D01*
X180388142Y-21165062D02*
X180242999Y-21092491D01*
X180242999Y-21092491D02*
X179952713Y-21092491D01*
X179952713Y-21092491D02*
X179807571Y-21165062D01*
X178936713Y-22108491D02*
X179081856Y-22035920D01*
X179081856Y-22035920D02*
X179154427Y-21963348D01*
X179154427Y-21963348D02*
X179226999Y-21818205D01*
X179226999Y-21818205D02*
X179226999Y-21382777D01*
X179226999Y-21382777D02*
X179154427Y-21237634D01*
X179154427Y-21237634D02*
X179081856Y-21165062D01*
X179081856Y-21165062D02*
X178936713Y-21092491D01*
X178936713Y-21092491D02*
X178718999Y-21092491D01*
X178718999Y-21092491D02*
X178573856Y-21165062D01*
X178573856Y-21165062D02*
X178501285Y-21237634D01*
X178501285Y-21237634D02*
X178428713Y-21382777D01*
X178428713Y-21382777D02*
X178428713Y-21818205D01*
X178428713Y-21818205D02*
X178501285Y-21963348D01*
X178501285Y-21963348D02*
X178573856Y-22035920D01*
X178573856Y-22035920D02*
X178718999Y-22108491D01*
X178718999Y-22108491D02*
X178936713Y-22108491D01*
X177775570Y-22108491D02*
X177775570Y-21092491D01*
X177775570Y-21382777D02*
X177702999Y-21237634D01*
X177702999Y-21237634D02*
X177630428Y-21165062D01*
X177630428Y-21165062D02*
X177485285Y-21092491D01*
X177485285Y-21092491D02*
X177340142Y-21092491D01*
X176251570Y-22035920D02*
X176396713Y-22108491D01*
X176396713Y-22108491D02*
X176686999Y-22108491D01*
X176686999Y-22108491D02*
X176832141Y-22035920D01*
X176832141Y-22035920D02*
X176904713Y-21890777D01*
X176904713Y-21890777D02*
X176904713Y-21310205D01*
X176904713Y-21310205D02*
X176832141Y-21165062D01*
X176832141Y-21165062D02*
X176686999Y-21092491D01*
X176686999Y-21092491D02*
X176396713Y-21092491D01*
X176396713Y-21092491D02*
X176251570Y-21165062D01*
X176251570Y-21165062D02*
X176178999Y-21310205D01*
X176178999Y-21310205D02*
X176178999Y-21455348D01*
X176178999Y-21455348D02*
X176904713Y-21600491D01*
X175525855Y-22108491D02*
X175525855Y-20584491D01*
X175525855Y-21165062D02*
X175380713Y-21092491D01*
X175380713Y-21092491D02*
X175090427Y-21092491D01*
X175090427Y-21092491D02*
X174945284Y-21165062D01*
X174945284Y-21165062D02*
X174872713Y-21237634D01*
X174872713Y-21237634D02*
X174800141Y-21382777D01*
X174800141Y-21382777D02*
X174800141Y-21818205D01*
X174800141Y-21818205D02*
X174872713Y-21963348D01*
X174872713Y-21963348D02*
X174945284Y-22035920D01*
X174945284Y-22035920D02*
X175090427Y-22108491D01*
X175090427Y-22108491D02*
X175380713Y-22108491D01*
X175380713Y-22108491D02*
X175525855Y-22035920D01*
X173929284Y-22108491D02*
X174074427Y-22035920D01*
X174074427Y-22035920D02*
X174146998Y-21963348D01*
X174146998Y-21963348D02*
X174219570Y-21818205D01*
X174219570Y-21818205D02*
X174219570Y-21382777D01*
X174219570Y-21382777D02*
X174146998Y-21237634D01*
X174146998Y-21237634D02*
X174074427Y-21165062D01*
X174074427Y-21165062D02*
X173929284Y-21092491D01*
X173929284Y-21092491D02*
X173711570Y-21092491D01*
X173711570Y-21092491D02*
X173566427Y-21165062D01*
X173566427Y-21165062D02*
X173493856Y-21237634D01*
X173493856Y-21237634D02*
X173421284Y-21382777D01*
X173421284Y-21382777D02*
X173421284Y-21818205D01*
X173421284Y-21818205D02*
X173493856Y-21963348D01*
X173493856Y-21963348D02*
X173566427Y-22035920D01*
X173566427Y-22035920D02*
X173711570Y-22108491D01*
X173711570Y-22108491D02*
X173929284Y-22108491D01*
X172114999Y-22108491D02*
X172114999Y-21310205D01*
X172114999Y-21310205D02*
X172187570Y-21165062D01*
X172187570Y-21165062D02*
X172332713Y-21092491D01*
X172332713Y-21092491D02*
X172622999Y-21092491D01*
X172622999Y-21092491D02*
X172768141Y-21165062D01*
X172114999Y-22035920D02*
X172260141Y-22108491D01*
X172260141Y-22108491D02*
X172622999Y-22108491D01*
X172622999Y-22108491D02*
X172768141Y-22035920D01*
X172768141Y-22035920D02*
X172840713Y-21890777D01*
X172840713Y-21890777D02*
X172840713Y-21745634D01*
X172840713Y-21745634D02*
X172768141Y-21600491D01*
X172768141Y-21600491D02*
X172622999Y-21527920D01*
X172622999Y-21527920D02*
X172260141Y-21527920D01*
X172260141Y-21527920D02*
X172114999Y-21455348D01*
X171389284Y-22108491D02*
X171389284Y-21092491D01*
X171389284Y-21382777D02*
X171316713Y-21237634D01*
X171316713Y-21237634D02*
X171244142Y-21165062D01*
X171244142Y-21165062D02*
X171098999Y-21092491D01*
X171098999Y-21092491D02*
X170953856Y-21092491D01*
X169792713Y-22108491D02*
X169792713Y-20584491D01*
X169792713Y-22035920D02*
X169937855Y-22108491D01*
X169937855Y-22108491D02*
X170228141Y-22108491D01*
X170228141Y-22108491D02*
X170373284Y-22035920D01*
X170373284Y-22035920D02*
X170445855Y-21963348D01*
X170445855Y-21963348D02*
X170518427Y-21818205D01*
X170518427Y-21818205D02*
X170518427Y-21382777D01*
X170518427Y-21382777D02*
X170445855Y-21237634D01*
X170445855Y-21237634D02*
X170373284Y-21165062D01*
X170373284Y-21165062D02*
X170228141Y-21092491D01*
X170228141Y-21092491D02*
X169937855Y-21092491D01*
X169937855Y-21092491D02*
X169792713Y-21165062D01*
X167905855Y-21527920D02*
X166744713Y-21527920D01*
X164857855Y-22108491D02*
X164857855Y-20584491D01*
X164857855Y-20584491D02*
X164494998Y-20584491D01*
X164494998Y-20584491D02*
X164277284Y-20657062D01*
X164277284Y-20657062D02*
X164132141Y-20802205D01*
X164132141Y-20802205D02*
X164059570Y-20947348D01*
X164059570Y-20947348D02*
X163986998Y-21237634D01*
X163986998Y-21237634D02*
X163986998Y-21455348D01*
X163986998Y-21455348D02*
X164059570Y-21745634D01*
X164059570Y-21745634D02*
X164132141Y-21890777D01*
X164132141Y-21890777D02*
X164277284Y-22035920D01*
X164277284Y-22035920D02*
X164494998Y-22108491D01*
X164494998Y-22108491D02*
X164857855Y-22108491D01*
X163333855Y-22108491D02*
X163333855Y-21092491D01*
X163333855Y-20584491D02*
X163406427Y-20657062D01*
X163406427Y-20657062D02*
X163333855Y-20729634D01*
X163333855Y-20729634D02*
X163261284Y-20657062D01*
X163261284Y-20657062D02*
X163333855Y-20584491D01*
X163333855Y-20584491D02*
X163333855Y-20729634D01*
X161954999Y-21092491D02*
X161954999Y-22326205D01*
X161954999Y-22326205D02*
X162027570Y-22471348D01*
X162027570Y-22471348D02*
X162100141Y-22543920D01*
X162100141Y-22543920D02*
X162245284Y-22616491D01*
X162245284Y-22616491D02*
X162462999Y-22616491D01*
X162462999Y-22616491D02*
X162608141Y-22543920D01*
X161954999Y-22035920D02*
X162100141Y-22108491D01*
X162100141Y-22108491D02*
X162390427Y-22108491D01*
X162390427Y-22108491D02*
X162535570Y-22035920D01*
X162535570Y-22035920D02*
X162608141Y-21963348D01*
X162608141Y-21963348D02*
X162680713Y-21818205D01*
X162680713Y-21818205D02*
X162680713Y-21382777D01*
X162680713Y-21382777D02*
X162608141Y-21237634D01*
X162608141Y-21237634D02*
X162535570Y-21165062D01*
X162535570Y-21165062D02*
X162390427Y-21092491D01*
X162390427Y-21092491D02*
X162100141Y-21092491D01*
X162100141Y-21092491D02*
X161954999Y-21165062D01*
X161229284Y-22108491D02*
X161229284Y-21092491D01*
X161229284Y-20584491D02*
X161301856Y-20657062D01*
X161301856Y-20657062D02*
X161229284Y-20729634D01*
X161229284Y-20729634D02*
X161156713Y-20657062D01*
X161156713Y-20657062D02*
X161229284Y-20584491D01*
X161229284Y-20584491D02*
X161229284Y-20729634D01*
X160721285Y-21092491D02*
X160140713Y-21092491D01*
X160503570Y-20584491D02*
X160503570Y-21890777D01*
X160503570Y-21890777D02*
X160430999Y-22035920D01*
X160430999Y-22035920D02*
X160285856Y-22108491D01*
X160285856Y-22108491D02*
X160140713Y-22108491D01*
X159705285Y-22035920D02*
X159560142Y-22108491D01*
X159560142Y-22108491D02*
X159269856Y-22108491D01*
X159269856Y-22108491D02*
X159124713Y-22035920D01*
X159124713Y-22035920D02*
X159052142Y-21890777D01*
X159052142Y-21890777D02*
X159052142Y-21818205D01*
X159052142Y-21818205D02*
X159124713Y-21673062D01*
X159124713Y-21673062D02*
X159269856Y-21600491D01*
X159269856Y-21600491D02*
X159487571Y-21600491D01*
X159487571Y-21600491D02*
X159632713Y-21527920D01*
X159632713Y-21527920D02*
X159705285Y-21382777D01*
X159705285Y-21382777D02*
X159705285Y-21310205D01*
X159705285Y-21310205D02*
X159632713Y-21165062D01*
X159632713Y-21165062D02*
X159487571Y-21092491D01*
X159487571Y-21092491D02*
X159269856Y-21092491D01*
X159269856Y-21092491D02*
X159124713Y-21165062D01*
X157455571Y-20584491D02*
X156947571Y-22108491D01*
X156947571Y-22108491D02*
X156439571Y-20584491D01*
X155133285Y-22108491D02*
X156004142Y-22108491D01*
X155568713Y-22108491D02*
X155568713Y-20584491D01*
X155568713Y-20584491D02*
X155713856Y-20802205D01*
X155713856Y-20802205D02*
X155858999Y-20947348D01*
X155858999Y-20947348D02*
X156004142Y-21019920D01*
X154480141Y-21963348D02*
X154407570Y-22035920D01*
X154407570Y-22035920D02*
X154480141Y-22108491D01*
X154480141Y-22108491D02*
X154552713Y-22035920D01*
X154552713Y-22035920D02*
X154480141Y-21963348D01*
X154480141Y-21963348D02*
X154480141Y-22108491D01*
X153464142Y-20584491D02*
X153318999Y-20584491D01*
X153318999Y-20584491D02*
X153173856Y-20657062D01*
X153173856Y-20657062D02*
X153101285Y-20729634D01*
X153101285Y-20729634D02*
X153028713Y-20874777D01*
X153028713Y-20874777D02*
X152956142Y-21165062D01*
X152956142Y-21165062D02*
X152956142Y-21527920D01*
X152956142Y-21527920D02*
X153028713Y-21818205D01*
X153028713Y-21818205D02*
X153101285Y-21963348D01*
X153101285Y-21963348D02*
X153173856Y-22035920D01*
X153173856Y-22035920D02*
X153318999Y-22108491D01*
X153318999Y-22108491D02*
X153464142Y-22108491D01*
X153464142Y-22108491D02*
X153609285Y-22035920D01*
X153609285Y-22035920D02*
X153681856Y-21963348D01*
X153681856Y-21963348D02*
X153754427Y-21818205D01*
X153754427Y-21818205D02*
X153826999Y-21527920D01*
X153826999Y-21527920D02*
X153826999Y-21165062D01*
X153826999Y-21165062D02*
X153754427Y-20874777D01*
X153754427Y-20874777D02*
X153681856Y-20729634D01*
X153681856Y-20729634D02*
X153609285Y-20657062D01*
X153609285Y-20657062D02*
X153464142Y-20584491D01*
D12*
%TO.P,LED4,1,K*%
%TO.N,Net-(LED4-K)*%
X163352000Y-161995000D03*
D13*
%TO.P,LED4,2,A*%
%TO.N,Net-(LED1-A)*%
X163352000Y-164535000D03*
%TD*%
D14*
%TO.P,DIG4,1,CA*%
%TO.N,Net-(OPT1-Pin_2)*%
X142270000Y-147095000D03*
D15*
%TO.P,DIG4,2,E*%
%TO.N,/SDA.E*%
X147350000Y-147095000D03*
%TO.P,DIG4,3,D*%
%TO.N,/SDA.D*%
X152430000Y-147095000D03*
%TO.P,DIG4,4,C*%
%TO.N,/SDA.C*%
X157510000Y-147095000D03*
%TO.P,DIG4,5,DP*%
%TO.N,/SDA.P*%
X162590000Y-147095000D03*
%TO.P,DIG4,6,B*%
%TO.N,/SDA.B*%
X162590000Y-39145000D03*
%TO.P,DIG4,7,A*%
%TO.N,/SDA.A*%
X157510000Y-39145000D03*
%TO.P,DIG4,8,CA*%
%TO.N,Net-(OPT1-Pin_2)*%
X152430000Y-39145000D03*
%TO.P,DIG4,9,F*%
%TO.N,/SDA.F*%
X147350000Y-39145000D03*
%TO.P,DIG4,10,G*%
%TO.N,/SDA.G*%
X142270000Y-39145000D03*
%TD*%
D16*
%TO.P,DIG1,1,CA*%
%TO.N,Net-(OPT10-Pin_2)*%
X81894200Y-147059800D03*
D17*
%TO.P,DIG1,2,E*%
%TO.N,/SDA.E*%
X84442000Y-147059800D03*
%TO.P,DIG1,3,D*%
%TO.N,/SDA.D*%
X86974200Y-147059800D03*
%TO.P,DIG1,4,C*%
%TO.N,/SDA.C*%
X89522000Y-147059800D03*
%TO.P,DIG1,5,CA*%
%TO.N,Net-(OPT10-Pin_2)*%
X92062000Y-147059800D03*
%TO.P,DIG1,6,B*%
%TO.N,/SDA.B*%
X92054200Y-98799800D03*
%TO.P,DIG1,7,A*%
%TO.N,/SDA.A*%
X89514200Y-98799800D03*
%TO.P,DIG1,8,DP*%
%TO.N,/SDA.P*%
X86974200Y-98799800D03*
%TO.P,DIG1,9,F*%
%TO.N,/SDA.F*%
X84434200Y-98799800D03*
%TO.P,DIG1,10,G*%
%TO.N,/SDA.G*%
X81894200Y-98799800D03*
%TD*%
D14*
%TO.P,DIG3,1,CA*%
%TO.N,Net-(OPT10-Pin_2)*%
X52100000Y-147095000D03*
D15*
%TO.P,DIG3,2,E*%
%TO.N,/SDA.E*%
X57180000Y-147095000D03*
%TO.P,DIG3,3,D*%
%TO.N,/SDA.D*%
X62260000Y-147095000D03*
%TO.P,DIG3,4,C*%
%TO.N,/SDA.C*%
X67340000Y-147095000D03*
%TO.P,DIG3,5,DP*%
%TO.N,/SDA.P*%
X72420000Y-147095000D03*
%TO.P,DIG3,6,B*%
%TO.N,/SDA.B*%
X72420000Y-39145000D03*
%TO.P,DIG3,7,A*%
%TO.N,/SDA.A*%
X67340000Y-39145000D03*
%TO.P,DIG3,8,CA*%
%TO.N,Net-(OPT10-Pin_2)*%
X62260000Y-39145000D03*
%TO.P,DIG3,9,F*%
%TO.N,/SDA.F*%
X57180000Y-39145000D03*
%TO.P,DIG3,10,G*%
%TO.N,/SDA.G*%
X52100000Y-39145000D03*
%TD*%
D12*
%TO.P,LED1,1,K*%
%TO.N,Net-(LED1-K)*%
X49052000Y-161995000D03*
D13*
%TO.P,LED1,2,A*%
%TO.N,Net-(LED1-A)*%
X49052000Y-164535000D03*
%TD*%
D12*
%TO.P,LED3,1,K*%
%TO.N,Net-(LED3-K)*%
X125252000Y-161995000D03*
D13*
%TO.P,LED3,2,A*%
%TO.N,Net-(LED1-A)*%
X125252000Y-164535000D03*
%TD*%
D12*
%TO.P,LED2,1,K*%
%TO.N,Net-(LED2-K)*%
X87152000Y-161995000D03*
D13*
%TO.P,LED2,2,A*%
%TO.N,Net-(LED1-A)*%
X87152000Y-164535000D03*
%TD*%
D16*
%TO.P,DIG2,1,CA*%
%TO.N,Net-(OPT1-Pin_2)*%
X122534200Y-147059800D03*
D17*
%TO.P,DIG2,2,E*%
%TO.N,/SDA.E*%
X125082000Y-147059800D03*
%TO.P,DIG2,3,D*%
%TO.N,/SDA.D*%
X127614200Y-147059800D03*
%TO.P,DIG2,4,C*%
%TO.N,/SDA.C*%
X130162000Y-147059800D03*
%TO.P,DIG2,5,CA*%
%TO.N,Net-(OPT1-Pin_2)*%
X132702000Y-147059800D03*
%TO.P,DIG2,6,B*%
%TO.N,/SDA.B*%
X132694200Y-98799800D03*
%TO.P,DIG2,7,A*%
%TO.N,/SDA.A*%
X130154200Y-98799800D03*
%TO.P,DIG2,8,DP*%
%TO.N,/SDA.P*%
X127614200Y-98799800D03*
%TO.P,DIG2,9,F*%
%TO.N,/SDA.F*%
X125074200Y-98799800D03*
%TO.P,DIG2,10,G*%
%TO.N,/SDA.G*%
X122534200Y-98799800D03*
%TD*%
D18*
%TO.P,R5,1*%
%TO.N,/SD.E*%
X137190000Y-46425000D03*
D19*
%TO.P,R5,2*%
%TO.N,/SDA.E*%
X137190000Y-56585000D03*
%TD*%
D18*
%TO.P,R12,1*%
%TO.N,/SD.D*%
X170210000Y-131515000D03*
D19*
%TO.P,R12,2*%
%TO.N,Net-(LED4-K)*%
X170210000Y-141675000D03*
%TD*%
D20*
%TO.P,OPT10,1,Pin_1*%
%TO.N,Net-(J1-Pin_2)*%
X34325000Y-66760000D03*
D21*
%TO.P,OPT10,2,Pin_2*%
%TO.N,Net-(OPT10-Pin_2)*%
X31785000Y-66760000D03*
%TO.P,OPT10,3,Pin_3*%
%TO.N,Net-(J1-Pin_6)*%
X34325000Y-69300000D03*
%TO.P,OPT10,4,Pin_4*%
%TO.N,Net-(OPT10-Pin_2)*%
X31785000Y-69300000D03*
%TO.P,OPT10,5,Pin_5*%
%TO.N,Net-(J1-Pin_10)*%
X34325000Y-71840000D03*
%TO.P,OPT10,6,Pin_6*%
%TO.N,Net-(OPT10-Pin_2)*%
X31785000Y-71840000D03*
%TD*%
D18*
%TO.P,R7,1*%
%TO.N,/SD.G*%
X142270000Y-56585000D03*
D19*
%TO.P,R7,2*%
%TO.N,/SDA.G*%
X142270000Y-46425000D03*
%TD*%
D20*
%TO.P,J1,1,Pin_1*%
%TO.N,GND*%
X59725000Y-66755000D03*
D21*
%TO.P,J1,2,Pin_2*%
%TO.N,Net-(J1-Pin_2)*%
X57185000Y-66755000D03*
%TO.P,J1,3,Pin_3*%
%TO.N,/SD.A*%
X59725000Y-69295000D03*
%TO.P,J1,4,Pin_4*%
%TO.N,Net-(J1-Pin_4)*%
X57185000Y-69295000D03*
%TO.P,J1,5,Pin_5*%
%TO.N,/SD.B*%
X59725000Y-71835000D03*
%TO.P,J1,6,Pin_6*%
%TO.N,Net-(J1-Pin_6)*%
X57185000Y-71835000D03*
%TO.P,J1,7,Pin_7*%
%TO.N,/SD.C*%
X59725000Y-74375000D03*
%TO.P,J1,8,Pin_8*%
%TO.N,Net-(J1-Pin_8)*%
X57185000Y-74375000D03*
%TO.P,J1,9,Pin_9*%
%TO.N,/SD.D*%
X59725000Y-76915000D03*
%TO.P,J1,10,Pin_10*%
%TO.N,Net-(J1-Pin_10)*%
X57185000Y-76915000D03*
%TO.P,J1,11,Pin_11*%
%TO.N,/SD.E*%
X59725000Y-79455000D03*
%TO.P,J1,12,Pin_12*%
%TO.N,Net-(J1-Pin_12)*%
X57185000Y-79455000D03*
%TO.P,J1,13,Pin_13*%
%TO.N,/SD.F*%
X59725000Y-81995000D03*
%TO.P,J1,14,Pin_14*%
%TO.N,Net-(J1-Pin_14)*%
X57185000Y-81995000D03*
%TO.P,J1,15,Pin_15*%
%TO.N,/SD.G*%
X59725000Y-84535000D03*
%TO.P,J1,16,Pin_16*%
%TO.N,Net-(J1-Pin_16)*%
X57185000Y-84535000D03*
%TO.P,J1,17,Pin_17*%
%TO.N,/SD.P*%
X59725000Y-87075000D03*
%TO.P,J1,18,Pin_18*%
%TO.N,GND*%
X57185000Y-87075000D03*
%TD*%
D18*
%TO.P,R13,1*%
%TO.N,/SD.E*%
X45750000Y-131515000D03*
D19*
%TO.P,R13,2*%
%TO.N,Net-(LED1-K)*%
X45750000Y-141675000D03*
%TD*%
D18*
%TO.P,R10,1*%
%TO.N,/SD.B*%
X96550000Y-131515000D03*
D19*
%TO.P,R10,2*%
%TO.N,Net-(LED2-K)*%
X96550000Y-141675000D03*
%TD*%
D18*
%TO.P,R2,1*%
%TO.N,/SD.B*%
X72420000Y-56585000D03*
D19*
%TO.P,R2,2*%
%TO.N,/SDA.B*%
X72420000Y-46425000D03*
%TD*%
D18*
%TO.P,R11,1*%
%TO.N,/SD.C*%
X111790000Y-131515000D03*
D19*
%TO.P,R11,2*%
%TO.N,Net-(LED3-K)*%
X111790000Y-141675000D03*
%TD*%
D18*
%TO.P,R6,1*%
%TO.N,/SD.F*%
X147350000Y-56585000D03*
D19*
%TO.P,R6,2*%
%TO.N,/SDA.F*%
X147350000Y-46425000D03*
%TD*%
D18*
%TO.P,R3,1*%
%TO.N,/SD.C*%
X77500000Y-56585000D03*
D19*
%TO.P,R3,2*%
%TO.N,/SDA.C*%
X77500000Y-46425000D03*
%TD*%
D18*
%TO.P,R16,1*%
%TO.N,/SD.P*%
X176814000Y-131515000D03*
D19*
%TO.P,R16,2*%
%TO.N,Net-(LED4-K)*%
X176814000Y-141675000D03*
%TD*%
D20*
%TO.P,GND,1,Pin_1*%
%TO.N,GND*%
X48290000Y-87065000D03*
%TD*%
D18*
%TO.P,R14,1*%
%TO.N,/SD.F*%
X102900000Y-131515000D03*
D19*
%TO.P,R14,2*%
%TO.N,Net-(LED2-K)*%
X102900000Y-141675000D03*
%TD*%
D18*
%TO.P,R4,1*%
%TO.N,/SD.D*%
X82580000Y-56585000D03*
D19*
%TO.P,R4,2*%
%TO.N,/SDA.D*%
X82580000Y-46425000D03*
%TD*%
D18*
%TO.P,R8,1*%
%TO.N,/SD.P*%
X152430000Y-56585000D03*
D19*
%TO.P,R8,2*%
%TO.N,/SDA.P*%
X152430000Y-46425000D03*
%TD*%
D20*
%TO.P,OPT1,1,Pin_1*%
%TO.N,Net-(J1-Pin_4)*%
X34325000Y-82000000D03*
D21*
%TO.P,OPT1,2,Pin_2*%
%TO.N,Net-(OPT1-Pin_2)*%
X31785000Y-82000000D03*
%TO.P,OPT1,3,Pin_3*%
%TO.N,Net-(J1-Pin_8)*%
X34325000Y-84540000D03*
%TO.P,OPT1,4,Pin_4*%
%TO.N,Net-(OPT1-Pin_2)*%
X31785000Y-84540000D03*
%TO.P,OPT1,5,Pin_5*%
%TO.N,Net-(J1-Pin_12)*%
X34325000Y-87080000D03*
%TO.P,OPT1,6,Pin_6*%
%TO.N,Net-(OPT1-Pin_2)*%
X31785000Y-87080000D03*
%TD*%
D18*
%TO.P,R9,1*%
%TO.N,/SD.A*%
X39400000Y-131515000D03*
D19*
%TO.P,R9,2*%
%TO.N,Net-(LED1-K)*%
X39400000Y-141675000D03*
%TD*%
D20*
%TO.P,OPT-IND,1,Pin_A*%
%TO.N,Net-(J1-Pin_14)*%
X34320000Y-98495000D03*
D21*
%TO.P,OPT-IND,2,Pin_Common*%
%TO.N,Net-(LED1-A)*%
X34320000Y-101035000D03*
%TO.P,OPT-IND,3,Pin_B*%
%TO.N,Net-(J1-Pin_16)*%
X34320000Y-103575000D03*
%TD*%
D18*
%TO.P,R15,1*%
%TO.N,/SD.G*%
X118394000Y-131515000D03*
D19*
%TO.P,R15,2*%
%TO.N,Net-(LED3-K)*%
X118394000Y-141675000D03*
%TD*%
D18*
%TO.P,R1,1*%
%TO.N,/SD.A*%
X67340000Y-56585000D03*
D19*
%TO.P,R1,2*%
%TO.N,/SDA.A*%
X67340000Y-46425000D03*
%TD*%
D22*
%TO.N,/SDA.D*%
X28605000Y-98495000D03*
%TO.N,/SDA.B*%
X92105000Y-41980000D03*
%TO.N,/SDA.A*%
X89565000Y-43885000D03*
%TO.N,GND*%
X66705000Y-90875000D03*
%TO.N,/SD.B*%
X105440000Y-54045000D03*
%TO.N,/SD.C*%
X63530000Y-89097000D03*
%TD*%
D23*
%TO.N,/SDA.E*%
X127030000Y-137865000D02*
X137190000Y-137865000D01*
X125082000Y-139813000D02*
X127030000Y-137865000D01*
X138460000Y-136595000D02*
X138460000Y-57855000D01*
X125082000Y-139727000D02*
X123855000Y-138500000D01*
X84442000Y-139813000D02*
X84442000Y-147059800D01*
X85755000Y-138500000D02*
X84442000Y-139813000D01*
X138460000Y-57855000D02*
X137190000Y-56585000D01*
X123855000Y-138500000D02*
X85755000Y-138500000D01*
X125082000Y-147059800D02*
X125082000Y-139813000D01*
X137190000Y-137865000D02*
X138460000Y-136595000D01*
%TO.N,/SDA.D*%
X82580000Y-33725000D02*
X79405000Y-30550000D01*
X127030000Y-149295000D02*
X121315000Y-149295000D01*
X127614200Y-147059800D02*
X127614200Y-148710800D01*
X87825000Y-139605000D02*
X86974200Y-140455800D01*
X28605000Y-32455000D02*
X28605000Y-98495000D01*
X86974200Y-140455800D02*
X86974200Y-147059800D01*
X82580000Y-46425000D02*
X82580000Y-33725000D01*
X119251422Y-139605000D02*
X87825000Y-139605000D01*
X120807000Y-148787000D02*
X120807000Y-141160578D01*
X30510000Y-30550000D02*
X28605000Y-32455000D01*
X120807000Y-141160578D02*
X119251422Y-139605000D01*
X127614200Y-148710800D02*
X127030000Y-149295000D01*
X121315000Y-149295000D02*
X120807000Y-148787000D01*
X79405000Y-30550000D02*
X30510000Y-30550000D01*
%TO.N,/SDA.C*%
X120045000Y-141476208D02*
X118935792Y-140367000D01*
X67340000Y-149930000D02*
X67975000Y-150565000D01*
X59507000Y-139262000D02*
X43529370Y-139262000D01*
X88295000Y-150565000D02*
X89522000Y-149338000D01*
X89522000Y-141083000D02*
X89522000Y-147059800D01*
X130162000Y-147059800D02*
X130162000Y-149338000D01*
X118935792Y-140367000D02*
X90238000Y-140367000D01*
X77500000Y-46425000D02*
X74960000Y-48965000D01*
X89522000Y-149338000D02*
X89522000Y-147059800D01*
X128935000Y-150565000D02*
X121315000Y-150565000D01*
X67975000Y-150565000D02*
X88295000Y-150565000D01*
X74960000Y-104083000D02*
X72420000Y-106623000D01*
X41813000Y-108339370D02*
X43529370Y-106623000D01*
X121315000Y-150565000D02*
X120045000Y-149295000D01*
X43529370Y-139262000D02*
X41813000Y-137545630D01*
X130162000Y-149338000D02*
X128935000Y-150565000D01*
X43529370Y-106623000D02*
X72420000Y-106623000D01*
X67340000Y-147095000D02*
X67340000Y-149930000D01*
X120045000Y-149295000D02*
X120045000Y-141476208D01*
X74960000Y-48965000D02*
X74960000Y-104083000D01*
X67340000Y-147095000D02*
X59507000Y-139262000D01*
X90238000Y-140367000D02*
X89522000Y-141083000D01*
X41813000Y-137545630D02*
X41813000Y-108339370D01*
%TO.N,/SDA.B*%
X92054200Y-42030800D02*
X92105000Y-41980000D01*
X72420000Y-46425000D02*
X72420000Y-39145000D01*
X92054200Y-98799800D02*
X92054200Y-42030800D01*
%TO.N,/SDA.A*%
X67340000Y-46425000D02*
X67340000Y-39145000D01*
X89514200Y-98799800D02*
X89514200Y-43935800D01*
X89514200Y-43935800D02*
X89565000Y-43885000D01*
%TO.N,/SDA.P*%
X71150000Y-138500000D02*
X43845000Y-138500000D01*
X72420000Y-147095000D02*
X72420000Y-139770000D01*
X154970000Y-43885000D02*
X152430000Y-46425000D01*
X87075800Y-106165800D02*
X88295000Y-107385000D01*
X94645000Y-106115000D02*
X94645000Y-37535000D01*
X93375000Y-107385000D02*
X94645000Y-106115000D01*
X94645000Y-37535000D02*
X95915000Y-36265000D01*
X95915000Y-36265000D02*
X152430000Y-36265000D01*
X72420000Y-139770000D02*
X71150000Y-138500000D01*
X88295000Y-107385000D02*
X93375000Y-107385000D01*
X43845000Y-138500000D02*
X42575000Y-137230000D01*
X42575000Y-137230000D02*
X42575000Y-108655000D01*
X86974200Y-106165800D02*
X87075800Y-106165800D01*
X152430000Y-36265000D02*
X154970000Y-38805000D01*
X85755000Y-107385000D02*
X86974200Y-106165800D01*
X86974200Y-98799800D02*
X86974200Y-106165800D01*
X42575000Y-108655000D02*
X43845000Y-107385000D01*
X43845000Y-107385000D02*
X85755000Y-107385000D01*
X154970000Y-38805000D02*
X154970000Y-43885000D01*
%TO.N,/SDA.F*%
X81310000Y-101670000D02*
X83215000Y-101670000D01*
X57180000Y-36265000D02*
X59085000Y-34360000D01*
X127030000Y-51505000D02*
X125074200Y-53460800D01*
X147350000Y-46425000D02*
X147350000Y-39145000D01*
X125074200Y-53460800D02*
X125074200Y-98799800D01*
X84434200Y-100450800D02*
X84434200Y-98799800D01*
X79405000Y-99765000D02*
X81310000Y-101670000D01*
X79405000Y-36392000D02*
X79405000Y-99765000D01*
X147350000Y-49600000D02*
X145445000Y-51505000D01*
X145445000Y-51505000D02*
X127030000Y-51505000D01*
X57180000Y-39145000D02*
X57180000Y-36265000D01*
X77373000Y-34360000D02*
X79405000Y-36392000D01*
X83215000Y-101670000D02*
X84434200Y-100450800D01*
X147350000Y-46425000D02*
X147350000Y-49600000D01*
X59085000Y-34360000D02*
X77373000Y-34360000D01*
%TO.N,/SDA.G*%
X57180000Y-32455000D02*
X78770000Y-32455000D01*
X122534200Y-52825800D02*
X122534200Y-98799800D01*
X52100000Y-39145000D02*
X52100000Y-37535000D01*
X125125000Y-50235000D02*
X122534200Y-52825800D01*
X140365000Y-50235000D02*
X125125000Y-50235000D01*
X142270000Y-46425000D02*
X142270000Y-39145000D01*
X78770000Y-32455000D02*
X80675000Y-34360000D01*
X80675000Y-34360000D02*
X80675000Y-68015000D01*
X142270000Y-48330000D02*
X140365000Y-50235000D01*
X80675000Y-97580600D02*
X81894200Y-98799800D01*
X80675000Y-68015000D02*
X80675000Y-97580600D01*
X52100000Y-37535000D02*
X57180000Y-32455000D01*
X142270000Y-46425000D02*
X142270000Y-48330000D01*
%TO.N,GND*%
X66705000Y-69285000D02*
X66705000Y-90875000D01*
X59725000Y-66755000D02*
X64155000Y-66755000D01*
X64155000Y-66755000D02*
X64165000Y-66745000D01*
X64165000Y-66745000D02*
X66705000Y-69285000D01*
X57185000Y-87075000D02*
X48300000Y-87075000D01*
X48300000Y-87075000D02*
X48290000Y-87065000D01*
%TO.N,Net-(J1-Pin_2)*%
X34325000Y-66760000D02*
X57180000Y-66760000D01*
X57180000Y-66760000D02*
X57185000Y-66755000D01*
%TO.N,/SD.A*%
X64800000Y-102305000D02*
X64800000Y-71190000D01*
X61625000Y-105480000D02*
X64800000Y-102305000D01*
X64800000Y-71190000D02*
X62905000Y-69295000D01*
X39400000Y-106750000D02*
X40670000Y-105480000D01*
X62905000Y-69295000D02*
X59725000Y-69295000D01*
X40670000Y-105480000D02*
X61625000Y-105480000D01*
X39400000Y-131515000D02*
X39400000Y-106750000D01*
%TO.N,/SD.B*%
X96550000Y-130245000D02*
X99090000Y-127705000D01*
X96550000Y-131515000D02*
X96550000Y-130245000D01*
X110520000Y-43885000D02*
X105440000Y-48965000D01*
X105440000Y-48965000D02*
X105440000Y-54045000D01*
X138460000Y-43885000D02*
X110520000Y-43885000D01*
X138460000Y-48965000D02*
X139730000Y-47695000D01*
X116870000Y-127705000D02*
X119410000Y-125165000D01*
X139730000Y-45155000D02*
X138460000Y-43885000D01*
X121950000Y-48965000D02*
X138460000Y-48965000D01*
X99090000Y-127705000D02*
X116870000Y-127705000D01*
X119410000Y-125165000D02*
X119410000Y-51505000D01*
X119410000Y-51505000D02*
X121950000Y-48965000D01*
X139730000Y-47695000D02*
X139730000Y-45155000D01*
%TO.N,Net-(J1-Pin_6)*%
X34325000Y-69300000D02*
X47035000Y-69300000D01*
X49570000Y-71835000D02*
X57185000Y-71835000D01*
X47035000Y-69300000D02*
X49570000Y-71835000D01*
%TO.N,/SD.C*%
X62260000Y-74365000D02*
X59735000Y-74365000D01*
X59735000Y-74365000D02*
X59725000Y-74375000D01*
X63530000Y-89097000D02*
X63530000Y-75635000D01*
X63530000Y-75635000D02*
X62260000Y-74365000D01*
%TO.N,/SD.D*%
X168305000Y-34360000D02*
X88295000Y-34360000D01*
X85120000Y-56585000D02*
X82580000Y-56585000D01*
X88295000Y-34360000D02*
X86390000Y-36265000D01*
X86390000Y-36265000D02*
X86390000Y-55315000D01*
X170210000Y-36265000D02*
X168305000Y-34360000D01*
X170210000Y-131515000D02*
X170210000Y-36265000D01*
X86390000Y-55315000D02*
X85120000Y-56585000D01*
%TO.N,Net-(J1-Pin_10)*%
X45765000Y-71840000D02*
X50840000Y-76915000D01*
X50840000Y-76915000D02*
X57185000Y-76915000D01*
X34325000Y-71840000D02*
X45765000Y-71840000D01*
%TO.N,/SD.E*%
X45750000Y-127070000D02*
X45750000Y-131515000D01*
X47020000Y-125800000D02*
X45750000Y-127070000D01*
X116235000Y-124530000D02*
X114965000Y-125800000D01*
X137190000Y-46425000D02*
X120045000Y-46425000D01*
X116235000Y-50235000D02*
X116235000Y-124530000D01*
X120045000Y-46425000D02*
X116235000Y-50235000D01*
X114965000Y-125800000D02*
X47020000Y-125800000D01*
%TO.N,/SD.F*%
X133380000Y-102940000D02*
X125125000Y-102940000D01*
X123220000Y-104845000D02*
X123220000Y-126435000D01*
X134650000Y-94685000D02*
X132110000Y-92145000D01*
X105440000Y-128975000D02*
X102900000Y-131515000D01*
X134650000Y-101670000D02*
X133380000Y-102940000D01*
X147350000Y-56585000D02*
X143540000Y-52775000D01*
X134650000Y-101670000D02*
X134650000Y-94685000D01*
X123220000Y-126435000D02*
X120680000Y-128975000D01*
X132110000Y-92145000D02*
X132110000Y-55315000D01*
X134650000Y-52775000D02*
X132110000Y-55315000D01*
X143540000Y-52775000D02*
X134650000Y-52775000D01*
X125125000Y-102940000D02*
X123220000Y-104845000D01*
X120680000Y-128975000D02*
X105440000Y-128975000D01*
%TO.N,Net-(J1-Pin_14)*%
X34320000Y-98495000D02*
X38130000Y-98495000D01*
X38130000Y-98495000D02*
X40670000Y-95955000D01*
X43210000Y-81985000D02*
X43220000Y-81995000D01*
X43220000Y-81995000D02*
X57185000Y-81995000D01*
X40670000Y-95955000D02*
X40670000Y-84525000D01*
X40670000Y-84525000D02*
X43210000Y-81985000D01*
%TO.N,/SD.G*%
X135920000Y-54045000D02*
X134650000Y-55315000D01*
X124490000Y-127705000D02*
X120680000Y-131515000D01*
X137190000Y-93415000D02*
X137190000Y-108655000D01*
X120680000Y-131515000D02*
X118394000Y-131515000D01*
X127030000Y-111195000D02*
X124490000Y-113735000D01*
X141000000Y-54045000D02*
X135920000Y-54045000D01*
X142270000Y-55315000D02*
X141000000Y-54045000D01*
X134650000Y-90875000D02*
X137190000Y-93415000D01*
X134650000Y-55315000D02*
X134650000Y-90875000D01*
X137190000Y-108655000D02*
X134650000Y-111195000D01*
X142270000Y-56585000D02*
X142270000Y-55315000D01*
X134650000Y-111195000D02*
X127030000Y-111195000D01*
X124490000Y-113735000D02*
X124490000Y-127705000D01*
%TO.N,Net-(J1-Pin_16)*%
X43210000Y-87065000D02*
X45750000Y-84525000D01*
X34320000Y-103575000D02*
X40670000Y-103575000D01*
X43210000Y-101035000D02*
X43210000Y-87065000D01*
X45750000Y-84525000D02*
X45760000Y-84535000D01*
X40670000Y-103575000D02*
X43210000Y-101035000D01*
X45760000Y-84535000D02*
X57185000Y-84535000D01*
%TO.N,Net-(LED1-K)*%
X49052000Y-160217000D02*
X49052000Y-161995000D01*
X39400000Y-141675000D02*
X45750000Y-141675000D01*
X45750000Y-156915000D02*
X49052000Y-160217000D01*
X45750000Y-141675000D02*
X45750000Y-156915000D01*
%TO.N,Net-(LED1-A)*%
X125252000Y-164535000D02*
X87152000Y-164535000D01*
X34320000Y-161995000D02*
X34320000Y-154375000D01*
X27970000Y-151835000D02*
X25430000Y-149295000D01*
X49052000Y-164535000D02*
X36860000Y-164535000D01*
X31780000Y-151835000D02*
X27970000Y-151835000D01*
X25430000Y-102305000D02*
X26700000Y-101035000D01*
X87152000Y-164535000D02*
X49052000Y-164535000D01*
X36860000Y-164535000D02*
X34320000Y-161995000D01*
X34320000Y-154375000D02*
X31780000Y-151835000D01*
X26700000Y-101035000D02*
X34320000Y-101035000D01*
X25430000Y-149295000D02*
X25430000Y-102305000D01*
X163352000Y-164535000D02*
X125252000Y-164535000D01*
%TO.N,Net-(LED2-K)*%
X96550000Y-141675000D02*
X96550000Y-154375000D01*
X94010000Y-156915000D02*
X88930000Y-156915000D01*
X87152000Y-158693000D02*
X87152000Y-161995000D01*
X88930000Y-156915000D02*
X87152000Y-158693000D01*
X96550000Y-154375000D02*
X94010000Y-156915000D01*
X102900000Y-141675000D02*
X96550000Y-141675000D01*
%TO.N,Net-(LED3-K)*%
X118394000Y-154629000D02*
X120680000Y-156915000D01*
X123220000Y-156915000D02*
X125252000Y-158947000D01*
X118394000Y-141675000D02*
X118394000Y-154629000D01*
X120680000Y-156915000D02*
X123220000Y-156915000D01*
X125252000Y-158947000D02*
X125252000Y-161995000D01*
X111790000Y-141675000D02*
X118394000Y-141675000D01*
%TO.N,Net-(LED4-K)*%
X176814000Y-141675000D02*
X170210000Y-141675000D01*
X163352000Y-158693000D02*
X163352000Y-161995000D01*
X170210000Y-141675000D02*
X170210000Y-155645000D01*
X170210000Y-155645000D02*
X168940000Y-156915000D01*
X165130000Y-156915000D02*
X163352000Y-158693000D01*
X168940000Y-156915000D02*
X165130000Y-156915000D01*
%TO.N,Net-(OPT10-Pin_2)*%
X31785000Y-71840000D02*
X31785000Y-69300000D01*
X31785000Y-69300000D02*
X31785000Y-66760000D01*
X31785000Y-46420000D02*
X33050000Y-45155000D01*
X60990000Y-45155000D02*
X62260000Y-43885000D01*
X62260000Y-43885000D02*
X62260000Y-39145000D01*
X31785000Y-66760000D02*
X31785000Y-46420000D01*
X33050000Y-45155000D02*
X60990000Y-45155000D01*
%TO.N,Net-(OPT1-Pin_2)*%
X144175000Y-139770000D02*
X142270000Y-141675000D01*
X148658000Y-137192000D02*
X146080000Y-139770000D01*
X152430000Y-39145000D02*
X148658000Y-42917000D01*
X31785000Y-84540000D02*
X31785000Y-87080000D01*
X31785000Y-82000000D02*
X31785000Y-84540000D01*
X142270000Y-141675000D02*
X142270000Y-147095000D01*
X146080000Y-139770000D02*
X144175000Y-139770000D01*
X148658000Y-42917000D02*
X148658000Y-137192000D01*
%TD*%
M02*
