%TF.GenerationSoftware,KiCad,Pcbnew,7.0.2*%
%TF.CreationDate,2023-07-06T23:20:30-07:00*%
%TF.ProjectId,Score-Board-Digits,53636f72-652d-4426-9f61-72642d446967,1*%
%TF.SameCoordinates,Original*%
%TF.FileFunction,Soldermask,Top*%
%TF.FilePolarity,Negative*%
%FSLAX46Y46*%
G04 Gerber Fmt 4.6, Leading zero omitted, Abs format (unit mm)*
G04 Created by KiCad (PCBNEW 7.0.2) date 2023-07-06 23:20:30*
%MOMM*%
%LPD*%
G01*
G04 APERTURE LIST*
%ADD10C,3.200000*%
%ADD11R,1.800000X1.800000*%
%ADD12C,1.800000*%
%ADD13R,2.200000X2.000000*%
%ADD14C,2.200000*%
%ADD15R,2.000000X2.000000*%
%ADD16C,2.000000*%
%ADD17C,1.600000*%
%ADD18O,1.600000X1.600000*%
%ADD19R,1.700000X1.700000*%
%ADD20O,1.700000X1.700000*%
G04 APERTURE END LIST*
D10*
%TO.C,H1*%
X25430000Y-22295000D03*
%TD*%
D11*
%TO.C,LED4*%
X163352000Y-161995000D03*
D12*
X163352000Y-164535000D03*
%TD*%
D10*
%TO.C,H2*%
X190530000Y-22295000D03*
%TD*%
D13*
%TO.C,DIG4*%
X142270000Y-147095000D03*
D14*
X147350000Y-147095000D03*
X152430000Y-147095000D03*
X157510000Y-147095000D03*
X162590000Y-147095000D03*
X162590000Y-39145000D03*
X157510000Y-39145000D03*
X152430000Y-39145000D03*
X147350000Y-39145000D03*
X142270000Y-39145000D03*
%TD*%
D15*
%TO.C,DIG1*%
X81894200Y-147059800D03*
D16*
X84442000Y-147059800D03*
X86974200Y-147059800D03*
X89522000Y-147059800D03*
X92062000Y-147059800D03*
X92054200Y-98799800D03*
X89514200Y-98799800D03*
X86974200Y-98799800D03*
X84434200Y-98799800D03*
X81894200Y-98799800D03*
%TD*%
D13*
%TO.C,DIG3*%
X52100000Y-147095000D03*
D14*
X57180000Y-147095000D03*
X62260000Y-147095000D03*
X67340000Y-147095000D03*
X72420000Y-147095000D03*
X72420000Y-39145000D03*
X67340000Y-39145000D03*
X62260000Y-39145000D03*
X57180000Y-39145000D03*
X52100000Y-39145000D03*
%TD*%
D11*
%TO.C,LED1*%
X49052000Y-161995000D03*
D12*
X49052000Y-164535000D03*
%TD*%
D11*
%TO.C,LED3*%
X125252000Y-161995000D03*
D12*
X125252000Y-164535000D03*
%TD*%
D10*
%TO.C,H4*%
X190530000Y-161995000D03*
%TD*%
D11*
%TO.C,LED2*%
X87152000Y-161995000D03*
D12*
X87152000Y-164535000D03*
%TD*%
D15*
%TO.C,DIG2*%
X122534200Y-147059800D03*
D16*
X125082000Y-147059800D03*
X127614200Y-147059800D03*
X130162000Y-147059800D03*
X132702000Y-147059800D03*
X132694200Y-98799800D03*
X130154200Y-98799800D03*
X127614200Y-98799800D03*
X125074200Y-98799800D03*
X122534200Y-98799800D03*
%TD*%
D10*
%TO.C,H3*%
X25430000Y-161995000D03*
%TD*%
D17*
%TO.C,R5*%
X137190000Y-46425000D03*
D18*
X137190000Y-56585000D03*
%TD*%
D17*
%TO.C,R12*%
X170210000Y-131515000D03*
D18*
X170210000Y-141675000D03*
%TD*%
D19*
%TO.C,OPT10*%
X34325000Y-66760000D03*
D20*
X31785000Y-66760000D03*
X34325000Y-69300000D03*
X31785000Y-69300000D03*
X34325000Y-71840000D03*
X31785000Y-71840000D03*
%TD*%
D17*
%TO.C,R7*%
X142270000Y-56585000D03*
D18*
X142270000Y-46425000D03*
%TD*%
D19*
%TO.C,J1*%
X59725000Y-66755000D03*
D20*
X57185000Y-66755000D03*
X59725000Y-69295000D03*
X57185000Y-69295000D03*
X59725000Y-71835000D03*
X57185000Y-71835000D03*
X59725000Y-74375000D03*
X57185000Y-74375000D03*
X59725000Y-76915000D03*
X57185000Y-76915000D03*
X59725000Y-79455000D03*
X57185000Y-79455000D03*
X59725000Y-81995000D03*
X57185000Y-81995000D03*
X59725000Y-84535000D03*
X57185000Y-84535000D03*
X59725000Y-87075000D03*
X57185000Y-87075000D03*
%TD*%
D17*
%TO.C,R13*%
X45750000Y-131515000D03*
D18*
X45750000Y-141675000D03*
%TD*%
D17*
%TO.C,R10*%
X96550000Y-131515000D03*
D18*
X96550000Y-141675000D03*
%TD*%
D17*
%TO.C,R2*%
X72420000Y-56585000D03*
D18*
X72420000Y-46425000D03*
%TD*%
D17*
%TO.C,R11*%
X111790000Y-131515000D03*
D18*
X111790000Y-141675000D03*
%TD*%
D17*
%TO.C,R6*%
X147350000Y-56585000D03*
D18*
X147350000Y-46425000D03*
%TD*%
D17*
%TO.C,R3*%
X77500000Y-56585000D03*
D18*
X77500000Y-46425000D03*
%TD*%
D17*
%TO.C,R16*%
X176814000Y-131515000D03*
D18*
X176814000Y-141675000D03*
%TD*%
D19*
%TO.C,GND*%
X48290000Y-87065000D03*
%TD*%
D17*
%TO.C,R14*%
X102900000Y-131515000D03*
D18*
X102900000Y-141675000D03*
%TD*%
D17*
%TO.C,R4*%
X82580000Y-56585000D03*
D18*
X82580000Y-46425000D03*
%TD*%
D17*
%TO.C,R8*%
X152430000Y-56585000D03*
D18*
X152430000Y-46425000D03*
%TD*%
D19*
%TO.C,OPT1*%
X34325000Y-82000000D03*
D20*
X31785000Y-82000000D03*
X34325000Y-84540000D03*
X31785000Y-84540000D03*
X34325000Y-87080000D03*
X31785000Y-87080000D03*
%TD*%
D17*
%TO.C,R9*%
X39400000Y-131515000D03*
D18*
X39400000Y-141675000D03*
%TD*%
D19*
%TO.C,OPT-IND*%
X34320000Y-98495000D03*
D20*
X34320000Y-101035000D03*
X34320000Y-103575000D03*
%TD*%
D17*
%TO.C,R15*%
X118394000Y-131515000D03*
D18*
X118394000Y-141675000D03*
%TD*%
D17*
%TO.C,R1*%
X67340000Y-56585000D03*
D18*
X67340000Y-46425000D03*
%TD*%
M02*
