%TF.GenerationSoftware,KiCad,Pcbnew,7.0.2*%
%TF.CreationDate,2023-07-06T23:20:30-07:00*%
%TF.ProjectId,Score-Board-Digits,53636f72-652d-4426-9f61-72642d446967,1*%
%TF.SameCoordinates,Original*%
%TF.FileFunction,Legend,Bot*%
%TF.FilePolarity,Positive*%
%FSLAX46Y46*%
G04 Gerber Fmt 4.6, Leading zero omitted, Abs format (unit mm)*
G04 Created by KiCad (PCBNEW 7.0.2) date 2023-07-06 23:20:30*
%MOMM*%
%LPD*%
G01*
G04 APERTURE LIST*
%ADD10C,0.203200*%
%ADD11C,0.150000*%
%ADD12C,0.120000*%
G04 APERTURE END LIST*
D10*
X195319714Y-166815920D02*
X195102000Y-166888491D01*
X195102000Y-166888491D02*
X194739142Y-166888491D01*
X194739142Y-166888491D02*
X194594000Y-166815920D01*
X194594000Y-166815920D02*
X194521428Y-166743348D01*
X194521428Y-166743348D02*
X194448857Y-166598205D01*
X194448857Y-166598205D02*
X194448857Y-166453062D01*
X194448857Y-166453062D02*
X194521428Y-166307920D01*
X194521428Y-166307920D02*
X194594000Y-166235348D01*
X194594000Y-166235348D02*
X194739142Y-166162777D01*
X194739142Y-166162777D02*
X195029428Y-166090205D01*
X195029428Y-166090205D02*
X195174571Y-166017634D01*
X195174571Y-166017634D02*
X195247142Y-165945062D01*
X195247142Y-165945062D02*
X195319714Y-165799920D01*
X195319714Y-165799920D02*
X195319714Y-165654777D01*
X195319714Y-165654777D02*
X195247142Y-165509634D01*
X195247142Y-165509634D02*
X195174571Y-165437062D01*
X195174571Y-165437062D02*
X195029428Y-165364491D01*
X195029428Y-165364491D02*
X194666571Y-165364491D01*
X194666571Y-165364491D02*
X194448857Y-165437062D01*
X193142571Y-166815920D02*
X193287713Y-166888491D01*
X193287713Y-166888491D02*
X193577999Y-166888491D01*
X193577999Y-166888491D02*
X193723142Y-166815920D01*
X193723142Y-166815920D02*
X193795713Y-166743348D01*
X193795713Y-166743348D02*
X193868285Y-166598205D01*
X193868285Y-166598205D02*
X193868285Y-166162777D01*
X193868285Y-166162777D02*
X193795713Y-166017634D01*
X193795713Y-166017634D02*
X193723142Y-165945062D01*
X193723142Y-165945062D02*
X193577999Y-165872491D01*
X193577999Y-165872491D02*
X193287713Y-165872491D01*
X193287713Y-165872491D02*
X193142571Y-165945062D01*
X192271713Y-166888491D02*
X192416856Y-166815920D01*
X192416856Y-166815920D02*
X192489427Y-166743348D01*
X192489427Y-166743348D02*
X192561999Y-166598205D01*
X192561999Y-166598205D02*
X192561999Y-166162777D01*
X192561999Y-166162777D02*
X192489427Y-166017634D01*
X192489427Y-166017634D02*
X192416856Y-165945062D01*
X192416856Y-165945062D02*
X192271713Y-165872491D01*
X192271713Y-165872491D02*
X192053999Y-165872491D01*
X192053999Y-165872491D02*
X191908856Y-165945062D01*
X191908856Y-165945062D02*
X191836285Y-166017634D01*
X191836285Y-166017634D02*
X191763713Y-166162777D01*
X191763713Y-166162777D02*
X191763713Y-166598205D01*
X191763713Y-166598205D02*
X191836285Y-166743348D01*
X191836285Y-166743348D02*
X191908856Y-166815920D01*
X191908856Y-166815920D02*
X192053999Y-166888491D01*
X192053999Y-166888491D02*
X192271713Y-166888491D01*
X191110570Y-166888491D02*
X191110570Y-165872491D01*
X191110570Y-166162777D02*
X191037999Y-166017634D01*
X191037999Y-166017634D02*
X190965428Y-165945062D01*
X190965428Y-165945062D02*
X190820285Y-165872491D01*
X190820285Y-165872491D02*
X190675142Y-165872491D01*
X189586570Y-166815920D02*
X189731713Y-166888491D01*
X189731713Y-166888491D02*
X190021999Y-166888491D01*
X190021999Y-166888491D02*
X190167141Y-166815920D01*
X190167141Y-166815920D02*
X190239713Y-166670777D01*
X190239713Y-166670777D02*
X190239713Y-166090205D01*
X190239713Y-166090205D02*
X190167141Y-165945062D01*
X190167141Y-165945062D02*
X190021999Y-165872491D01*
X190021999Y-165872491D02*
X189731713Y-165872491D01*
X189731713Y-165872491D02*
X189586570Y-165945062D01*
X189586570Y-165945062D02*
X189513999Y-166090205D01*
X189513999Y-166090205D02*
X189513999Y-166235348D01*
X189513999Y-166235348D02*
X190239713Y-166380491D01*
X188860855Y-166888491D02*
X188860855Y-165364491D01*
X188860855Y-165945062D02*
X188715713Y-165872491D01*
X188715713Y-165872491D02*
X188425427Y-165872491D01*
X188425427Y-165872491D02*
X188280284Y-165945062D01*
X188280284Y-165945062D02*
X188207713Y-166017634D01*
X188207713Y-166017634D02*
X188135141Y-166162777D01*
X188135141Y-166162777D02*
X188135141Y-166598205D01*
X188135141Y-166598205D02*
X188207713Y-166743348D01*
X188207713Y-166743348D02*
X188280284Y-166815920D01*
X188280284Y-166815920D02*
X188425427Y-166888491D01*
X188425427Y-166888491D02*
X188715713Y-166888491D01*
X188715713Y-166888491D02*
X188860855Y-166815920D01*
X187264284Y-166888491D02*
X187409427Y-166815920D01*
X187409427Y-166815920D02*
X187481998Y-166743348D01*
X187481998Y-166743348D02*
X187554570Y-166598205D01*
X187554570Y-166598205D02*
X187554570Y-166162777D01*
X187554570Y-166162777D02*
X187481998Y-166017634D01*
X187481998Y-166017634D02*
X187409427Y-165945062D01*
X187409427Y-165945062D02*
X187264284Y-165872491D01*
X187264284Y-165872491D02*
X187046570Y-165872491D01*
X187046570Y-165872491D02*
X186901427Y-165945062D01*
X186901427Y-165945062D02*
X186828856Y-166017634D01*
X186828856Y-166017634D02*
X186756284Y-166162777D01*
X186756284Y-166162777D02*
X186756284Y-166598205D01*
X186756284Y-166598205D02*
X186828856Y-166743348D01*
X186828856Y-166743348D02*
X186901427Y-166815920D01*
X186901427Y-166815920D02*
X187046570Y-166888491D01*
X187046570Y-166888491D02*
X187264284Y-166888491D01*
X185449999Y-166888491D02*
X185449999Y-166090205D01*
X185449999Y-166090205D02*
X185522570Y-165945062D01*
X185522570Y-165945062D02*
X185667713Y-165872491D01*
X185667713Y-165872491D02*
X185957999Y-165872491D01*
X185957999Y-165872491D02*
X186103141Y-165945062D01*
X185449999Y-166815920D02*
X185595141Y-166888491D01*
X185595141Y-166888491D02*
X185957999Y-166888491D01*
X185957999Y-166888491D02*
X186103141Y-166815920D01*
X186103141Y-166815920D02*
X186175713Y-166670777D01*
X186175713Y-166670777D02*
X186175713Y-166525634D01*
X186175713Y-166525634D02*
X186103141Y-166380491D01*
X186103141Y-166380491D02*
X185957999Y-166307920D01*
X185957999Y-166307920D02*
X185595141Y-166307920D01*
X185595141Y-166307920D02*
X185449999Y-166235348D01*
X184724284Y-166888491D02*
X184724284Y-165872491D01*
X184724284Y-166162777D02*
X184651713Y-166017634D01*
X184651713Y-166017634D02*
X184579142Y-165945062D01*
X184579142Y-165945062D02*
X184433999Y-165872491D01*
X184433999Y-165872491D02*
X184288856Y-165872491D01*
X183127713Y-166888491D02*
X183127713Y-165364491D01*
X183127713Y-166815920D02*
X183272855Y-166888491D01*
X183272855Y-166888491D02*
X183563141Y-166888491D01*
X183563141Y-166888491D02*
X183708284Y-166815920D01*
X183708284Y-166815920D02*
X183780855Y-166743348D01*
X183780855Y-166743348D02*
X183853427Y-166598205D01*
X183853427Y-166598205D02*
X183853427Y-166162777D01*
X183853427Y-166162777D02*
X183780855Y-166017634D01*
X183780855Y-166017634D02*
X183708284Y-165945062D01*
X183708284Y-165945062D02*
X183563141Y-165872491D01*
X183563141Y-165872491D02*
X183272855Y-165872491D01*
X183272855Y-165872491D02*
X183127713Y-165945062D01*
X181240855Y-166307920D02*
X180079713Y-166307920D01*
X178192855Y-166888491D02*
X178192855Y-165364491D01*
X178192855Y-165364491D02*
X177829998Y-165364491D01*
X177829998Y-165364491D02*
X177612284Y-165437062D01*
X177612284Y-165437062D02*
X177467141Y-165582205D01*
X177467141Y-165582205D02*
X177394570Y-165727348D01*
X177394570Y-165727348D02*
X177321998Y-166017634D01*
X177321998Y-166017634D02*
X177321998Y-166235348D01*
X177321998Y-166235348D02*
X177394570Y-166525634D01*
X177394570Y-166525634D02*
X177467141Y-166670777D01*
X177467141Y-166670777D02*
X177612284Y-166815920D01*
X177612284Y-166815920D02*
X177829998Y-166888491D01*
X177829998Y-166888491D02*
X178192855Y-166888491D01*
X176668855Y-166888491D02*
X176668855Y-165872491D01*
X176668855Y-165364491D02*
X176741427Y-165437062D01*
X176741427Y-165437062D02*
X176668855Y-165509634D01*
X176668855Y-165509634D02*
X176596284Y-165437062D01*
X176596284Y-165437062D02*
X176668855Y-165364491D01*
X176668855Y-165364491D02*
X176668855Y-165509634D01*
X175289999Y-165872491D02*
X175289999Y-167106205D01*
X175289999Y-167106205D02*
X175362570Y-167251348D01*
X175362570Y-167251348D02*
X175435141Y-167323920D01*
X175435141Y-167323920D02*
X175580284Y-167396491D01*
X175580284Y-167396491D02*
X175797999Y-167396491D01*
X175797999Y-167396491D02*
X175943141Y-167323920D01*
X175289999Y-166815920D02*
X175435141Y-166888491D01*
X175435141Y-166888491D02*
X175725427Y-166888491D01*
X175725427Y-166888491D02*
X175870570Y-166815920D01*
X175870570Y-166815920D02*
X175943141Y-166743348D01*
X175943141Y-166743348D02*
X176015713Y-166598205D01*
X176015713Y-166598205D02*
X176015713Y-166162777D01*
X176015713Y-166162777D02*
X175943141Y-166017634D01*
X175943141Y-166017634D02*
X175870570Y-165945062D01*
X175870570Y-165945062D02*
X175725427Y-165872491D01*
X175725427Y-165872491D02*
X175435141Y-165872491D01*
X175435141Y-165872491D02*
X175289999Y-165945062D01*
X174564284Y-166888491D02*
X174564284Y-165872491D01*
X174564284Y-165364491D02*
X174636856Y-165437062D01*
X174636856Y-165437062D02*
X174564284Y-165509634D01*
X174564284Y-165509634D02*
X174491713Y-165437062D01*
X174491713Y-165437062D02*
X174564284Y-165364491D01*
X174564284Y-165364491D02*
X174564284Y-165509634D01*
X174056285Y-165872491D02*
X173475713Y-165872491D01*
X173838570Y-165364491D02*
X173838570Y-166670777D01*
X173838570Y-166670777D02*
X173765999Y-166815920D01*
X173765999Y-166815920D02*
X173620856Y-166888491D01*
X173620856Y-166888491D02*
X173475713Y-166888491D01*
X173040285Y-166815920D02*
X172895142Y-166888491D01*
X172895142Y-166888491D02*
X172604856Y-166888491D01*
X172604856Y-166888491D02*
X172459713Y-166815920D01*
X172459713Y-166815920D02*
X172387142Y-166670777D01*
X172387142Y-166670777D02*
X172387142Y-166598205D01*
X172387142Y-166598205D02*
X172459713Y-166453062D01*
X172459713Y-166453062D02*
X172604856Y-166380491D01*
X172604856Y-166380491D02*
X172822571Y-166380491D01*
X172822571Y-166380491D02*
X172967713Y-166307920D01*
X172967713Y-166307920D02*
X173040285Y-166162777D01*
X173040285Y-166162777D02*
X173040285Y-166090205D01*
X173040285Y-166090205D02*
X172967713Y-165945062D01*
X172967713Y-165945062D02*
X172822571Y-165872491D01*
X172822571Y-165872491D02*
X172604856Y-165872491D01*
X172604856Y-165872491D02*
X172459713Y-165945062D01*
X170790571Y-165364491D02*
X170282571Y-166888491D01*
X170282571Y-166888491D02*
X169774571Y-165364491D01*
X168468285Y-166888491D02*
X169339142Y-166888491D01*
X168903713Y-166888491D02*
X168903713Y-165364491D01*
X168903713Y-165364491D02*
X169048856Y-165582205D01*
X169048856Y-165582205D02*
X169193999Y-165727348D01*
X169193999Y-165727348D02*
X169339142Y-165799920D01*
X167815141Y-166743348D02*
X167742570Y-166815920D01*
X167742570Y-166815920D02*
X167815141Y-166888491D01*
X167815141Y-166888491D02*
X167887713Y-166815920D01*
X167887713Y-166815920D02*
X167815141Y-166743348D01*
X167815141Y-166743348D02*
X167815141Y-166888491D01*
X166799142Y-165364491D02*
X166653999Y-165364491D01*
X166653999Y-165364491D02*
X166508856Y-165437062D01*
X166508856Y-165437062D02*
X166436285Y-165509634D01*
X166436285Y-165509634D02*
X166363713Y-165654777D01*
X166363713Y-165654777D02*
X166291142Y-165945062D01*
X166291142Y-165945062D02*
X166291142Y-166307920D01*
X166291142Y-166307920D02*
X166363713Y-166598205D01*
X166363713Y-166598205D02*
X166436285Y-166743348D01*
X166436285Y-166743348D02*
X166508856Y-166815920D01*
X166508856Y-166815920D02*
X166653999Y-166888491D01*
X166653999Y-166888491D02*
X166799142Y-166888491D01*
X166799142Y-166888491D02*
X166944285Y-166815920D01*
X166944285Y-166815920D02*
X167016856Y-166743348D01*
X167016856Y-166743348D02*
X167089427Y-166598205D01*
X167089427Y-166598205D02*
X167161999Y-166307920D01*
X167161999Y-166307920D02*
X167161999Y-165945062D01*
X167161999Y-165945062D02*
X167089427Y-165654777D01*
X167089427Y-165654777D02*
X167016856Y-165509634D01*
X167016856Y-165509634D02*
X166944285Y-165437062D01*
X166944285Y-165437062D02*
X166799142Y-165364491D01*
D11*
%TO.C,R5*%
X135282619Y-51338333D02*
X134806428Y-51005000D01*
X135282619Y-50766905D02*
X134282619Y-50766905D01*
X134282619Y-50766905D02*
X134282619Y-51147857D01*
X134282619Y-51147857D02*
X134330238Y-51243095D01*
X134330238Y-51243095D02*
X134377857Y-51290714D01*
X134377857Y-51290714D02*
X134473095Y-51338333D01*
X134473095Y-51338333D02*
X134615952Y-51338333D01*
X134615952Y-51338333D02*
X134711190Y-51290714D01*
X134711190Y-51290714D02*
X134758809Y-51243095D01*
X134758809Y-51243095D02*
X134806428Y-51147857D01*
X134806428Y-51147857D02*
X134806428Y-50766905D01*
X134282619Y-52243095D02*
X134282619Y-51766905D01*
X134282619Y-51766905D02*
X134758809Y-51719286D01*
X134758809Y-51719286D02*
X134711190Y-51766905D01*
X134711190Y-51766905D02*
X134663571Y-51862143D01*
X134663571Y-51862143D02*
X134663571Y-52100238D01*
X134663571Y-52100238D02*
X134711190Y-52195476D01*
X134711190Y-52195476D02*
X134758809Y-52243095D01*
X134758809Y-52243095D02*
X134854047Y-52290714D01*
X134854047Y-52290714D02*
X135092142Y-52290714D01*
X135092142Y-52290714D02*
X135187380Y-52243095D01*
X135187380Y-52243095D02*
X135235000Y-52195476D01*
X135235000Y-52195476D02*
X135282619Y-52100238D01*
X135282619Y-52100238D02*
X135282619Y-51862143D01*
X135282619Y-51862143D02*
X135235000Y-51766905D01*
X135235000Y-51766905D02*
X135187380Y-51719286D01*
%TO.C,R12*%
X168302619Y-135952142D02*
X167826428Y-135618809D01*
X168302619Y-135380714D02*
X167302619Y-135380714D01*
X167302619Y-135380714D02*
X167302619Y-135761666D01*
X167302619Y-135761666D02*
X167350238Y-135856904D01*
X167350238Y-135856904D02*
X167397857Y-135904523D01*
X167397857Y-135904523D02*
X167493095Y-135952142D01*
X167493095Y-135952142D02*
X167635952Y-135952142D01*
X167635952Y-135952142D02*
X167731190Y-135904523D01*
X167731190Y-135904523D02*
X167778809Y-135856904D01*
X167778809Y-135856904D02*
X167826428Y-135761666D01*
X167826428Y-135761666D02*
X167826428Y-135380714D01*
X168302619Y-136904523D02*
X168302619Y-136333095D01*
X168302619Y-136618809D02*
X167302619Y-136618809D01*
X167302619Y-136618809D02*
X167445476Y-136523571D01*
X167445476Y-136523571D02*
X167540714Y-136428333D01*
X167540714Y-136428333D02*
X167588333Y-136333095D01*
X167397857Y-137285476D02*
X167350238Y-137333095D01*
X167350238Y-137333095D02*
X167302619Y-137428333D01*
X167302619Y-137428333D02*
X167302619Y-137666428D01*
X167302619Y-137666428D02*
X167350238Y-137761666D01*
X167350238Y-137761666D02*
X167397857Y-137809285D01*
X167397857Y-137809285D02*
X167493095Y-137856904D01*
X167493095Y-137856904D02*
X167588333Y-137856904D01*
X167588333Y-137856904D02*
X167731190Y-137809285D01*
X167731190Y-137809285D02*
X168302619Y-137237857D01*
X168302619Y-137237857D02*
X168302619Y-137856904D01*
%TO.C,OPT10*%
X34983571Y-63892619D02*
X34793095Y-63892619D01*
X34793095Y-63892619D02*
X34697857Y-63940238D01*
X34697857Y-63940238D02*
X34602619Y-64035476D01*
X34602619Y-64035476D02*
X34555000Y-64225952D01*
X34555000Y-64225952D02*
X34555000Y-64559285D01*
X34555000Y-64559285D02*
X34602619Y-64749761D01*
X34602619Y-64749761D02*
X34697857Y-64845000D01*
X34697857Y-64845000D02*
X34793095Y-64892619D01*
X34793095Y-64892619D02*
X34983571Y-64892619D01*
X34983571Y-64892619D02*
X35078809Y-64845000D01*
X35078809Y-64845000D02*
X35174047Y-64749761D01*
X35174047Y-64749761D02*
X35221666Y-64559285D01*
X35221666Y-64559285D02*
X35221666Y-64225952D01*
X35221666Y-64225952D02*
X35174047Y-64035476D01*
X35174047Y-64035476D02*
X35078809Y-63940238D01*
X35078809Y-63940238D02*
X34983571Y-63892619D01*
X34126428Y-64892619D02*
X34126428Y-63892619D01*
X34126428Y-63892619D02*
X33745476Y-63892619D01*
X33745476Y-63892619D02*
X33650238Y-63940238D01*
X33650238Y-63940238D02*
X33602619Y-63987857D01*
X33602619Y-63987857D02*
X33555000Y-64083095D01*
X33555000Y-64083095D02*
X33555000Y-64225952D01*
X33555000Y-64225952D02*
X33602619Y-64321190D01*
X33602619Y-64321190D02*
X33650238Y-64368809D01*
X33650238Y-64368809D02*
X33745476Y-64416428D01*
X33745476Y-64416428D02*
X34126428Y-64416428D01*
X33269285Y-63892619D02*
X32697857Y-63892619D01*
X32983571Y-64892619D02*
X32983571Y-63892619D01*
X31840714Y-64892619D02*
X32412142Y-64892619D01*
X32126428Y-64892619D02*
X32126428Y-63892619D01*
X32126428Y-63892619D02*
X32221666Y-64035476D01*
X32221666Y-64035476D02*
X32316904Y-64130714D01*
X32316904Y-64130714D02*
X32412142Y-64178333D01*
X31221666Y-63892619D02*
X31126428Y-63892619D01*
X31126428Y-63892619D02*
X31031190Y-63940238D01*
X31031190Y-63940238D02*
X30983571Y-63987857D01*
X30983571Y-63987857D02*
X30935952Y-64083095D01*
X30935952Y-64083095D02*
X30888333Y-64273571D01*
X30888333Y-64273571D02*
X30888333Y-64511666D01*
X30888333Y-64511666D02*
X30935952Y-64702142D01*
X30935952Y-64702142D02*
X30983571Y-64797380D01*
X30983571Y-64797380D02*
X31031190Y-64845000D01*
X31031190Y-64845000D02*
X31126428Y-64892619D01*
X31126428Y-64892619D02*
X31221666Y-64892619D01*
X31221666Y-64892619D02*
X31316904Y-64845000D01*
X31316904Y-64845000D02*
X31364523Y-64797380D01*
X31364523Y-64797380D02*
X31412142Y-64702142D01*
X31412142Y-64702142D02*
X31459761Y-64511666D01*
X31459761Y-64511666D02*
X31459761Y-64273571D01*
X31459761Y-64273571D02*
X31412142Y-64083095D01*
X31412142Y-64083095D02*
X31364523Y-63987857D01*
X31364523Y-63987857D02*
X31316904Y-63940238D01*
X31316904Y-63940238D02*
X31221666Y-63892619D01*
%TO.C,R7*%
X140192619Y-51338333D02*
X139716428Y-51005000D01*
X140192619Y-50766905D02*
X139192619Y-50766905D01*
X139192619Y-50766905D02*
X139192619Y-51147857D01*
X139192619Y-51147857D02*
X139240238Y-51243095D01*
X139240238Y-51243095D02*
X139287857Y-51290714D01*
X139287857Y-51290714D02*
X139383095Y-51338333D01*
X139383095Y-51338333D02*
X139525952Y-51338333D01*
X139525952Y-51338333D02*
X139621190Y-51290714D01*
X139621190Y-51290714D02*
X139668809Y-51243095D01*
X139668809Y-51243095D02*
X139716428Y-51147857D01*
X139716428Y-51147857D02*
X139716428Y-50766905D01*
X139192619Y-51671667D02*
X139192619Y-52338333D01*
X139192619Y-52338333D02*
X140192619Y-51909762D01*
%TO.C,J1*%
X58788333Y-63887619D02*
X58788333Y-64601904D01*
X58788333Y-64601904D02*
X58835952Y-64744761D01*
X58835952Y-64744761D02*
X58931190Y-64840000D01*
X58931190Y-64840000D02*
X59074047Y-64887619D01*
X59074047Y-64887619D02*
X59169285Y-64887619D01*
X57788333Y-64887619D02*
X58359761Y-64887619D01*
X58074047Y-64887619D02*
X58074047Y-63887619D01*
X58074047Y-63887619D02*
X58169285Y-64030476D01*
X58169285Y-64030476D02*
X58264523Y-64125714D01*
X58264523Y-64125714D02*
X58359761Y-64173333D01*
%TO.C,R13*%
X43842619Y-135952142D02*
X43366428Y-135618809D01*
X43842619Y-135380714D02*
X42842619Y-135380714D01*
X42842619Y-135380714D02*
X42842619Y-135761666D01*
X42842619Y-135761666D02*
X42890238Y-135856904D01*
X42890238Y-135856904D02*
X42937857Y-135904523D01*
X42937857Y-135904523D02*
X43033095Y-135952142D01*
X43033095Y-135952142D02*
X43175952Y-135952142D01*
X43175952Y-135952142D02*
X43271190Y-135904523D01*
X43271190Y-135904523D02*
X43318809Y-135856904D01*
X43318809Y-135856904D02*
X43366428Y-135761666D01*
X43366428Y-135761666D02*
X43366428Y-135380714D01*
X43842619Y-136904523D02*
X43842619Y-136333095D01*
X43842619Y-136618809D02*
X42842619Y-136618809D01*
X42842619Y-136618809D02*
X42985476Y-136523571D01*
X42985476Y-136523571D02*
X43080714Y-136428333D01*
X43080714Y-136428333D02*
X43128333Y-136333095D01*
X42842619Y-137237857D02*
X42842619Y-137856904D01*
X42842619Y-137856904D02*
X43223571Y-137523571D01*
X43223571Y-137523571D02*
X43223571Y-137666428D01*
X43223571Y-137666428D02*
X43271190Y-137761666D01*
X43271190Y-137761666D02*
X43318809Y-137809285D01*
X43318809Y-137809285D02*
X43414047Y-137856904D01*
X43414047Y-137856904D02*
X43652142Y-137856904D01*
X43652142Y-137856904D02*
X43747380Y-137809285D01*
X43747380Y-137809285D02*
X43795000Y-137761666D01*
X43795000Y-137761666D02*
X43842619Y-137666428D01*
X43842619Y-137666428D02*
X43842619Y-137380714D01*
X43842619Y-137380714D02*
X43795000Y-137285476D01*
X43795000Y-137285476D02*
X43747380Y-137237857D01*
%TO.C,R10*%
X94642619Y-135952142D02*
X94166428Y-135618809D01*
X94642619Y-135380714D02*
X93642619Y-135380714D01*
X93642619Y-135380714D02*
X93642619Y-135761666D01*
X93642619Y-135761666D02*
X93690238Y-135856904D01*
X93690238Y-135856904D02*
X93737857Y-135904523D01*
X93737857Y-135904523D02*
X93833095Y-135952142D01*
X93833095Y-135952142D02*
X93975952Y-135952142D01*
X93975952Y-135952142D02*
X94071190Y-135904523D01*
X94071190Y-135904523D02*
X94118809Y-135856904D01*
X94118809Y-135856904D02*
X94166428Y-135761666D01*
X94166428Y-135761666D02*
X94166428Y-135380714D01*
X94642619Y-136904523D02*
X94642619Y-136333095D01*
X94642619Y-136618809D02*
X93642619Y-136618809D01*
X93642619Y-136618809D02*
X93785476Y-136523571D01*
X93785476Y-136523571D02*
X93880714Y-136428333D01*
X93880714Y-136428333D02*
X93928333Y-136333095D01*
X93642619Y-137523571D02*
X93642619Y-137618809D01*
X93642619Y-137618809D02*
X93690238Y-137714047D01*
X93690238Y-137714047D02*
X93737857Y-137761666D01*
X93737857Y-137761666D02*
X93833095Y-137809285D01*
X93833095Y-137809285D02*
X94023571Y-137856904D01*
X94023571Y-137856904D02*
X94261666Y-137856904D01*
X94261666Y-137856904D02*
X94452142Y-137809285D01*
X94452142Y-137809285D02*
X94547380Y-137761666D01*
X94547380Y-137761666D02*
X94595000Y-137714047D01*
X94595000Y-137714047D02*
X94642619Y-137618809D01*
X94642619Y-137618809D02*
X94642619Y-137523571D01*
X94642619Y-137523571D02*
X94595000Y-137428333D01*
X94595000Y-137428333D02*
X94547380Y-137380714D01*
X94547380Y-137380714D02*
X94452142Y-137333095D01*
X94452142Y-137333095D02*
X94261666Y-137285476D01*
X94261666Y-137285476D02*
X94023571Y-137285476D01*
X94023571Y-137285476D02*
X93833095Y-137333095D01*
X93833095Y-137333095D02*
X93737857Y-137380714D01*
X93737857Y-137380714D02*
X93690238Y-137428333D01*
X93690238Y-137428333D02*
X93642619Y-137523571D01*
%TO.C,R2*%
X70342619Y-51338333D02*
X69866428Y-51005000D01*
X70342619Y-50766905D02*
X69342619Y-50766905D01*
X69342619Y-50766905D02*
X69342619Y-51147857D01*
X69342619Y-51147857D02*
X69390238Y-51243095D01*
X69390238Y-51243095D02*
X69437857Y-51290714D01*
X69437857Y-51290714D02*
X69533095Y-51338333D01*
X69533095Y-51338333D02*
X69675952Y-51338333D01*
X69675952Y-51338333D02*
X69771190Y-51290714D01*
X69771190Y-51290714D02*
X69818809Y-51243095D01*
X69818809Y-51243095D02*
X69866428Y-51147857D01*
X69866428Y-51147857D02*
X69866428Y-50766905D01*
X69437857Y-51719286D02*
X69390238Y-51766905D01*
X69390238Y-51766905D02*
X69342619Y-51862143D01*
X69342619Y-51862143D02*
X69342619Y-52100238D01*
X69342619Y-52100238D02*
X69390238Y-52195476D01*
X69390238Y-52195476D02*
X69437857Y-52243095D01*
X69437857Y-52243095D02*
X69533095Y-52290714D01*
X69533095Y-52290714D02*
X69628333Y-52290714D01*
X69628333Y-52290714D02*
X69771190Y-52243095D01*
X69771190Y-52243095D02*
X70342619Y-51671667D01*
X70342619Y-51671667D02*
X70342619Y-52290714D01*
%TO.C,R11*%
X109882619Y-135952142D02*
X109406428Y-135618809D01*
X109882619Y-135380714D02*
X108882619Y-135380714D01*
X108882619Y-135380714D02*
X108882619Y-135761666D01*
X108882619Y-135761666D02*
X108930238Y-135856904D01*
X108930238Y-135856904D02*
X108977857Y-135904523D01*
X108977857Y-135904523D02*
X109073095Y-135952142D01*
X109073095Y-135952142D02*
X109215952Y-135952142D01*
X109215952Y-135952142D02*
X109311190Y-135904523D01*
X109311190Y-135904523D02*
X109358809Y-135856904D01*
X109358809Y-135856904D02*
X109406428Y-135761666D01*
X109406428Y-135761666D02*
X109406428Y-135380714D01*
X109882619Y-136904523D02*
X109882619Y-136333095D01*
X109882619Y-136618809D02*
X108882619Y-136618809D01*
X108882619Y-136618809D02*
X109025476Y-136523571D01*
X109025476Y-136523571D02*
X109120714Y-136428333D01*
X109120714Y-136428333D02*
X109168333Y-136333095D01*
X109882619Y-137856904D02*
X109882619Y-137285476D01*
X109882619Y-137571190D02*
X108882619Y-137571190D01*
X108882619Y-137571190D02*
X109025476Y-137475952D01*
X109025476Y-137475952D02*
X109120714Y-137380714D01*
X109120714Y-137380714D02*
X109168333Y-137285476D01*
%TO.C,R6*%
X145272619Y-51338333D02*
X144796428Y-51005000D01*
X145272619Y-50766905D02*
X144272619Y-50766905D01*
X144272619Y-50766905D02*
X144272619Y-51147857D01*
X144272619Y-51147857D02*
X144320238Y-51243095D01*
X144320238Y-51243095D02*
X144367857Y-51290714D01*
X144367857Y-51290714D02*
X144463095Y-51338333D01*
X144463095Y-51338333D02*
X144605952Y-51338333D01*
X144605952Y-51338333D02*
X144701190Y-51290714D01*
X144701190Y-51290714D02*
X144748809Y-51243095D01*
X144748809Y-51243095D02*
X144796428Y-51147857D01*
X144796428Y-51147857D02*
X144796428Y-50766905D01*
X144272619Y-52195476D02*
X144272619Y-52005000D01*
X144272619Y-52005000D02*
X144320238Y-51909762D01*
X144320238Y-51909762D02*
X144367857Y-51862143D01*
X144367857Y-51862143D02*
X144510714Y-51766905D01*
X144510714Y-51766905D02*
X144701190Y-51719286D01*
X144701190Y-51719286D02*
X145082142Y-51719286D01*
X145082142Y-51719286D02*
X145177380Y-51766905D01*
X145177380Y-51766905D02*
X145225000Y-51814524D01*
X145225000Y-51814524D02*
X145272619Y-51909762D01*
X145272619Y-51909762D02*
X145272619Y-52100238D01*
X145272619Y-52100238D02*
X145225000Y-52195476D01*
X145225000Y-52195476D02*
X145177380Y-52243095D01*
X145177380Y-52243095D02*
X145082142Y-52290714D01*
X145082142Y-52290714D02*
X144844047Y-52290714D01*
X144844047Y-52290714D02*
X144748809Y-52243095D01*
X144748809Y-52243095D02*
X144701190Y-52195476D01*
X144701190Y-52195476D02*
X144653571Y-52100238D01*
X144653571Y-52100238D02*
X144653571Y-51909762D01*
X144653571Y-51909762D02*
X144701190Y-51814524D01*
X144701190Y-51814524D02*
X144748809Y-51766905D01*
X144748809Y-51766905D02*
X144844047Y-51719286D01*
%TO.C,R3*%
X75422619Y-51338333D02*
X74946428Y-51005000D01*
X75422619Y-50766905D02*
X74422619Y-50766905D01*
X74422619Y-50766905D02*
X74422619Y-51147857D01*
X74422619Y-51147857D02*
X74470238Y-51243095D01*
X74470238Y-51243095D02*
X74517857Y-51290714D01*
X74517857Y-51290714D02*
X74613095Y-51338333D01*
X74613095Y-51338333D02*
X74755952Y-51338333D01*
X74755952Y-51338333D02*
X74851190Y-51290714D01*
X74851190Y-51290714D02*
X74898809Y-51243095D01*
X74898809Y-51243095D02*
X74946428Y-51147857D01*
X74946428Y-51147857D02*
X74946428Y-50766905D01*
X74422619Y-51671667D02*
X74422619Y-52290714D01*
X74422619Y-52290714D02*
X74803571Y-51957381D01*
X74803571Y-51957381D02*
X74803571Y-52100238D01*
X74803571Y-52100238D02*
X74851190Y-52195476D01*
X74851190Y-52195476D02*
X74898809Y-52243095D01*
X74898809Y-52243095D02*
X74994047Y-52290714D01*
X74994047Y-52290714D02*
X75232142Y-52290714D01*
X75232142Y-52290714D02*
X75327380Y-52243095D01*
X75327380Y-52243095D02*
X75375000Y-52195476D01*
X75375000Y-52195476D02*
X75422619Y-52100238D01*
X75422619Y-52100238D02*
X75422619Y-51814524D01*
X75422619Y-51814524D02*
X75375000Y-51719286D01*
X75375000Y-51719286D02*
X75327380Y-51671667D01*
%TO.C,R16*%
X174906619Y-135952142D02*
X174430428Y-135618809D01*
X174906619Y-135380714D02*
X173906619Y-135380714D01*
X173906619Y-135380714D02*
X173906619Y-135761666D01*
X173906619Y-135761666D02*
X173954238Y-135856904D01*
X173954238Y-135856904D02*
X174001857Y-135904523D01*
X174001857Y-135904523D02*
X174097095Y-135952142D01*
X174097095Y-135952142D02*
X174239952Y-135952142D01*
X174239952Y-135952142D02*
X174335190Y-135904523D01*
X174335190Y-135904523D02*
X174382809Y-135856904D01*
X174382809Y-135856904D02*
X174430428Y-135761666D01*
X174430428Y-135761666D02*
X174430428Y-135380714D01*
X174906619Y-136904523D02*
X174906619Y-136333095D01*
X174906619Y-136618809D02*
X173906619Y-136618809D01*
X173906619Y-136618809D02*
X174049476Y-136523571D01*
X174049476Y-136523571D02*
X174144714Y-136428333D01*
X174144714Y-136428333D02*
X174192333Y-136333095D01*
X173906619Y-137761666D02*
X173906619Y-137571190D01*
X173906619Y-137571190D02*
X173954238Y-137475952D01*
X173954238Y-137475952D02*
X174001857Y-137428333D01*
X174001857Y-137428333D02*
X174144714Y-137333095D01*
X174144714Y-137333095D02*
X174335190Y-137285476D01*
X174335190Y-137285476D02*
X174716142Y-137285476D01*
X174716142Y-137285476D02*
X174811380Y-137333095D01*
X174811380Y-137333095D02*
X174859000Y-137380714D01*
X174859000Y-137380714D02*
X174906619Y-137475952D01*
X174906619Y-137475952D02*
X174906619Y-137666428D01*
X174906619Y-137666428D02*
X174859000Y-137761666D01*
X174859000Y-137761666D02*
X174811380Y-137809285D01*
X174811380Y-137809285D02*
X174716142Y-137856904D01*
X174716142Y-137856904D02*
X174478047Y-137856904D01*
X174478047Y-137856904D02*
X174382809Y-137809285D01*
X174382809Y-137809285D02*
X174335190Y-137761666D01*
X174335190Y-137761666D02*
X174287571Y-137666428D01*
X174287571Y-137666428D02*
X174287571Y-137475952D01*
X174287571Y-137475952D02*
X174335190Y-137380714D01*
X174335190Y-137380714D02*
X174382809Y-137333095D01*
X174382809Y-137333095D02*
X174478047Y-137285476D01*
%TO.C,GND*%
X49051904Y-89115238D02*
X49147142Y-89067619D01*
X49147142Y-89067619D02*
X49289999Y-89067619D01*
X49289999Y-89067619D02*
X49432856Y-89115238D01*
X49432856Y-89115238D02*
X49528094Y-89210476D01*
X49528094Y-89210476D02*
X49575713Y-89305714D01*
X49575713Y-89305714D02*
X49623332Y-89496190D01*
X49623332Y-89496190D02*
X49623332Y-89639047D01*
X49623332Y-89639047D02*
X49575713Y-89829523D01*
X49575713Y-89829523D02*
X49528094Y-89924761D01*
X49528094Y-89924761D02*
X49432856Y-90020000D01*
X49432856Y-90020000D02*
X49289999Y-90067619D01*
X49289999Y-90067619D02*
X49194761Y-90067619D01*
X49194761Y-90067619D02*
X49051904Y-90020000D01*
X49051904Y-90020000D02*
X49004285Y-89972380D01*
X49004285Y-89972380D02*
X49004285Y-89639047D01*
X49004285Y-89639047D02*
X49194761Y-89639047D01*
X48575713Y-90067619D02*
X48575713Y-89067619D01*
X48575713Y-89067619D02*
X48004285Y-90067619D01*
X48004285Y-90067619D02*
X48004285Y-89067619D01*
X47528094Y-90067619D02*
X47528094Y-89067619D01*
X47528094Y-89067619D02*
X47289999Y-89067619D01*
X47289999Y-89067619D02*
X47147142Y-89115238D01*
X47147142Y-89115238D02*
X47051904Y-89210476D01*
X47051904Y-89210476D02*
X47004285Y-89305714D01*
X47004285Y-89305714D02*
X46956666Y-89496190D01*
X46956666Y-89496190D02*
X46956666Y-89639047D01*
X46956666Y-89639047D02*
X47004285Y-89829523D01*
X47004285Y-89829523D02*
X47051904Y-89924761D01*
X47051904Y-89924761D02*
X47147142Y-90020000D01*
X47147142Y-90020000D02*
X47289999Y-90067619D01*
X47289999Y-90067619D02*
X47528094Y-90067619D01*
%TO.C,R14*%
X100992619Y-135952142D02*
X100516428Y-135618809D01*
X100992619Y-135380714D02*
X99992619Y-135380714D01*
X99992619Y-135380714D02*
X99992619Y-135761666D01*
X99992619Y-135761666D02*
X100040238Y-135856904D01*
X100040238Y-135856904D02*
X100087857Y-135904523D01*
X100087857Y-135904523D02*
X100183095Y-135952142D01*
X100183095Y-135952142D02*
X100325952Y-135952142D01*
X100325952Y-135952142D02*
X100421190Y-135904523D01*
X100421190Y-135904523D02*
X100468809Y-135856904D01*
X100468809Y-135856904D02*
X100516428Y-135761666D01*
X100516428Y-135761666D02*
X100516428Y-135380714D01*
X100992619Y-136904523D02*
X100992619Y-136333095D01*
X100992619Y-136618809D02*
X99992619Y-136618809D01*
X99992619Y-136618809D02*
X100135476Y-136523571D01*
X100135476Y-136523571D02*
X100230714Y-136428333D01*
X100230714Y-136428333D02*
X100278333Y-136333095D01*
X100325952Y-137761666D02*
X100992619Y-137761666D01*
X99945000Y-137523571D02*
X100659285Y-137285476D01*
X100659285Y-137285476D02*
X100659285Y-137904523D01*
%TO.C,R4*%
X80502619Y-51338333D02*
X80026428Y-51005000D01*
X80502619Y-50766905D02*
X79502619Y-50766905D01*
X79502619Y-50766905D02*
X79502619Y-51147857D01*
X79502619Y-51147857D02*
X79550238Y-51243095D01*
X79550238Y-51243095D02*
X79597857Y-51290714D01*
X79597857Y-51290714D02*
X79693095Y-51338333D01*
X79693095Y-51338333D02*
X79835952Y-51338333D01*
X79835952Y-51338333D02*
X79931190Y-51290714D01*
X79931190Y-51290714D02*
X79978809Y-51243095D01*
X79978809Y-51243095D02*
X80026428Y-51147857D01*
X80026428Y-51147857D02*
X80026428Y-50766905D01*
X79835952Y-52195476D02*
X80502619Y-52195476D01*
X79455000Y-51957381D02*
X80169285Y-51719286D01*
X80169285Y-51719286D02*
X80169285Y-52338333D01*
%TO.C,R8*%
X150352619Y-51338333D02*
X149876428Y-51005000D01*
X150352619Y-50766905D02*
X149352619Y-50766905D01*
X149352619Y-50766905D02*
X149352619Y-51147857D01*
X149352619Y-51147857D02*
X149400238Y-51243095D01*
X149400238Y-51243095D02*
X149447857Y-51290714D01*
X149447857Y-51290714D02*
X149543095Y-51338333D01*
X149543095Y-51338333D02*
X149685952Y-51338333D01*
X149685952Y-51338333D02*
X149781190Y-51290714D01*
X149781190Y-51290714D02*
X149828809Y-51243095D01*
X149828809Y-51243095D02*
X149876428Y-51147857D01*
X149876428Y-51147857D02*
X149876428Y-50766905D01*
X149781190Y-51909762D02*
X149733571Y-51814524D01*
X149733571Y-51814524D02*
X149685952Y-51766905D01*
X149685952Y-51766905D02*
X149590714Y-51719286D01*
X149590714Y-51719286D02*
X149543095Y-51719286D01*
X149543095Y-51719286D02*
X149447857Y-51766905D01*
X149447857Y-51766905D02*
X149400238Y-51814524D01*
X149400238Y-51814524D02*
X149352619Y-51909762D01*
X149352619Y-51909762D02*
X149352619Y-52100238D01*
X149352619Y-52100238D02*
X149400238Y-52195476D01*
X149400238Y-52195476D02*
X149447857Y-52243095D01*
X149447857Y-52243095D02*
X149543095Y-52290714D01*
X149543095Y-52290714D02*
X149590714Y-52290714D01*
X149590714Y-52290714D02*
X149685952Y-52243095D01*
X149685952Y-52243095D02*
X149733571Y-52195476D01*
X149733571Y-52195476D02*
X149781190Y-52100238D01*
X149781190Y-52100238D02*
X149781190Y-51909762D01*
X149781190Y-51909762D02*
X149828809Y-51814524D01*
X149828809Y-51814524D02*
X149876428Y-51766905D01*
X149876428Y-51766905D02*
X149971666Y-51719286D01*
X149971666Y-51719286D02*
X150162142Y-51719286D01*
X150162142Y-51719286D02*
X150257380Y-51766905D01*
X150257380Y-51766905D02*
X150305000Y-51814524D01*
X150305000Y-51814524D02*
X150352619Y-51909762D01*
X150352619Y-51909762D02*
X150352619Y-52100238D01*
X150352619Y-52100238D02*
X150305000Y-52195476D01*
X150305000Y-52195476D02*
X150257380Y-52243095D01*
X150257380Y-52243095D02*
X150162142Y-52290714D01*
X150162142Y-52290714D02*
X149971666Y-52290714D01*
X149971666Y-52290714D02*
X149876428Y-52243095D01*
X149876428Y-52243095D02*
X149828809Y-52195476D01*
X149828809Y-52195476D02*
X149781190Y-52100238D01*
%TO.C,OPT1*%
X34507380Y-79132619D02*
X34316904Y-79132619D01*
X34316904Y-79132619D02*
X34221666Y-79180238D01*
X34221666Y-79180238D02*
X34126428Y-79275476D01*
X34126428Y-79275476D02*
X34078809Y-79465952D01*
X34078809Y-79465952D02*
X34078809Y-79799285D01*
X34078809Y-79799285D02*
X34126428Y-79989761D01*
X34126428Y-79989761D02*
X34221666Y-80085000D01*
X34221666Y-80085000D02*
X34316904Y-80132619D01*
X34316904Y-80132619D02*
X34507380Y-80132619D01*
X34507380Y-80132619D02*
X34602618Y-80085000D01*
X34602618Y-80085000D02*
X34697856Y-79989761D01*
X34697856Y-79989761D02*
X34745475Y-79799285D01*
X34745475Y-79799285D02*
X34745475Y-79465952D01*
X34745475Y-79465952D02*
X34697856Y-79275476D01*
X34697856Y-79275476D02*
X34602618Y-79180238D01*
X34602618Y-79180238D02*
X34507380Y-79132619D01*
X33650237Y-80132619D02*
X33650237Y-79132619D01*
X33650237Y-79132619D02*
X33269285Y-79132619D01*
X33269285Y-79132619D02*
X33174047Y-79180238D01*
X33174047Y-79180238D02*
X33126428Y-79227857D01*
X33126428Y-79227857D02*
X33078809Y-79323095D01*
X33078809Y-79323095D02*
X33078809Y-79465952D01*
X33078809Y-79465952D02*
X33126428Y-79561190D01*
X33126428Y-79561190D02*
X33174047Y-79608809D01*
X33174047Y-79608809D02*
X33269285Y-79656428D01*
X33269285Y-79656428D02*
X33650237Y-79656428D01*
X32793094Y-79132619D02*
X32221666Y-79132619D01*
X32507380Y-80132619D02*
X32507380Y-79132619D01*
X31364523Y-80132619D02*
X31935951Y-80132619D01*
X31650237Y-80132619D02*
X31650237Y-79132619D01*
X31650237Y-79132619D02*
X31745475Y-79275476D01*
X31745475Y-79275476D02*
X31840713Y-79370714D01*
X31840713Y-79370714D02*
X31935951Y-79418333D01*
%TO.C,R9*%
X37492619Y-136428333D02*
X37016428Y-136095000D01*
X37492619Y-135856905D02*
X36492619Y-135856905D01*
X36492619Y-135856905D02*
X36492619Y-136237857D01*
X36492619Y-136237857D02*
X36540238Y-136333095D01*
X36540238Y-136333095D02*
X36587857Y-136380714D01*
X36587857Y-136380714D02*
X36683095Y-136428333D01*
X36683095Y-136428333D02*
X36825952Y-136428333D01*
X36825952Y-136428333D02*
X36921190Y-136380714D01*
X36921190Y-136380714D02*
X36968809Y-136333095D01*
X36968809Y-136333095D02*
X37016428Y-136237857D01*
X37016428Y-136237857D02*
X37016428Y-135856905D01*
X37492619Y-136904524D02*
X37492619Y-137095000D01*
X37492619Y-137095000D02*
X37445000Y-137190238D01*
X37445000Y-137190238D02*
X37397380Y-137237857D01*
X37397380Y-137237857D02*
X37254523Y-137333095D01*
X37254523Y-137333095D02*
X37064047Y-137380714D01*
X37064047Y-137380714D02*
X36683095Y-137380714D01*
X36683095Y-137380714D02*
X36587857Y-137333095D01*
X36587857Y-137333095D02*
X36540238Y-137285476D01*
X36540238Y-137285476D02*
X36492619Y-137190238D01*
X36492619Y-137190238D02*
X36492619Y-136999762D01*
X36492619Y-136999762D02*
X36540238Y-136904524D01*
X36540238Y-136904524D02*
X36587857Y-136856905D01*
X36587857Y-136856905D02*
X36683095Y-136809286D01*
X36683095Y-136809286D02*
X36921190Y-136809286D01*
X36921190Y-136809286D02*
X37016428Y-136856905D01*
X37016428Y-136856905D02*
X37064047Y-136904524D01*
X37064047Y-136904524D02*
X37111666Y-136999762D01*
X37111666Y-136999762D02*
X37111666Y-137190238D01*
X37111666Y-137190238D02*
X37064047Y-137285476D01*
X37064047Y-137285476D02*
X37016428Y-137333095D01*
X37016428Y-137333095D02*
X36921190Y-137380714D01*
%TO.C,OPT-IND*%
X37177142Y-95627619D02*
X36986666Y-95627619D01*
X36986666Y-95627619D02*
X36891428Y-95675238D01*
X36891428Y-95675238D02*
X36796190Y-95770476D01*
X36796190Y-95770476D02*
X36748571Y-95960952D01*
X36748571Y-95960952D02*
X36748571Y-96294285D01*
X36748571Y-96294285D02*
X36796190Y-96484761D01*
X36796190Y-96484761D02*
X36891428Y-96580000D01*
X36891428Y-96580000D02*
X36986666Y-96627619D01*
X36986666Y-96627619D02*
X37177142Y-96627619D01*
X37177142Y-96627619D02*
X37272380Y-96580000D01*
X37272380Y-96580000D02*
X37367618Y-96484761D01*
X37367618Y-96484761D02*
X37415237Y-96294285D01*
X37415237Y-96294285D02*
X37415237Y-95960952D01*
X37415237Y-95960952D02*
X37367618Y-95770476D01*
X37367618Y-95770476D02*
X37272380Y-95675238D01*
X37272380Y-95675238D02*
X37177142Y-95627619D01*
X36319999Y-96627619D02*
X36319999Y-95627619D01*
X36319999Y-95627619D02*
X35939047Y-95627619D01*
X35939047Y-95627619D02*
X35843809Y-95675238D01*
X35843809Y-95675238D02*
X35796190Y-95722857D01*
X35796190Y-95722857D02*
X35748571Y-95818095D01*
X35748571Y-95818095D02*
X35748571Y-95960952D01*
X35748571Y-95960952D02*
X35796190Y-96056190D01*
X35796190Y-96056190D02*
X35843809Y-96103809D01*
X35843809Y-96103809D02*
X35939047Y-96151428D01*
X35939047Y-96151428D02*
X36319999Y-96151428D01*
X35462856Y-95627619D02*
X34891428Y-95627619D01*
X35177142Y-96627619D02*
X35177142Y-95627619D01*
X34558094Y-96246666D02*
X33796190Y-96246666D01*
X33319999Y-96627619D02*
X33319999Y-95627619D01*
X32843809Y-96627619D02*
X32843809Y-95627619D01*
X32843809Y-95627619D02*
X32272381Y-96627619D01*
X32272381Y-96627619D02*
X32272381Y-95627619D01*
X31796190Y-96627619D02*
X31796190Y-95627619D01*
X31796190Y-95627619D02*
X31558095Y-95627619D01*
X31558095Y-95627619D02*
X31415238Y-95675238D01*
X31415238Y-95675238D02*
X31320000Y-95770476D01*
X31320000Y-95770476D02*
X31272381Y-95865714D01*
X31272381Y-95865714D02*
X31224762Y-96056190D01*
X31224762Y-96056190D02*
X31224762Y-96199047D01*
X31224762Y-96199047D02*
X31272381Y-96389523D01*
X31272381Y-96389523D02*
X31320000Y-96484761D01*
X31320000Y-96484761D02*
X31415238Y-96580000D01*
X31415238Y-96580000D02*
X31558095Y-96627619D01*
X31558095Y-96627619D02*
X31796190Y-96627619D01*
%TO.C,R15*%
X116486619Y-135952142D02*
X116010428Y-135618809D01*
X116486619Y-135380714D02*
X115486619Y-135380714D01*
X115486619Y-135380714D02*
X115486619Y-135761666D01*
X115486619Y-135761666D02*
X115534238Y-135856904D01*
X115534238Y-135856904D02*
X115581857Y-135904523D01*
X115581857Y-135904523D02*
X115677095Y-135952142D01*
X115677095Y-135952142D02*
X115819952Y-135952142D01*
X115819952Y-135952142D02*
X115915190Y-135904523D01*
X115915190Y-135904523D02*
X115962809Y-135856904D01*
X115962809Y-135856904D02*
X116010428Y-135761666D01*
X116010428Y-135761666D02*
X116010428Y-135380714D01*
X116486619Y-136904523D02*
X116486619Y-136333095D01*
X116486619Y-136618809D02*
X115486619Y-136618809D01*
X115486619Y-136618809D02*
X115629476Y-136523571D01*
X115629476Y-136523571D02*
X115724714Y-136428333D01*
X115724714Y-136428333D02*
X115772333Y-136333095D01*
X115486619Y-137809285D02*
X115486619Y-137333095D01*
X115486619Y-137333095D02*
X115962809Y-137285476D01*
X115962809Y-137285476D02*
X115915190Y-137333095D01*
X115915190Y-137333095D02*
X115867571Y-137428333D01*
X115867571Y-137428333D02*
X115867571Y-137666428D01*
X115867571Y-137666428D02*
X115915190Y-137761666D01*
X115915190Y-137761666D02*
X115962809Y-137809285D01*
X115962809Y-137809285D02*
X116058047Y-137856904D01*
X116058047Y-137856904D02*
X116296142Y-137856904D01*
X116296142Y-137856904D02*
X116391380Y-137809285D01*
X116391380Y-137809285D02*
X116439000Y-137761666D01*
X116439000Y-137761666D02*
X116486619Y-137666428D01*
X116486619Y-137666428D02*
X116486619Y-137428333D01*
X116486619Y-137428333D02*
X116439000Y-137333095D01*
X116439000Y-137333095D02*
X116391380Y-137285476D01*
%TO.C,R1*%
X65262619Y-51338333D02*
X64786428Y-51005000D01*
X65262619Y-50766905D02*
X64262619Y-50766905D01*
X64262619Y-50766905D02*
X64262619Y-51147857D01*
X64262619Y-51147857D02*
X64310238Y-51243095D01*
X64310238Y-51243095D02*
X64357857Y-51290714D01*
X64357857Y-51290714D02*
X64453095Y-51338333D01*
X64453095Y-51338333D02*
X64595952Y-51338333D01*
X64595952Y-51338333D02*
X64691190Y-51290714D01*
X64691190Y-51290714D02*
X64738809Y-51243095D01*
X64738809Y-51243095D02*
X64786428Y-51147857D01*
X64786428Y-51147857D02*
X64786428Y-50766905D01*
X65262619Y-52290714D02*
X65262619Y-51719286D01*
X65262619Y-52005000D02*
X64262619Y-52005000D01*
X64262619Y-52005000D02*
X64405476Y-51909762D01*
X64405476Y-51909762D02*
X64500714Y-51814524D01*
X64500714Y-51814524D02*
X64548333Y-51719286D01*
D12*
%TO.C,R5*%
X137190000Y-47465000D02*
X137190000Y-48235000D01*
X138560000Y-48235000D02*
X138560000Y-54775000D01*
X135820000Y-48235000D02*
X138560000Y-48235000D01*
X138560000Y-54775000D02*
X135820000Y-54775000D01*
X135820000Y-54775000D02*
X135820000Y-48235000D01*
X137190000Y-55545000D02*
X137190000Y-54775000D01*
%TO.C,R12*%
X170210000Y-132555000D02*
X170210000Y-133325000D01*
X171580000Y-133325000D02*
X171580000Y-139865000D01*
X168840000Y-133325000D02*
X171580000Y-133325000D01*
X171580000Y-139865000D02*
X168840000Y-139865000D01*
X168840000Y-139865000D02*
X168840000Y-133325000D01*
X170210000Y-140635000D02*
X170210000Y-139865000D01*
%TO.C,OPT10*%
X35655000Y-73170000D02*
X30455000Y-73170000D01*
X35655000Y-68030000D02*
X35655000Y-73170000D01*
X35655000Y-68030000D02*
X33055000Y-68030000D01*
X35655000Y-66760000D02*
X35655000Y-65430000D01*
X35655000Y-65430000D02*
X34325000Y-65430000D01*
X33055000Y-68030000D02*
X33055000Y-65430000D01*
X33055000Y-65430000D02*
X30455000Y-65430000D01*
X30455000Y-65430000D02*
X30455000Y-73170000D01*
%TO.C,R7*%
X142270000Y-55545000D02*
X142270000Y-54775000D01*
X140900000Y-54775000D02*
X140900000Y-48235000D01*
X143640000Y-54775000D02*
X140900000Y-54775000D01*
X140900000Y-48235000D02*
X143640000Y-48235000D01*
X143640000Y-48235000D02*
X143640000Y-54775000D01*
X142270000Y-47465000D02*
X142270000Y-48235000D01*
%TO.C,J1*%
X61055000Y-88405000D02*
X55855000Y-88405000D01*
X61055000Y-68025000D02*
X61055000Y-88405000D01*
X61055000Y-68025000D02*
X58455000Y-68025000D01*
X61055000Y-66755000D02*
X61055000Y-65425000D01*
X61055000Y-65425000D02*
X59725000Y-65425000D01*
X58455000Y-68025000D02*
X58455000Y-65425000D01*
X58455000Y-65425000D02*
X55855000Y-65425000D01*
X55855000Y-65425000D02*
X55855000Y-88405000D01*
%TO.C,R13*%
X45750000Y-132555000D02*
X45750000Y-133325000D01*
X47120000Y-133325000D02*
X47120000Y-139865000D01*
X44380000Y-133325000D02*
X47120000Y-133325000D01*
X47120000Y-139865000D02*
X44380000Y-139865000D01*
X44380000Y-139865000D02*
X44380000Y-133325000D01*
X45750000Y-140635000D02*
X45750000Y-139865000D01*
%TO.C,R10*%
X96550000Y-132555000D02*
X96550000Y-133325000D01*
X97920000Y-133325000D02*
X97920000Y-139865000D01*
X95180000Y-133325000D02*
X97920000Y-133325000D01*
X97920000Y-139865000D02*
X95180000Y-139865000D01*
X95180000Y-139865000D02*
X95180000Y-133325000D01*
X96550000Y-140635000D02*
X96550000Y-139865000D01*
%TO.C,R2*%
X72420000Y-55545000D02*
X72420000Y-54775000D01*
X71050000Y-54775000D02*
X71050000Y-48235000D01*
X73790000Y-54775000D02*
X71050000Y-54775000D01*
X71050000Y-48235000D02*
X73790000Y-48235000D01*
X73790000Y-48235000D02*
X73790000Y-54775000D01*
X72420000Y-47465000D02*
X72420000Y-48235000D01*
%TO.C,R11*%
X111790000Y-132555000D02*
X111790000Y-133325000D01*
X113160000Y-133325000D02*
X113160000Y-139865000D01*
X110420000Y-133325000D02*
X113160000Y-133325000D01*
X113160000Y-139865000D02*
X110420000Y-139865000D01*
X110420000Y-139865000D02*
X110420000Y-133325000D01*
X111790000Y-140635000D02*
X111790000Y-139865000D01*
%TO.C,R6*%
X147350000Y-55545000D02*
X147350000Y-54775000D01*
X145980000Y-54775000D02*
X145980000Y-48235000D01*
X148720000Y-54775000D02*
X145980000Y-54775000D01*
X145980000Y-48235000D02*
X148720000Y-48235000D01*
X148720000Y-48235000D02*
X148720000Y-54775000D01*
X147350000Y-47465000D02*
X147350000Y-48235000D01*
%TO.C,R3*%
X77500000Y-55545000D02*
X77500000Y-54775000D01*
X76130000Y-54775000D02*
X76130000Y-48235000D01*
X78870000Y-54775000D02*
X76130000Y-54775000D01*
X76130000Y-48235000D02*
X78870000Y-48235000D01*
X78870000Y-48235000D02*
X78870000Y-54775000D01*
X77500000Y-47465000D02*
X77500000Y-48235000D01*
%TO.C,R16*%
X176814000Y-132555000D02*
X176814000Y-133325000D01*
X178184000Y-133325000D02*
X178184000Y-139865000D01*
X175444000Y-133325000D02*
X178184000Y-133325000D01*
X178184000Y-139865000D02*
X175444000Y-139865000D01*
X175444000Y-139865000D02*
X175444000Y-133325000D01*
X176814000Y-140635000D02*
X176814000Y-139865000D01*
%TO.C,GND*%
X49620000Y-88395000D02*
X46960000Y-88395000D01*
X49620000Y-88335000D02*
X49620000Y-88395000D01*
X49620000Y-88335000D02*
X46960000Y-88335000D01*
X49620000Y-87065000D02*
X49620000Y-85735000D01*
X49620000Y-85735000D02*
X48290000Y-85735000D01*
X46960000Y-88335000D02*
X46960000Y-88395000D01*
%TO.C,R14*%
X102900000Y-132555000D02*
X102900000Y-133325000D01*
X104270000Y-133325000D02*
X104270000Y-139865000D01*
X101530000Y-133325000D02*
X104270000Y-133325000D01*
X104270000Y-139865000D02*
X101530000Y-139865000D01*
X101530000Y-139865000D02*
X101530000Y-133325000D01*
X102900000Y-140635000D02*
X102900000Y-139865000D01*
%TO.C,G\u002A\u002A\u002A*%
G36*
X182264505Y-159056157D02*
G01*
X182264505Y-159460248D01*
X181839422Y-159460248D01*
X181414339Y-159460248D01*
X181414339Y-159056157D01*
X181414339Y-158652066D01*
X181839422Y-158652066D01*
X182264505Y-158652066D01*
X182264505Y-159056157D01*
G37*
G36*
X180665634Y-160787975D02*
G01*
X180665634Y-163000854D01*
X180268540Y-163000854D01*
X179871447Y-163000854D01*
X179871447Y-160787975D01*
X179871447Y-158575097D01*
X180268540Y-158575097D01*
X180665634Y-158575097D01*
X180665634Y-160787975D01*
G37*
G36*
X182240014Y-161445133D02*
G01*
X182240013Y-161493113D01*
X182240003Y-161596147D01*
X182239983Y-161697310D01*
X182239954Y-161796380D01*
X182239915Y-161893133D01*
X182239866Y-161987348D01*
X182239810Y-162078800D01*
X182239745Y-162167268D01*
X182239671Y-162252527D01*
X182239591Y-162334356D01*
X182239502Y-162412531D01*
X182239407Y-162486830D01*
X182239305Y-162557029D01*
X182239197Y-162622906D01*
X182239082Y-162684237D01*
X182238962Y-162740800D01*
X182238837Y-162792372D01*
X182238707Y-162838731D01*
X182238572Y-162879652D01*
X182238432Y-162914913D01*
X182238289Y-162944292D01*
X182238142Y-162967565D01*
X182237991Y-162984510D01*
X182237838Y-162994903D01*
X182237682Y-162998522D01*
X182237190Y-162998625D01*
X182231216Y-162998929D01*
X182218838Y-162999219D01*
X182200500Y-162999495D01*
X182176646Y-162999752D01*
X182147721Y-162999989D01*
X182114169Y-163000203D01*
X182076435Y-163000391D01*
X182034964Y-163000551D01*
X181990199Y-163000680D01*
X181942585Y-163000775D01*
X181892567Y-163000834D01*
X181840588Y-163000854D01*
X181445827Y-163000854D01*
X181445827Y-161447466D01*
X181445827Y-159894077D01*
X181842921Y-159894077D01*
X182240014Y-159894077D01*
X182240014Y-161445133D01*
G37*
G36*
X179087755Y-160787975D02*
G01*
X179087755Y-163000854D01*
X178695910Y-163000854D01*
X178304064Y-163000854D01*
X178303932Y-162503175D01*
X178303799Y-162005496D01*
X178131624Y-161815965D01*
X178105562Y-161787277D01*
X178078756Y-161757778D01*
X178053662Y-161730169D01*
X178030655Y-161704861D01*
X178010107Y-161682265D01*
X177992393Y-161662793D01*
X177977887Y-161646855D01*
X177966964Y-161634864D01*
X177959996Y-161627230D01*
X177957359Y-161624365D01*
X177957177Y-161624551D01*
X177954497Y-161629088D01*
X177948757Y-161639467D01*
X177940104Y-161655410D01*
X177928686Y-161676639D01*
X177914650Y-161702877D01*
X177898144Y-161733845D01*
X177879314Y-161769265D01*
X177858307Y-161808860D01*
X177835272Y-161852351D01*
X177810355Y-161899461D01*
X177783703Y-161949912D01*
X177755464Y-162003425D01*
X177725785Y-162059722D01*
X177694813Y-162118527D01*
X177662696Y-162179561D01*
X177629580Y-162242545D01*
X177595613Y-162307202D01*
X177586573Y-162324417D01*
X177552777Y-162388761D01*
X177519862Y-162451411D01*
X177487975Y-162512084D01*
X177457265Y-162570500D01*
X177427880Y-162626377D01*
X177399968Y-162679434D01*
X177373677Y-162729390D01*
X177349156Y-162775963D01*
X177326552Y-162818872D01*
X177306015Y-162857836D01*
X177287691Y-162892573D01*
X177271730Y-162922802D01*
X177258279Y-162948242D01*
X177247487Y-162968611D01*
X177239501Y-162983628D01*
X177234471Y-162993012D01*
X177232544Y-162996481D01*
X177231457Y-162996978D01*
X177227611Y-162997598D01*
X177220757Y-162998153D01*
X177210589Y-162998645D01*
X177196801Y-162999080D01*
X177179084Y-162999458D01*
X177157132Y-162999783D01*
X177130638Y-163000059D01*
X177099296Y-163000288D01*
X177062798Y-163000474D01*
X177020837Y-163000619D01*
X176973107Y-163000726D01*
X176919301Y-163000799D01*
X176859111Y-163000841D01*
X176792231Y-163000854D01*
X176738416Y-163000845D01*
X176685682Y-163000817D01*
X176635334Y-163000771D01*
X176587792Y-163000709D01*
X176543475Y-163000633D01*
X176502802Y-163000542D01*
X176466192Y-163000438D01*
X176434064Y-163000323D01*
X176406838Y-163000198D01*
X176384932Y-163000064D01*
X176368767Y-162999921D01*
X176358760Y-162999772D01*
X176355331Y-162999617D01*
X176355977Y-162998409D01*
X176359725Y-162991662D01*
X176366698Y-162979190D01*
X176376767Y-162961225D01*
X176389804Y-162937997D01*
X176405677Y-162909737D01*
X176424258Y-162876674D01*
X176445417Y-162839039D01*
X176469024Y-162797063D01*
X176494950Y-162750975D01*
X176523065Y-162701006D01*
X176553239Y-162647387D01*
X176585344Y-162590348D01*
X176619248Y-162530119D01*
X176654824Y-162466930D01*
X176691940Y-162401011D01*
X176730468Y-162332594D01*
X176770278Y-162261909D01*
X176811240Y-162189185D01*
X176853224Y-162114654D01*
X176896102Y-162038544D01*
X176922478Y-161991726D01*
X176964835Y-161916536D01*
X177006222Y-161843058D01*
X177046511Y-161771521D01*
X177085571Y-161702157D01*
X177123273Y-161635196D01*
X177159486Y-161570870D01*
X177194082Y-161509409D01*
X177226929Y-161451043D01*
X177257899Y-161396005D01*
X177286862Y-161344523D01*
X177313687Y-161296830D01*
X177338245Y-161253155D01*
X177360406Y-161213731D01*
X177380040Y-161178786D01*
X177397018Y-161148553D01*
X177411209Y-161123262D01*
X177422484Y-161103144D01*
X177430713Y-161088429D01*
X177435766Y-161079348D01*
X177437514Y-161076133D01*
X177437119Y-161075559D01*
X177432957Y-161070600D01*
X177424424Y-161060761D01*
X177411728Y-161046276D01*
X177395077Y-161027380D01*
X177374679Y-161004306D01*
X177350742Y-160977288D01*
X177323474Y-160946561D01*
X177293083Y-160912357D01*
X177259778Y-160874912D01*
X177223765Y-160834458D01*
X177185254Y-160791230D01*
X177144452Y-160745462D01*
X177101567Y-160697388D01*
X177056808Y-160647242D01*
X177010382Y-160595256D01*
X176962497Y-160541667D01*
X176913361Y-160486707D01*
X176892474Y-160463348D01*
X176843817Y-160408925D01*
X176796484Y-160355969D01*
X176750684Y-160304714D01*
X176706626Y-160255395D01*
X176664518Y-160208247D01*
X176624570Y-160163502D01*
X176586990Y-160121396D01*
X176551987Y-160082162D01*
X176519771Y-160046036D01*
X176490549Y-160013250D01*
X176464531Y-159984039D01*
X176441926Y-159958637D01*
X176422943Y-159937279D01*
X176407790Y-159920199D01*
X176396676Y-159907631D01*
X176389810Y-159899809D01*
X176387402Y-159896967D01*
X176387614Y-159896871D01*
X176392707Y-159896523D01*
X176404280Y-159896191D01*
X176421922Y-159895879D01*
X176445225Y-159895588D01*
X176473780Y-159895320D01*
X176507178Y-159895079D01*
X176545010Y-159894866D01*
X176586868Y-159894684D01*
X176632341Y-159894536D01*
X176681023Y-159894423D01*
X176732503Y-159894348D01*
X176786372Y-159894313D01*
X176842223Y-159894321D01*
X177298210Y-159894565D01*
X177800262Y-160502858D01*
X178302315Y-161111150D01*
X178303194Y-159843123D01*
X178304073Y-158575097D01*
X178695914Y-158575097D01*
X179087755Y-158575097D01*
X179087755Y-160787975D01*
G37*
G36*
X185149956Y-163566524D02*
G01*
X185149932Y-163610391D01*
X185149838Y-163655128D01*
X185149675Y-163700081D01*
X185149445Y-163744594D01*
X185149152Y-163788011D01*
X185148798Y-163829675D01*
X185148384Y-163868933D01*
X185147915Y-163905127D01*
X185147391Y-163937603D01*
X185146817Y-163965704D01*
X185146193Y-163988775D01*
X185145523Y-164006160D01*
X185144809Y-164017204D01*
X185142122Y-164045193D01*
X185098389Y-164049577D01*
X185095759Y-164049837D01*
X185074561Y-164051753D01*
X185049684Y-164053764D01*
X185024011Y-164055645D01*
X185000427Y-164057174D01*
X184980125Y-164058094D01*
X184952735Y-164058810D01*
X184920977Y-164059242D01*
X184885986Y-164059403D01*
X184848900Y-164059307D01*
X184810854Y-164058967D01*
X184772986Y-164058398D01*
X184736431Y-164057614D01*
X184702326Y-164056629D01*
X184671807Y-164055455D01*
X184646011Y-164054108D01*
X184626075Y-164052601D01*
X184569409Y-164046432D01*
X184511100Y-164038068D01*
X184457658Y-164027987D01*
X184408018Y-164015956D01*
X184361114Y-164001744D01*
X184315880Y-163985118D01*
X184293721Y-163975765D01*
X184241706Y-163949402D01*
X184195409Y-163919163D01*
X184154881Y-163885102D01*
X184120173Y-163847271D01*
X184091337Y-163805723D01*
X184068424Y-163760511D01*
X184051484Y-163711688D01*
X184050688Y-163708734D01*
X184047918Y-163696758D01*
X184046026Y-163684446D01*
X184044865Y-163670134D01*
X184044285Y-163652159D01*
X184044141Y-163628857D01*
X184044141Y-163628642D01*
X184044144Y-163628067D01*
X184108279Y-163628067D01*
X184109185Y-163654575D01*
X184115669Y-163701192D01*
X184128484Y-163744968D01*
X184147736Y-163786159D01*
X184173531Y-163825017D01*
X184205974Y-163861797D01*
X184223884Y-163878587D01*
X184258888Y-163905955D01*
X184298231Y-163930270D01*
X184342195Y-163951622D01*
X184391062Y-163970098D01*
X184445113Y-163985787D01*
X184504629Y-163998777D01*
X184569893Y-164009156D01*
X184641185Y-164017012D01*
X184718788Y-164022434D01*
X184725686Y-164022775D01*
X184755687Y-164023879D01*
X184788887Y-164024587D01*
X184824264Y-164024918D01*
X184860800Y-164024890D01*
X184897477Y-164024521D01*
X184933274Y-164023831D01*
X184967173Y-164022837D01*
X184998155Y-164021558D01*
X185025199Y-164020012D01*
X185047289Y-164018218D01*
X185063403Y-164016194D01*
X185079147Y-164013569D01*
X185081357Y-163980400D01*
X185081766Y-163973410D01*
X185082588Y-163953842D01*
X185083350Y-163928427D01*
X185084047Y-163897948D01*
X185084675Y-163863185D01*
X185085229Y-163824921D01*
X185085706Y-163783935D01*
X185086101Y-163741010D01*
X185086410Y-163696928D01*
X185086629Y-163652469D01*
X185086754Y-163608414D01*
X185086779Y-163565546D01*
X185086702Y-163524646D01*
X185086518Y-163486495D01*
X185086222Y-163451875D01*
X185085811Y-163421566D01*
X185085279Y-163396351D01*
X185084624Y-163377010D01*
X185084593Y-163376301D01*
X185083429Y-163351386D01*
X185082279Y-163328863D01*
X185081197Y-163309652D01*
X185080238Y-163294673D01*
X185079457Y-163284845D01*
X185078909Y-163281089D01*
X185075999Y-163280005D01*
X185066455Y-163278607D01*
X185051144Y-163277325D01*
X185030779Y-163276165D01*
X185006071Y-163275134D01*
X184977734Y-163274239D01*
X184946478Y-163273487D01*
X184913018Y-163272886D01*
X184878064Y-163272440D01*
X184842330Y-163272159D01*
X184806527Y-163272047D01*
X184771368Y-163272113D01*
X184737566Y-163272363D01*
X184705832Y-163272804D01*
X184676879Y-163273443D01*
X184651420Y-163274287D01*
X184630166Y-163275342D01*
X184613830Y-163276615D01*
X184560659Y-163282727D01*
X184495698Y-163292528D01*
X184436831Y-163304373D01*
X184383677Y-163318396D01*
X184335857Y-163334730D01*
X184292992Y-163353510D01*
X184254701Y-163374869D01*
X184220604Y-163398942D01*
X184190322Y-163425861D01*
X184181748Y-163434707D01*
X184154711Y-163468016D01*
X184134066Y-163503462D01*
X184119593Y-163541590D01*
X184111070Y-163582944D01*
X184108279Y-163628067D01*
X184044144Y-163628067D01*
X184044268Y-163606679D01*
X184044725Y-163589999D01*
X184045694Y-163576903D01*
X184047361Y-163565692D01*
X184049907Y-163554668D01*
X184053517Y-163542132D01*
X184065199Y-163509279D01*
X184085246Y-163469105D01*
X184110644Y-163432976D01*
X184141838Y-163400175D01*
X184159911Y-163384536D01*
X184199318Y-163355821D01*
X184243415Y-163330336D01*
X184292457Y-163307996D01*
X184346702Y-163288716D01*
X184406405Y-163272410D01*
X184471823Y-163258993D01*
X184543212Y-163248379D01*
X184620827Y-163240482D01*
X184637511Y-163239322D01*
X184667017Y-163237868D01*
X184701447Y-163236711D01*
X184739574Y-163235858D01*
X184780168Y-163235314D01*
X184822002Y-163235083D01*
X184863848Y-163235170D01*
X184904476Y-163235582D01*
X184942660Y-163236324D01*
X184977170Y-163237400D01*
X185006778Y-163238817D01*
X185038607Y-163240769D01*
X185070017Y-163242873D01*
X185095133Y-163244795D01*
X185114334Y-163246570D01*
X185127997Y-163248236D01*
X185136502Y-163249826D01*
X185140227Y-163251377D01*
X185140521Y-163251986D01*
X185141681Y-163258175D01*
X185143053Y-163269947D01*
X185144535Y-163286224D01*
X185146026Y-163305926D01*
X185147425Y-163327975D01*
X185147914Y-163338919D01*
X185148459Y-163358330D01*
X185148916Y-163383202D01*
X185149286Y-163412879D01*
X185149573Y-163446706D01*
X185149778Y-163484026D01*
X185149905Y-163524184D01*
X185149955Y-163565546D01*
X185149956Y-163566524D01*
G37*
G36*
X174476416Y-160619167D02*
G01*
X174483941Y-160646351D01*
X174507552Y-160731647D01*
X174529429Y-160810689D01*
X174549676Y-160883853D01*
X174568396Y-160951514D01*
X174585691Y-161014049D01*
X174601665Y-161071833D01*
X174616420Y-161125241D01*
X174630060Y-161174650D01*
X174642686Y-161220435D01*
X174654402Y-161262972D01*
X174665311Y-161302637D01*
X174675516Y-161339804D01*
X174685120Y-161374851D01*
X174694224Y-161408152D01*
X174702933Y-161440084D01*
X174711349Y-161471022D01*
X174719575Y-161501341D01*
X174727714Y-161531418D01*
X174735869Y-161561628D01*
X174744143Y-161592347D01*
X174752638Y-161623950D01*
X174761457Y-161656814D01*
X174770703Y-161691314D01*
X174780480Y-161727825D01*
X174790890Y-161766724D01*
X174802035Y-161808386D01*
X174804071Y-161815995D01*
X174815132Y-161857292D01*
X174825691Y-161896646D01*
X174835604Y-161933520D01*
X174844726Y-161967380D01*
X174852913Y-161997690D01*
X174860019Y-162023916D01*
X174865901Y-162045521D01*
X174870412Y-162061972D01*
X174873409Y-162072732D01*
X174874747Y-162077267D01*
X174875631Y-162077188D01*
X174877554Y-162073053D01*
X174880512Y-162064310D01*
X174884579Y-162050686D01*
X174889832Y-162031905D01*
X174896344Y-162007693D01*
X174904191Y-161977775D01*
X174913447Y-161941877D01*
X174924188Y-161899725D01*
X174936488Y-161851044D01*
X174939333Y-161839751D01*
X174952315Y-161788325D01*
X174965645Y-161735685D01*
X174979174Y-161682401D01*
X174992757Y-161629046D01*
X175006246Y-161576190D01*
X175019494Y-161524404D01*
X175032355Y-161474261D01*
X175044681Y-161426332D01*
X175056326Y-161381188D01*
X175067143Y-161339401D01*
X175076985Y-161301541D01*
X175085704Y-161268182D01*
X175093155Y-161239892D01*
X175099190Y-161217246D01*
X175103661Y-161200813D01*
X175105266Y-161195085D01*
X175108901Y-161182208D01*
X175114268Y-161163250D01*
X175121266Y-161138570D01*
X175129794Y-161108526D01*
X175139748Y-161073476D01*
X175151027Y-161033778D01*
X175163529Y-160989791D01*
X175177153Y-160941873D01*
X175191797Y-160890382D01*
X175207358Y-160835678D01*
X175223735Y-160778117D01*
X175240826Y-160718058D01*
X175258529Y-160655861D01*
X175276742Y-160591882D01*
X175295364Y-160526480D01*
X175475427Y-159894131D01*
X175894388Y-159894104D01*
X175932820Y-159894114D01*
X175984967Y-159894166D01*
X176034825Y-159894262D01*
X176081966Y-159894398D01*
X176125962Y-159894571D01*
X176166385Y-159894779D01*
X176202807Y-159895018D01*
X176234800Y-159895285D01*
X176261935Y-159895578D01*
X176283786Y-159895894D01*
X176299924Y-159896230D01*
X176309920Y-159896583D01*
X176313348Y-159896949D01*
X176312756Y-159898798D01*
X176310019Y-159906905D01*
X176305119Y-159921267D01*
X176298127Y-159941674D01*
X176289117Y-159967918D01*
X176278160Y-159999790D01*
X176265328Y-160037082D01*
X176250692Y-160079585D01*
X176234326Y-160127091D01*
X176216300Y-160179391D01*
X176196687Y-160236277D01*
X176175558Y-160297540D01*
X176152986Y-160362971D01*
X176129043Y-160432363D01*
X176103800Y-160505506D01*
X176077329Y-160582191D01*
X176049703Y-160662212D01*
X176020993Y-160745358D01*
X175991272Y-160831421D01*
X175960610Y-160920193D01*
X175929081Y-161011465D01*
X175896755Y-161105029D01*
X175863706Y-161200676D01*
X175830005Y-161298198D01*
X175795723Y-161397385D01*
X175278099Y-162894949D01*
X175302701Y-162969768D01*
X175313980Y-163003607D01*
X175324001Y-163032477D01*
X175333185Y-163057365D01*
X175342082Y-163079649D01*
X175351245Y-163100709D01*
X175361223Y-163121921D01*
X175372567Y-163144666D01*
X175377818Y-163154795D01*
X175410247Y-163210204D01*
X175445840Y-163259415D01*
X175484720Y-163302527D01*
X175527014Y-163339639D01*
X175572844Y-163370851D01*
X175622337Y-163396260D01*
X175675617Y-163415967D01*
X175732809Y-163430069D01*
X175739700Y-163431309D01*
X175752128Y-163433096D01*
X175765877Y-163434419D01*
X175782082Y-163435337D01*
X175801877Y-163435904D01*
X175826397Y-163436176D01*
X175856777Y-163436211D01*
X175859059Y-163436206D01*
X175916185Y-163435180D01*
X175972568Y-163432363D01*
X176029661Y-163427610D01*
X176088921Y-163420776D01*
X176151802Y-163411720D01*
X176219759Y-163400295D01*
X176274863Y-163390469D01*
X176274878Y-163404704D01*
X176274861Y-163405943D01*
X176274579Y-163414252D01*
X176273974Y-163428692D01*
X176273080Y-163448610D01*
X176271929Y-163473353D01*
X176270554Y-163502270D01*
X176268987Y-163534706D01*
X176267263Y-163570010D01*
X176265413Y-163607530D01*
X176263470Y-163646611D01*
X176261468Y-163686603D01*
X176259439Y-163726852D01*
X176257416Y-163766705D01*
X176255432Y-163805510D01*
X176253520Y-163842615D01*
X176251712Y-163877367D01*
X176250042Y-163909112D01*
X176248542Y-163937199D01*
X176247246Y-163960976D01*
X176246186Y-163979788D01*
X176245394Y-163992985D01*
X176244905Y-163999912D01*
X176242962Y-164021105D01*
X176191564Y-164028916D01*
X176158908Y-164033741D01*
X176117772Y-164039301D01*
X176079666Y-164043741D01*
X176042384Y-164047314D01*
X176003720Y-164050269D01*
X175993621Y-164050958D01*
X175973278Y-164052355D01*
X175954797Y-164053636D01*
X175939885Y-164054682D01*
X175930248Y-164055374D01*
X175920445Y-164055861D01*
X175902387Y-164056231D01*
X175879392Y-164056329D01*
X175852619Y-164056179D01*
X175823228Y-164055806D01*
X175792379Y-164055237D01*
X175761231Y-164054495D01*
X175730945Y-164053607D01*
X175702680Y-164052597D01*
X175677596Y-164051492D01*
X175656854Y-164050315D01*
X175641612Y-164049093D01*
X175637417Y-164048659D01*
X175546658Y-164036743D01*
X175461052Y-164020441D01*
X175380210Y-163999625D01*
X175303743Y-163974166D01*
X175231264Y-163943935D01*
X175162385Y-163908805D01*
X175096717Y-163868646D01*
X175077051Y-163855322D01*
X175046068Y-163833055D01*
X175017450Y-163810549D01*
X174989583Y-163786444D01*
X174960852Y-163759382D01*
X174929642Y-163728004D01*
X174919663Y-163717609D01*
X174875497Y-163668568D01*
X174834247Y-163617372D01*
X174795249Y-163563054D01*
X174757841Y-163504648D01*
X174721360Y-163441188D01*
X174685143Y-163371708D01*
X174667837Y-163336536D01*
X174652334Y-163303836D01*
X174638232Y-163272557D01*
X174624645Y-163240678D01*
X174610688Y-163206179D01*
X174595476Y-163167039D01*
X174594569Y-163164580D01*
X174591075Y-163154735D01*
X174585434Y-163138578D01*
X174577720Y-163116320D01*
X174568003Y-163088171D01*
X174556356Y-163054342D01*
X174542850Y-163015043D01*
X174527557Y-162970484D01*
X174510550Y-162920876D01*
X174491899Y-162866428D01*
X174471677Y-162807351D01*
X174449956Y-162743855D01*
X174426808Y-162676151D01*
X174402303Y-162604449D01*
X174376516Y-162528958D01*
X174349516Y-162449890D01*
X174321376Y-162367454D01*
X174292169Y-162281862D01*
X174261965Y-162193322D01*
X174230836Y-162102045D01*
X174198855Y-162008242D01*
X174166094Y-161912124D01*
X174132623Y-161813899D01*
X174098516Y-161713778D01*
X174063844Y-161611972D01*
X174028678Y-161508692D01*
X174008419Y-161449182D01*
X173973726Y-161347277D01*
X173939636Y-161247146D01*
X173906218Y-161148991D01*
X173873541Y-161053013D01*
X173841674Y-160959415D01*
X173810685Y-160868398D01*
X173780644Y-160780166D01*
X173751618Y-160694920D01*
X173723678Y-160612862D01*
X173696891Y-160534195D01*
X173671327Y-160459120D01*
X173647055Y-160387839D01*
X173624143Y-160320555D01*
X173602659Y-160257470D01*
X173582674Y-160198786D01*
X173564255Y-160144704D01*
X173547472Y-160095428D01*
X173532394Y-160051159D01*
X173519088Y-160012099D01*
X173507625Y-159978450D01*
X173498072Y-159950415D01*
X173490499Y-159928195D01*
X173484974Y-159911993D01*
X173481567Y-159902011D01*
X173480346Y-159898450D01*
X173480351Y-159898276D01*
X173481979Y-159897598D01*
X173486434Y-159896992D01*
X173494038Y-159896456D01*
X173505111Y-159895984D01*
X173519974Y-159895574D01*
X173538947Y-159895222D01*
X173562352Y-159894925D01*
X173590510Y-159894679D01*
X173623739Y-159894480D01*
X173662363Y-159894326D01*
X173706701Y-159894212D01*
X173757074Y-159894135D01*
X173813802Y-159894091D01*
X173877208Y-159894077D01*
X174275700Y-159894077D01*
X174476416Y-160619167D01*
G37*
G36*
X185578013Y-163241957D02*
G01*
X185564406Y-163248899D01*
X185558609Y-163251373D01*
X185550972Y-163253465D01*
X185540664Y-163255188D01*
X185526605Y-163256684D01*
X185507713Y-163258095D01*
X185482907Y-163259561D01*
X185480724Y-163259681D01*
X185453106Y-163261262D01*
X185431577Y-163262691D01*
X185415294Y-163264104D01*
X185403414Y-163265639D01*
X185395094Y-163267431D01*
X185389490Y-163269616D01*
X185385760Y-163272332D01*
X185383061Y-163275715D01*
X185381170Y-163279297D01*
X185379230Y-163285027D01*
X185377546Y-163292846D01*
X185376105Y-163303164D01*
X185374897Y-163316388D01*
X185373908Y-163332929D01*
X185373127Y-163353194D01*
X185372541Y-163377593D01*
X185372138Y-163406535D01*
X185371907Y-163440429D01*
X185371834Y-163479684D01*
X185371909Y-163524708D01*
X185372118Y-163575910D01*
X185372450Y-163633700D01*
X185372513Y-163643270D01*
X185372852Y-163687629D01*
X185373259Y-163730589D01*
X185373721Y-163771530D01*
X185374230Y-163809828D01*
X185374775Y-163844861D01*
X185375346Y-163876008D01*
X185375931Y-163902647D01*
X185376522Y-163924154D01*
X185377107Y-163939909D01*
X185377677Y-163949288D01*
X185378203Y-163954899D01*
X185380645Y-163979684D01*
X185382759Y-163998493D01*
X185384680Y-164012167D01*
X185386539Y-164021547D01*
X185388472Y-164027473D01*
X185390611Y-164030785D01*
X185392220Y-164031894D01*
X185399921Y-164035248D01*
X185411803Y-164039278D01*
X185426047Y-164043341D01*
X185431482Y-164044824D01*
X185446670Y-164049591D01*
X185459742Y-164054536D01*
X185468344Y-164058799D01*
X185472267Y-164061489D01*
X185477175Y-164066466D01*
X185479266Y-164073170D01*
X185479715Y-164084230D01*
X185479632Y-164090827D01*
X185478538Y-164099092D01*
X185475270Y-164104222D01*
X185468700Y-164108721D01*
X185466941Y-164109633D01*
X185464557Y-164110514D01*
X185461287Y-164111295D01*
X185456750Y-164111983D01*
X185450563Y-164112585D01*
X185442345Y-164113104D01*
X185431714Y-164113548D01*
X185418287Y-164113922D01*
X185401684Y-164114232D01*
X185381520Y-164114483D01*
X185357416Y-164114682D01*
X185328988Y-164114833D01*
X185295855Y-164114944D01*
X185257635Y-164115018D01*
X185213945Y-164115063D01*
X185164405Y-164115084D01*
X185108631Y-164115087D01*
X185046241Y-164115077D01*
X185014801Y-164115069D01*
X184953071Y-164115040D01*
X184897659Y-164114985D01*
X184848101Y-164114891D01*
X184803936Y-164114748D01*
X184764703Y-164114542D01*
X184729938Y-164114262D01*
X184699180Y-164113896D01*
X184671966Y-164113432D01*
X184647836Y-164112859D01*
X184626325Y-164112164D01*
X184606973Y-164111334D01*
X184589317Y-164110360D01*
X184572896Y-164109227D01*
X184557246Y-164107925D01*
X184541907Y-164106442D01*
X184526415Y-164104765D01*
X184510309Y-164102883D01*
X184493127Y-164100783D01*
X184480486Y-164099140D01*
X184423264Y-164089936D01*
X184364039Y-164077791D01*
X184305052Y-164063246D01*
X184248540Y-164046842D01*
X184196744Y-164029122D01*
X184178698Y-164022203D01*
X184114238Y-163994380D01*
X184054924Y-163963705D01*
X184000973Y-163930365D01*
X183952597Y-163894546D01*
X183910013Y-163856437D01*
X183873435Y-163816224D01*
X183843077Y-163774094D01*
X183819155Y-163730235D01*
X183801883Y-163684835D01*
X183798976Y-163674749D01*
X183795624Y-163660562D01*
X183793564Y-163646575D01*
X183792483Y-163630391D01*
X183792283Y-163620363D01*
X183857069Y-163620363D01*
X183860296Y-163652450D01*
X183866944Y-163681336D01*
X183877022Y-163708949D01*
X183898843Y-163752695D01*
X183926997Y-163794338D01*
X183961231Y-163833739D01*
X184001292Y-163870760D01*
X184046928Y-163905261D01*
X184097885Y-163937103D01*
X184153910Y-163966149D01*
X184214752Y-163992259D01*
X184280156Y-164015294D01*
X184349870Y-164035116D01*
X184423641Y-164051586D01*
X184501216Y-164064565D01*
X184582342Y-164073914D01*
X184585601Y-164074204D01*
X184597115Y-164075142D01*
X184609231Y-164075975D01*
X184622405Y-164076709D01*
X184637095Y-164077349D01*
X184653757Y-164077903D01*
X184672848Y-164078376D01*
X184694825Y-164078776D01*
X184720144Y-164079107D01*
X184749263Y-164079377D01*
X184782638Y-164079591D01*
X184820726Y-164079756D01*
X184863985Y-164079879D01*
X184912870Y-164079965D01*
X184967838Y-164080020D01*
X185029347Y-164080052D01*
X185036539Y-164080054D01*
X185087091Y-164080043D01*
X185135479Y-164079990D01*
X185181264Y-164079897D01*
X185224007Y-164079768D01*
X185263268Y-164079604D01*
X185298609Y-164079410D01*
X185329589Y-164079187D01*
X185355769Y-164078937D01*
X185376709Y-164078665D01*
X185391971Y-164078372D01*
X185401114Y-164078062D01*
X185403700Y-164077737D01*
X185401906Y-164077086D01*
X185393660Y-164074397D01*
X185381424Y-164070608D01*
X185367126Y-164066320D01*
X185360356Y-164064266D01*
X185344434Y-164058427D01*
X185333667Y-164051823D01*
X185326755Y-164043000D01*
X185322396Y-164030504D01*
X185319287Y-164012880D01*
X185317743Y-164001384D01*
X185315639Y-163983361D01*
X185313801Y-163964108D01*
X185312212Y-163943102D01*
X185310857Y-163919818D01*
X185309721Y-163893732D01*
X185308787Y-163864319D01*
X185308040Y-163831055D01*
X185307464Y-163793416D01*
X185307044Y-163750878D01*
X185306763Y-163702915D01*
X185306606Y-163649005D01*
X185306557Y-163588623D01*
X185306560Y-163556629D01*
X185306588Y-163507667D01*
X185306667Y-163464950D01*
X185306821Y-163428005D01*
X185307075Y-163396358D01*
X185307454Y-163369538D01*
X185307981Y-163347069D01*
X185308682Y-163328480D01*
X185309581Y-163313298D01*
X185310702Y-163301048D01*
X185312071Y-163291258D01*
X185313711Y-163283454D01*
X185315648Y-163277165D01*
X185317906Y-163271915D01*
X185320509Y-163267233D01*
X185323482Y-163262645D01*
X185325549Y-163259739D01*
X185333634Y-163250992D01*
X185343923Y-163243883D01*
X185357214Y-163238186D01*
X185374304Y-163233675D01*
X185395991Y-163230123D01*
X185423074Y-163227305D01*
X185456351Y-163224995D01*
X185464907Y-163224468D01*
X185482269Y-163223209D01*
X185496499Y-163221918D01*
X185506311Y-163220721D01*
X185510420Y-163219741D01*
X185509823Y-163219514D01*
X185503741Y-163219153D01*
X185491727Y-163218925D01*
X185474495Y-163218830D01*
X185452756Y-163218866D01*
X185427223Y-163219035D01*
X185398608Y-163219336D01*
X185367624Y-163219769D01*
X185348499Y-163220011D01*
X185316147Y-163220250D01*
X185278450Y-163220372D01*
X185236376Y-163220380D01*
X185190892Y-163220279D01*
X185142967Y-163220071D01*
X185093568Y-163219759D01*
X185043661Y-163219348D01*
X184994216Y-163218841D01*
X184946199Y-163218242D01*
X184920147Y-163217895D01*
X184850801Y-163217090D01*
X184788427Y-163216551D01*
X184733009Y-163216280D01*
X184684532Y-163216276D01*
X184642980Y-163216538D01*
X184608339Y-163217068D01*
X184580593Y-163217865D01*
X184540760Y-163219605D01*
X184472934Y-163223751D01*
X184410945Y-163229263D01*
X184354108Y-163236280D01*
X184301735Y-163244938D01*
X184253139Y-163255375D01*
X184207633Y-163267730D01*
X184164530Y-163282140D01*
X184123142Y-163298743D01*
X184082782Y-163317676D01*
X184041159Y-163340261D01*
X183995129Y-163370181D01*
X183955727Y-163402035D01*
X183922879Y-163435902D01*
X183896507Y-163471863D01*
X183876538Y-163509997D01*
X183862896Y-163550384D01*
X183861218Y-163557762D01*
X183857347Y-163587869D01*
X183857069Y-163620363D01*
X183792283Y-163620363D01*
X183792069Y-163609614D01*
X183792460Y-163584299D01*
X183794645Y-163560379D01*
X183799183Y-163538713D01*
X183806600Y-163516868D01*
X183817423Y-163492411D01*
X183836809Y-163457733D01*
X183865551Y-163419341D01*
X183900902Y-163383153D01*
X183942875Y-163349159D01*
X183991480Y-163317348D01*
X184046728Y-163287711D01*
X184066920Y-163278116D01*
X184112585Y-163258441D01*
X184158067Y-163241925D01*
X184205144Y-163228016D01*
X184255595Y-163216164D01*
X184311199Y-163205818D01*
X184315836Y-163205051D01*
X184342504Y-163200854D01*
X184368900Y-163197107D01*
X184395509Y-163193794D01*
X184422814Y-163190898D01*
X184451302Y-163188401D01*
X184481455Y-163186288D01*
X184513759Y-163184541D01*
X184548697Y-163183143D01*
X184586755Y-163182077D01*
X184628416Y-163181328D01*
X184674165Y-163180877D01*
X184724487Y-163180708D01*
X184779865Y-163180804D01*
X184840785Y-163181148D01*
X184907730Y-163181724D01*
X184981185Y-163182514D01*
X185006387Y-163182798D01*
X185070246Y-163183441D01*
X185131089Y-163183941D01*
X185188418Y-163184297D01*
X185241737Y-163184509D01*
X185290548Y-163184576D01*
X185334353Y-163184497D01*
X185372654Y-163184270D01*
X185404955Y-163183895D01*
X185430758Y-163183372D01*
X185452768Y-163182788D01*
X185479689Y-163182115D01*
X185500977Y-163181684D01*
X185517440Y-163181521D01*
X185529887Y-163181655D01*
X185539128Y-163182113D01*
X185545972Y-163182920D01*
X185551227Y-163184105D01*
X185555702Y-163185696D01*
X185560207Y-163187718D01*
X185575951Y-163195104D01*
X185576982Y-163218531D01*
X185577035Y-163219741D01*
X185578013Y-163241957D01*
G37*
G36*
X180973813Y-164102599D02*
G01*
X180961539Y-164108896D01*
X180960635Y-164109338D01*
X180958146Y-164110313D01*
X180954875Y-164111173D01*
X180950407Y-164111925D01*
X180944328Y-164112575D01*
X180936224Y-164113129D01*
X180925680Y-164113596D01*
X180912282Y-164113981D01*
X180895616Y-164114292D01*
X180875267Y-164114535D01*
X180850821Y-164114717D01*
X180821864Y-164114844D01*
X180787982Y-164114925D01*
X180748759Y-164114964D01*
X180703782Y-164114970D01*
X180652637Y-164114949D01*
X180594908Y-164114908D01*
X180556047Y-164114886D01*
X180500586Y-164114878D01*
X180451492Y-164114868D01*
X180408378Y-164114820D01*
X180370862Y-164114696D01*
X180338556Y-164114459D01*
X180311076Y-164114072D01*
X180288038Y-164113497D01*
X180269055Y-164112697D01*
X180253744Y-164111635D01*
X180241718Y-164110274D01*
X180232593Y-164108575D01*
X180225983Y-164106503D01*
X180221505Y-164104019D01*
X180218771Y-164101086D01*
X180217399Y-164097667D01*
X180217001Y-164093725D01*
X180217194Y-164089223D01*
X180217592Y-164084122D01*
X180217810Y-164078387D01*
X180217810Y-164077555D01*
X180284284Y-164077555D01*
X180287444Y-164077928D01*
X180297118Y-164078299D01*
X180312816Y-164078649D01*
X180334041Y-164078974D01*
X180360296Y-164079268D01*
X180391085Y-164079529D01*
X180425912Y-164079752D01*
X180464279Y-164079933D01*
X180505691Y-164080067D01*
X180549651Y-164080150D01*
X180595662Y-164080179D01*
X180639928Y-164080158D01*
X180683976Y-164080094D01*
X180725496Y-164079989D01*
X180763990Y-164079848D01*
X180798963Y-164079674D01*
X180829918Y-164079469D01*
X180856357Y-164079237D01*
X180877786Y-164078982D01*
X180893707Y-164078707D01*
X180903623Y-164078414D01*
X180907039Y-164078108D01*
X180903948Y-164077358D01*
X180894925Y-164076446D01*
X180881060Y-164075474D01*
X180863450Y-164074518D01*
X180843189Y-164073654D01*
X180818937Y-164072596D01*
X180785594Y-164070345D01*
X180758203Y-164067112D01*
X180736130Y-164062574D01*
X180718743Y-164056402D01*
X180705407Y-164048273D01*
X180695489Y-164037859D01*
X180688356Y-164024836D01*
X180683375Y-164008876D01*
X180679911Y-163989655D01*
X180679611Y-163986756D01*
X180678988Y-163975529D01*
X180678427Y-163958231D01*
X180677927Y-163935498D01*
X180677489Y-163907970D01*
X180677113Y-163876285D01*
X180676800Y-163841081D01*
X180676549Y-163802995D01*
X180676360Y-163762667D01*
X180676234Y-163720734D01*
X180676172Y-163677834D01*
X180676173Y-163634606D01*
X180676237Y-163591688D01*
X180676365Y-163549718D01*
X180676556Y-163509335D01*
X180676812Y-163471175D01*
X180677132Y-163435878D01*
X180677516Y-163404082D01*
X180677966Y-163376425D01*
X180678479Y-163353544D01*
X180679059Y-163336079D01*
X180679703Y-163324668D01*
X180679912Y-163322197D01*
X180682387Y-163299968D01*
X180686042Y-163281618D01*
X180691524Y-163266729D01*
X180699478Y-163254885D01*
X180710551Y-163245672D01*
X180725390Y-163238673D01*
X180744639Y-163233471D01*
X180768946Y-163229652D01*
X180798957Y-163226799D01*
X180835317Y-163224496D01*
X180839620Y-163224260D01*
X180860505Y-163223086D01*
X180878629Y-163222017D01*
X180892937Y-163221119D01*
X180902370Y-163220458D01*
X180905873Y-163220100D01*
X180902742Y-163220016D01*
X180893099Y-163219934D01*
X180877434Y-163219856D01*
X180856242Y-163219784D01*
X180830018Y-163219718D01*
X180799256Y-163219660D01*
X180764453Y-163219610D01*
X180726102Y-163219569D01*
X180684698Y-163219539D01*
X180640738Y-163219520D01*
X180594715Y-163219512D01*
X180549381Y-163219520D01*
X180505595Y-163219543D01*
X180464435Y-163219582D01*
X180426389Y-163219634D01*
X180391940Y-163219699D01*
X180361575Y-163219775D01*
X180335780Y-163219861D01*
X180315039Y-163219956D01*
X180299839Y-163220058D01*
X180290665Y-163220167D01*
X180288002Y-163220281D01*
X180288181Y-163220306D01*
X180293694Y-163220752D01*
X180304923Y-163221478D01*
X180320703Y-163222413D01*
X180339868Y-163223490D01*
X180361254Y-163224637D01*
X180383016Y-163225901D01*
X180414932Y-163228491D01*
X180440904Y-163231973D01*
X180461595Y-163236739D01*
X180477665Y-163243185D01*
X180489777Y-163251704D01*
X180498591Y-163262690D01*
X180504768Y-163276538D01*
X180508970Y-163293641D01*
X180511858Y-163314394D01*
X180512053Y-163316460D01*
X180512768Y-163329082D01*
X180513371Y-163348627D01*
X180513861Y-163375036D01*
X180514238Y-163408250D01*
X180514502Y-163448210D01*
X180514653Y-163494858D01*
X180514689Y-163548135D01*
X180514611Y-163607981D01*
X180514418Y-163674339D01*
X180514258Y-163719140D01*
X180514066Y-163770938D01*
X180513864Y-163816501D01*
X180513626Y-163856261D01*
X180513327Y-163890645D01*
X180512939Y-163920085D01*
X180512438Y-163945009D01*
X180511796Y-163965847D01*
X180510988Y-163983028D01*
X180509988Y-163996983D01*
X180508768Y-164008140D01*
X180507304Y-164016930D01*
X180505569Y-164023782D01*
X180503537Y-164029125D01*
X180501181Y-164033390D01*
X180498476Y-164037005D01*
X180495396Y-164040401D01*
X180491913Y-164044006D01*
X180490500Y-164045390D01*
X180477040Y-164054062D01*
X180457228Y-164061346D01*
X180431524Y-164067160D01*
X180400386Y-164071417D01*
X180364273Y-164074035D01*
X180323644Y-164074928D01*
X180309485Y-164075106D01*
X180296416Y-164075664D01*
X180287550Y-164076511D01*
X180284284Y-164077555D01*
X180217810Y-164077555D01*
X180217810Y-164054033D01*
X180230930Y-164048170D01*
X180235887Y-164046395D01*
X180244213Y-164044587D01*
X180255887Y-164043093D01*
X180271821Y-164041827D01*
X180292929Y-164040702D01*
X180320122Y-164039630D01*
X180326365Y-164039399D01*
X180349962Y-164038334D01*
X180372080Y-164037053D01*
X180391340Y-164035654D01*
X180406362Y-164034233D01*
X180415768Y-164032888D01*
X180416214Y-164032796D01*
X180424583Y-164030751D01*
X180431218Y-164027993D01*
X180436356Y-164023736D01*
X180440233Y-164017194D01*
X180443086Y-164007583D01*
X180445151Y-163994118D01*
X180446667Y-163976012D01*
X180447869Y-163952482D01*
X180448995Y-163922741D01*
X180449091Y-163919934D01*
X180449824Y-163892891D01*
X180450436Y-163859956D01*
X180450927Y-163822117D01*
X180451296Y-163780359D01*
X180451543Y-163735669D01*
X180451668Y-163689033D01*
X180451671Y-163641438D01*
X180451551Y-163593869D01*
X180451309Y-163547313D01*
X180450943Y-163502758D01*
X180450455Y-163461187D01*
X180449844Y-163423590D01*
X180449109Y-163390950D01*
X180448985Y-163386364D01*
X180448078Y-163355760D01*
X180447104Y-163331288D01*
X180445925Y-163312182D01*
X180444405Y-163297680D01*
X180442406Y-163287017D01*
X180439789Y-163279430D01*
X180436417Y-163274154D01*
X180432153Y-163270427D01*
X180426859Y-163267483D01*
X180421806Y-163266050D01*
X180409103Y-163264226D01*
X180389609Y-163262474D01*
X180363444Y-163260804D01*
X180330725Y-163259228D01*
X180327396Y-163259086D01*
X180300328Y-163257857D01*
X180279231Y-163256710D01*
X180263180Y-163255548D01*
X180251254Y-163254276D01*
X180242526Y-163252797D01*
X180236075Y-163251015D01*
X180230976Y-163248833D01*
X180217810Y-163242117D01*
X180217810Y-163218128D01*
X180217810Y-163194140D01*
X180234429Y-163187237D01*
X180237904Y-163185856D01*
X180241975Y-163184537D01*
X180246767Y-163183475D01*
X180252908Y-163182658D01*
X180261026Y-163182074D01*
X180271747Y-163181711D01*
X180285699Y-163181557D01*
X180303510Y-163181599D01*
X180325807Y-163181824D01*
X180353218Y-163182221D01*
X180386369Y-163182777D01*
X180425890Y-163183480D01*
X180472620Y-163184169D01*
X180532355Y-163184687D01*
X180594314Y-163184877D01*
X180656195Y-163184738D01*
X180715692Y-163184271D01*
X180770504Y-163183476D01*
X180798367Y-163182962D01*
X180832758Y-163182353D01*
X180861238Y-163181905D01*
X180884445Y-163181631D01*
X180903018Y-163181543D01*
X180917594Y-163181655D01*
X180928813Y-163181978D01*
X180937314Y-163182527D01*
X180943733Y-163183314D01*
X180948711Y-163184352D01*
X180952885Y-163185654D01*
X180956894Y-163187232D01*
X180973513Y-163194140D01*
X180973513Y-163218128D01*
X180973513Y-163242117D01*
X180960313Y-163248851D01*
X180955624Y-163250885D01*
X180949103Y-163252752D01*
X180940283Y-163254310D01*
X180928224Y-163255663D01*
X180911987Y-163256915D01*
X180890634Y-163258167D01*
X180863226Y-163259524D01*
X180839059Y-163260680D01*
X180814749Y-163261950D01*
X180795977Y-163263146D01*
X180781940Y-163264387D01*
X180771832Y-163265790D01*
X180764850Y-163267472D01*
X180760189Y-163269550D01*
X180757045Y-163272143D01*
X180754612Y-163275366D01*
X180754384Y-163275722D01*
X180752257Y-163279999D01*
X180750381Y-163285915D01*
X180748734Y-163293917D01*
X180747297Y-163304451D01*
X180746050Y-163317963D01*
X180744972Y-163334901D01*
X180744043Y-163355710D01*
X180743242Y-163380837D01*
X180742550Y-163410729D01*
X180741946Y-163445832D01*
X180741409Y-163486593D01*
X180740921Y-163533458D01*
X180740459Y-163586873D01*
X180740083Y-163640597D01*
X180739806Y-163704543D01*
X180739777Y-163761880D01*
X180739999Y-163812824D01*
X180740480Y-163857593D01*
X180741224Y-163896403D01*
X180742237Y-163929472D01*
X180743525Y-163957017D01*
X180745093Y-163979254D01*
X180746946Y-163996401D01*
X180749092Y-164008676D01*
X180751534Y-164016294D01*
X180752970Y-164019053D01*
X180758455Y-164027054D01*
X180763383Y-164031131D01*
X180767662Y-164032055D01*
X180778995Y-164033541D01*
X180795003Y-164035070D01*
X180814297Y-164036549D01*
X180835488Y-164037883D01*
X180857186Y-164038979D01*
X180878001Y-164039744D01*
X180896543Y-164040085D01*
X180900460Y-164040114D01*
X180920541Y-164040602D01*
X180935455Y-164041748D01*
X180946762Y-164043724D01*
X180956020Y-164046705D01*
X180971764Y-164053073D01*
X180972788Y-164077836D01*
X180972799Y-164078108D01*
X180973813Y-164102599D01*
G37*
G36*
X184540518Y-158581791D02*
G01*
X184652718Y-158588226D01*
X184761798Y-158600060D01*
X184867257Y-158617245D01*
X184968595Y-158639734D01*
X184984009Y-158643735D01*
X185065635Y-158668000D01*
X185146291Y-158697033D01*
X185224843Y-158730324D01*
X185300158Y-158767362D01*
X185371102Y-158807635D01*
X185436542Y-158850634D01*
X185448735Y-158859369D01*
X185522472Y-158916304D01*
X185589738Y-158975788D01*
X185650637Y-159037993D01*
X185705275Y-159103093D01*
X185753756Y-159171262D01*
X185796185Y-159242672D01*
X185832666Y-159317497D01*
X185863303Y-159395912D01*
X185888202Y-159478088D01*
X185907467Y-159564200D01*
X185921203Y-159654422D01*
X185922484Y-159668446D01*
X185923721Y-159690476D01*
X185924653Y-159717196D01*
X185925280Y-159747358D01*
X185925603Y-159779714D01*
X185925622Y-159813017D01*
X185925337Y-159846018D01*
X185924749Y-159877470D01*
X185923856Y-159906125D01*
X185922660Y-159930736D01*
X185921161Y-159950055D01*
X185916860Y-159988662D01*
X185904233Y-160074717D01*
X185887867Y-160155386D01*
X185867614Y-160231131D01*
X185843324Y-160302412D01*
X185814847Y-160369692D01*
X185782034Y-160433431D01*
X185744734Y-160494091D01*
X185734391Y-160509220D01*
X185689115Y-160568456D01*
X185637533Y-160625704D01*
X185579597Y-160680995D01*
X185515258Y-160734361D01*
X185444466Y-160785834D01*
X185367173Y-160835446D01*
X185283330Y-160883229D01*
X185192888Y-160929215D01*
X185095797Y-160973435D01*
X184992009Y-161015923D01*
X184881474Y-161056709D01*
X184861002Y-161063816D01*
X184838206Y-161071552D01*
X184814434Y-161079416D01*
X184789047Y-161087607D01*
X184761404Y-161096320D01*
X184730867Y-161105754D01*
X184696795Y-161116107D01*
X184658549Y-161127575D01*
X184615489Y-161140356D01*
X184566976Y-161154648D01*
X184512370Y-161170648D01*
X184499448Y-161174434D01*
X184424519Y-161196753D01*
X184355903Y-161217871D01*
X184293134Y-161237963D01*
X184235746Y-161257204D01*
X184183274Y-161275767D01*
X184135253Y-161293827D01*
X184091215Y-161311559D01*
X184050696Y-161329135D01*
X184013230Y-161346732D01*
X183978351Y-161364522D01*
X183945593Y-161382680D01*
X183896775Y-161413211D01*
X183851377Y-161447205D01*
X183812193Y-161483385D01*
X183778877Y-161522278D01*
X183751084Y-161564412D01*
X183728468Y-161610314D01*
X183710685Y-161660512D01*
X183697390Y-161715531D01*
X183688237Y-161775901D01*
X183686502Y-161796505D01*
X183685380Y-161824429D01*
X183685127Y-161855399D01*
X183685692Y-161887744D01*
X183687023Y-161919794D01*
X183689069Y-161949880D01*
X183691778Y-161976331D01*
X183695098Y-161997478D01*
X183699165Y-162016198D01*
X183715357Y-162072215D01*
X183736725Y-162123704D01*
X183763361Y-162170762D01*
X183795358Y-162213489D01*
X183832809Y-162251984D01*
X183875805Y-162286344D01*
X183924439Y-162316670D01*
X183978803Y-162343061D01*
X184038990Y-162365614D01*
X184058988Y-162371957D01*
X184105872Y-162385137D01*
X184153082Y-162395880D01*
X184201701Y-162404332D01*
X184252810Y-162410637D01*
X184307491Y-162414939D01*
X184366828Y-162417384D01*
X184431901Y-162418115D01*
X184437401Y-162418108D01*
X184469016Y-162418003D01*
X184494875Y-162417760D01*
X184516054Y-162417326D01*
X184533626Y-162416650D01*
X184548666Y-162415680D01*
X184562249Y-162414362D01*
X184575449Y-162412646D01*
X184589339Y-162410478D01*
X184597614Y-162409078D01*
X184671350Y-162393349D01*
X184740579Y-162372432D01*
X184805669Y-162346137D01*
X184866991Y-162314275D01*
X184924913Y-162276656D01*
X184979805Y-162233090D01*
X185032037Y-162183389D01*
X185079042Y-162130138D01*
X185122973Y-162070357D01*
X185162469Y-162005413D01*
X185197569Y-161935225D01*
X185228315Y-161859709D01*
X185254749Y-161778785D01*
X185276910Y-161692369D01*
X185278851Y-161683765D01*
X185282680Y-161667006D01*
X185285850Y-161653427D01*
X185288073Y-161644246D01*
X185289063Y-161640679D01*
X185290300Y-161641005D01*
X185297402Y-161643151D01*
X185310372Y-161647159D01*
X185328710Y-161652873D01*
X185351916Y-161660134D01*
X185379490Y-161668784D01*
X185410932Y-161678665D01*
X185445743Y-161689620D01*
X185483421Y-161701490D01*
X185523467Y-161714117D01*
X185565382Y-161727343D01*
X185608665Y-161741011D01*
X185652817Y-161754962D01*
X185697336Y-161769038D01*
X185741725Y-161783082D01*
X185785481Y-161796935D01*
X185828107Y-161810439D01*
X185869100Y-161823437D01*
X185907963Y-161835769D01*
X185944194Y-161847280D01*
X185977294Y-161857809D01*
X186006763Y-161867200D01*
X186032100Y-161875294D01*
X186052807Y-161881933D01*
X186068382Y-161886960D01*
X186085000Y-161892353D01*
X186085000Y-161916034D01*
X186085000Y-161916254D01*
X186083430Y-161933784D01*
X186079009Y-161956724D01*
X186072031Y-161984249D01*
X186062790Y-162015532D01*
X186051577Y-162049747D01*
X186038687Y-162086068D01*
X186024412Y-162123668D01*
X186009045Y-162161722D01*
X185992879Y-162199403D01*
X185976207Y-162235885D01*
X185959324Y-162270342D01*
X185954107Y-162280493D01*
X185904721Y-162368480D01*
X185850399Y-162451534D01*
X185791197Y-162529621D01*
X185727173Y-162602706D01*
X185658383Y-162670757D01*
X185584884Y-162733739D01*
X185506731Y-162791619D01*
X185423983Y-162844363D01*
X185336695Y-162891937D01*
X185244925Y-162934308D01*
X185148728Y-162971442D01*
X185048162Y-163003305D01*
X184943283Y-163029864D01*
X184834147Y-163051084D01*
X184720812Y-163066933D01*
X184603334Y-163077376D01*
X184600246Y-163077567D01*
X184578183Y-163078582D01*
X184550583Y-163079402D01*
X184518693Y-163080026D01*
X184483758Y-163080450D01*
X184447027Y-163080676D01*
X184409745Y-163080700D01*
X184373160Y-163080522D01*
X184338518Y-163080140D01*
X184307066Y-163079553D01*
X184280051Y-163078759D01*
X184258720Y-163077757D01*
X184192974Y-163072994D01*
X184088056Y-163062032D01*
X183988015Y-163047165D01*
X183892193Y-163028272D01*
X183799931Y-163005235D01*
X183710571Y-162977933D01*
X183653109Y-162957566D01*
X183564256Y-162921059D01*
X183480476Y-162880071D01*
X183401416Y-162834393D01*
X183326726Y-162783817D01*
X183256054Y-162728133D01*
X183189050Y-162667132D01*
X183137432Y-162613931D01*
X183089450Y-162557923D01*
X183046695Y-162500324D01*
X183008285Y-162439941D01*
X182973335Y-162375579D01*
X182967388Y-162363574D01*
X182937782Y-162298101D01*
X182912445Y-162231273D01*
X182891092Y-162162083D01*
X182873442Y-162089525D01*
X182859209Y-162012592D01*
X182848113Y-161930276D01*
X182847943Y-161928731D01*
X182846275Y-161908000D01*
X182845000Y-161881638D01*
X182844110Y-161850888D01*
X182843600Y-161816995D01*
X182843461Y-161781201D01*
X182843687Y-161744750D01*
X182844270Y-161708885D01*
X182845203Y-161674850D01*
X182846480Y-161643888D01*
X182848092Y-161617243D01*
X182850034Y-161596157D01*
X182859798Y-161525631D01*
X182876139Y-161439961D01*
X182896924Y-161359375D01*
X182922318Y-161283563D01*
X182952487Y-161212216D01*
X182987596Y-161145026D01*
X183027809Y-161081682D01*
X183073292Y-161021876D01*
X183124211Y-160965300D01*
X183180729Y-160911642D01*
X183243013Y-160860596D01*
X183246447Y-160857979D01*
X183307138Y-160814254D01*
X183371731Y-160772377D01*
X183440568Y-160732195D01*
X183513992Y-160693550D01*
X183592346Y-160656289D01*
X183675970Y-160620255D01*
X183765208Y-160585293D01*
X183860402Y-160551249D01*
X183961894Y-160517966D01*
X184070027Y-160485289D01*
X184072489Y-160484574D01*
X184104329Y-160475296D01*
X184138335Y-160465353D01*
X184172729Y-160455265D01*
X184205735Y-160445555D01*
X184235574Y-160436745D01*
X184260469Y-160429357D01*
X184267623Y-160427228D01*
X184294604Y-160419239D01*
X184322371Y-160411070D01*
X184349052Y-160403268D01*
X184372774Y-160396382D01*
X184391667Y-160390958D01*
X184409042Y-160385964D01*
X184490304Y-160361156D01*
X184567554Y-160335144D01*
X184640046Y-160308202D01*
X184707033Y-160280606D01*
X184767769Y-160252628D01*
X184798221Y-160237235D01*
X184847449Y-160209750D01*
X184890539Y-160181861D01*
X184928035Y-160153088D01*
X184960484Y-160122953D01*
X184988430Y-160090977D01*
X185012418Y-160056681D01*
X185032994Y-160019585D01*
X185035023Y-160015410D01*
X185055104Y-159966689D01*
X185070839Y-159914032D01*
X185082129Y-159858692D01*
X185088870Y-159801922D01*
X185090962Y-159744975D01*
X185088301Y-159689104D01*
X185080786Y-159635561D01*
X185068314Y-159585600D01*
X185051876Y-159541592D01*
X185027373Y-159494043D01*
X184997150Y-159450332D01*
X184961328Y-159410540D01*
X184920030Y-159374749D01*
X184873377Y-159343040D01*
X184821492Y-159315494D01*
X184764498Y-159292194D01*
X184702515Y-159273222D01*
X184635666Y-159258658D01*
X184564074Y-159248584D01*
X184550460Y-159247308D01*
X184519478Y-159245279D01*
X184485335Y-159243996D01*
X184449719Y-159243456D01*
X184414316Y-159243658D01*
X184380812Y-159244603D01*
X184350894Y-159246289D01*
X184326247Y-159248715D01*
X184280939Y-159256007D01*
X184216045Y-159271791D01*
X184154960Y-159293401D01*
X184097574Y-159320886D01*
X184043779Y-159354293D01*
X183993466Y-159393669D01*
X183977753Y-159407936D01*
X183936330Y-159451344D01*
X183897324Y-159500888D01*
X183860937Y-159556183D01*
X183827370Y-159616844D01*
X183796825Y-159682486D01*
X183769504Y-159752724D01*
X183745608Y-159827173D01*
X183725339Y-159905448D01*
X183725241Y-159905874D01*
X183721287Y-159921687D01*
X183717467Y-159934621D01*
X183714213Y-159943352D01*
X183711954Y-159946557D01*
X183711690Y-159946528D01*
X183706424Y-159945333D01*
X183695301Y-159942526D01*
X183679080Y-159938309D01*
X183658521Y-159932880D01*
X183634382Y-159926440D01*
X183607422Y-159919190D01*
X183578400Y-159911329D01*
X183555158Y-159905012D01*
X183524834Y-159896770D01*
X183489443Y-159887150D01*
X183449851Y-159876389D01*
X183406925Y-159864721D01*
X183361531Y-159852383D01*
X183314534Y-159839609D01*
X183266802Y-159826634D01*
X183219199Y-159813695D01*
X183172593Y-159801027D01*
X183150932Y-159795137D01*
X183109302Y-159783803D01*
X183069903Y-159773059D01*
X183033239Y-159763043D01*
X182999811Y-159753892D01*
X182970122Y-159745746D01*
X182944674Y-159738741D01*
X182923970Y-159733016D01*
X182908512Y-159728708D01*
X182898802Y-159725956D01*
X182895343Y-159724898D01*
X182895289Y-159724770D01*
X182896129Y-159720295D01*
X182898981Y-159710339D01*
X182903512Y-159695878D01*
X182909390Y-159677883D01*
X182916283Y-159657330D01*
X182923857Y-159635191D01*
X182931779Y-159612440D01*
X182939718Y-159590049D01*
X182947341Y-159568994D01*
X182954315Y-159550247D01*
X182960307Y-159534781D01*
X183001110Y-159439803D01*
X183048189Y-159345142D01*
X183099454Y-159256077D01*
X183154922Y-159172588D01*
X183214608Y-159094657D01*
X183278528Y-159022268D01*
X183346699Y-158955400D01*
X183419136Y-158894037D01*
X183495855Y-158838161D01*
X183576872Y-158787753D01*
X183662204Y-158742795D01*
X183731081Y-158711608D01*
X183812826Y-158679811D01*
X183896962Y-158652664D01*
X183984060Y-158630037D01*
X184074695Y-158611800D01*
X184169440Y-158597825D01*
X184268866Y-158587982D01*
X184373546Y-158582142D01*
X184425698Y-158580804D01*
X184540518Y-158581791D01*
G37*
G36*
X180148271Y-163678824D02*
G01*
X180143754Y-163719366D01*
X180134307Y-163757152D01*
X180119489Y-163793382D01*
X180098860Y-163829255D01*
X180071979Y-163865970D01*
X180056903Y-163883249D01*
X180027080Y-163911716D01*
X179991666Y-163939853D01*
X179951521Y-163967093D01*
X179907501Y-163992873D01*
X179860468Y-164016624D01*
X179811278Y-164037782D01*
X179763898Y-164054828D01*
X179707841Y-164071793D01*
X179647492Y-164087188D01*
X179584213Y-164100726D01*
X179519362Y-164112115D01*
X179454300Y-164121068D01*
X179390386Y-164127295D01*
X179385975Y-164127630D01*
X179367247Y-164129071D01*
X179350403Y-164130395D01*
X179337142Y-164131465D01*
X179329160Y-164132148D01*
X179327565Y-164132280D01*
X179315972Y-164132834D01*
X179298583Y-164133263D01*
X179276389Y-164133570D01*
X179250383Y-164133761D01*
X179221558Y-164133839D01*
X179190906Y-164133807D01*
X179159420Y-164133671D01*
X179128091Y-164133433D01*
X179097913Y-164133098D01*
X179069877Y-164132670D01*
X179044976Y-164132152D01*
X179024203Y-164131549D01*
X179008550Y-164130865D01*
X178979024Y-164129080D01*
X178873640Y-164120755D01*
X178770768Y-164109380D01*
X178667670Y-164094620D01*
X178561608Y-164076141D01*
X178559659Y-164075772D01*
X178539777Y-164071817D01*
X178525444Y-164068443D01*
X178515388Y-164065253D01*
X178508340Y-164061849D01*
X178503030Y-164057835D01*
X178493037Y-164048692D01*
X178498883Y-164015455D01*
X178500948Y-164000779D01*
X178502956Y-163978213D01*
X178504304Y-163952577D01*
X178504976Y-163925540D01*
X178504955Y-163898776D01*
X178504226Y-163873954D01*
X178502773Y-163852746D01*
X178500580Y-163836823D01*
X178495950Y-163813879D01*
X178456301Y-163800830D01*
X178439369Y-163794990D01*
X178424565Y-163788786D01*
X178414761Y-163782596D01*
X178408974Y-163775541D01*
X178406223Y-163766739D01*
X178406098Y-163764696D01*
X178473809Y-163764696D01*
X178508712Y-163776397D01*
X178518938Y-163780043D01*
X178533439Y-163785977D01*
X178544928Y-163791592D01*
X178551560Y-163796043D01*
X178551888Y-163796380D01*
X178558405Y-163807339D01*
X178563557Y-163824956D01*
X178567311Y-163849031D01*
X178569636Y-163879360D01*
X178570498Y-163915744D01*
X178569960Y-163950577D01*
X178567084Y-163995269D01*
X178561804Y-164034453D01*
X178564040Y-164036512D01*
X178572554Y-164039473D01*
X178586792Y-164042977D01*
X178606094Y-164046927D01*
X178629797Y-164051228D01*
X178657243Y-164055785D01*
X178687768Y-164060502D01*
X178720714Y-164065283D01*
X178755418Y-164070034D01*
X178791219Y-164074657D01*
X178827457Y-164079059D01*
X178863470Y-164083143D01*
X178898598Y-164086813D01*
X178932180Y-164089975D01*
X178963554Y-164092532D01*
X178965381Y-164092661D01*
X178980176Y-164093455D01*
X179000288Y-164094231D01*
X179024771Y-164094976D01*
X179052677Y-164095676D01*
X179083060Y-164096320D01*
X179114972Y-164096893D01*
X179147466Y-164097383D01*
X179179595Y-164097776D01*
X179210412Y-164098059D01*
X179238970Y-164098220D01*
X179264321Y-164098244D01*
X179285519Y-164098118D01*
X179301617Y-164097831D01*
X179311667Y-164097367D01*
X179313008Y-164097257D01*
X179323530Y-164096414D01*
X179338828Y-164095208D01*
X179357062Y-164093785D01*
X179376392Y-164092290D01*
X179417075Y-164088611D01*
X179499679Y-164077981D01*
X179581522Y-164063378D01*
X179659837Y-164045262D01*
X179684336Y-164038539D01*
X179743144Y-164019578D01*
X179798979Y-163997555D01*
X179851179Y-163972830D01*
X179899083Y-163945763D01*
X179942031Y-163916715D01*
X179979362Y-163886046D01*
X180010414Y-163854116D01*
X180023704Y-163837489D01*
X180048377Y-163798978D01*
X180066691Y-163758393D01*
X180078637Y-163716331D01*
X180084205Y-163673393D01*
X180083388Y-163630178D01*
X180076177Y-163587284D01*
X180062561Y-163545312D01*
X180042534Y-163504860D01*
X180016086Y-163466529D01*
X180013072Y-163462819D01*
X179981474Y-163429302D01*
X179943486Y-163397373D01*
X179899532Y-163367218D01*
X179850034Y-163339025D01*
X179795416Y-163312979D01*
X179736103Y-163289267D01*
X179672517Y-163268077D01*
X179605081Y-163249595D01*
X179534221Y-163234008D01*
X179460359Y-163221503D01*
X179388832Y-163212568D01*
X179301868Y-163205048D01*
X179211347Y-163200479D01*
X179118521Y-163198823D01*
X179024647Y-163200043D01*
X178930977Y-163204100D01*
X178838767Y-163210957D01*
X178749271Y-163220576D01*
X178663743Y-163232919D01*
X178583437Y-163247948D01*
X178556680Y-163253613D01*
X178562018Y-163266304D01*
X178562065Y-163266417D01*
X178564617Y-163273929D01*
X178568439Y-163286899D01*
X178573171Y-163304019D01*
X178578448Y-163323978D01*
X178583911Y-163345468D01*
X178584941Y-163349592D01*
X178591438Y-163374758D01*
X178596744Y-163393279D01*
X178601047Y-163405341D01*
X178604532Y-163411127D01*
X178607387Y-163410823D01*
X178609799Y-163404611D01*
X178611955Y-163392678D01*
X178614041Y-163375207D01*
X178615223Y-163364426D01*
X178617143Y-163348618D01*
X178618937Y-163335653D01*
X178620333Y-163327592D01*
X178623151Y-163319512D01*
X178629802Y-163310071D01*
X178640407Y-163301454D01*
X178655568Y-163293352D01*
X178675885Y-163285458D01*
X178701960Y-163277461D01*
X178734394Y-163269055D01*
X178758862Y-163263235D01*
X178821554Y-163249722D01*
X178881198Y-163239106D01*
X178940032Y-163231017D01*
X179000290Y-163225086D01*
X179020329Y-163223575D01*
X179105076Y-163219522D01*
X179188099Y-163219295D01*
X179268836Y-163222816D01*
X179346725Y-163230007D01*
X179421204Y-163240791D01*
X179491710Y-163255089D01*
X179557682Y-163272825D01*
X179618558Y-163293919D01*
X179673775Y-163318295D01*
X179721031Y-163344864D01*
X179764024Y-163375533D01*
X179801504Y-163409514D01*
X179833224Y-163446520D01*
X179858941Y-163486265D01*
X179878407Y-163528461D01*
X179891378Y-163572821D01*
X179892464Y-163578495D01*
X179895279Y-163604667D01*
X179895680Y-163634216D01*
X179893798Y-163664637D01*
X179889766Y-163693424D01*
X179883717Y-163718072D01*
X179875153Y-163741799D01*
X179853218Y-163787229D01*
X179824980Y-163829768D01*
X179790513Y-163869353D01*
X179749892Y-163905921D01*
X179703191Y-163939408D01*
X179650483Y-163969752D01*
X179591844Y-163996890D01*
X179527347Y-164020759D01*
X179524788Y-164021599D01*
X179459207Y-164040641D01*
X179391058Y-164055668D01*
X179319653Y-164066767D01*
X179244302Y-164074026D01*
X179164317Y-164077530D01*
X179079009Y-164077367D01*
X179028778Y-164075738D01*
X178953115Y-164071110D01*
X178883723Y-164064012D01*
X178820697Y-164054453D01*
X178764133Y-164042446D01*
X178763710Y-164042341D01*
X178748954Y-164038532D01*
X178739397Y-164035402D01*
X178733458Y-164032070D01*
X178729555Y-164027656D01*
X178726109Y-164021281D01*
X178725335Y-164019547D01*
X178721731Y-164006789D01*
X178718812Y-163988669D01*
X178716600Y-163966533D01*
X178715118Y-163941725D01*
X178714386Y-163915590D01*
X178714426Y-163889473D01*
X178715259Y-163864719D01*
X178716909Y-163842671D01*
X178719395Y-163824676D01*
X178722740Y-163812078D01*
X178724267Y-163808659D01*
X178730861Y-163798985D01*
X178740581Y-163790883D01*
X178753977Y-163784212D01*
X178771599Y-163778828D01*
X178793995Y-163774589D01*
X178821716Y-163771353D01*
X178855312Y-163768977D01*
X178895331Y-163767319D01*
X178903726Y-163767039D01*
X178914131Y-163766584D01*
X178918574Y-163766183D01*
X178916940Y-163765835D01*
X178909113Y-163765538D01*
X178894980Y-163765290D01*
X178874424Y-163765090D01*
X178847331Y-163764936D01*
X178813586Y-163764826D01*
X178773073Y-163764759D01*
X178725679Y-163764732D01*
X178473809Y-163764696D01*
X178406098Y-163764696D01*
X178405950Y-163762274D01*
X178986914Y-163762274D01*
X178989794Y-163763554D01*
X178991646Y-163763301D01*
X178992126Y-163761221D01*
X178991614Y-163760803D01*
X178987461Y-163761221D01*
X178986914Y-163762274D01*
X178405950Y-163762274D01*
X178405524Y-163755310D01*
X178405493Y-163752877D01*
X178405420Y-163748618D01*
X178405678Y-163744882D01*
X178406685Y-163741634D01*
X178408856Y-163738839D01*
X178412609Y-163736462D01*
X178418361Y-163734467D01*
X178426526Y-163732820D01*
X178437524Y-163731486D01*
X178451769Y-163730429D01*
X178469678Y-163729615D01*
X178491669Y-163729008D01*
X178518157Y-163728573D01*
X178549559Y-163728275D01*
X178586293Y-163728079D01*
X178628773Y-163727950D01*
X178677418Y-163727853D01*
X178732643Y-163727752D01*
X178741634Y-163727735D01*
X178793236Y-163727643D01*
X178838374Y-163727583D01*
X178877506Y-163727563D01*
X178911089Y-163727593D01*
X178939583Y-163727681D01*
X178963445Y-163727836D01*
X178983134Y-163728065D01*
X178999108Y-163728379D01*
X179011825Y-163728785D01*
X179021744Y-163729292D01*
X179029323Y-163729910D01*
X179035020Y-163730645D01*
X179039294Y-163731508D01*
X179042602Y-163732507D01*
X179045404Y-163733649D01*
X179059766Y-163740126D01*
X179059766Y-163761221D01*
X179059766Y-163762003D01*
X179059766Y-163783881D01*
X179044897Y-163792514D01*
X179044078Y-163792988D01*
X179039676Y-163795388D01*
X179035179Y-163797285D01*
X179029724Y-163798756D01*
X179022448Y-163799880D01*
X179012489Y-163800733D01*
X178998984Y-163801393D01*
X178981070Y-163801939D01*
X178957886Y-163802447D01*
X178928568Y-163802997D01*
X178911879Y-163803325D01*
X178879354Y-163804172D01*
X178852904Y-163805239D01*
X178831889Y-163806606D01*
X178815674Y-163808352D01*
X178803620Y-163810555D01*
X178795090Y-163813295D01*
X178789447Y-163816652D01*
X178786054Y-163820704D01*
X178784706Y-163825372D01*
X178783218Y-163836463D01*
X178781966Y-163852217D01*
X178780990Y-163871340D01*
X178780328Y-163892543D01*
X178780017Y-163914533D01*
X178780096Y-163936019D01*
X178780603Y-163955710D01*
X178781575Y-163972314D01*
X178781771Y-163974535D01*
X178783661Y-163989326D01*
X178786117Y-164000501D01*
X178788783Y-164006369D01*
X178791325Y-164008111D01*
X178801302Y-164011853D01*
X178817131Y-164015804D01*
X178838050Y-164019858D01*
X178863301Y-164023905D01*
X178892124Y-164027839D01*
X178923758Y-164031552D01*
X178957445Y-164034936D01*
X178992423Y-164037883D01*
X179027933Y-164040285D01*
X179042681Y-164041087D01*
X179126707Y-164043057D01*
X179208718Y-164040576D01*
X179287974Y-164033727D01*
X179363736Y-164022591D01*
X179435265Y-164007251D01*
X179501820Y-163987788D01*
X179510567Y-163984788D01*
X179569600Y-163961452D01*
X179623136Y-163934635D01*
X179671018Y-163904458D01*
X179713091Y-163871043D01*
X179749198Y-163834512D01*
X179779183Y-163794988D01*
X179802889Y-163752592D01*
X179809503Y-163737915D01*
X179819597Y-163711426D01*
X179826083Y-163686431D01*
X179829545Y-163660351D01*
X179830569Y-163630606D01*
X179830112Y-163613325D01*
X179824634Y-163570419D01*
X179812838Y-163529979D01*
X179794577Y-163491668D01*
X179769705Y-163455152D01*
X179738073Y-163420096D01*
X179711040Y-163396068D01*
X179672090Y-163368338D01*
X179627748Y-163343608D01*
X179577827Y-163321806D01*
X179522144Y-163302865D01*
X179460512Y-163286714D01*
X179392748Y-163273285D01*
X179318664Y-163262506D01*
X179312356Y-163261848D01*
X179294147Y-163260603D01*
X179270557Y-163259595D01*
X179242687Y-163258825D01*
X179211639Y-163258293D01*
X179178515Y-163257997D01*
X179144417Y-163257939D01*
X179110445Y-163258117D01*
X179077702Y-163258532D01*
X179047289Y-163259184D01*
X179020308Y-163260072D01*
X178997860Y-163261197D01*
X178981047Y-163262557D01*
X178979518Y-163262724D01*
X178949226Y-163266442D01*
X178917130Y-163271076D01*
X178884104Y-163276440D01*
X178851023Y-163282350D01*
X178818759Y-163288624D01*
X178788188Y-163295077D01*
X178760182Y-163301524D01*
X178735617Y-163307781D01*
X178715365Y-163313666D01*
X178700301Y-163318993D01*
X178691299Y-163323578D01*
X178689988Y-163324793D01*
X178686761Y-163330649D01*
X178683945Y-163340763D01*
X178681415Y-163355821D01*
X178679046Y-163376506D01*
X178676714Y-163403503D01*
X178674384Y-163433548D01*
X178658814Y-163441113D01*
X178656607Y-163442095D01*
X178642034Y-163446136D01*
X178623488Y-163448557D01*
X178603123Y-163449343D01*
X178583090Y-163448483D01*
X178565543Y-163445961D01*
X178552633Y-163441766D01*
X178550154Y-163440484D01*
X178544700Y-163437140D01*
X178540885Y-163432996D01*
X178537933Y-163426541D01*
X178535069Y-163416265D01*
X178531516Y-163400657D01*
X178528684Y-163388076D01*
X178521345Y-163357252D01*
X178513909Y-163328319D01*
X178506718Y-163302523D01*
X178500113Y-163281113D01*
X178494438Y-163265336D01*
X178485772Y-163244008D01*
X178497180Y-163234697D01*
X178501801Y-163231508D01*
X178509401Y-163227798D01*
X178519820Y-163224114D01*
X178533745Y-163220287D01*
X178551858Y-163216152D01*
X178574846Y-163211539D01*
X178603392Y-163206283D01*
X178638182Y-163200214D01*
X178655252Y-163197341D01*
X178702249Y-163190000D01*
X178748133Y-163183766D01*
X178794255Y-163178510D01*
X178841964Y-163174101D01*
X178892611Y-163170411D01*
X178947547Y-163167309D01*
X179008122Y-163164665D01*
X179101430Y-163162594D01*
X179197128Y-163163668D01*
X179290581Y-163167971D01*
X179381094Y-163175432D01*
X179467973Y-163185981D01*
X179550524Y-163199545D01*
X179628051Y-163216053D01*
X179699862Y-163235436D01*
X179728432Y-163244376D01*
X179796084Y-163268244D01*
X179857431Y-163294070D01*
X179912820Y-163322036D01*
X179962598Y-163352330D01*
X180007109Y-163385135D01*
X180046702Y-163420637D01*
X180067848Y-163443143D01*
X180097207Y-163481591D01*
X180119898Y-163521989D01*
X180136008Y-163564533D01*
X180145619Y-163609420D01*
X180148818Y-163656846D01*
X180148406Y-163673393D01*
X180148271Y-163678824D01*
G37*
G36*
X182214875Y-164059174D02*
G01*
X182214964Y-164066333D01*
X182213006Y-164071359D01*
X182208703Y-164076493D01*
X182203701Y-164080536D01*
X182194790Y-164084851D01*
X182181377Y-164089203D01*
X182162248Y-164094052D01*
X182146723Y-164097526D01*
X182109262Y-164104895D01*
X182067481Y-164111973D01*
X182023206Y-164118501D01*
X181978259Y-164124221D01*
X181934466Y-164128872D01*
X181893651Y-164132197D01*
X181893434Y-164132211D01*
X181885279Y-164132477D01*
X181871084Y-164132679D01*
X181851760Y-164132816D01*
X181828223Y-164132884D01*
X181801385Y-164132880D01*
X181772159Y-164132802D01*
X181741461Y-164132647D01*
X181709972Y-164132395D01*
X181672116Y-164131857D01*
X181639287Y-164131008D01*
X181610344Y-164129751D01*
X181584151Y-164127990D01*
X181559568Y-164125626D01*
X181535457Y-164122564D01*
X181510680Y-164118706D01*
X181484098Y-164113956D01*
X181454574Y-164108216D01*
X181439312Y-164105063D01*
X181380016Y-164090759D01*
X181323736Y-164073902D01*
X181270966Y-164054745D01*
X181222202Y-164033540D01*
X181177939Y-164010538D01*
X181138672Y-163985990D01*
X181104896Y-163960148D01*
X181077106Y-163933264D01*
X181055798Y-163905590D01*
X181042824Y-163882553D01*
X181030220Y-163849728D01*
X181024361Y-163817181D01*
X181024595Y-163807184D01*
X181089114Y-163807184D01*
X181093128Y-163836813D01*
X181103388Y-163866452D01*
X181119864Y-163895511D01*
X181142526Y-163923399D01*
X181152441Y-163933315D01*
X181185904Y-163961078D01*
X181225676Y-163986792D01*
X181271435Y-164010335D01*
X181322858Y-164031582D01*
X181379625Y-164050410D01*
X181441415Y-164066696D01*
X181507905Y-164080315D01*
X181578775Y-164091144D01*
X181589864Y-164092293D01*
X181610066Y-164093703D01*
X181635272Y-164094941D01*
X181664341Y-164095991D01*
X181696131Y-164096836D01*
X181729500Y-164097462D01*
X181763305Y-164097850D01*
X181796404Y-164097986D01*
X181827655Y-164097854D01*
X181855916Y-164097436D01*
X181880045Y-164096717D01*
X181898899Y-164095680D01*
X181906256Y-164095093D01*
X181930861Y-164092794D01*
X181957648Y-164089865D01*
X181985704Y-164086444D01*
X182014114Y-164082670D01*
X182041965Y-164078682D01*
X182068343Y-164074620D01*
X182092335Y-164070623D01*
X182113026Y-164066829D01*
X182129502Y-164063377D01*
X182140850Y-164060407D01*
X182146157Y-164058058D01*
X182146646Y-164055699D01*
X182146535Y-164047524D01*
X182145562Y-164035107D01*
X182143824Y-164020021D01*
X182141956Y-164003875D01*
X182139871Y-163981993D01*
X182138010Y-163958702D01*
X182136625Y-163936929D01*
X182136035Y-163926234D01*
X182134960Y-163910201D01*
X182133821Y-163899565D01*
X182132428Y-163893273D01*
X182130593Y-163890271D01*
X182128128Y-163889504D01*
X182126523Y-163889774D01*
X182124009Y-163892236D01*
X182121943Y-163898221D01*
X182119996Y-163908880D01*
X182117836Y-163925365D01*
X182117293Y-163929753D01*
X182113408Y-163953749D01*
X182108086Y-163972295D01*
X182100423Y-163986717D01*
X182089515Y-163998341D01*
X182074457Y-164008492D01*
X182054346Y-164018498D01*
X182030779Y-164028011D01*
X181993159Y-164039887D01*
X181950428Y-164050278D01*
X181903609Y-164059084D01*
X181853721Y-164066205D01*
X181801785Y-164071543D01*
X181748821Y-164074997D01*
X181695851Y-164076467D01*
X181643895Y-164075855D01*
X181593974Y-164073061D01*
X181547109Y-164067985D01*
X181495086Y-164059335D01*
X181439672Y-164046344D01*
X181390378Y-164030306D01*
X181347245Y-164011242D01*
X181310312Y-163989173D01*
X181279619Y-163964118D01*
X181255204Y-163936099D01*
X181237107Y-163905136D01*
X181232727Y-163894801D01*
X181229462Y-163883604D01*
X181227898Y-163871124D01*
X181227497Y-163854518D01*
X181227714Y-163841568D01*
X181228945Y-163828254D01*
X181231711Y-163817153D01*
X181236515Y-163805537D01*
X181244731Y-163790424D01*
X181262178Y-163767835D01*
X181284776Y-163747898D01*
X181312789Y-163730482D01*
X181346484Y-163715457D01*
X181386125Y-163702691D01*
X181431980Y-163692054D01*
X181484312Y-163683415D01*
X181488599Y-163682838D01*
X181506959Y-163680556D01*
X181530494Y-163677842D01*
X181557821Y-163674845D01*
X181587560Y-163671713D01*
X181618329Y-163668597D01*
X181648747Y-163665645D01*
X181682660Y-163662414D01*
X181724231Y-163658368D01*
X181760101Y-163654736D01*
X181791009Y-163651413D01*
X181817694Y-163648297D01*
X181840895Y-163645282D01*
X181861350Y-163642265D01*
X181879799Y-163639142D01*
X181896979Y-163635809D01*
X181913631Y-163632162D01*
X181930492Y-163628097D01*
X181948302Y-163623511D01*
X181955654Y-163621537D01*
X181992123Y-163610354D01*
X182022971Y-163598118D01*
X182049358Y-163584236D01*
X182072439Y-163568114D01*
X182093373Y-163549160D01*
X182094312Y-163548199D01*
X182114067Y-163523177D01*
X182127550Y-163495897D01*
X182134806Y-163467077D01*
X182135880Y-163437434D01*
X182130817Y-163407686D01*
X182119663Y-163378550D01*
X182102462Y-163350744D01*
X182079260Y-163324986D01*
X182055714Y-163305243D01*
X182017633Y-163280346D01*
X181973766Y-163258625D01*
X181924405Y-163240136D01*
X181869838Y-163224933D01*
X181810354Y-163213071D01*
X181746244Y-163204605D01*
X181677796Y-163199590D01*
X181605301Y-163198080D01*
X181529048Y-163200131D01*
X181449326Y-163205797D01*
X181446260Y-163206081D01*
X181400729Y-163210804D01*
X181356029Y-163216329D01*
X181313393Y-163222468D01*
X181274053Y-163229029D01*
X181239243Y-163235824D01*
X181210196Y-163242661D01*
X181201889Y-163245370D01*
X181198460Y-163248644D01*
X181198960Y-163253858D01*
X181205177Y-163276302D01*
X181213598Y-163313243D01*
X181218762Y-163347218D01*
X181219137Y-163350597D01*
X181221258Y-163368973D01*
X181223005Y-163381618D01*
X181224668Y-163389596D01*
X181226535Y-163393975D01*
X181228896Y-163395820D01*
X181232040Y-163396198D01*
X181236680Y-163394160D01*
X181240208Y-163386944D01*
X181242284Y-163373965D01*
X181243059Y-163354652D01*
X181243074Y-163353234D01*
X181244888Y-163328003D01*
X181249583Y-163308972D01*
X181257134Y-163296240D01*
X181261910Y-163291961D01*
X181276223Y-163282912D01*
X181296129Y-163273454D01*
X181320729Y-163263873D01*
X181349120Y-163254457D01*
X181380400Y-163245495D01*
X181413668Y-163237275D01*
X181448023Y-163230084D01*
X181482562Y-163224212D01*
X181490845Y-163223186D01*
X181511442Y-163221606D01*
X181538457Y-163220466D01*
X181571520Y-163219779D01*
X181610262Y-163219558D01*
X181626347Y-163219580D01*
X181653404Y-163219734D01*
X181675265Y-163220091D01*
X181693125Y-163220718D01*
X181708179Y-163221680D01*
X181721623Y-163223045D01*
X181734651Y-163224879D01*
X181748458Y-163227248D01*
X181776476Y-163232816D01*
X181823660Y-163244794D01*
X181864706Y-163259034D01*
X181899989Y-163275726D01*
X181929885Y-163295061D01*
X181954768Y-163317229D01*
X181975014Y-163342422D01*
X181988641Y-163366291D01*
X181998242Y-163393907D01*
X182001024Y-163420793D01*
X181997083Y-163446640D01*
X181986515Y-163471137D01*
X181969417Y-163493975D01*
X181945882Y-163514844D01*
X181916008Y-163533434D01*
X181909279Y-163536877D01*
X181895021Y-163543508D01*
X181879993Y-163549474D01*
X181863629Y-163554872D01*
X181845365Y-163559800D01*
X181824635Y-163564353D01*
X181800875Y-163568628D01*
X181773519Y-163572723D01*
X181742003Y-163576734D01*
X181705761Y-163580758D01*
X181664228Y-163584891D01*
X181616840Y-163589230D01*
X181563031Y-163593873D01*
X181561281Y-163594020D01*
X181500162Y-163599459D01*
X181445532Y-163604946D01*
X181396899Y-163610607D01*
X181353767Y-163616569D01*
X181315645Y-163622959D01*
X181282038Y-163629904D01*
X181252452Y-163637531D01*
X181226394Y-163645967D01*
X181203370Y-163655339D01*
X181182887Y-163665773D01*
X181164450Y-163677397D01*
X181147566Y-163690337D01*
X181131742Y-163704720D01*
X181114834Y-163724280D01*
X181099937Y-163750326D01*
X181091374Y-163778158D01*
X181089114Y-163807184D01*
X181024595Y-163807184D01*
X181025106Y-163785288D01*
X181032311Y-163754426D01*
X181045834Y-163724973D01*
X181065533Y-163697306D01*
X181091266Y-163671801D01*
X181122890Y-163648836D01*
X181160263Y-163628789D01*
X181165996Y-163626200D01*
X181185490Y-163618081D01*
X181205984Y-163610678D01*
X181228025Y-163603896D01*
X181252155Y-163597642D01*
X181278920Y-163591822D01*
X181308863Y-163586341D01*
X181342531Y-163581105D01*
X181380465Y-163576021D01*
X181423213Y-163570995D01*
X181471316Y-163565932D01*
X181525321Y-163560738D01*
X181585772Y-163555320D01*
X181616840Y-163552587D01*
X181656731Y-163548963D01*
X181690792Y-163545693D01*
X181719706Y-163542690D01*
X181744157Y-163539870D01*
X181764826Y-163537147D01*
X181782396Y-163534434D01*
X181797549Y-163531647D01*
X181810969Y-163528700D01*
X181823337Y-163525507D01*
X181842592Y-163519380D01*
X181871840Y-163506508D01*
X181896483Y-163490868D01*
X181915759Y-163472982D01*
X181928906Y-163453371D01*
X181929484Y-163452135D01*
X181934754Y-163433137D01*
X181935364Y-163411406D01*
X181931460Y-163389121D01*
X181923190Y-163368463D01*
X181914761Y-163355257D01*
X181898211Y-163335560D01*
X181878474Y-163317236D01*
X181857611Y-163302363D01*
X181839311Y-163292653D01*
X181805723Y-163279463D01*
X181767137Y-163268890D01*
X181724481Y-163260973D01*
X181678683Y-163255749D01*
X181630670Y-163253257D01*
X181581371Y-163253534D01*
X181531713Y-163256620D01*
X181482624Y-163262552D01*
X181435032Y-163271368D01*
X181389864Y-163283108D01*
X181373475Y-163288170D01*
X181351321Y-163295534D01*
X181334871Y-163301873D01*
X181323421Y-163307505D01*
X181316270Y-163312745D01*
X181312715Y-163317911D01*
X181312600Y-163318240D01*
X181311238Y-163325276D01*
X181309784Y-163337522D01*
X181308405Y-163353349D01*
X181307267Y-163371125D01*
X181304884Y-163416281D01*
X181289545Y-163423733D01*
X181283209Y-163426500D01*
X181275066Y-163428881D01*
X181265015Y-163430308D01*
X181251361Y-163431002D01*
X181232411Y-163431185D01*
X181216613Y-163431070D01*
X181202084Y-163430491D01*
X181191479Y-163429221D01*
X181183103Y-163427040D01*
X181175261Y-163423725D01*
X181159908Y-163416266D01*
X181157577Y-163383114D01*
X181156618Y-163371686D01*
X181152915Y-163341961D01*
X181147672Y-163311861D01*
X181141351Y-163283843D01*
X181134417Y-163260364D01*
X181126726Y-163238235D01*
X181134756Y-163229688D01*
X181136974Y-163227544D01*
X181142941Y-163223340D01*
X181151343Y-163219386D01*
X181163074Y-163215401D01*
X181179025Y-163211100D01*
X181200091Y-163206200D01*
X181227163Y-163200421D01*
X181260614Y-163193930D01*
X181313893Y-163185198D01*
X181373130Y-163177235D01*
X181438830Y-163169968D01*
X181466243Y-163167727D01*
X181498596Y-163165956D01*
X181534308Y-163164683D01*
X181572085Y-163163910D01*
X181610636Y-163163638D01*
X181648669Y-163163867D01*
X181684891Y-163164597D01*
X181718010Y-163165830D01*
X181746735Y-163167566D01*
X181769773Y-163169805D01*
X181789765Y-163172484D01*
X181853541Y-163183316D01*
X181912596Y-163196956D01*
X181966734Y-163213273D01*
X182015761Y-163232137D01*
X182059483Y-163253417D01*
X182097706Y-163276982D01*
X182130234Y-163302703D01*
X182156873Y-163330448D01*
X182177429Y-163360086D01*
X182191707Y-163391488D01*
X182199512Y-163424522D01*
X182200651Y-163459058D01*
X182195832Y-163489970D01*
X182184966Y-163519003D01*
X182167598Y-163546822D01*
X182163173Y-163552488D01*
X182136907Y-163579509D01*
X182104313Y-163603601D01*
X182065422Y-163624747D01*
X182020264Y-163642931D01*
X181968871Y-163658135D01*
X181949416Y-163662864D01*
X181929856Y-163667226D01*
X181909804Y-163671234D01*
X181888541Y-163674988D01*
X181865347Y-163678586D01*
X181839499Y-163682127D01*
X181810279Y-163685708D01*
X181776964Y-163689430D01*
X181738834Y-163693390D01*
X181695170Y-163697688D01*
X181645248Y-163702421D01*
X181600644Y-163706764D01*
X181553405Y-163711824D01*
X181512404Y-163716771D01*
X181477831Y-163721579D01*
X181449873Y-163726225D01*
X181428721Y-163730683D01*
X181405214Y-163737205D01*
X181370316Y-163750407D01*
X181341812Y-163766253D01*
X181319738Y-163784722D01*
X181304133Y-163805790D01*
X181302491Y-163808802D01*
X181297798Y-163818627D01*
X181295122Y-163827831D01*
X181293917Y-163838949D01*
X181293637Y-163854518D01*
X181293968Y-163870277D01*
X181295347Y-163882308D01*
X181298308Y-163892681D01*
X181303380Y-163904098D01*
X181317990Y-163927073D01*
X181339630Y-163949714D01*
X181367156Y-163970367D01*
X181400063Y-163988708D01*
X181437850Y-164004416D01*
X181480014Y-164017170D01*
X181495321Y-164020960D01*
X181517044Y-164025926D01*
X181537225Y-164029844D01*
X181557085Y-164032835D01*
X181577842Y-164035016D01*
X181600715Y-164036507D01*
X181626925Y-164037426D01*
X181657690Y-164037892D01*
X181694229Y-164038024D01*
X181721991Y-164037984D01*
X181749145Y-164037794D01*
X181771539Y-164037391D01*
X181790382Y-164036718D01*
X181806883Y-164035714D01*
X181822249Y-164034319D01*
X181837689Y-164032473D01*
X181854411Y-164030118D01*
X181888043Y-164024595D01*
X181923134Y-164017571D01*
X181955012Y-164009843D01*
X181983048Y-164001616D01*
X182006615Y-163993098D01*
X182025087Y-163984493D01*
X182037836Y-163976008D01*
X182044234Y-163967847D01*
X182045028Y-163965498D01*
X182047863Y-163953616D01*
X182050836Y-163936512D01*
X182053732Y-163915540D01*
X182056335Y-163892053D01*
X182056919Y-163886262D01*
X182058399Y-163875844D01*
X182060747Y-163869576D01*
X182065008Y-163865446D01*
X182072228Y-163861440D01*
X182080640Y-163858439D01*
X182096364Y-163855610D01*
X182115392Y-163854110D01*
X182135690Y-163853942D01*
X182155223Y-163855104D01*
X182171956Y-163857597D01*
X182183854Y-163861422D01*
X182197387Y-163868326D01*
X182199501Y-163899032D01*
X182199951Y-163905536D01*
X182202614Y-163942831D01*
X182204996Y-163973807D01*
X182207149Y-163999040D01*
X182209125Y-164019110D01*
X182210976Y-164034595D01*
X182212754Y-164046072D01*
X182213039Y-164047641D01*
X182214322Y-164055699D01*
X182214875Y-164059174D01*
G37*
G36*
X183670951Y-163242117D02*
G01*
X183657260Y-163249101D01*
X183656699Y-163249383D01*
X183650612Y-163251880D01*
X183642917Y-163253880D01*
X183632537Y-163255522D01*
X183618394Y-163256944D01*
X183599412Y-163258283D01*
X183574512Y-163259676D01*
X183556379Y-163260661D01*
X183531960Y-163262231D01*
X183513202Y-163263902D01*
X183499278Y-163265839D01*
X183489363Y-163268210D01*
X183482629Y-163271179D01*
X183478250Y-163274913D01*
X183475399Y-163279578D01*
X183473745Y-163284100D01*
X183471949Y-163291785D01*
X183470391Y-163302230D01*
X183469056Y-163315861D01*
X183467930Y-163333099D01*
X183466998Y-163354369D01*
X183466246Y-163380094D01*
X183465658Y-163410697D01*
X183465221Y-163446604D01*
X183464920Y-163488236D01*
X183464740Y-163536017D01*
X183464666Y-163590372D01*
X183464669Y-163620334D01*
X183464773Y-163673061D01*
X183465014Y-163719702D01*
X183465403Y-163760854D01*
X183465949Y-163797117D01*
X183466662Y-163829090D01*
X183467552Y-163857370D01*
X183468629Y-163882556D01*
X183469904Y-163905248D01*
X183469985Y-163906526D01*
X183472408Y-163942019D01*
X183474785Y-163972082D01*
X183477084Y-163996402D01*
X183479272Y-164014666D01*
X183481317Y-164026561D01*
X183483185Y-164031775D01*
X183485446Y-164032737D01*
X183493286Y-164035331D01*
X183505298Y-164039006D01*
X183520018Y-164043303D01*
X183530196Y-164046387D01*
X183545539Y-164051676D01*
X183558136Y-164056779D01*
X183565970Y-164060921D01*
X183567033Y-164061689D01*
X183573129Y-164067326D01*
X183575859Y-164074124D01*
X183576488Y-164084978D01*
X183576439Y-164089553D01*
X183575391Y-164098124D01*
X183571899Y-164103478D01*
X183564567Y-164108355D01*
X183562953Y-164109209D01*
X183560990Y-164110004D01*
X183558394Y-164110725D01*
X183554845Y-164111375D01*
X183550026Y-164111959D01*
X183543618Y-164112479D01*
X183535303Y-164112940D01*
X183524764Y-164113345D01*
X183511681Y-164113698D01*
X183495737Y-164114002D01*
X183476614Y-164114260D01*
X183453993Y-164114478D01*
X183427557Y-164114657D01*
X183396987Y-164114802D01*
X183361964Y-164114917D01*
X183322172Y-164115005D01*
X183277291Y-164115069D01*
X183227004Y-164115113D01*
X183170992Y-164115141D01*
X183108938Y-164115157D01*
X183040522Y-164115164D01*
X182965428Y-164115165D01*
X182378210Y-164115165D01*
X182367369Y-164107433D01*
X182356529Y-164099700D01*
X182354453Y-164053204D01*
X182353434Y-164036287D01*
X182350620Y-164006503D01*
X182346647Y-163975870D01*
X182341816Y-163946349D01*
X182336427Y-163919903D01*
X182330868Y-163898830D01*
X182397945Y-163898830D01*
X182399091Y-163905776D01*
X182400874Y-163913205D01*
X182404948Y-163933299D01*
X182409111Y-163957447D01*
X182413054Y-163983655D01*
X182416467Y-164009930D01*
X182419042Y-164034279D01*
X182423187Y-164080179D01*
X182964557Y-164080179D01*
X182992505Y-164080178D01*
X183052622Y-164080173D01*
X183110630Y-164080161D01*
X183166153Y-164080143D01*
X183218815Y-164080121D01*
X183268240Y-164080093D01*
X183314051Y-164080061D01*
X183355873Y-164080025D01*
X183393330Y-164079985D01*
X183426046Y-164079942D01*
X183453645Y-164079896D01*
X183475750Y-164079846D01*
X183491986Y-164079794D01*
X183501977Y-164079740D01*
X183505347Y-164079685D01*
X183504872Y-164079498D01*
X183499558Y-164077879D01*
X183489656Y-164075027D01*
X183476777Y-164071409D01*
X183469412Y-164069304D01*
X183448917Y-164062517D01*
X183434320Y-164055830D01*
X183424801Y-164048804D01*
X183419535Y-164041004D01*
X183418181Y-164037176D01*
X183415883Y-164027831D01*
X183413719Y-164014856D01*
X183411632Y-163997691D01*
X183409566Y-163975775D01*
X183407465Y-163948547D01*
X183405272Y-163915447D01*
X183402930Y-163875913D01*
X183402218Y-163862925D01*
X183401120Y-163840424D01*
X183400225Y-163817931D01*
X183399525Y-163794668D01*
X183399011Y-163769857D01*
X183398674Y-163742719D01*
X183398507Y-163712476D01*
X183398501Y-163678350D01*
X183398648Y-163639562D01*
X183398939Y-163595335D01*
X183399367Y-163544890D01*
X183399673Y-163512344D01*
X183400147Y-163467335D01*
X183400647Y-163428484D01*
X183401203Y-163395282D01*
X183401848Y-163367219D01*
X183402612Y-163343784D01*
X183403528Y-163324468D01*
X183404626Y-163308761D01*
X183405939Y-163296154D01*
X183407496Y-163286136D01*
X183409331Y-163278197D01*
X183411474Y-163271828D01*
X183413957Y-163266518D01*
X183416811Y-163261759D01*
X183419895Y-163257593D01*
X183429666Y-163248744D01*
X183443209Y-163241504D01*
X183461161Y-163235694D01*
X183484161Y-163231134D01*
X183512846Y-163227647D01*
X183547854Y-163225054D01*
X183558092Y-163224442D01*
X183575428Y-163223288D01*
X183589481Y-163222198D01*
X183599017Y-163221273D01*
X183602800Y-163220612D01*
X183600549Y-163220487D01*
X183591731Y-163220341D01*
X183576586Y-163220201D01*
X183555479Y-163220066D01*
X183528777Y-163219938D01*
X183496844Y-163219818D01*
X183460048Y-163219707D01*
X183418753Y-163219605D01*
X183373327Y-163219514D01*
X183324134Y-163219434D01*
X183271541Y-163219366D01*
X183215913Y-163219312D01*
X183157617Y-163219271D01*
X183097018Y-163219246D01*
X183034483Y-163219236D01*
X182464803Y-163219223D01*
X182471497Y-163238613D01*
X182473423Y-163244719D01*
X182477642Y-163260535D01*
X182482296Y-163280372D01*
X182486989Y-163302340D01*
X182491325Y-163324543D01*
X182494907Y-163345090D01*
X182497339Y-163362087D01*
X182498379Y-163369332D01*
X182501054Y-163379034D01*
X182504563Y-163382204D01*
X182504988Y-163382179D01*
X182508324Y-163378584D01*
X182509408Y-163368668D01*
X182509656Y-163362738D01*
X182511218Y-163347990D01*
X182513864Y-163330167D01*
X182517185Y-163311661D01*
X182520771Y-163294865D01*
X182524213Y-163282172D01*
X182525920Y-163277281D01*
X182528764Y-163272101D01*
X182533411Y-163268640D01*
X182541539Y-163265825D01*
X182554824Y-163262582D01*
X182579749Y-163257677D01*
X182612504Y-163252891D01*
X182650786Y-163248618D01*
X182693844Y-163244892D01*
X182740925Y-163241744D01*
X182791275Y-163239206D01*
X182844144Y-163237311D01*
X182898778Y-163236090D01*
X182954425Y-163235574D01*
X183010332Y-163235797D01*
X183065747Y-163236790D01*
X183119918Y-163238584D01*
X183129689Y-163238991D01*
X183155239Y-163240077D01*
X183178097Y-163241080D01*
X183197403Y-163241960D01*
X183212298Y-163242678D01*
X183221921Y-163243194D01*
X183225413Y-163243469D01*
X183225607Y-163244431D01*
X183226151Y-163251204D01*
X183226859Y-163263721D01*
X183227699Y-163281138D01*
X183228638Y-163302611D01*
X183229645Y-163327296D01*
X183230687Y-163354349D01*
X183231732Y-163382925D01*
X183232748Y-163412180D01*
X183233704Y-163441270D01*
X183234566Y-163469351D01*
X183235304Y-163495579D01*
X183235885Y-163519110D01*
X183238211Y-163622779D01*
X183130083Y-163625424D01*
X183101401Y-163625997D01*
X183065720Y-163626427D01*
X183027813Y-163626630D01*
X182988603Y-163626617D01*
X182949012Y-163626402D01*
X182909963Y-163625996D01*
X182872376Y-163625411D01*
X182837176Y-163624660D01*
X182805283Y-163623755D01*
X182777620Y-163622709D01*
X182755109Y-163621532D01*
X182738672Y-163620239D01*
X182718216Y-163617823D01*
X182700698Y-163614781D01*
X182687596Y-163610996D01*
X182677546Y-163606061D01*
X182669184Y-163599571D01*
X182668569Y-163598994D01*
X182660497Y-163589591D01*
X182654421Y-163577967D01*
X182649697Y-163562529D01*
X182645676Y-163541687D01*
X182645195Y-163538789D01*
X182642850Y-163526774D01*
X182640636Y-163518337D01*
X182638976Y-163515152D01*
X182638965Y-163515153D01*
X182638414Y-163518652D01*
X182637907Y-163528358D01*
X182637460Y-163543495D01*
X182637086Y-163563288D01*
X182636801Y-163586962D01*
X182636619Y-163613742D01*
X182636556Y-163642851D01*
X182636556Y-163643441D01*
X182636631Y-163672512D01*
X182636842Y-163699238D01*
X182637169Y-163722843D01*
X182637598Y-163742553D01*
X182638111Y-163757590D01*
X182638690Y-163767182D01*
X182639321Y-163770551D01*
X182640228Y-163769972D01*
X182642977Y-163764689D01*
X182645787Y-163755682D01*
X182648822Y-163743593D01*
X182654326Y-163722570D01*
X182658918Y-163706846D01*
X182662996Y-163695379D01*
X182666957Y-163687127D01*
X182671199Y-163681046D01*
X182676119Y-163676096D01*
X182680949Y-163672299D01*
X182694105Y-163665123D01*
X182711354Y-163659493D01*
X182733651Y-163655140D01*
X182761950Y-163651791D01*
X182784142Y-163650100D01*
X182814197Y-163648510D01*
X182849348Y-163647207D01*
X182888604Y-163646204D01*
X182930974Y-163645519D01*
X182975467Y-163645166D01*
X183021094Y-163645162D01*
X183066864Y-163645522D01*
X183111785Y-163646261D01*
X183236600Y-163648902D01*
X183239485Y-163675615D01*
X183239787Y-163679019D01*
X183240478Y-163692163D01*
X183241057Y-163710962D01*
X183241526Y-163734455D01*
X183241883Y-163761677D01*
X183242129Y-163791667D01*
X183242265Y-163823460D01*
X183242291Y-163856095D01*
X183242206Y-163888609D01*
X183242012Y-163920038D01*
X183241707Y-163949420D01*
X183241294Y-163975792D01*
X183240771Y-163998191D01*
X183240139Y-164015654D01*
X183239399Y-164027219D01*
X183236428Y-164058226D01*
X182933269Y-164056504D01*
X182894376Y-164056277D01*
X182841891Y-164055935D01*
X182795531Y-164055570D01*
X182754771Y-164055160D01*
X182719092Y-164054684D01*
X182687968Y-164054118D01*
X182660879Y-164053441D01*
X182637301Y-164052630D01*
X182616713Y-164051664D01*
X182598590Y-164050521D01*
X182582412Y-164049178D01*
X182567655Y-164047613D01*
X182553797Y-164045804D01*
X182540315Y-164043729D01*
X182526687Y-164041366D01*
X182512391Y-164038692D01*
X182472932Y-164031134D01*
X182463248Y-164015423D01*
X182461319Y-164012101D01*
X182455438Y-164000924D01*
X182447880Y-163985629D01*
X182439415Y-163967790D01*
X182430809Y-163948981D01*
X182429316Y-163945668D01*
X182419901Y-163925633D01*
X182412055Y-163910479D01*
X182406082Y-163900760D01*
X182402287Y-163897030D01*
X182400015Y-163896765D01*
X182397945Y-163898830D01*
X182330868Y-163898830D01*
X182330779Y-163898492D01*
X182327780Y-163888502D01*
X182325567Y-163880326D01*
X182324997Y-163876965D01*
X182326002Y-163876386D01*
X182331656Y-163873426D01*
X182340460Y-163868943D01*
X182345453Y-163866631D01*
X182353444Y-163864036D01*
X182363193Y-163862477D01*
X182376444Y-163861716D01*
X182394940Y-163861515D01*
X182413259Y-163861847D01*
X182435138Y-163863596D01*
X182450183Y-163866847D01*
X182450801Y-163867060D01*
X182459180Y-163870485D01*
X182464727Y-163874840D01*
X182469117Y-163882030D01*
X182474024Y-163893961D01*
X182474394Y-163894918D01*
X182479390Y-163907037D01*
X182486449Y-163923246D01*
X182494683Y-163941542D01*
X182503207Y-163959923D01*
X182524042Y-164004102D01*
X182549087Y-164008054D01*
X182552719Y-164008620D01*
X182566230Y-164010584D01*
X182579957Y-164012308D01*
X182594465Y-164013811D01*
X182610320Y-164015115D01*
X182628085Y-164016241D01*
X182648327Y-164017210D01*
X182671610Y-164018042D01*
X182698500Y-164018760D01*
X182729561Y-164019384D01*
X182765360Y-164019934D01*
X182806460Y-164020433D01*
X182853427Y-164020901D01*
X182906826Y-164021358D01*
X183173046Y-164023513D01*
X183175315Y-164004615D01*
X183175674Y-164000149D01*
X183176172Y-163988167D01*
X183176593Y-163970919D01*
X183176937Y-163949350D01*
X183177202Y-163924402D01*
X183177389Y-163897019D01*
X183177497Y-163868144D01*
X183177526Y-163838720D01*
X183177475Y-163809690D01*
X183177344Y-163781998D01*
X183177131Y-163756587D01*
X183176838Y-163734399D01*
X183176463Y-163716379D01*
X183176006Y-163703469D01*
X183175466Y-163696613D01*
X183173363Y-163683900D01*
X183066172Y-163681485D01*
X183057201Y-163681302D01*
X183026409Y-163680927D01*
X182993373Y-163680857D01*
X182959016Y-163681066D01*
X182924263Y-163681530D01*
X182890038Y-163682225D01*
X182857264Y-163683127D01*
X182826867Y-163684212D01*
X182799770Y-163685454D01*
X182776897Y-163686830D01*
X182759173Y-163688315D01*
X182747522Y-163689885D01*
X182743386Y-163690844D01*
X182733715Y-163694378D01*
X182727966Y-163698382D01*
X182727817Y-163698605D01*
X182725422Y-163704525D01*
X182722026Y-163715645D01*
X182718059Y-163730457D01*
X182713951Y-163747453D01*
X182713621Y-163748891D01*
X182709521Y-163766431D01*
X182706332Y-163778525D01*
X182703473Y-163786465D01*
X182700360Y-163791543D01*
X182696412Y-163795051D01*
X182691047Y-163798282D01*
X182682501Y-163801492D01*
X182667327Y-163804287D01*
X182648907Y-163805792D01*
X182629248Y-163805998D01*
X182610356Y-163804896D01*
X182594239Y-163802479D01*
X182582903Y-163798738D01*
X182570681Y-163792232D01*
X182570516Y-163641788D01*
X182570351Y-163491343D01*
X182585455Y-163484005D01*
X182588368Y-163482653D01*
X182596822Y-163479649D01*
X182606686Y-163477831D01*
X182619818Y-163476942D01*
X182638076Y-163476724D01*
X182650470Y-163476822D01*
X182664443Y-163477385D01*
X182674409Y-163478694D01*
X182682160Y-163481024D01*
X182689488Y-163484652D01*
X182690745Y-163485358D01*
X182695761Y-163488228D01*
X182699412Y-163491085D01*
X182702127Y-163495081D01*
X182704337Y-163501365D01*
X182706474Y-163511089D01*
X182708967Y-163525402D01*
X182712248Y-163545455D01*
X182712304Y-163545801D01*
X182715019Y-163560846D01*
X182718200Y-163571135D01*
X182723148Y-163577740D01*
X182731164Y-163581735D01*
X182743550Y-163584194D01*
X182761605Y-163586190D01*
X182768258Y-163586656D01*
X182781854Y-163587224D01*
X182800469Y-163587759D01*
X182823353Y-163588254D01*
X182849753Y-163588706D01*
X182878920Y-163589111D01*
X182910103Y-163589463D01*
X182942549Y-163589759D01*
X182975509Y-163589994D01*
X183008231Y-163590163D01*
X183039965Y-163590262D01*
X183069959Y-163590287D01*
X183097463Y-163590233D01*
X183121725Y-163590095D01*
X183141994Y-163589870D01*
X183157520Y-163589553D01*
X183167552Y-163589138D01*
X183171338Y-163588623D01*
X183171571Y-163586166D01*
X183171658Y-163577264D01*
X183171515Y-163562497D01*
X183171158Y-163542498D01*
X183170603Y-163517904D01*
X183169864Y-163489350D01*
X183168959Y-163457472D01*
X183167903Y-163422906D01*
X183166711Y-163386286D01*
X183165399Y-163348250D01*
X183162892Y-163277560D01*
X183146653Y-163275007D01*
X183145569Y-163274857D01*
X183135735Y-163274121D01*
X183119897Y-163273521D01*
X183098894Y-163273053D01*
X183073563Y-163272715D01*
X183044742Y-163272502D01*
X183013271Y-163272413D01*
X182979988Y-163272442D01*
X182945730Y-163272588D01*
X182911336Y-163272847D01*
X182877645Y-163273215D01*
X182845494Y-163273689D01*
X182815722Y-163274266D01*
X182789168Y-163274942D01*
X182766669Y-163275715D01*
X182749064Y-163276580D01*
X182721947Y-163278401D01*
X182693390Y-163280656D01*
X182666527Y-163283110D01*
X182642239Y-163285661D01*
X182621410Y-163288209D01*
X182604920Y-163290655D01*
X182593653Y-163292898D01*
X182588489Y-163294837D01*
X182586250Y-163298929D01*
X182583322Y-163309132D01*
X182580570Y-163323367D01*
X182578259Y-163339971D01*
X182576652Y-163357281D01*
X182576011Y-163373635D01*
X182575882Y-163401801D01*
X182560045Y-163409496D01*
X182552567Y-163412729D01*
X182544439Y-163415016D01*
X182534392Y-163416373D01*
X182520733Y-163417023D01*
X182501773Y-163417190D01*
X182490408Y-163417164D01*
X182475700Y-163416897D01*
X182465606Y-163416142D01*
X182458623Y-163414656D01*
X182453247Y-163412198D01*
X182447977Y-163408524D01*
X182447659Y-163408280D01*
X182440540Y-163401543D01*
X182436563Y-163393541D01*
X182434280Y-163381410D01*
X182432657Y-163369115D01*
X182426992Y-163332317D01*
X182420523Y-163298065D01*
X182413497Y-163267471D01*
X182406161Y-163241647D01*
X182398763Y-163221707D01*
X182395177Y-163213334D01*
X182391771Y-163204687D01*
X182390455Y-163200316D01*
X182390983Y-163199251D01*
X182395651Y-163194915D01*
X182403575Y-163189290D01*
X182416695Y-163180852D01*
X182761309Y-163182692D01*
X182788759Y-163182829D01*
X182846957Y-163183062D01*
X182908136Y-163183240D01*
X182971186Y-163183361D01*
X183034998Y-163183427D01*
X183098466Y-163183437D01*
X183160479Y-163183392D01*
X183219929Y-163183291D01*
X183275709Y-163183134D01*
X183326708Y-163182922D01*
X183371819Y-163182654D01*
X183397733Y-163182473D01*
X183443896Y-163182161D01*
X183483805Y-163181918D01*
X183517952Y-163181752D01*
X183546831Y-163181673D01*
X183570935Y-163181689D01*
X183590756Y-163181807D01*
X183606789Y-163182036D01*
X183619525Y-163182385D01*
X183629458Y-163182862D01*
X183637081Y-163183475D01*
X183642887Y-163184233D01*
X183647369Y-163185144D01*
X183651019Y-163186216D01*
X183654332Y-163187459D01*
X183670951Y-163194140D01*
X183670951Y-163218128D01*
X183670951Y-163220612D01*
X183670951Y-163242117D01*
G37*
G36*
X178338339Y-163222194D02*
G01*
X178338223Y-163224548D01*
X178337350Y-163235646D01*
X178335416Y-163242322D01*
X178331330Y-163246789D01*
X178324000Y-163251263D01*
X178320291Y-163253179D01*
X178314607Y-163255347D01*
X178307430Y-163256990D01*
X178297660Y-163258236D01*
X178284196Y-163259214D01*
X178265937Y-163260053D01*
X178241782Y-163260882D01*
X178215667Y-163261826D01*
X178192681Y-163263029D01*
X178174876Y-163264539D01*
X178161298Y-163266497D01*
X178150995Y-163269044D01*
X178143013Y-163272320D01*
X178136401Y-163276466D01*
X178135938Y-163276809D01*
X178132787Y-163279268D01*
X178130054Y-163281957D01*
X178127708Y-163285360D01*
X178125721Y-163289960D01*
X178124061Y-163296241D01*
X178122698Y-163304686D01*
X178121602Y-163315778D01*
X178120744Y-163330001D01*
X178120092Y-163347838D01*
X178119617Y-163369772D01*
X178119288Y-163396287D01*
X178119076Y-163427865D01*
X178118949Y-163464991D01*
X178118879Y-163508148D01*
X178118834Y-163557818D01*
X178118842Y-163599368D01*
X178119072Y-163670320D01*
X178119586Y-163734462D01*
X178120389Y-163791910D01*
X178121484Y-163842780D01*
X178122878Y-163887189D01*
X178124575Y-163925255D01*
X178126579Y-163957094D01*
X178128896Y-163982823D01*
X178131530Y-164002560D01*
X178134485Y-164016420D01*
X178137767Y-164024521D01*
X178139152Y-164026457D01*
X178142545Y-164029730D01*
X178147479Y-164032249D01*
X178154864Y-164034155D01*
X178165609Y-164035591D01*
X178180623Y-164036700D01*
X178200815Y-164037624D01*
X178227094Y-164038504D01*
X178247158Y-164039192D01*
X178266848Y-164040144D01*
X178281762Y-164041327D01*
X178293135Y-164042877D01*
X178302198Y-164044929D01*
X178310186Y-164047619D01*
X178328554Y-164054752D01*
X178328554Y-164078305D01*
X178328554Y-164101857D01*
X178314335Y-164108269D01*
X178313628Y-164108582D01*
X178310590Y-164109732D01*
X178306869Y-164110727D01*
X178301980Y-164111576D01*
X178295435Y-164112291D01*
X178286751Y-164112881D01*
X178275441Y-164113357D01*
X178261019Y-164113729D01*
X178243000Y-164114008D01*
X178220897Y-164114204D01*
X178194226Y-164114327D01*
X178162501Y-164114388D01*
X178125235Y-164114397D01*
X178081944Y-164114364D01*
X178032141Y-164114301D01*
X178031274Y-164114300D01*
X177979271Y-164114246D01*
X177933822Y-164114205D01*
X177894489Y-164114122D01*
X177860836Y-164113945D01*
X177832427Y-164113619D01*
X177808824Y-164113090D01*
X177789591Y-164112304D01*
X177774291Y-164111209D01*
X177762487Y-164109750D01*
X177753743Y-164107874D01*
X177747622Y-164105526D01*
X177743687Y-164102653D01*
X177741502Y-164099201D01*
X177740629Y-164095116D01*
X177740632Y-164090345D01*
X177741075Y-164084835D01*
X177741520Y-164078530D01*
X177741734Y-164073951D01*
X177742615Y-164063409D01*
X177744602Y-164057050D01*
X177748718Y-164052742D01*
X177755984Y-164048353D01*
X177760093Y-164046237D01*
X177765757Y-164044105D01*
X177772888Y-164042509D01*
X177782592Y-164041322D01*
X177795975Y-164040418D01*
X177814143Y-164039671D01*
X177838201Y-164038953D01*
X177839624Y-164038914D01*
X177861492Y-164038157D01*
X177881492Y-164037198D01*
X177898343Y-164036116D01*
X177910762Y-164034995D01*
X177917466Y-164033914D01*
X177919593Y-164033224D01*
X177923741Y-164031403D01*
X177927402Y-164028765D01*
X177930612Y-164024895D01*
X177933403Y-164019384D01*
X177935807Y-164011818D01*
X177937858Y-164001787D01*
X177939589Y-163988877D01*
X177941032Y-163972678D01*
X177942221Y-163952776D01*
X177943189Y-163928761D01*
X177943969Y-163900220D01*
X177944593Y-163866742D01*
X177945096Y-163827914D01*
X177945509Y-163783325D01*
X177945865Y-163732562D01*
X177946198Y-163675214D01*
X177946301Y-163655682D01*
X177946494Y-163612752D01*
X177946633Y-163572128D01*
X177946719Y-163534331D01*
X177946751Y-163499883D01*
X177946732Y-163469304D01*
X177946661Y-163443117D01*
X177946539Y-163421841D01*
X177946366Y-163405999D01*
X177946144Y-163396111D01*
X177945873Y-163392700D01*
X177945246Y-163393053D01*
X177939806Y-163396573D01*
X177929094Y-163403668D01*
X177913476Y-163414094D01*
X177893317Y-163427603D01*
X177868981Y-163443951D01*
X177840834Y-163462892D01*
X177809241Y-163484180D01*
X177774567Y-163507569D01*
X177737176Y-163532813D01*
X177697435Y-163559667D01*
X177655707Y-163587885D01*
X177612358Y-163617222D01*
X177558903Y-163653393D01*
X177483958Y-163704041D01*
X177412291Y-163752395D01*
X177344130Y-163798303D01*
X177279702Y-163841614D01*
X177219231Y-163882178D01*
X177162946Y-163919841D01*
X177111072Y-163954453D01*
X177063835Y-163985863D01*
X177021462Y-164013919D01*
X176984179Y-164038469D01*
X176952213Y-164059363D01*
X176925789Y-164076448D01*
X176872523Y-164110634D01*
X176801978Y-164119057D01*
X176781245Y-164121622D01*
X176753996Y-164125209D01*
X176726946Y-164128974D01*
X176702348Y-164132602D01*
X176682452Y-164135778D01*
X176674608Y-164137123D01*
X176653688Y-164140776D01*
X176638564Y-164143152D01*
X176628357Y-164143898D01*
X176622185Y-164142659D01*
X176619170Y-164139082D01*
X176618432Y-164132815D01*
X176619091Y-164123503D01*
X176620268Y-164110792D01*
X176620488Y-164106812D01*
X176620855Y-164094722D01*
X176621204Y-164076467D01*
X176621533Y-164052573D01*
X176621837Y-164023566D01*
X176622112Y-163989972D01*
X176622355Y-163952319D01*
X176622563Y-163911131D01*
X176622731Y-163866936D01*
X176622856Y-163820260D01*
X176622934Y-163771629D01*
X176622963Y-163721570D01*
X176622955Y-163667304D01*
X176622907Y-163607381D01*
X176622794Y-163553800D01*
X176622591Y-163506201D01*
X176622275Y-163464224D01*
X176621822Y-163427510D01*
X176621207Y-163395698D01*
X176620407Y-163368430D01*
X176619397Y-163345346D01*
X176618154Y-163326085D01*
X176616653Y-163310289D01*
X176614870Y-163297597D01*
X176612782Y-163287649D01*
X176610364Y-163280087D01*
X176607592Y-163274549D01*
X176604443Y-163270678D01*
X176600892Y-163268112D01*
X176596915Y-163266492D01*
X176592488Y-163265459D01*
X176586348Y-163264756D01*
X176574081Y-163263874D01*
X176557405Y-163262960D01*
X176537679Y-163262087D01*
X176516268Y-163261329D01*
X176512758Y-163261219D01*
X176489744Y-163260382D01*
X176472360Y-163259447D01*
X176459395Y-163258275D01*
X176449640Y-163256727D01*
X176441886Y-163254662D01*
X176434925Y-163251942D01*
X176418306Y-163244562D01*
X176418306Y-163221640D01*
X176484781Y-163221640D01*
X176485763Y-163222081D01*
X176492329Y-163223007D01*
X176504045Y-163223990D01*
X176519713Y-163224938D01*
X176538134Y-163225759D01*
X176552678Y-163226388D01*
X176583913Y-163228546D01*
X176609240Y-163231719D01*
X176629403Y-163236098D01*
X176645148Y-163241872D01*
X176657220Y-163249230D01*
X176666366Y-163258362D01*
X176669313Y-163262484D01*
X176672492Y-163268157D01*
X176675323Y-163275021D01*
X176677825Y-163283461D01*
X176680018Y-163293865D01*
X176681922Y-163306620D01*
X176683556Y-163322113D01*
X176684941Y-163340732D01*
X176686094Y-163362863D01*
X176687037Y-163388894D01*
X176687788Y-163419212D01*
X176688368Y-163454203D01*
X176688795Y-163494256D01*
X176689090Y-163539758D01*
X176689272Y-163591095D01*
X176689361Y-163648654D01*
X176689376Y-163712824D01*
X176689375Y-163717365D01*
X176689331Y-163765073D01*
X176689234Y-163811231D01*
X176689088Y-163855296D01*
X176688898Y-163896723D01*
X176688667Y-163934965D01*
X176688401Y-163969480D01*
X176688102Y-163999721D01*
X176687775Y-164025145D01*
X176687425Y-164045205D01*
X176687055Y-164059359D01*
X176686670Y-164067059D01*
X176684038Y-164095923D01*
X176695490Y-164095429D01*
X176699044Y-164095172D01*
X176709744Y-164094075D01*
X176724899Y-164092316D01*
X176743085Y-164090081D01*
X176762875Y-164087555D01*
X176782844Y-164084925D01*
X176801568Y-164082378D01*
X176817619Y-164080098D01*
X176829573Y-164078272D01*
X176836005Y-164077087D01*
X176838842Y-164075810D01*
X176847804Y-164070661D01*
X176862326Y-164061701D01*
X176882281Y-164049015D01*
X176907541Y-164032688D01*
X176937979Y-164012805D01*
X176973466Y-163989450D01*
X177013875Y-163962709D01*
X177059079Y-163932666D01*
X177108949Y-163899407D01*
X177163359Y-163863015D01*
X177222181Y-163823577D01*
X177285287Y-163781176D01*
X177352549Y-163735898D01*
X177423839Y-163687828D01*
X177499032Y-163637050D01*
X177577997Y-163583649D01*
X177587249Y-163577389D01*
X177636560Y-163544031D01*
X177684229Y-163511800D01*
X177729935Y-163480910D01*
X177773360Y-163451578D01*
X177814185Y-163424019D01*
X177852089Y-163398447D01*
X177886755Y-163375077D01*
X177917862Y-163354126D01*
X177945091Y-163335807D01*
X177968122Y-163320337D01*
X177986638Y-163307929D01*
X178000318Y-163298801D01*
X178008843Y-163293166D01*
X178011894Y-163291240D01*
X178011921Y-163291252D01*
X178012332Y-163295053D01*
X178012686Y-163305215D01*
X178012984Y-163321136D01*
X178013228Y-163342216D01*
X178013419Y-163367854D01*
X178013560Y-163397451D01*
X178013651Y-163430405D01*
X178013695Y-163466116D01*
X178013693Y-163503984D01*
X178013647Y-163543407D01*
X178013557Y-163583786D01*
X178013427Y-163624519D01*
X178013257Y-163665007D01*
X178013049Y-163704648D01*
X178012805Y-163742842D01*
X178012525Y-163778989D01*
X178012213Y-163812488D01*
X178011869Y-163842738D01*
X178011496Y-163869139D01*
X178011094Y-163891091D01*
X178010665Y-163907992D01*
X178010211Y-163919243D01*
X178009589Y-163929890D01*
X178007428Y-163960961D01*
X178004944Y-163986071D01*
X178001906Y-164006016D01*
X177998080Y-164021593D01*
X177993234Y-164033598D01*
X177987136Y-164042828D01*
X177979553Y-164050078D01*
X177970254Y-164056146D01*
X177967743Y-164057493D01*
X177954619Y-164062912D01*
X177938170Y-164067204D01*
X177917483Y-164070525D01*
X177891644Y-164073029D01*
X177859739Y-164074870D01*
X177859293Y-164074890D01*
X177851648Y-164075379D01*
X177850859Y-164075834D01*
X177856791Y-164076255D01*
X177869308Y-164076637D01*
X177888274Y-164076980D01*
X177913554Y-164077280D01*
X177945013Y-164077535D01*
X177982515Y-164077742D01*
X178025923Y-164077900D01*
X178033248Y-164077922D01*
X178071768Y-164078075D01*
X178108238Y-164078283D01*
X178142042Y-164078538D01*
X178172559Y-164078832D01*
X178199172Y-164079158D01*
X178221262Y-164079509D01*
X178238211Y-164079877D01*
X178249399Y-164080255D01*
X178254208Y-164080635D01*
X178259266Y-164081194D01*
X178262080Y-164079360D01*
X178261325Y-164078736D01*
X178255047Y-164077384D01*
X178243233Y-164076080D01*
X178226879Y-164074922D01*
X178206977Y-164074006D01*
X178179794Y-164072692D01*
X178151822Y-164070243D01*
X178129344Y-164066719D01*
X178111550Y-164061945D01*
X178097632Y-164055745D01*
X178086781Y-164047943D01*
X178083514Y-164044880D01*
X178079548Y-164040605D01*
X178076022Y-164035764D01*
X178072908Y-164029954D01*
X178070179Y-164022774D01*
X178067804Y-164013822D01*
X178065757Y-164002696D01*
X178064008Y-163988993D01*
X178062530Y-163972313D01*
X178061294Y-163952252D01*
X178060271Y-163928410D01*
X178059434Y-163900384D01*
X178058753Y-163867772D01*
X178058202Y-163830172D01*
X178057750Y-163787183D01*
X178057370Y-163738403D01*
X178057034Y-163683429D01*
X178056712Y-163621860D01*
X178056544Y-163585918D01*
X178056326Y-163528605D01*
X178056206Y-163477955D01*
X178056186Y-163433754D01*
X178056267Y-163395792D01*
X178056451Y-163363854D01*
X178056738Y-163337728D01*
X178057131Y-163317203D01*
X178057630Y-163302065D01*
X178058238Y-163292102D01*
X178058955Y-163287102D01*
X178059578Y-163285235D01*
X178067559Y-163271733D01*
X178080700Y-163258677D01*
X178097456Y-163247359D01*
X178116284Y-163239073D01*
X178133702Y-163234320D01*
X178163329Y-163229119D01*
X178197494Y-163225881D01*
X178234874Y-163224766D01*
X178247512Y-163224613D01*
X178260486Y-163224063D01*
X178269316Y-163223206D01*
X178272577Y-163222142D01*
X178271842Y-163221912D01*
X178265437Y-163221455D01*
X178252975Y-163221063D01*
X178235100Y-163220739D01*
X178212453Y-163220492D01*
X178185680Y-163220326D01*
X178155422Y-163220248D01*
X178122322Y-163220264D01*
X178087025Y-163220380D01*
X177901472Y-163221242D01*
X177720543Y-163348390D01*
X177696640Y-163365129D01*
X177666470Y-163386139D01*
X177632353Y-163409801D01*
X177594801Y-163435765D01*
X177554323Y-163463683D01*
X177511431Y-163493205D01*
X177466635Y-163523982D01*
X177420446Y-163555667D01*
X177373375Y-163587909D01*
X177325932Y-163620361D01*
X177278628Y-163652673D01*
X177231975Y-163684496D01*
X177186482Y-163715482D01*
X177142660Y-163745282D01*
X177101020Y-163773546D01*
X177062073Y-163799927D01*
X177026330Y-163824075D01*
X176994301Y-163845641D01*
X176966497Y-163864277D01*
X176943429Y-163879633D01*
X176925607Y-163891362D01*
X176921546Y-163893994D01*
X176906433Y-163903634D01*
X176887889Y-163915290D01*
X176866954Y-163928325D01*
X176844668Y-163942100D01*
X176822071Y-163955979D01*
X176800201Y-163969325D01*
X176780100Y-163981500D01*
X176762807Y-163991867D01*
X176749360Y-163999789D01*
X176740801Y-164004628D01*
X176732676Y-164008975D01*
X176734249Y-163680720D01*
X176734330Y-163664388D01*
X176734713Y-163598562D01*
X176735155Y-163539551D01*
X176735656Y-163487380D01*
X176736216Y-163442069D01*
X176736834Y-163403643D01*
X176737509Y-163372123D01*
X176738242Y-163347532D01*
X176739032Y-163329893D01*
X176739879Y-163319229D01*
X176740375Y-163315360D01*
X176745454Y-163288986D01*
X176753061Y-163268514D01*
X176763672Y-163253230D01*
X176777763Y-163242422D01*
X176795811Y-163235374D01*
X176798954Y-163234593D01*
X176815243Y-163231592D01*
X176836035Y-163228920D01*
X176859336Y-163226768D01*
X176883152Y-163225329D01*
X176905489Y-163224795D01*
X176914867Y-163224685D01*
X176927608Y-163224146D01*
X176936353Y-163223259D01*
X176939601Y-163222142D01*
X176939134Y-163221973D01*
X176933307Y-163221530D01*
X176921276Y-163221113D01*
X176903625Y-163220730D01*
X176880932Y-163220388D01*
X176853780Y-163220092D01*
X176822749Y-163219851D01*
X176788419Y-163219671D01*
X176751373Y-163219557D01*
X176712192Y-163219518D01*
X176697581Y-163219522D01*
X176659116Y-163219577D01*
X176623001Y-163219689D01*
X176589816Y-163219854D01*
X176560143Y-163220065D01*
X176534562Y-163220319D01*
X176513654Y-163220608D01*
X176498001Y-163220928D01*
X176488183Y-163221274D01*
X176484781Y-163221640D01*
X176418306Y-163221640D01*
X176418306Y-163221424D01*
X176418304Y-163220794D01*
X176418102Y-163214437D01*
X176417876Y-163208886D01*
X176418065Y-163204085D01*
X176419108Y-163199979D01*
X176421444Y-163196514D01*
X176425511Y-163193635D01*
X176431749Y-163191286D01*
X176440596Y-163189412D01*
X176452491Y-163187960D01*
X176467872Y-163186873D01*
X176487179Y-163186098D01*
X176510851Y-163185578D01*
X176539325Y-163185259D01*
X176573041Y-163185086D01*
X176612437Y-163185005D01*
X176657953Y-163184959D01*
X176710027Y-163184895D01*
X176979835Y-163184448D01*
X176992955Y-163192406D01*
X176993851Y-163192951D01*
X177000788Y-163197638D01*
X177004432Y-163202354D01*
X177005841Y-163209422D01*
X177006075Y-163221164D01*
X177006075Y-163241964D01*
X176991206Y-163250460D01*
X176985913Y-163253278D01*
X176980144Y-163255581D01*
X176973152Y-163257287D01*
X176963782Y-163258548D01*
X176950880Y-163259517D01*
X176933292Y-163260346D01*
X176909863Y-163261186D01*
X176890232Y-163261877D01*
X176867309Y-163262851D01*
X176849911Y-163263915D01*
X176837169Y-163265197D01*
X176828214Y-163266824D01*
X176822179Y-163268923D01*
X176818195Y-163271621D01*
X176815393Y-163275048D01*
X176813444Y-163279056D01*
X176809985Y-163292035D01*
X176806915Y-163311869D01*
X176804238Y-163338472D01*
X176801957Y-163371756D01*
X176800077Y-163411636D01*
X176798601Y-163458024D01*
X176797532Y-163510834D01*
X176796875Y-163569980D01*
X176796633Y-163635374D01*
X176796810Y-163706930D01*
X176797907Y-163917951D01*
X176852135Y-163883436D01*
X176854282Y-163882066D01*
X176871075Y-163871174D01*
X176893077Y-163856674D01*
X176919815Y-163838887D01*
X176950818Y-163818135D01*
X176985614Y-163794740D01*
X177023733Y-163769023D01*
X177064701Y-163741306D01*
X177108048Y-163711910D01*
X177153302Y-163681158D01*
X177199990Y-163649371D01*
X177247643Y-163616870D01*
X177295787Y-163583977D01*
X177343951Y-163551014D01*
X177391664Y-163518303D01*
X177438454Y-163486164D01*
X177483849Y-163454920D01*
X177527377Y-163424893D01*
X177568568Y-163396404D01*
X177606948Y-163369774D01*
X177642048Y-163345326D01*
X177673394Y-163323380D01*
X177870148Y-163185196D01*
X178091479Y-163184608D01*
X178312810Y-163184019D01*
X178326093Y-163192294D01*
X178339376Y-163200569D01*
X178338341Y-163222142D01*
X178338339Y-163222194D01*
G37*
%TO.C,R4*%
X82580000Y-55545000D02*
X82580000Y-54775000D01*
X81210000Y-54775000D02*
X81210000Y-48235000D01*
X83950000Y-54775000D02*
X81210000Y-54775000D01*
X81210000Y-48235000D02*
X83950000Y-48235000D01*
X83950000Y-48235000D02*
X83950000Y-54775000D01*
X82580000Y-47465000D02*
X82580000Y-48235000D01*
%TO.C,R8*%
X152430000Y-55545000D02*
X152430000Y-54775000D01*
X151060000Y-54775000D02*
X151060000Y-48235000D01*
X153800000Y-54775000D02*
X151060000Y-54775000D01*
X151060000Y-48235000D02*
X153800000Y-48235000D01*
X153800000Y-48235000D02*
X153800000Y-54775000D01*
X152430000Y-47465000D02*
X152430000Y-48235000D01*
%TO.C,OPT1*%
X35655000Y-88410000D02*
X30455000Y-88410000D01*
X35655000Y-83270000D02*
X35655000Y-88410000D01*
X35655000Y-83270000D02*
X33055000Y-83270000D01*
X35655000Y-82000000D02*
X35655000Y-80670000D01*
X35655000Y-80670000D02*
X34325000Y-80670000D01*
X33055000Y-83270000D02*
X33055000Y-80670000D01*
X33055000Y-80670000D02*
X30455000Y-80670000D01*
X30455000Y-80670000D02*
X30455000Y-88410000D01*
%TO.C,R9*%
X39400000Y-132555000D02*
X39400000Y-133325000D01*
X40770000Y-133325000D02*
X40770000Y-139865000D01*
X38030000Y-133325000D02*
X40770000Y-133325000D01*
X40770000Y-139865000D02*
X38030000Y-139865000D01*
X38030000Y-139865000D02*
X38030000Y-133325000D01*
X39400000Y-140635000D02*
X39400000Y-139865000D01*
%TO.C,OPT-IND*%
X35650000Y-104905000D02*
X32990000Y-104905000D01*
X35650000Y-99765000D02*
X35650000Y-104905000D01*
X35650000Y-99765000D02*
X32990000Y-99765000D01*
X35650000Y-98495000D02*
X35650000Y-97165000D01*
X35650000Y-97165000D02*
X34320000Y-97165000D01*
X32990000Y-99765000D02*
X32990000Y-104905000D01*
%TO.C,R15*%
X118394000Y-132555000D02*
X118394000Y-133325000D01*
X119764000Y-133325000D02*
X119764000Y-139865000D01*
X117024000Y-133325000D02*
X119764000Y-133325000D01*
X119764000Y-139865000D02*
X117024000Y-139865000D01*
X117024000Y-139865000D02*
X117024000Y-133325000D01*
X118394000Y-140635000D02*
X118394000Y-139865000D01*
%TO.C,R1*%
X67340000Y-55545000D02*
X67340000Y-54775000D01*
X65970000Y-54775000D02*
X65970000Y-48235000D01*
X68710000Y-54775000D02*
X65970000Y-54775000D01*
X65970000Y-48235000D02*
X68710000Y-48235000D01*
X68710000Y-48235000D02*
X68710000Y-54775000D01*
X67340000Y-47465000D02*
X67340000Y-48235000D01*
%TD*%
M02*
